M48
; DRILL file {KiCad (5.1.4-0-10_14)} date Wednesday, April 29, 2020 at 09:47:17 AM
; FORMAT={-:-/ absolute / inch / decimal}
; #@! TF.CreationDate,2020-04-29T09:47:17-07:00
; #@! TF.GenerationSoftware,Kicad,Pcbnew,(5.1.4-0-10_14)
; #@! TF.FileFunction,Plated,1,2,PTH
FMAT,2
INCH
T1C0.0118
T2C0.0295
T3C0.0394
T4C0.0433
T5C0.0657
T6C0.0669
T7C0.0689
T8C0.0728
T9C0.0787
T10C0.1575
%
G90
G05
T1
X2.1403Y-3.165
X2.146Y-3.965
X2.148Y-3.598
X2.2301Y-3.361
X2.3631Y-4.87
X2.394Y-3.8744
X2.394Y-3.965
X2.3951Y-1.35
X2.396Y-3.598
X2.464Y-2.421
X2.464Y-2.5526
X2.489Y-1.566
X2.4984Y-3.1276
X2.5399Y-2.7365
X2.541Y-4.644
X2.55Y-4.773
X2.5655Y-2.7365
X2.578Y-4.643
X2.5855Y-2.7704
X2.613Y-4.641
X2.6459Y-1.568
X2.649Y-3.84
X2.6519Y-3.972
X2.653Y-4.643
X2.6566Y-2.792
X2.6808Y-1.247
X2.732Y-1.247
X2.7494Y-2.45
X2.757Y-1.182
X2.791Y-3.113
X2.8255Y-3.972
X2.8365Y-2.7394
X2.853Y-3.058
X2.853Y-3.14
X2.8599Y-2.1391
X2.875Y-3.283
X2.8876Y-4.3717
X2.895Y-2.946
X2.9234Y-2.0839
X2.947Y-2.2604
X2.962Y-2.062
X3.039Y-1.782
X3.0984Y-1.991
X3.1432Y-1.568
X3.175Y-2.0839
X3.175Y-2.2443
X3.194Y-2.673
X3.199Y-2.7172
X3.203Y-1.779
X3.2099Y-2.6178
X3.231Y-2.6492
X3.2451Y-1.35
X3.25Y-2.5169
X3.258Y-2.375
X3.26Y-2.6766
X3.261Y-2.6265
X3.289Y-2.401
X3.2926Y-2.747
X3.355Y-2.1647
X3.375Y-2.2892
X3.376Y-2.239
X3.377Y-1.566
X3.378Y-3.16
X3.379Y-3.402
X3.3875Y-2.1373
X3.391Y-3.053
X3.395Y-3.325
X3.398Y-2.167
X3.4128Y-3.1902
X3.4148Y-3.076
X3.422Y-3.241
X3.4319Y-2.4378
X3.4385Y-3.103
X3.4512Y-2.4128
X3.474Y-2.193
X3.4774Y-2.6139
X3.478Y-2.547
X3.4795Y-2.1404
X3.487Y-2.5785
X3.4889Y-2.5168
X3.492Y-1.212
X3.505Y-1.383
X3.5051Y-3.397
X3.5055Y-2.1925
X3.5093Y-2.3213
X3.51Y-3.174
X3.5316Y-2.5199
X3.5539Y-2.086
X3.563Y-1.427
X3.5631Y-2.5181
X3.5669Y-2.85
X3.5669Y-2.99
X3.6Y-2.2656
X3.6008Y-1.8688
X3.6263Y-1.8433
X3.636Y-1.256
X3.6471Y-1.8985
X3.657Y-2.193
X3.6664Y-1.8736
X3.6679Y-1.672
X3.69Y-2.85
X3.696Y-1.85
X3.7169Y-2.12
X3.721Y-1.964
X3.774Y-3.217
X3.7854Y-3.334
X3.8124Y-3.3576
X3.8199Y-1.554
X3.82Y-2.905
X3.8203Y-2.0273
X3.8244Y-2.4585
X3.858Y-2.697
X3.862Y-3.383
X3.863Y-2.066
X3.8686Y-2.9378
X3.883Y-1.899
X3.899Y-2.667
X3.9019Y-2.9531
X3.9042Y-2.8948
X3.915Y-1.9657
X3.915Y-2.0626
X3.9362Y-2.9162
X3.937Y-2.245
X3.9463Y-1.9626
X3.95Y-2.0466
X3.953Y-2.4431
X3.953Y-2.5169
X3.9598Y-2.863
X3.967Y-2.262
X3.9722Y-3.334
X3.974Y-4.644
X3.9861Y-2.2871
X3.9886Y-1.85
X3.9931Y-1.95
X3.9987Y-2.5887
X4.0149Y-2.3719
X4.0169Y-4.75
X4.026Y-2.2841
X4.027Y-2.321
X4.028Y-2.461
X4.0393Y-2.588
X4.0629Y-2.4935
X4.0714Y-2.4174
X4.0724Y-4.141
X4.0746Y-2.3322
X4.0865Y-2.589
X4.0951Y-1.35
X4.0951Y-4.681
X4.105Y-2.446
X4.105Y-3.3104
X4.1054Y-2.3389
X4.1369Y-1.575
X4.145Y-2.098
X4.145Y-2.4406
X4.152Y-4.143
X4.178Y-2.4406
X4.1896Y-4.705
X4.206Y-2.4642
X4.231Y-2.444
X4.238Y-2.886
X4.239Y-4.314
X4.2578Y-1.8422
X4.289Y-1.8763
X4.3322Y-1.8498
X4.4028Y-1.625
X4.4028Y-1.675
X4.53Y-4.5569
X4.53Y-4.6531
X4.569Y-2.307
X4.625Y-3.162
X4.6526Y-1.975
X4.6879Y-2.596
X4.691Y-2.0786
X4.6959Y-2.771
X4.6959Y-2.945
X4.72Y-1.9264
X4.758Y-4.733
X4.77Y-1.876
X4.8024Y-2.4506
X4.95Y-1.6369
X4.95Y-3.0
X4.9531Y-2.51
X4.97Y-1.9069
X4.975Y-3.225
X4.983Y-2.431
X4.9986Y-3.198
X5.016Y-1.745
X5.018Y-1.918
X5.024Y-2.108
X5.024Y-3.178
X5.038Y-4.516
X5.039Y-1.803
X5.0413Y-4.5633
X5.0696Y-4.5101
X5.0753Y-4.6313
X5.0965Y-4.4892
X5.1026Y-1.55
X5.1128Y-2.5631
X5.1166Y-4.4341
X5.124Y-4.625
X5.1478Y-4.5588
X5.1826Y-2.415
X5.1826Y-2.465
X5.1826Y-2.515
X5.2087Y-4.25
X5.2224Y-4.3642
X5.2874Y-1.25
X5.2974Y-1.55
X5.2987Y-4.3243
X5.311Y-2.248
X5.3263Y-4.0315
X5.3297Y-4.1732
X5.34Y-4.41
X5.3613Y-4.3844
X5.3642Y-4.5689
X5.3642Y-4.7146
X5.3724Y-3.393
X5.375Y-3.425
X5.377Y-3.36
X5.3774Y-2.415
X5.3976Y-4.3484
X5.4169Y-1.4769
X5.4937Y-4.289
X5.4976Y-4.1748
X5.4976Y-4.5252
X5.53Y-1.89
X5.6803Y-2.4394
X5.7122Y-4.1748
X5.7122Y-4.5252
T2
X5.63Y-3.8713
X5.63Y-3.95
T3
X3.79Y-4.87
X3.89Y-4.87
X3.99Y-4.87
X5.8Y-3.35
X5.8Y-3.45
X5.8Y-3.55
X5.8Y-3.65
X5.75Y-1.55
X5.75Y-1.65
X5.75Y-1.75
X5.75Y-1.85
X5.75Y-1.95
X4.7Y-4.87
X4.8Y-4.87
X4.9Y-4.87
X3.4Y-4.77
X3.4Y-4.87
X3.5Y-4.77
X3.5Y-4.87
X3.6Y-4.77
X3.6Y-4.87
X3.35Y-4.31
X5.1Y-4.87
X5.2Y-4.87
X5.3Y-4.87
X3.6492Y-4.31
X5.4Y-4.87
X4.29Y-4.87
X4.39Y-4.87
X4.49Y-4.87
X5.2Y-2.75
X5.2Y-2.85
X5.2Y-3.15
X5.4Y-2.75
X5.4Y-2.85
X5.4Y-3.15
X5.14Y-3.92
X5.14Y-4.02
T4
X3.902Y-3.2137
X3.902Y-3.7846
X4.0004Y-3.2137
X4.0988Y-3.2137
X4.0988Y-3.7846
X2.902Y-3.2137
X2.902Y-3.7846
X3.0004Y-3.2137
X3.0988Y-3.2137
X3.0988Y-3.7846
T5
X4.463Y-2.151
X4.613Y-2.151
X4.763Y-2.151
X4.913Y-2.151
T6
X5.7Y-2.8382
X5.7Y-2.9941
X5.7Y-3.15
T7
X2.2Y-4.3
X2.2Y-2.225
X2.2Y-4.4528
X2.2Y-2.3778
X2.199Y-2.734
X2.199Y-2.8868
X2.2Y-1.725
X2.2Y-1.8778
T8
X5.0024Y-3.325
X5.0024Y-3.51
X5.0024Y-3.6951
T10
X4.575Y-1.625
T9
G00X3.776Y-3.4933
M15
G01X3.776Y-3.5247
M16
G05
G00X4.2248Y-3.4933
M15
G01X4.2248Y-3.5247
M16
G05
G00X2.776Y-3.4933
M15
G01X2.776Y-3.5247
M16
G05
G00X3.2248Y-3.4933
M15
G01X3.2248Y-3.5247
M16
G05
T0
M30
