G04 #@! TF.GenerationSoftware,KiCad,Pcbnew,(5.1.4-0-10_14)*
G04 #@! TF.CreationDate,2020-04-29T09:46:46-07:00*
G04 #@! TF.ProjectId,Vent,56656e74-2e6b-4696-9361-645f70636258,rev?*
G04 #@! TF.SameCoordinates,Original*
G04 #@! TF.FileFunction,Other,Fab,Bot*
%FSLAX46Y46*%
G04 Gerber Fmt 4.6, Leading zero omitted, Abs format (unit mm)*
G04 Created by KiCad (PCBNEW (5.1.4-0-10_14)) date 2020-04-29 09:46:46*
%MOMM*%
%LPD*%
G04 APERTURE LIST*
%ADD10C,0.100000*%
%ADD11C,0.150000*%
G04 APERTURE END LIST*
D10*
X107860000Y-95828600D02*
X107860000Y-82428600D01*
X95360000Y-95828600D02*
X95360000Y-82428600D01*
X95360000Y-82428600D02*
X107860000Y-82428600D01*
X95360000Y-95828600D02*
X107860000Y-95828600D01*
X123630000Y-82805000D02*
X123630000Y-95505000D01*
X130490000Y-82805000D02*
X130490000Y-95505000D01*
X123630000Y-82805000D02*
X130490000Y-82805000D01*
X130490000Y-95505000D02*
X123630000Y-95505000D01*
X130460000Y-89155000D02*
G75*
G03X130460000Y-89155000I-3400000J0D01*
G01*
X82460000Y-95828600D02*
X82460000Y-82428600D01*
X69960000Y-95828600D02*
X69960000Y-82428600D01*
X69960000Y-82428600D02*
X82460000Y-82428600D01*
X69960000Y-95828600D02*
X82460000Y-95828600D01*
D11*
X81817457Y-115201580D02*
X81817457Y-114201580D01*
X81436504Y-114201580D01*
X81341266Y-114249200D01*
X81293647Y-114296819D01*
X81246028Y-114392057D01*
X81246028Y-114534914D01*
X81293647Y-114630152D01*
X81341266Y-114677771D01*
X81436504Y-114725390D01*
X81817457Y-114725390D01*
X80293647Y-115201580D02*
X80865076Y-115201580D01*
X80579361Y-115201580D02*
X80579361Y-114201580D01*
X80674600Y-114344438D01*
X80769838Y-114439676D01*
X80865076Y-114487295D01*
X79912695Y-114296819D02*
X79865076Y-114249200D01*
X79769838Y-114201580D01*
X79531742Y-114201580D01*
X79436504Y-114249200D01*
X79388885Y-114296819D01*
X79341266Y-114392057D01*
X79341266Y-114487295D01*
X79388885Y-114630152D01*
X79960314Y-115201580D01*
X79341266Y-115201580D01*
X79055552Y-114201580D02*
X78722219Y-115201580D01*
X78388885Y-114201580D01*
X78293647Y-115296819D02*
X77531742Y-115296819D01*
X77436504Y-114201580D02*
X77103171Y-115201580D01*
X76769838Y-114201580D01*
X76055552Y-115153961D02*
X76150790Y-115201580D01*
X76341266Y-115201580D01*
X76436504Y-115153961D01*
X76484123Y-115058723D01*
X76484123Y-114677771D01*
X76436504Y-114582533D01*
X76341266Y-114534914D01*
X76150790Y-114534914D01*
X76055552Y-114582533D01*
X76007933Y-114677771D01*
X76007933Y-114773009D01*
X76484123Y-114868247D01*
X75579361Y-115201580D02*
X75579361Y-114534914D01*
X75579361Y-114725390D02*
X75531742Y-114630152D01*
X75484123Y-114582533D01*
X75388885Y-114534914D01*
X75293647Y-114534914D01*
X75103171Y-114534914D02*
X74722219Y-114534914D01*
X74960314Y-114201580D02*
X74960314Y-115058723D01*
X74912695Y-115153961D01*
X74817457Y-115201580D01*
X74722219Y-115201580D01*
X74626980Y-115296819D02*
X73865076Y-115296819D01*
X73293647Y-114677771D02*
X73150790Y-114725390D01*
X73103171Y-114773009D01*
X73055552Y-114868247D01*
X73055552Y-115011104D01*
X73103171Y-115106342D01*
X73150790Y-115153961D01*
X73246028Y-115201580D01*
X73626980Y-115201580D01*
X73626980Y-114201580D01*
X73293647Y-114201580D01*
X73198409Y-114249200D01*
X73150790Y-114296819D01*
X73103171Y-114392057D01*
X73103171Y-114487295D01*
X73150790Y-114582533D01*
X73198409Y-114630152D01*
X73293647Y-114677771D01*
X73626980Y-114677771D01*
X72198409Y-115201580D02*
X72198409Y-114677771D01*
X72246028Y-114582533D01*
X72341266Y-114534914D01*
X72531742Y-114534914D01*
X72626980Y-114582533D01*
X72198409Y-115153961D02*
X72293647Y-115201580D01*
X72531742Y-115201580D01*
X72626980Y-115153961D01*
X72674600Y-115058723D01*
X72674600Y-114963485D01*
X72626980Y-114868247D01*
X72531742Y-114820628D01*
X72293647Y-114820628D01*
X72198409Y-114773009D01*
X71293647Y-115153961D02*
X71388885Y-115201580D01*
X71579361Y-115201580D01*
X71674600Y-115153961D01*
X71722219Y-115106342D01*
X71769838Y-115011104D01*
X71769838Y-114725390D01*
X71722219Y-114630152D01*
X71674600Y-114582533D01*
X71579361Y-114534914D01*
X71388885Y-114534914D01*
X71293647Y-114582533D01*
X70865076Y-115201580D02*
X70865076Y-114201580D01*
X70769838Y-114820628D02*
X70484123Y-115201580D01*
X70484123Y-114534914D02*
X70865076Y-114915866D01*
X104273095Y-79855980D02*
X104273095Y-78855980D01*
X103892142Y-78855980D01*
X103796904Y-78903600D01*
X103749285Y-78951219D01*
X103701666Y-79046457D01*
X103701666Y-79189314D01*
X103749285Y-79284552D01*
X103796904Y-79332171D01*
X103892142Y-79379790D01*
X104273095Y-79379790D01*
X102844523Y-79855980D02*
X102844523Y-79332171D01*
X102892142Y-79236933D01*
X102987380Y-79189314D01*
X103177857Y-79189314D01*
X103273095Y-79236933D01*
X102844523Y-79808361D02*
X102939761Y-79855980D01*
X103177857Y-79855980D01*
X103273095Y-79808361D01*
X103320714Y-79713123D01*
X103320714Y-79617885D01*
X103273095Y-79522647D01*
X103177857Y-79475028D01*
X102939761Y-79475028D01*
X102844523Y-79427409D01*
X102368333Y-79855980D02*
X102368333Y-79189314D01*
X102368333Y-79379790D02*
X102320714Y-79284552D01*
X102273095Y-79236933D01*
X102177857Y-79189314D01*
X102082619Y-79189314D01*
X101749285Y-79855980D02*
X101749285Y-79189314D01*
X101749285Y-79284552D02*
X101701666Y-79236933D01*
X101606428Y-79189314D01*
X101463571Y-79189314D01*
X101368333Y-79236933D01*
X101320714Y-79332171D01*
X101320714Y-79855980D01*
X101320714Y-79332171D02*
X101273095Y-79236933D01*
X101177857Y-79189314D01*
X101035000Y-79189314D01*
X100939761Y-79236933D01*
X100892142Y-79332171D01*
X100892142Y-79855980D01*
X100654047Y-79951219D02*
X99892142Y-79951219D01*
X99701666Y-79808361D02*
X99558809Y-79855980D01*
X99320714Y-79855980D01*
X99225476Y-79808361D01*
X99177857Y-79760742D01*
X99130238Y-79665504D01*
X99130238Y-79570266D01*
X99177857Y-79475028D01*
X99225476Y-79427409D01*
X99320714Y-79379790D01*
X99511190Y-79332171D01*
X99606428Y-79284552D01*
X99654047Y-79236933D01*
X99701666Y-79141695D01*
X99701666Y-79046457D01*
X99654047Y-78951219D01*
X99606428Y-78903600D01*
X99511190Y-78855980D01*
X99273095Y-78855980D01*
X99130238Y-78903600D01*
X98320714Y-79808361D02*
X98415952Y-79855980D01*
X98606428Y-79855980D01*
X98701666Y-79808361D01*
X98749285Y-79713123D01*
X98749285Y-79332171D01*
X98701666Y-79236933D01*
X98606428Y-79189314D01*
X98415952Y-79189314D01*
X98320714Y-79236933D01*
X98273095Y-79332171D01*
X98273095Y-79427409D01*
X98749285Y-79522647D01*
X97701666Y-79855980D02*
X97796904Y-79808361D01*
X97844523Y-79713123D01*
X97844523Y-78855980D01*
X102774285Y-88932171D02*
X102440952Y-88932171D01*
X102298095Y-89455980D02*
X102774285Y-89455980D01*
X102774285Y-88455980D01*
X102298095Y-88455980D01*
X101869523Y-89455980D02*
X101869523Y-88455980D01*
X101298095Y-89455980D01*
X101298095Y-88455980D01*
X100869523Y-88551219D02*
X100821904Y-88503600D01*
X100726666Y-88455980D01*
X100488571Y-88455980D01*
X100393333Y-88503600D01*
X100345714Y-88551219D01*
X100298095Y-88646457D01*
X100298095Y-88741695D01*
X100345714Y-88884552D01*
X100917142Y-89455980D01*
X100298095Y-89455980D01*
X93352571Y-33375780D02*
X93828761Y-33375780D01*
X93828761Y-32375780D01*
X93019238Y-33375780D02*
X93019238Y-32375780D01*
X92638285Y-32375780D01*
X92543047Y-32423400D01*
X92495428Y-32471019D01*
X92447809Y-32566257D01*
X92447809Y-32709114D01*
X92495428Y-32804352D01*
X92543047Y-32851971D01*
X92638285Y-32899590D01*
X93019238Y-32899590D01*
X92066857Y-32471019D02*
X92019238Y-32423400D01*
X91924000Y-32375780D01*
X91685904Y-32375780D01*
X91590666Y-32423400D01*
X91543047Y-32471019D01*
X91495428Y-32566257D01*
X91495428Y-32661495D01*
X91543047Y-32804352D01*
X92114476Y-33375780D01*
X91495428Y-33375780D01*
X91304952Y-33471019D02*
X90543047Y-33471019D01*
X90400190Y-32375780D02*
X89781142Y-32375780D01*
X90114476Y-32756733D01*
X89971619Y-32756733D01*
X89876380Y-32804352D01*
X89828761Y-32851971D01*
X89781142Y-32947209D01*
X89781142Y-33185304D01*
X89828761Y-33280542D01*
X89876380Y-33328161D01*
X89971619Y-33375780D01*
X90257333Y-33375780D01*
X90352571Y-33328161D01*
X90400190Y-33280542D01*
X89352571Y-33375780D02*
X89352571Y-32375780D01*
X88971619Y-32375780D01*
X88876380Y-32423400D01*
X88828761Y-32471019D01*
X88781142Y-32566257D01*
X88781142Y-32709114D01*
X88828761Y-32804352D01*
X88876380Y-32851971D01*
X88971619Y-32899590D01*
X89352571Y-32899590D01*
X88447809Y-32375780D02*
X87828761Y-32375780D01*
X88162095Y-32756733D01*
X88019238Y-32756733D01*
X87924000Y-32804352D01*
X87876380Y-32851971D01*
X87828761Y-32947209D01*
X87828761Y-33185304D01*
X87876380Y-33280542D01*
X87924000Y-33328161D01*
X88019238Y-33375780D01*
X88304952Y-33375780D01*
X88400190Y-33328161D01*
X88447809Y-33280542D01*
X87543047Y-32375780D02*
X87209714Y-33375780D01*
X86876380Y-32375780D01*
X71671371Y-34026180D02*
X72147561Y-34026180D01*
X72147561Y-33026180D01*
X71338038Y-34026180D02*
X71338038Y-33026180D01*
X70957085Y-33026180D01*
X70861847Y-33073800D01*
X70814228Y-33121419D01*
X70766609Y-33216657D01*
X70766609Y-33359514D01*
X70814228Y-33454752D01*
X70861847Y-33502371D01*
X70957085Y-33549990D01*
X71338038Y-33549990D01*
X69814228Y-34026180D02*
X70385657Y-34026180D01*
X70099942Y-34026180D02*
X70099942Y-33026180D01*
X70195180Y-33169038D01*
X70290419Y-33264276D01*
X70385657Y-33311895D01*
X69623752Y-34121419D02*
X68861847Y-34121419D01*
X68718990Y-33026180D02*
X68099942Y-33026180D01*
X68433276Y-33407133D01*
X68290419Y-33407133D01*
X68195180Y-33454752D01*
X68147561Y-33502371D01*
X68099942Y-33597609D01*
X68099942Y-33835704D01*
X68147561Y-33930942D01*
X68195180Y-33978561D01*
X68290419Y-34026180D01*
X68576133Y-34026180D01*
X68671371Y-33978561D01*
X68718990Y-33930942D01*
X67671371Y-34026180D02*
X67671371Y-33026180D01*
X67290419Y-33026180D01*
X67195180Y-33073800D01*
X67147561Y-33121419D01*
X67099942Y-33216657D01*
X67099942Y-33359514D01*
X67147561Y-33454752D01*
X67195180Y-33502371D01*
X67290419Y-33549990D01*
X67671371Y-33549990D01*
X66766609Y-33026180D02*
X66147561Y-33026180D01*
X66480895Y-33407133D01*
X66338038Y-33407133D01*
X66242800Y-33454752D01*
X66195180Y-33502371D01*
X66147561Y-33597609D01*
X66147561Y-33835704D01*
X66195180Y-33930942D01*
X66242800Y-33978561D01*
X66338038Y-34026180D01*
X66623752Y-34026180D01*
X66718990Y-33978561D01*
X66766609Y-33930942D01*
X65861847Y-33026180D02*
X65528514Y-34026180D01*
X65195180Y-33026180D01*
X92466380Y-30454780D02*
X92942571Y-30454780D01*
X92942571Y-29454780D01*
X92133047Y-30454780D02*
X92133047Y-29454780D01*
X91752095Y-29454780D01*
X91656857Y-29502400D01*
X91609238Y-29550019D01*
X91561619Y-29645257D01*
X91561619Y-29788114D01*
X91609238Y-29883352D01*
X91656857Y-29930971D01*
X91752095Y-29978590D01*
X92133047Y-29978590D01*
X91180666Y-29550019D02*
X91133047Y-29502400D01*
X91037809Y-29454780D01*
X90799714Y-29454780D01*
X90704476Y-29502400D01*
X90656857Y-29550019D01*
X90609238Y-29645257D01*
X90609238Y-29740495D01*
X90656857Y-29883352D01*
X91228285Y-30454780D01*
X90609238Y-30454780D01*
X90418761Y-30550019D02*
X89656857Y-30550019D01*
X88942571Y-29454780D02*
X89418761Y-29454780D01*
X89466380Y-29930971D01*
X89418761Y-29883352D01*
X89323523Y-29835733D01*
X89085428Y-29835733D01*
X88990190Y-29883352D01*
X88942571Y-29930971D01*
X88894952Y-30026209D01*
X88894952Y-30264304D01*
X88942571Y-30359542D01*
X88990190Y-30407161D01*
X89085428Y-30454780D01*
X89323523Y-30454780D01*
X89418761Y-30407161D01*
X89466380Y-30359542D01*
X88609238Y-29454780D02*
X88275904Y-30454780D01*
X87942571Y-29454780D01*
X70710180Y-37048780D02*
X71186371Y-37048780D01*
X71186371Y-36048780D01*
X70376847Y-37048780D02*
X70376847Y-36048780D01*
X69995895Y-36048780D01*
X69900657Y-36096400D01*
X69853038Y-36144019D01*
X69805419Y-36239257D01*
X69805419Y-36382114D01*
X69853038Y-36477352D01*
X69900657Y-36524971D01*
X69995895Y-36572590D01*
X70376847Y-36572590D01*
X68853038Y-37048780D02*
X69424466Y-37048780D01*
X69138752Y-37048780D02*
X69138752Y-36048780D01*
X69233990Y-36191638D01*
X69329228Y-36286876D01*
X69424466Y-36334495D01*
X68662561Y-37144019D02*
X67900657Y-37144019D01*
X67186371Y-36048780D02*
X67662561Y-36048780D01*
X67710180Y-36524971D01*
X67662561Y-36477352D01*
X67567323Y-36429733D01*
X67329228Y-36429733D01*
X67233990Y-36477352D01*
X67186371Y-36524971D01*
X67138752Y-36620209D01*
X67138752Y-36858304D01*
X67186371Y-36953542D01*
X67233990Y-37001161D01*
X67329228Y-37048780D01*
X67567323Y-37048780D01*
X67662561Y-37001161D01*
X67710180Y-36953542D01*
X66853038Y-36048780D02*
X66519704Y-37048780D01*
X66186371Y-36048780D01*
X115752619Y-37370238D02*
X115705000Y-37417857D01*
X115657380Y-37513095D01*
X115657380Y-37751190D01*
X115705000Y-37846428D01*
X115752619Y-37894047D01*
X115847857Y-37941666D01*
X115943095Y-37941666D01*
X116085952Y-37894047D01*
X116657380Y-37322619D01*
X116657380Y-37941666D01*
X116609761Y-38322619D02*
X116657380Y-38465476D01*
X116657380Y-38703571D01*
X116609761Y-38798809D01*
X116562142Y-38846428D01*
X116466904Y-38894047D01*
X116371666Y-38894047D01*
X116276428Y-38846428D01*
X116228809Y-38798809D01*
X116181190Y-38703571D01*
X116133571Y-38513095D01*
X116085952Y-38417857D01*
X116038333Y-38370238D01*
X115943095Y-38322619D01*
X115847857Y-38322619D01*
X115752619Y-38370238D01*
X115705000Y-38417857D01*
X115657380Y-38513095D01*
X115657380Y-38751190D01*
X115705000Y-38894047D01*
X116657380Y-39322619D02*
X115657380Y-39322619D01*
X116371666Y-39655952D01*
X115657380Y-39989285D01*
X116657380Y-39989285D01*
X116657380Y-40465476D02*
X115657380Y-40465476D01*
X115657380Y-40846428D01*
X115705000Y-40941666D01*
X115752619Y-40989285D01*
X115847857Y-41036904D01*
X115990714Y-41036904D01*
X116085952Y-40989285D01*
X116133571Y-40941666D01*
X116181190Y-40846428D01*
X116181190Y-40465476D01*
X116657380Y-41465476D02*
X115657380Y-41465476D01*
X115657380Y-41846428D01*
X115705000Y-41941666D01*
X115752619Y-41989285D01*
X115847857Y-42036904D01*
X115990714Y-42036904D01*
X116085952Y-41989285D01*
X116133571Y-41941666D01*
X116181190Y-41846428D01*
X116181190Y-41465476D01*
X116276428Y-42465476D02*
X116276428Y-43227380D01*
X115657380Y-43894047D02*
X115657380Y-43989285D01*
X115705000Y-44084523D01*
X115752619Y-44132142D01*
X115847857Y-44179761D01*
X116038333Y-44227380D01*
X116276428Y-44227380D01*
X116466904Y-44179761D01*
X116562142Y-44132142D01*
X116609761Y-44084523D01*
X116657380Y-43989285D01*
X116657380Y-43894047D01*
X116609761Y-43798809D01*
X116562142Y-43751190D01*
X116466904Y-43703571D01*
X116276428Y-43655952D01*
X116038333Y-43655952D01*
X115847857Y-43703571D01*
X115752619Y-43751190D01*
X115705000Y-43798809D01*
X115657380Y-43894047D01*
X115657380Y-44560714D02*
X115657380Y-45179761D01*
X116038333Y-44846428D01*
X116038333Y-44989285D01*
X116085952Y-45084523D01*
X116133571Y-45132142D01*
X116228809Y-45179761D01*
X116466904Y-45179761D01*
X116562142Y-45132142D01*
X116609761Y-45084523D01*
X116657380Y-44989285D01*
X116657380Y-44703571D01*
X116609761Y-44608333D01*
X116562142Y-44560714D01*
X132284761Y-86009761D02*
X132332380Y-86152619D01*
X132332380Y-86390714D01*
X132284761Y-86485952D01*
X132237142Y-86533571D01*
X132141904Y-86581190D01*
X132046666Y-86581190D01*
X131951428Y-86533571D01*
X131903809Y-86485952D01*
X131856190Y-86390714D01*
X131808571Y-86200238D01*
X131760952Y-86105000D01*
X131713333Y-86057380D01*
X131618095Y-86009761D01*
X131522857Y-86009761D01*
X131427619Y-86057380D01*
X131380000Y-86105000D01*
X131332380Y-86200238D01*
X131332380Y-86438333D01*
X131380000Y-86581190D01*
X131332380Y-86914523D02*
X132332380Y-87152619D01*
X131618095Y-87343095D01*
X132332380Y-87533571D01*
X131332380Y-87771666D01*
X132427619Y-87914523D02*
X132427619Y-88676428D01*
X132284761Y-88866904D02*
X132332380Y-89009761D01*
X132332380Y-89247857D01*
X132284761Y-89343095D01*
X132237142Y-89390714D01*
X132141904Y-89438333D01*
X132046666Y-89438333D01*
X131951428Y-89390714D01*
X131903809Y-89343095D01*
X131856190Y-89247857D01*
X131808571Y-89057380D01*
X131760952Y-88962142D01*
X131713333Y-88914523D01*
X131618095Y-88866904D01*
X131522857Y-88866904D01*
X131427619Y-88914523D01*
X131380000Y-88962142D01*
X131332380Y-89057380D01*
X131332380Y-89295476D01*
X131380000Y-89438333D01*
X132332380Y-89866904D02*
X131332380Y-89866904D01*
X131332380Y-90247857D01*
X131380000Y-90343095D01*
X131427619Y-90390714D01*
X131522857Y-90438333D01*
X131665714Y-90438333D01*
X131760952Y-90390714D01*
X131808571Y-90343095D01*
X131856190Y-90247857D01*
X131856190Y-89866904D01*
X132332380Y-90866904D02*
X131332380Y-90866904D01*
X131332380Y-91105000D01*
X131380000Y-91247857D01*
X131475238Y-91343095D01*
X131570476Y-91390714D01*
X131760952Y-91438333D01*
X131903809Y-91438333D01*
X132094285Y-91390714D01*
X132189523Y-91343095D01*
X132284761Y-91247857D01*
X132332380Y-91105000D01*
X132332380Y-90866904D01*
X131332380Y-91724047D02*
X131332380Y-92295476D01*
X132332380Y-92009761D02*
X131332380Y-92009761D01*
X127464761Y-87821666D02*
X127512380Y-87964523D01*
X127512380Y-88202619D01*
X127464761Y-88297857D01*
X127417142Y-88345476D01*
X127321904Y-88393095D01*
X127226666Y-88393095D01*
X127131428Y-88345476D01*
X127083809Y-88297857D01*
X127036190Y-88202619D01*
X126988571Y-88012142D01*
X126940952Y-87916904D01*
X126893333Y-87869285D01*
X126798095Y-87821666D01*
X126702857Y-87821666D01*
X126607619Y-87869285D01*
X126560000Y-87916904D01*
X126512380Y-88012142D01*
X126512380Y-88250238D01*
X126560000Y-88393095D01*
X126512380Y-88726428D02*
X127512380Y-88964523D01*
X126798095Y-89155000D01*
X127512380Y-89345476D01*
X126512380Y-89583571D01*
X127512380Y-90488333D02*
X127512380Y-89916904D01*
X127512380Y-90202619D02*
X126512380Y-90202619D01*
X126655238Y-90107380D01*
X126750476Y-90012142D01*
X126798095Y-89916904D01*
X78373095Y-79332171D02*
X78706428Y-79332171D01*
X78706428Y-79855980D02*
X78706428Y-78855980D01*
X78230238Y-78855980D01*
X77420714Y-79189314D02*
X77420714Y-79855980D01*
X77849285Y-79189314D02*
X77849285Y-79713123D01*
X77801666Y-79808361D01*
X77706428Y-79855980D01*
X77563571Y-79855980D01*
X77468333Y-79808361D01*
X77420714Y-79760742D01*
X76944523Y-79189314D02*
X76944523Y-79855980D01*
X76944523Y-79284552D02*
X76896904Y-79236933D01*
X76801666Y-79189314D01*
X76658809Y-79189314D01*
X76563571Y-79236933D01*
X76515952Y-79332171D01*
X76515952Y-79855980D01*
X75611190Y-79808361D02*
X75706428Y-79855980D01*
X75896904Y-79855980D01*
X75992142Y-79808361D01*
X76039761Y-79760742D01*
X76087380Y-79665504D01*
X76087380Y-79379790D01*
X76039761Y-79284552D01*
X75992142Y-79236933D01*
X75896904Y-79189314D01*
X75706428Y-79189314D01*
X75611190Y-79236933D01*
X75420714Y-79951219D02*
X74658809Y-79951219D01*
X74468333Y-79808361D02*
X74325476Y-79855980D01*
X74087380Y-79855980D01*
X73992142Y-79808361D01*
X73944523Y-79760742D01*
X73896904Y-79665504D01*
X73896904Y-79570266D01*
X73944523Y-79475028D01*
X73992142Y-79427409D01*
X74087380Y-79379790D01*
X74277857Y-79332171D01*
X74373095Y-79284552D01*
X74420714Y-79236933D01*
X74468333Y-79141695D01*
X74468333Y-79046457D01*
X74420714Y-78951219D01*
X74373095Y-78903600D01*
X74277857Y-78855980D01*
X74039761Y-78855980D01*
X73896904Y-78903600D01*
X73087380Y-79808361D02*
X73182619Y-79855980D01*
X73373095Y-79855980D01*
X73468333Y-79808361D01*
X73515952Y-79713123D01*
X73515952Y-79332171D01*
X73468333Y-79236933D01*
X73373095Y-79189314D01*
X73182619Y-79189314D01*
X73087380Y-79236933D01*
X73039761Y-79332171D01*
X73039761Y-79427409D01*
X73515952Y-79522647D01*
X72468333Y-79855980D02*
X72563571Y-79808361D01*
X72611190Y-79713123D01*
X72611190Y-78855980D01*
X77374285Y-88932171D02*
X77040952Y-88932171D01*
X76898095Y-89455980D02*
X77374285Y-89455980D01*
X77374285Y-88455980D01*
X76898095Y-88455980D01*
X76469523Y-89455980D02*
X76469523Y-88455980D01*
X75898095Y-89455980D01*
X75898095Y-88455980D01*
X74898095Y-89455980D02*
X75469523Y-89455980D01*
X75183809Y-89455980D02*
X75183809Y-88455980D01*
X75279047Y-88598838D01*
X75374285Y-88694076D01*
X75469523Y-88741695D01*
M02*
