G04 #@! TF.GenerationSoftware,KiCad,Pcbnew,(5.1.4-0-10_14)*
G04 #@! TF.CreationDate,2020-04-29T09:46:46-07:00*
G04 #@! TF.ProjectId,Vent,56656e74-2e6b-4696-9361-645f70636258,rev?*
G04 #@! TF.SameCoordinates,Original*
G04 #@! TF.FileFunction,Soldermask,Bot*
G04 #@! TF.FilePolarity,Negative*
%FSLAX46Y46*%
G04 Gerber Fmt 4.6, Leading zero omitted, Abs format (unit mm)*
G04 Created by KiCad (PCBNEW (5.1.4-0-10_14)) date 2020-04-29 09:46:46*
%MOMM*%
%LPD*%
G04 APERTURE LIST*
%ADD10C,0.100000*%
G04 APERTURE END LIST*
D10*
G36*
X72871290Y-122865619D02*
G01*
X72935689Y-122878429D01*
X73117678Y-122953811D01*
X73281463Y-123063249D01*
X73420751Y-123202537D01*
X73530189Y-123366322D01*
X73605571Y-123548311D01*
X73644000Y-123741509D01*
X73644000Y-123938491D01*
X73605571Y-124131689D01*
X73530189Y-124313678D01*
X73420751Y-124477463D01*
X73281463Y-124616751D01*
X73117678Y-124726189D01*
X72935689Y-124801571D01*
X72871290Y-124814381D01*
X72742493Y-124840000D01*
X72545507Y-124840000D01*
X72416710Y-124814381D01*
X72352311Y-124801571D01*
X72170322Y-124726189D01*
X72006537Y-124616751D01*
X71867249Y-124477463D01*
X71757811Y-124313678D01*
X71682429Y-124131689D01*
X71644000Y-123938491D01*
X71644000Y-123741509D01*
X71682429Y-123548311D01*
X71757811Y-123366322D01*
X71867249Y-123202537D01*
X72006537Y-123063249D01*
X72170322Y-122953811D01*
X72352311Y-122878429D01*
X72416710Y-122865619D01*
X72545507Y-122840000D01*
X72742493Y-122840000D01*
X72871290Y-122865619D01*
X72871290Y-122865619D01*
G37*
G36*
X55076703Y-121651486D02*
G01*
X55367883Y-121772097D01*
X55629940Y-121947198D01*
X55852802Y-122170060D01*
X56027903Y-122432117D01*
X56148514Y-122723297D01*
X56210000Y-123032412D01*
X56210000Y-123347588D01*
X56148514Y-123656703D01*
X56027903Y-123947883D01*
X55852802Y-124209940D01*
X55629940Y-124432802D01*
X55367883Y-124607903D01*
X55076703Y-124728514D01*
X54767588Y-124790000D01*
X54452412Y-124790000D01*
X54143297Y-124728514D01*
X53852117Y-124607903D01*
X53590060Y-124432802D01*
X53367198Y-124209940D01*
X53192097Y-123947883D01*
X53071486Y-123656703D01*
X53010000Y-123347588D01*
X53010000Y-123032412D01*
X53071486Y-122723297D01*
X53192097Y-122432117D01*
X53367198Y-122170060D01*
X53590060Y-121947198D01*
X53852117Y-121772097D01*
X54143297Y-121651486D01*
X54452412Y-121590000D01*
X54767588Y-121590000D01*
X55076703Y-121651486D01*
X55076703Y-121651486D01*
G37*
G36*
X146516703Y-121651486D02*
G01*
X146807883Y-121772097D01*
X147069940Y-121947198D01*
X147292802Y-122170060D01*
X147467903Y-122432117D01*
X147588514Y-122723297D01*
X147650000Y-123032412D01*
X147650000Y-123347588D01*
X147588514Y-123656703D01*
X147467903Y-123947883D01*
X147292802Y-124209940D01*
X147069940Y-124432802D01*
X146807883Y-124607903D01*
X146516703Y-124728514D01*
X146207588Y-124790000D01*
X145892412Y-124790000D01*
X145583297Y-124728514D01*
X145292117Y-124607903D01*
X145030060Y-124432802D01*
X144807198Y-124209940D01*
X144632097Y-123947883D01*
X144511486Y-123656703D01*
X144450000Y-123347588D01*
X144450000Y-123032412D01*
X144511486Y-122723297D01*
X144632097Y-122432117D01*
X144807198Y-122170060D01*
X145030060Y-121947198D01*
X145292117Y-121772097D01*
X145583297Y-121651486D01*
X145892412Y-121590000D01*
X146207588Y-121590000D01*
X146516703Y-121651486D01*
X146516703Y-121651486D01*
G37*
G36*
X129706627Y-122860299D02*
G01*
X129766394Y-122878429D01*
X129866855Y-122908903D01*
X129866857Y-122908904D01*
X130014518Y-122987831D01*
X130143949Y-123094051D01*
X130250169Y-123223482D01*
X130329096Y-123371143D01*
X130377701Y-123531373D01*
X130394112Y-123698000D01*
X130377701Y-123864627D01*
X130329096Y-124024857D01*
X130250169Y-124172518D01*
X130143949Y-124301949D01*
X130014518Y-124408169D01*
X129884879Y-124477463D01*
X129866855Y-124487097D01*
X129786742Y-124511399D01*
X129706627Y-124535701D01*
X129581752Y-124548000D01*
X129498248Y-124548000D01*
X129373373Y-124535701D01*
X129293258Y-124511399D01*
X129213145Y-124487097D01*
X129195121Y-124477463D01*
X129065482Y-124408169D01*
X128936051Y-124301949D01*
X128829831Y-124172518D01*
X128750904Y-124024857D01*
X128702299Y-123864627D01*
X128685888Y-123698000D01*
X128702299Y-123531373D01*
X128750904Y-123371143D01*
X128829831Y-123223482D01*
X128936051Y-123094051D01*
X129065482Y-122987831D01*
X129213143Y-122908904D01*
X129213145Y-122908903D01*
X129313606Y-122878429D01*
X129373373Y-122860299D01*
X129498248Y-122848000D01*
X129581752Y-122848000D01*
X129706627Y-122860299D01*
X129706627Y-122860299D01*
G37*
G36*
X125310000Y-124548000D02*
G01*
X123610000Y-124548000D01*
X123610000Y-122848000D01*
X125310000Y-122848000D01*
X125310000Y-124548000D01*
X125310000Y-124548000D01*
G37*
G36*
X122086627Y-122860299D02*
G01*
X122146394Y-122878429D01*
X122246855Y-122908903D01*
X122246857Y-122908904D01*
X122394518Y-122987831D01*
X122523949Y-123094051D01*
X122630169Y-123223482D01*
X122709096Y-123371143D01*
X122757701Y-123531373D01*
X122774112Y-123698000D01*
X122757701Y-123864627D01*
X122709096Y-124024857D01*
X122630169Y-124172518D01*
X122523949Y-124301949D01*
X122394518Y-124408169D01*
X122264879Y-124477463D01*
X122246855Y-124487097D01*
X122166742Y-124511399D01*
X122086627Y-124535701D01*
X121961752Y-124548000D01*
X121878248Y-124548000D01*
X121753373Y-124535701D01*
X121673258Y-124511399D01*
X121593145Y-124487097D01*
X121575121Y-124477463D01*
X121445482Y-124408169D01*
X121316051Y-124301949D01*
X121209831Y-124172518D01*
X121130904Y-124024857D01*
X121082299Y-123864627D01*
X121065888Y-123698000D01*
X121082299Y-123531373D01*
X121130904Y-123371143D01*
X121209831Y-123223482D01*
X121316051Y-123094051D01*
X121445482Y-122987831D01*
X121593143Y-122908904D01*
X121593145Y-122908903D01*
X121693606Y-122878429D01*
X121753373Y-122860299D01*
X121878248Y-122848000D01*
X121961752Y-122848000D01*
X122086627Y-122860299D01*
X122086627Y-122860299D01*
G37*
G36*
X119546627Y-122860299D02*
G01*
X119606394Y-122878429D01*
X119706855Y-122908903D01*
X119706857Y-122908904D01*
X119854518Y-122987831D01*
X119983949Y-123094051D01*
X120090169Y-123223482D01*
X120169096Y-123371143D01*
X120217701Y-123531373D01*
X120234112Y-123698000D01*
X120217701Y-123864627D01*
X120169096Y-124024857D01*
X120090169Y-124172518D01*
X119983949Y-124301949D01*
X119854518Y-124408169D01*
X119724879Y-124477463D01*
X119706855Y-124487097D01*
X119626742Y-124511399D01*
X119546627Y-124535701D01*
X119421752Y-124548000D01*
X119338248Y-124548000D01*
X119213373Y-124535701D01*
X119133258Y-124511399D01*
X119053145Y-124487097D01*
X119035121Y-124477463D01*
X118905482Y-124408169D01*
X118776051Y-124301949D01*
X118669831Y-124172518D01*
X118590904Y-124024857D01*
X118542299Y-123864627D01*
X118525888Y-123698000D01*
X118542299Y-123531373D01*
X118590904Y-123371143D01*
X118669831Y-123223482D01*
X118776051Y-123094051D01*
X118905482Y-122987831D01*
X119053143Y-122908904D01*
X119053145Y-122908903D01*
X119153606Y-122878429D01*
X119213373Y-122860299D01*
X119338248Y-122848000D01*
X119421752Y-122848000D01*
X119546627Y-122860299D01*
X119546627Y-122860299D01*
G37*
G36*
X114896000Y-124548000D02*
G01*
X113196000Y-124548000D01*
X113196000Y-122848000D01*
X114896000Y-122848000D01*
X114896000Y-124548000D01*
X114896000Y-124548000D01*
G37*
G36*
X111672627Y-122860299D02*
G01*
X111732394Y-122878429D01*
X111832855Y-122908903D01*
X111832857Y-122908904D01*
X111980518Y-122987831D01*
X112109949Y-123094051D01*
X112216169Y-123223482D01*
X112295096Y-123371143D01*
X112343701Y-123531373D01*
X112360112Y-123698000D01*
X112343701Y-123864627D01*
X112295096Y-124024857D01*
X112216169Y-124172518D01*
X112109949Y-124301949D01*
X111980518Y-124408169D01*
X111850879Y-124477463D01*
X111832855Y-124487097D01*
X111752742Y-124511399D01*
X111672627Y-124535701D01*
X111547752Y-124548000D01*
X111464248Y-124548000D01*
X111339373Y-124535701D01*
X111259258Y-124511399D01*
X111179145Y-124487097D01*
X111161121Y-124477463D01*
X111031482Y-124408169D01*
X110902051Y-124301949D01*
X110795831Y-124172518D01*
X110716904Y-124024857D01*
X110668299Y-123864627D01*
X110651888Y-123698000D01*
X110668299Y-123531373D01*
X110716904Y-123371143D01*
X110795831Y-123223482D01*
X110902051Y-123094051D01*
X111031482Y-122987831D01*
X111179143Y-122908904D01*
X111179145Y-122908903D01*
X111279606Y-122878429D01*
X111339373Y-122860299D01*
X111464248Y-122848000D01*
X111547752Y-122848000D01*
X111672627Y-122860299D01*
X111672627Y-122860299D01*
G37*
G36*
X109132627Y-122860299D02*
G01*
X109192394Y-122878429D01*
X109292855Y-122908903D01*
X109292857Y-122908904D01*
X109440518Y-122987831D01*
X109569949Y-123094051D01*
X109676169Y-123223482D01*
X109755096Y-123371143D01*
X109803701Y-123531373D01*
X109820112Y-123698000D01*
X109803701Y-123864627D01*
X109755096Y-124024857D01*
X109676169Y-124172518D01*
X109569949Y-124301949D01*
X109440518Y-124408169D01*
X109310879Y-124477463D01*
X109292855Y-124487097D01*
X109212742Y-124511399D01*
X109132627Y-124535701D01*
X109007752Y-124548000D01*
X108924248Y-124548000D01*
X108799373Y-124535701D01*
X108719258Y-124511399D01*
X108639145Y-124487097D01*
X108621121Y-124477463D01*
X108491482Y-124408169D01*
X108362051Y-124301949D01*
X108255831Y-124172518D01*
X108176904Y-124024857D01*
X108128299Y-123864627D01*
X108111888Y-123698000D01*
X108128299Y-123531373D01*
X108176904Y-123371143D01*
X108255831Y-123223482D01*
X108362051Y-123094051D01*
X108491482Y-122987831D01*
X108639143Y-122908904D01*
X108639145Y-122908903D01*
X108739606Y-122878429D01*
X108799373Y-122860299D01*
X108924248Y-122848000D01*
X109007752Y-122848000D01*
X109132627Y-122860299D01*
X109132627Y-122860299D01*
G37*
G36*
X102196000Y-124548000D02*
G01*
X100496000Y-124548000D01*
X100496000Y-122848000D01*
X102196000Y-122848000D01*
X102196000Y-124548000D01*
X102196000Y-124548000D01*
G37*
G36*
X98972627Y-122860299D02*
G01*
X99032394Y-122878429D01*
X99132855Y-122908903D01*
X99132857Y-122908904D01*
X99280518Y-122987831D01*
X99409949Y-123094051D01*
X99516169Y-123223482D01*
X99595096Y-123371143D01*
X99643701Y-123531373D01*
X99660112Y-123698000D01*
X99643701Y-123864627D01*
X99595096Y-124024857D01*
X99516169Y-124172518D01*
X99409949Y-124301949D01*
X99280518Y-124408169D01*
X99150879Y-124477463D01*
X99132855Y-124487097D01*
X99052742Y-124511399D01*
X98972627Y-124535701D01*
X98847752Y-124548000D01*
X98764248Y-124548000D01*
X98639373Y-124535701D01*
X98559258Y-124511399D01*
X98479145Y-124487097D01*
X98461121Y-124477463D01*
X98331482Y-124408169D01*
X98202051Y-124301949D01*
X98095831Y-124172518D01*
X98016904Y-124024857D01*
X97968299Y-123864627D01*
X97951888Y-123698000D01*
X97968299Y-123531373D01*
X98016904Y-123371143D01*
X98095831Y-123223482D01*
X98202051Y-123094051D01*
X98331482Y-122987831D01*
X98479143Y-122908904D01*
X98479145Y-122908903D01*
X98579606Y-122878429D01*
X98639373Y-122860299D01*
X98764248Y-122848000D01*
X98847752Y-122848000D01*
X98972627Y-122860299D01*
X98972627Y-122860299D01*
G37*
G36*
X96432627Y-122860299D02*
G01*
X96492394Y-122878429D01*
X96592855Y-122908903D01*
X96592857Y-122908904D01*
X96740518Y-122987831D01*
X96869949Y-123094051D01*
X96976169Y-123223482D01*
X97055096Y-123371143D01*
X97103701Y-123531373D01*
X97120112Y-123698000D01*
X97103701Y-123864627D01*
X97055096Y-124024857D01*
X96976169Y-124172518D01*
X96869949Y-124301949D01*
X96740518Y-124408169D01*
X96610879Y-124477463D01*
X96592855Y-124487097D01*
X96512742Y-124511399D01*
X96432627Y-124535701D01*
X96307752Y-124548000D01*
X96224248Y-124548000D01*
X96099373Y-124535701D01*
X96019258Y-124511399D01*
X95939145Y-124487097D01*
X95921121Y-124477463D01*
X95791482Y-124408169D01*
X95662051Y-124301949D01*
X95555831Y-124172518D01*
X95476904Y-124024857D01*
X95428299Y-123864627D01*
X95411888Y-123698000D01*
X95428299Y-123531373D01*
X95476904Y-123371143D01*
X95555831Y-123223482D01*
X95662051Y-123094051D01*
X95791482Y-122987831D01*
X95939143Y-122908904D01*
X95939145Y-122908903D01*
X96039606Y-122878429D01*
X96099373Y-122860299D01*
X96224248Y-122848000D01*
X96307752Y-122848000D01*
X96432627Y-122860299D01*
X96432627Y-122860299D01*
G37*
G36*
X91606627Y-122860299D02*
G01*
X91666394Y-122878429D01*
X91766855Y-122908903D01*
X91766857Y-122908904D01*
X91914518Y-122987831D01*
X92043949Y-123094051D01*
X92150169Y-123223482D01*
X92229096Y-123371143D01*
X92277701Y-123531373D01*
X92294112Y-123698000D01*
X92277701Y-123864627D01*
X92229096Y-124024857D01*
X92150169Y-124172518D01*
X92043949Y-124301949D01*
X91914518Y-124408169D01*
X91784879Y-124477463D01*
X91766855Y-124487097D01*
X91686742Y-124511399D01*
X91606627Y-124535701D01*
X91481752Y-124548000D01*
X91398248Y-124548000D01*
X91273373Y-124535701D01*
X91193258Y-124511399D01*
X91113145Y-124487097D01*
X91095121Y-124477463D01*
X90965482Y-124408169D01*
X90836051Y-124301949D01*
X90729831Y-124172518D01*
X90650904Y-124024857D01*
X90602299Y-123864627D01*
X90585888Y-123698000D01*
X90602299Y-123531373D01*
X90650904Y-123371143D01*
X90729831Y-123223482D01*
X90836051Y-123094051D01*
X90965482Y-122987831D01*
X91113143Y-122908904D01*
X91113145Y-122908903D01*
X91213606Y-122878429D01*
X91273373Y-122860299D01*
X91398248Y-122848000D01*
X91481752Y-122848000D01*
X91606627Y-122860299D01*
X91606627Y-122860299D01*
G37*
G36*
X89066627Y-122860299D02*
G01*
X89126394Y-122878429D01*
X89226855Y-122908903D01*
X89226857Y-122908904D01*
X89374518Y-122987831D01*
X89503949Y-123094051D01*
X89610169Y-123223482D01*
X89689096Y-123371143D01*
X89737701Y-123531373D01*
X89754112Y-123698000D01*
X89737701Y-123864627D01*
X89689096Y-124024857D01*
X89610169Y-124172518D01*
X89503949Y-124301949D01*
X89374518Y-124408169D01*
X89244879Y-124477463D01*
X89226855Y-124487097D01*
X89146742Y-124511399D01*
X89066627Y-124535701D01*
X88941752Y-124548000D01*
X88858248Y-124548000D01*
X88733373Y-124535701D01*
X88653258Y-124511399D01*
X88573145Y-124487097D01*
X88555121Y-124477463D01*
X88425482Y-124408169D01*
X88296051Y-124301949D01*
X88189831Y-124172518D01*
X88110904Y-124024857D01*
X88062299Y-123864627D01*
X88045888Y-123698000D01*
X88062299Y-123531373D01*
X88110904Y-123371143D01*
X88189831Y-123223482D01*
X88296051Y-123094051D01*
X88425482Y-122987831D01*
X88573143Y-122908904D01*
X88573145Y-122908903D01*
X88673606Y-122878429D01*
X88733373Y-122860299D01*
X88858248Y-122848000D01*
X88941752Y-122848000D01*
X89066627Y-122860299D01*
X89066627Y-122860299D01*
G37*
G36*
X86526627Y-122860299D02*
G01*
X86586394Y-122878429D01*
X86686855Y-122908903D01*
X86686857Y-122908904D01*
X86834518Y-122987831D01*
X86963949Y-123094051D01*
X87070169Y-123223482D01*
X87149096Y-123371143D01*
X87197701Y-123531373D01*
X87214112Y-123698000D01*
X87197701Y-123864627D01*
X87149096Y-124024857D01*
X87070169Y-124172518D01*
X86963949Y-124301949D01*
X86834518Y-124408169D01*
X86704879Y-124477463D01*
X86686855Y-124487097D01*
X86606742Y-124511399D01*
X86526627Y-124535701D01*
X86401752Y-124548000D01*
X86318248Y-124548000D01*
X86193373Y-124535701D01*
X86113258Y-124511399D01*
X86033145Y-124487097D01*
X86015121Y-124477463D01*
X85885482Y-124408169D01*
X85756051Y-124301949D01*
X85649831Y-124172518D01*
X85570904Y-124024857D01*
X85522299Y-123864627D01*
X85505888Y-123698000D01*
X85522299Y-123531373D01*
X85570904Y-123371143D01*
X85649831Y-123223482D01*
X85756051Y-123094051D01*
X85885482Y-122987831D01*
X86033143Y-122908904D01*
X86033145Y-122908903D01*
X86133606Y-122878429D01*
X86193373Y-122860299D01*
X86318248Y-122848000D01*
X86401752Y-122848000D01*
X86526627Y-122860299D01*
X86526627Y-122860299D01*
G37*
G36*
X132246627Y-122860299D02*
G01*
X132306394Y-122878429D01*
X132406855Y-122908903D01*
X132406857Y-122908904D01*
X132554518Y-122987831D01*
X132683949Y-123094051D01*
X132790169Y-123223482D01*
X132869096Y-123371143D01*
X132917701Y-123531373D01*
X132934112Y-123698000D01*
X132917701Y-123864627D01*
X132869096Y-124024857D01*
X132790169Y-124172518D01*
X132683949Y-124301949D01*
X132554518Y-124408169D01*
X132424879Y-124477463D01*
X132406855Y-124487097D01*
X132326742Y-124511399D01*
X132246627Y-124535701D01*
X132121752Y-124548000D01*
X132038248Y-124548000D01*
X131913373Y-124535701D01*
X131833258Y-124511399D01*
X131753145Y-124487097D01*
X131735121Y-124477463D01*
X131605482Y-124408169D01*
X131476051Y-124301949D01*
X131369831Y-124172518D01*
X131290904Y-124024857D01*
X131242299Y-123864627D01*
X131225888Y-123698000D01*
X131242299Y-123531373D01*
X131290904Y-123371143D01*
X131369831Y-123223482D01*
X131476051Y-123094051D01*
X131605482Y-122987831D01*
X131753143Y-122908904D01*
X131753145Y-122908903D01*
X131853606Y-122878429D01*
X131913373Y-122860299D01*
X132038248Y-122848000D01*
X132121752Y-122848000D01*
X132246627Y-122860299D01*
X132246627Y-122860299D01*
G37*
G36*
X138010000Y-124548000D02*
G01*
X136310000Y-124548000D01*
X136310000Y-122848000D01*
X138010000Y-122848000D01*
X138010000Y-124548000D01*
X138010000Y-124548000D01*
G37*
G36*
X134786627Y-122860299D02*
G01*
X134846394Y-122878429D01*
X134946855Y-122908903D01*
X134946857Y-122908904D01*
X135094518Y-122987831D01*
X135223949Y-123094051D01*
X135330169Y-123223482D01*
X135409096Y-123371143D01*
X135457701Y-123531373D01*
X135474112Y-123698000D01*
X135457701Y-123864627D01*
X135409096Y-124024857D01*
X135330169Y-124172518D01*
X135223949Y-124301949D01*
X135094518Y-124408169D01*
X134964879Y-124477463D01*
X134946855Y-124487097D01*
X134866742Y-124511399D01*
X134786627Y-124535701D01*
X134661752Y-124548000D01*
X134578248Y-124548000D01*
X134453373Y-124535701D01*
X134373258Y-124511399D01*
X134293145Y-124487097D01*
X134275121Y-124477463D01*
X134145482Y-124408169D01*
X134016051Y-124301949D01*
X133909831Y-124172518D01*
X133830904Y-124024857D01*
X133782299Y-123864627D01*
X133765888Y-123698000D01*
X133782299Y-123531373D01*
X133830904Y-123371143D01*
X133909831Y-123223482D01*
X134016051Y-123094051D01*
X134145482Y-122987831D01*
X134293143Y-122908904D01*
X134293145Y-122908903D01*
X134393606Y-122878429D01*
X134453373Y-122860299D01*
X134578248Y-122848000D01*
X134661752Y-122848000D01*
X134786627Y-122860299D01*
X134786627Y-122860299D01*
G37*
G36*
X92290000Y-122008000D02*
G01*
X90590000Y-122008000D01*
X90590000Y-120308000D01*
X92290000Y-120308000D01*
X92290000Y-122008000D01*
X92290000Y-122008000D01*
G37*
G36*
X86526627Y-120320299D02*
G01*
X86606742Y-120344601D01*
X86686855Y-120368903D01*
X86686857Y-120368904D01*
X86834518Y-120447831D01*
X86963949Y-120554051D01*
X87070169Y-120683482D01*
X87149096Y-120831143D01*
X87197701Y-120991373D01*
X87214112Y-121158000D01*
X87197701Y-121324627D01*
X87149096Y-121484857D01*
X87070169Y-121632518D01*
X86963949Y-121761949D01*
X86834518Y-121868169D01*
X86686857Y-121947096D01*
X86686855Y-121947097D01*
X86606742Y-121971398D01*
X86526627Y-121995701D01*
X86401752Y-122008000D01*
X86318248Y-122008000D01*
X86193373Y-121995701D01*
X86113258Y-121971398D01*
X86033145Y-121947097D01*
X86033143Y-121947096D01*
X85885482Y-121868169D01*
X85756051Y-121761949D01*
X85649831Y-121632518D01*
X85570904Y-121484857D01*
X85522299Y-121324627D01*
X85505888Y-121158000D01*
X85522299Y-120991373D01*
X85570904Y-120831143D01*
X85649831Y-120683482D01*
X85756051Y-120554051D01*
X85885482Y-120447831D01*
X86033143Y-120368904D01*
X86033145Y-120368903D01*
X86113258Y-120344601D01*
X86193373Y-120320299D01*
X86318248Y-120308000D01*
X86401752Y-120308000D01*
X86526627Y-120320299D01*
X86526627Y-120320299D01*
G37*
G36*
X89066627Y-120320299D02*
G01*
X89146742Y-120344601D01*
X89226855Y-120368903D01*
X89226857Y-120368904D01*
X89374518Y-120447831D01*
X89503949Y-120554051D01*
X89610169Y-120683482D01*
X89689096Y-120831143D01*
X89737701Y-120991373D01*
X89754112Y-121158000D01*
X89737701Y-121324627D01*
X89689096Y-121484857D01*
X89610169Y-121632518D01*
X89503949Y-121761949D01*
X89374518Y-121868169D01*
X89226857Y-121947096D01*
X89226855Y-121947097D01*
X89146742Y-121971398D01*
X89066627Y-121995701D01*
X88941752Y-122008000D01*
X88858248Y-122008000D01*
X88733373Y-121995701D01*
X88653258Y-121971398D01*
X88573145Y-121947097D01*
X88573143Y-121947096D01*
X88425482Y-121868169D01*
X88296051Y-121761949D01*
X88189831Y-121632518D01*
X88110904Y-121484857D01*
X88062299Y-121324627D01*
X88045888Y-121158000D01*
X88062299Y-120991373D01*
X88110904Y-120831143D01*
X88189831Y-120683482D01*
X88296051Y-120554051D01*
X88425482Y-120447831D01*
X88573143Y-120368904D01*
X88573145Y-120368903D01*
X88653258Y-120344601D01*
X88733373Y-120320299D01*
X88858248Y-120308000D01*
X88941752Y-120308000D01*
X89066627Y-120320299D01*
X89066627Y-120320299D01*
G37*
G36*
X71974600Y-116499200D02*
G01*
X66974600Y-116499200D01*
X66974600Y-111999200D01*
X71974600Y-111999200D01*
X71974600Y-116499200D01*
X71974600Y-116499200D01*
G37*
G36*
X56317534Y-111657643D02*
G01*
X56590515Y-111770716D01*
X56590517Y-111770717D01*
X56714190Y-111853353D01*
X56836193Y-111934873D01*
X57045127Y-112143807D01*
X57088831Y-112209215D01*
X57197113Y-112371269D01*
X57209284Y-112389485D01*
X57322357Y-112662466D01*
X57380000Y-112952262D01*
X57380000Y-113247738D01*
X57322357Y-113537534D01*
X57209284Y-113810515D01*
X57209283Y-113810517D01*
X57045126Y-114056194D01*
X56836194Y-114265126D01*
X56590517Y-114429283D01*
X56590516Y-114429284D01*
X56590515Y-114429284D01*
X56317534Y-114542357D01*
X56027738Y-114600000D01*
X55732262Y-114600000D01*
X55442466Y-114542357D01*
X55169485Y-114429284D01*
X55169484Y-114429284D01*
X55169483Y-114429283D01*
X54923806Y-114265126D01*
X54714874Y-114056194D01*
X54550717Y-113810517D01*
X54550716Y-113810515D01*
X54437643Y-113537534D01*
X54380000Y-113247738D01*
X54380000Y-112952262D01*
X54437643Y-112662466D01*
X54550716Y-112389485D01*
X54562888Y-112371269D01*
X54671169Y-112209215D01*
X54714873Y-112143807D01*
X54923807Y-111934873D01*
X55045810Y-111853353D01*
X55169483Y-111770717D01*
X55169485Y-111770716D01*
X55442466Y-111657643D01*
X55732262Y-111600000D01*
X56027738Y-111600000D01*
X56317534Y-111657643D01*
X56317534Y-111657643D01*
G37*
G36*
X142385843Y-112209214D02*
G01*
X142385846Y-112209215D01*
X142385845Y-112209215D01*
X142476839Y-112246906D01*
X142518063Y-112274451D01*
X142558730Y-112301624D01*
X142628376Y-112371270D01*
X142683095Y-112453163D01*
X142720786Y-112544157D01*
X142740000Y-112640753D01*
X142740000Y-112739247D01*
X142720786Y-112835843D01*
X142720785Y-112835845D01*
X142683094Y-112926839D01*
X142628375Y-113008731D01*
X142558731Y-113078375D01*
X142476839Y-113133094D01*
X142476838Y-113133095D01*
X142476837Y-113133095D01*
X142385843Y-113170786D01*
X142289247Y-113190000D01*
X142190753Y-113190000D01*
X142094157Y-113170786D01*
X142003163Y-113133095D01*
X142003162Y-113133095D01*
X142003161Y-113133094D01*
X141921269Y-113078375D01*
X141851625Y-113008731D01*
X141796906Y-112926839D01*
X141759215Y-112835845D01*
X141759214Y-112835843D01*
X141740000Y-112739247D01*
X141740000Y-112640753D01*
X141759214Y-112544157D01*
X141796905Y-112453163D01*
X141851624Y-112371270D01*
X141921270Y-112301624D01*
X141961937Y-112274451D01*
X142003161Y-112246906D01*
X142094155Y-112209215D01*
X142094154Y-112209215D01*
X142094157Y-112209214D01*
X142190753Y-112190000D01*
X142289247Y-112190000D01*
X142385843Y-112209214D01*
X142385843Y-112209214D01*
G37*
G36*
X57380000Y-110720000D02*
G01*
X54380000Y-110720000D01*
X54380000Y-107720000D01*
X57380000Y-107720000D01*
X57380000Y-110720000D01*
X57380000Y-110720000D01*
G37*
G36*
X86090000Y-110474000D02*
G01*
X84090000Y-110474000D01*
X84090000Y-108474000D01*
X86090000Y-108474000D01*
X86090000Y-110474000D01*
X86090000Y-110474000D01*
G37*
G36*
X92917290Y-108499619D02*
G01*
X92981689Y-108512429D01*
X93163678Y-108587811D01*
X93327463Y-108697249D01*
X93466751Y-108836537D01*
X93576189Y-109000322D01*
X93651571Y-109182311D01*
X93690000Y-109375509D01*
X93690000Y-109572491D01*
X93651571Y-109765689D01*
X93576189Y-109947678D01*
X93466751Y-110111463D01*
X93327463Y-110250751D01*
X93163678Y-110360189D01*
X92981689Y-110435571D01*
X92917290Y-110448381D01*
X92788493Y-110474000D01*
X92591507Y-110474000D01*
X92462710Y-110448381D01*
X92398311Y-110435571D01*
X92216322Y-110360189D01*
X92052537Y-110250751D01*
X91913249Y-110111463D01*
X91803811Y-109947678D01*
X91728429Y-109765689D01*
X91690000Y-109572491D01*
X91690000Y-109375509D01*
X91728429Y-109182311D01*
X91803811Y-109000322D01*
X91913249Y-108836537D01*
X92052537Y-108697249D01*
X92216322Y-108587811D01*
X92398311Y-108512429D01*
X92462710Y-108499619D01*
X92591507Y-108474000D01*
X92788493Y-108474000D01*
X92917290Y-108499619D01*
X92917290Y-108499619D01*
G37*
G36*
X77174600Y-109749200D02*
G01*
X72674600Y-109749200D01*
X72674600Y-104849200D01*
X77174600Y-104849200D01*
X77174600Y-109749200D01*
X77174600Y-109749200D01*
G37*
G36*
X83174600Y-109749200D02*
G01*
X78674600Y-109749200D01*
X78674600Y-104849200D01*
X83174600Y-104849200D01*
X83174600Y-109749200D01*
X83174600Y-109749200D01*
G37*
G36*
X142385843Y-107809214D02*
G01*
X142385846Y-107809215D01*
X142385845Y-107809215D01*
X142476839Y-107846906D01*
X142518063Y-107874451D01*
X142558730Y-107901624D01*
X142628376Y-107971270D01*
X142683095Y-108053163D01*
X142720786Y-108144157D01*
X142740000Y-108240753D01*
X142740000Y-108339247D01*
X142720786Y-108435843D01*
X142683095Y-108526837D01*
X142642354Y-108587811D01*
X142628375Y-108608731D01*
X142558731Y-108678375D01*
X142476839Y-108733094D01*
X142476838Y-108733095D01*
X142476837Y-108733095D01*
X142385843Y-108770786D01*
X142289247Y-108790000D01*
X142190753Y-108790000D01*
X142094157Y-108770786D01*
X142003163Y-108733095D01*
X142003162Y-108733095D01*
X142003161Y-108733094D01*
X141921269Y-108678375D01*
X141851625Y-108608731D01*
X141837647Y-108587811D01*
X141796905Y-108526837D01*
X141759214Y-108435843D01*
X141740000Y-108339247D01*
X141740000Y-108240753D01*
X141759214Y-108144157D01*
X141796905Y-108053163D01*
X141851624Y-107971270D01*
X141921270Y-107901624D01*
X141961937Y-107874451D01*
X142003161Y-107846906D01*
X142094155Y-107809215D01*
X142094154Y-107809215D01*
X142094157Y-107809214D01*
X142190753Y-107790000D01*
X142289247Y-107790000D01*
X142385843Y-107809214D01*
X142385843Y-107809214D01*
G37*
G36*
X131406000Y-102958000D02*
G01*
X129706000Y-102958000D01*
X129706000Y-101258000D01*
X131406000Y-101258000D01*
X131406000Y-102958000D01*
X131406000Y-102958000D01*
G37*
G36*
X143734345Y-99733995D02*
G01*
X143767451Y-99744038D01*
X143797964Y-99760347D01*
X143824706Y-99782294D01*
X143846653Y-99809036D01*
X143862962Y-99839549D01*
X143873005Y-99872655D01*
X143877000Y-99913221D01*
X143877000Y-100746779D01*
X143873005Y-100787345D01*
X143862962Y-100820451D01*
X143846653Y-100850964D01*
X143824706Y-100877706D01*
X143797964Y-100899653D01*
X143767451Y-100915962D01*
X143734345Y-100926005D01*
X143693779Y-100930000D01*
X142310221Y-100930000D01*
X142269655Y-100926005D01*
X142236549Y-100915962D01*
X142206036Y-100899653D01*
X142179294Y-100877706D01*
X142157347Y-100850964D01*
X142141038Y-100820451D01*
X142130995Y-100787345D01*
X142127000Y-100746779D01*
X142127000Y-99913221D01*
X142130995Y-99872655D01*
X142141038Y-99839549D01*
X142157347Y-99809036D01*
X142179294Y-99782294D01*
X142206036Y-99760347D01*
X142236549Y-99744038D01*
X142269655Y-99733995D01*
X142310221Y-99730000D01*
X143693779Y-99730000D01*
X143734345Y-99733995D01*
X143734345Y-99733995D01*
G37*
G36*
X130722627Y-98730299D02*
G01*
X130802742Y-98754602D01*
X130882855Y-98778903D01*
X130882857Y-98778904D01*
X131030518Y-98857831D01*
X131159949Y-98964051D01*
X131266169Y-99093482D01*
X131345096Y-99241143D01*
X131393701Y-99401373D01*
X131410112Y-99568000D01*
X131393701Y-99734627D01*
X131393700Y-99734629D01*
X131361874Y-99839549D01*
X131345096Y-99894857D01*
X131266169Y-100042518D01*
X131159949Y-100171949D01*
X131030518Y-100278169D01*
X130882857Y-100357096D01*
X130882855Y-100357097D01*
X130802742Y-100381399D01*
X130722627Y-100405701D01*
X130597752Y-100418000D01*
X130514248Y-100418000D01*
X130389373Y-100405701D01*
X130309258Y-100381399D01*
X130229145Y-100357097D01*
X130229143Y-100357096D01*
X130081482Y-100278169D01*
X129952051Y-100171949D01*
X129845831Y-100042518D01*
X129766904Y-99894857D01*
X129750127Y-99839549D01*
X129718300Y-99734629D01*
X129718299Y-99734627D01*
X129701888Y-99568000D01*
X129718299Y-99401373D01*
X129766904Y-99241143D01*
X129845831Y-99093482D01*
X129952051Y-98964051D01*
X130081482Y-98857831D01*
X130229143Y-98778904D01*
X130229145Y-98778903D01*
X130309258Y-98754602D01*
X130389373Y-98730299D01*
X130514248Y-98718000D01*
X130597752Y-98718000D01*
X130722627Y-98730299D01*
X130722627Y-98730299D01*
G37*
G36*
X143394621Y-97738682D02*
G01*
X143507721Y-97772990D01*
X143611955Y-97828704D01*
X143703317Y-97903683D01*
X143778296Y-97995045D01*
X143834010Y-98099279D01*
X143868318Y-98212379D01*
X143879903Y-98330000D01*
X143868318Y-98447621D01*
X143834010Y-98560721D01*
X143778296Y-98664955D01*
X143703317Y-98756317D01*
X143611955Y-98831296D01*
X143507721Y-98887010D01*
X143394621Y-98921318D01*
X143306474Y-98930000D01*
X142697526Y-98930000D01*
X142609379Y-98921318D01*
X142496279Y-98887010D01*
X142392045Y-98831296D01*
X142300683Y-98756317D01*
X142225704Y-98664955D01*
X142169990Y-98560721D01*
X142135682Y-98447621D01*
X142124097Y-98330000D01*
X142135682Y-98212379D01*
X142169990Y-98099279D01*
X142225704Y-97995045D01*
X142300683Y-97903683D01*
X142392045Y-97828704D01*
X142496279Y-97772990D01*
X142609379Y-97738682D01*
X142697526Y-97730000D01*
X143306474Y-97730000D01*
X143394621Y-97738682D01*
X143394621Y-97738682D01*
G37*
G36*
X73937290Y-95154219D02*
G01*
X74001689Y-95167029D01*
X74183678Y-95242411D01*
X74347463Y-95351849D01*
X74486751Y-95491137D01*
X74596189Y-95654922D01*
X74671571Y-95836911D01*
X74710000Y-96030109D01*
X74710000Y-96227091D01*
X74671571Y-96420289D01*
X74596189Y-96602278D01*
X74486751Y-96766063D01*
X74347463Y-96905351D01*
X74183678Y-97014789D01*
X74001689Y-97090171D01*
X73937290Y-97102981D01*
X73808493Y-97128600D01*
X73611507Y-97128600D01*
X73482710Y-97102981D01*
X73418311Y-97090171D01*
X73236322Y-97014789D01*
X73072537Y-96905351D01*
X72933249Y-96766063D01*
X72823811Y-96602278D01*
X72748429Y-96420289D01*
X72710000Y-96227091D01*
X72710000Y-96030109D01*
X72748429Y-95836911D01*
X72823811Y-95654922D01*
X72933249Y-95491137D01*
X73072537Y-95351849D01*
X73236322Y-95242411D01*
X73418311Y-95167029D01*
X73482710Y-95154219D01*
X73611507Y-95128600D01*
X73808493Y-95128600D01*
X73937290Y-95154219D01*
X73937290Y-95154219D01*
G37*
G36*
X78937290Y-95154219D02*
G01*
X79001689Y-95167029D01*
X79183678Y-95242411D01*
X79347463Y-95351849D01*
X79486751Y-95491137D01*
X79596189Y-95654922D01*
X79671571Y-95836911D01*
X79710000Y-96030109D01*
X79710000Y-96227091D01*
X79671571Y-96420289D01*
X79596189Y-96602278D01*
X79486751Y-96766063D01*
X79347463Y-96905351D01*
X79183678Y-97014789D01*
X79001689Y-97090171D01*
X78937290Y-97102981D01*
X78808493Y-97128600D01*
X78611507Y-97128600D01*
X78482710Y-97102981D01*
X78418311Y-97090171D01*
X78236322Y-97014789D01*
X78072537Y-96905351D01*
X77933249Y-96766063D01*
X77823811Y-96602278D01*
X77748429Y-96420289D01*
X77710000Y-96227091D01*
X77710000Y-96030109D01*
X77748429Y-95836911D01*
X77823811Y-95654922D01*
X77933249Y-95491137D01*
X78072537Y-95351849D01*
X78236322Y-95242411D01*
X78418311Y-95167029D01*
X78482710Y-95154219D01*
X78611507Y-95128600D01*
X78808493Y-95128600D01*
X78937290Y-95154219D01*
X78937290Y-95154219D01*
G37*
G36*
X104337290Y-95154219D02*
G01*
X104401689Y-95167029D01*
X104583678Y-95242411D01*
X104747463Y-95351849D01*
X104886751Y-95491137D01*
X104996189Y-95654922D01*
X105071571Y-95836911D01*
X105110000Y-96030109D01*
X105110000Y-96227091D01*
X105071571Y-96420289D01*
X104996189Y-96602278D01*
X104886751Y-96766063D01*
X104747463Y-96905351D01*
X104583678Y-97014789D01*
X104401689Y-97090171D01*
X104337290Y-97102981D01*
X104208493Y-97128600D01*
X104011507Y-97128600D01*
X103882710Y-97102981D01*
X103818311Y-97090171D01*
X103636322Y-97014789D01*
X103472537Y-96905351D01*
X103333249Y-96766063D01*
X103223811Y-96602278D01*
X103148429Y-96420289D01*
X103110000Y-96227091D01*
X103110000Y-96030109D01*
X103148429Y-95836911D01*
X103223811Y-95654922D01*
X103333249Y-95491137D01*
X103472537Y-95351849D01*
X103636322Y-95242411D01*
X103818311Y-95167029D01*
X103882710Y-95154219D01*
X104011507Y-95128600D01*
X104208493Y-95128600D01*
X104337290Y-95154219D01*
X104337290Y-95154219D01*
G37*
G36*
X99337290Y-95154219D02*
G01*
X99401689Y-95167029D01*
X99583678Y-95242411D01*
X99747463Y-95351849D01*
X99886751Y-95491137D01*
X99996189Y-95654922D01*
X100071571Y-95836911D01*
X100110000Y-96030109D01*
X100110000Y-96227091D01*
X100071571Y-96420289D01*
X99996189Y-96602278D01*
X99886751Y-96766063D01*
X99747463Y-96905351D01*
X99583678Y-97014789D01*
X99401689Y-97090171D01*
X99337290Y-97102981D01*
X99208493Y-97128600D01*
X99011507Y-97128600D01*
X98882710Y-97102981D01*
X98818311Y-97090171D01*
X98636322Y-97014789D01*
X98472537Y-96905351D01*
X98333249Y-96766063D01*
X98223811Y-96602278D01*
X98148429Y-96420289D01*
X98110000Y-96227091D01*
X98110000Y-96030109D01*
X98148429Y-95836911D01*
X98223811Y-95654922D01*
X98333249Y-95491137D01*
X98472537Y-95351849D01*
X98636322Y-95242411D01*
X98818311Y-95167029D01*
X98882710Y-95154219D01*
X99011507Y-95128600D01*
X99208493Y-95128600D01*
X99337290Y-95154219D01*
X99337290Y-95154219D01*
G37*
G36*
X127475656Y-92484761D02*
G01*
X127583076Y-92529256D01*
X127734991Y-92592181D01*
X127968385Y-92748130D01*
X128166870Y-92946615D01*
X128322819Y-93180009D01*
X128378298Y-93313948D01*
X128430239Y-93439344D01*
X128485000Y-93714648D01*
X128485000Y-93995352D01*
X128430239Y-94270656D01*
X128385744Y-94378076D01*
X128322819Y-94529991D01*
X128166870Y-94763385D01*
X127968385Y-94961870D01*
X127734991Y-95117819D01*
X127583076Y-95180744D01*
X127475656Y-95225239D01*
X127200352Y-95280000D01*
X126919648Y-95280000D01*
X126644344Y-95225239D01*
X126536924Y-95180744D01*
X126385009Y-95117819D01*
X126151615Y-94961870D01*
X125953130Y-94763385D01*
X125797181Y-94529991D01*
X125734256Y-94378076D01*
X125689761Y-94270656D01*
X125635000Y-93995352D01*
X125635000Y-93714648D01*
X125689761Y-93439344D01*
X125741702Y-93313948D01*
X125797181Y-93180009D01*
X125953130Y-92946615D01*
X126151615Y-92748130D01*
X126385009Y-92592181D01*
X126536924Y-92529256D01*
X126644344Y-92484761D01*
X126919648Y-92430000D01*
X127200352Y-92430000D01*
X127475656Y-92484761D01*
X127475656Y-92484761D01*
G37*
G36*
X147486627Y-91872299D02*
G01*
X147566742Y-91896602D01*
X147646855Y-91920903D01*
X147646857Y-91920904D01*
X147794518Y-91999831D01*
X147923949Y-92106051D01*
X148030169Y-92235482D01*
X148109096Y-92383143D01*
X148157701Y-92543373D01*
X148174112Y-92710000D01*
X148157701Y-92876627D01*
X148109096Y-93036857D01*
X148030169Y-93184518D01*
X147923949Y-93313949D01*
X147794518Y-93420169D01*
X147758646Y-93439343D01*
X147646855Y-93499097D01*
X147566742Y-93523398D01*
X147486627Y-93547701D01*
X147361752Y-93560000D01*
X147278248Y-93560000D01*
X147153373Y-93547701D01*
X147073258Y-93523398D01*
X146993145Y-93499097D01*
X146881354Y-93439343D01*
X146845482Y-93420169D01*
X146716051Y-93313949D01*
X146609831Y-93184518D01*
X146530904Y-93036857D01*
X146482299Y-92876627D01*
X146465888Y-92710000D01*
X146482299Y-92543373D01*
X146530904Y-92383143D01*
X146609831Y-92235482D01*
X146716051Y-92106051D01*
X146845482Y-91999831D01*
X146993143Y-91920904D01*
X146993145Y-91920903D01*
X147073258Y-91896602D01*
X147153373Y-91872299D01*
X147278248Y-91860000D01*
X147361752Y-91860000D01*
X147486627Y-91872299D01*
X147486627Y-91872299D01*
G37*
G36*
X147486627Y-89332299D02*
G01*
X147566742Y-89356602D01*
X147646855Y-89380903D01*
X147646857Y-89380904D01*
X147794518Y-89459831D01*
X147923949Y-89566051D01*
X148030169Y-89695482D01*
X148109096Y-89843143D01*
X148157701Y-90003373D01*
X148174112Y-90170000D01*
X148157701Y-90336627D01*
X148109096Y-90496857D01*
X148030169Y-90644518D01*
X147923949Y-90773949D01*
X147794518Y-90880169D01*
X147646857Y-90959096D01*
X147646855Y-90959097D01*
X147566742Y-90983399D01*
X147486627Y-91007701D01*
X147361752Y-91020000D01*
X147278248Y-91020000D01*
X147153373Y-91007701D01*
X147073258Y-90983399D01*
X146993145Y-90959097D01*
X146993143Y-90959096D01*
X146845482Y-90880169D01*
X146716051Y-90773949D01*
X146609831Y-90644518D01*
X146530904Y-90496857D01*
X146482299Y-90336627D01*
X146465888Y-90170000D01*
X146482299Y-90003373D01*
X146530904Y-89843143D01*
X146609831Y-89695482D01*
X146716051Y-89566051D01*
X146845482Y-89459831D01*
X146993143Y-89380904D01*
X146993145Y-89380903D01*
X147073258Y-89356602D01*
X147153373Y-89332299D01*
X147278248Y-89320000D01*
X147361752Y-89320000D01*
X147486627Y-89332299D01*
X147486627Y-89332299D01*
G37*
G36*
X83310000Y-90928600D02*
G01*
X80510000Y-90928600D01*
X80510000Y-87328600D01*
X83310000Y-87328600D01*
X83310000Y-90928600D01*
X83310000Y-90928600D01*
G37*
G36*
X71910000Y-90928600D02*
G01*
X69110000Y-90928600D01*
X69110000Y-87328600D01*
X71910000Y-87328600D01*
X71910000Y-90928600D01*
X71910000Y-90928600D01*
G37*
G36*
X108710000Y-90928600D02*
G01*
X105910000Y-90928600D01*
X105910000Y-87328600D01*
X108710000Y-87328600D01*
X108710000Y-90928600D01*
X108710000Y-90928600D01*
G37*
G36*
X97310000Y-90928600D02*
G01*
X94510000Y-90928600D01*
X94510000Y-87328600D01*
X97310000Y-87328600D01*
X97310000Y-90928600D01*
X97310000Y-90928600D01*
G37*
G36*
X127475656Y-87784761D02*
G01*
X127583076Y-87829256D01*
X127734991Y-87892181D01*
X127968385Y-88048130D01*
X128166870Y-88246615D01*
X128322819Y-88480009D01*
X128385744Y-88631924D01*
X128430239Y-88739344D01*
X128485000Y-89014648D01*
X128485000Y-89295352D01*
X128430239Y-89570656D01*
X128385744Y-89678076D01*
X128322819Y-89829991D01*
X128166870Y-90063385D01*
X127968385Y-90261870D01*
X127734991Y-90417819D01*
X127583076Y-90480744D01*
X127475656Y-90525239D01*
X127200352Y-90580000D01*
X126919648Y-90580000D01*
X126644344Y-90525239D01*
X126536924Y-90480744D01*
X126385009Y-90417819D01*
X126151615Y-90261870D01*
X125953130Y-90063385D01*
X125797181Y-89829991D01*
X125734256Y-89678076D01*
X125689761Y-89570656D01*
X125635000Y-89295352D01*
X125635000Y-89014648D01*
X125689761Y-88739344D01*
X125734256Y-88631924D01*
X125797181Y-88480009D01*
X125953130Y-88246615D01*
X126151615Y-88048130D01*
X126385009Y-87892181D01*
X126536924Y-87829256D01*
X126644344Y-87784761D01*
X126919648Y-87730000D01*
X127200352Y-87730000D01*
X127475656Y-87784761D01*
X127475656Y-87784761D01*
G37*
G36*
X147486627Y-86792299D02*
G01*
X147566742Y-86816601D01*
X147646855Y-86840903D01*
X147646857Y-86840904D01*
X147794518Y-86919831D01*
X147923949Y-87026051D01*
X148030168Y-87155481D01*
X148109097Y-87303145D01*
X148133399Y-87383258D01*
X148157701Y-87463373D01*
X148174112Y-87630000D01*
X148157701Y-87796627D01*
X148109096Y-87956857D01*
X148030169Y-88104518D01*
X147923949Y-88233949D01*
X147794518Y-88340169D01*
X147646857Y-88419096D01*
X147646855Y-88419097D01*
X147566742Y-88443399D01*
X147486627Y-88467701D01*
X147361752Y-88480000D01*
X147278248Y-88480000D01*
X147153373Y-88467701D01*
X147073258Y-88443399D01*
X146993145Y-88419097D01*
X146993143Y-88419096D01*
X146845482Y-88340169D01*
X146716051Y-88233949D01*
X146609831Y-88104518D01*
X146530904Y-87956857D01*
X146482299Y-87796627D01*
X146465888Y-87630000D01*
X146482299Y-87463373D01*
X146506601Y-87383258D01*
X146530903Y-87303145D01*
X146609832Y-87155481D01*
X146716051Y-87026051D01*
X146845482Y-86919831D01*
X146993143Y-86840904D01*
X146993145Y-86840903D01*
X147073258Y-86816601D01*
X147153373Y-86792299D01*
X147278248Y-86780000D01*
X147361752Y-86780000D01*
X147486627Y-86792299D01*
X147486627Y-86792299D01*
G37*
G36*
X148170000Y-85940000D02*
G01*
X146470000Y-85940000D01*
X146470000Y-84240000D01*
X148170000Y-84240000D01*
X148170000Y-85940000D01*
X148170000Y-85940000D01*
G37*
G36*
X128485000Y-85880000D02*
G01*
X125635000Y-85880000D01*
X125635000Y-83030000D01*
X128485000Y-83030000D01*
X128485000Y-85880000D01*
X128485000Y-85880000D01*
G37*
G36*
X99303313Y-80647461D02*
G01*
X99401689Y-80667029D01*
X99583678Y-80742411D01*
X99747463Y-80851849D01*
X99886751Y-80991137D01*
X99996189Y-81154922D01*
X100071571Y-81336911D01*
X100110000Y-81530109D01*
X100110000Y-81727091D01*
X100071571Y-81920289D01*
X99996189Y-82102278D01*
X99886751Y-82266063D01*
X99747463Y-82405351D01*
X99583678Y-82514789D01*
X99401689Y-82590171D01*
X99337290Y-82602981D01*
X99208493Y-82628600D01*
X99011507Y-82628600D01*
X98882710Y-82602981D01*
X98818311Y-82590171D01*
X98636322Y-82514789D01*
X98472537Y-82405351D01*
X98333249Y-82266063D01*
X98223811Y-82102278D01*
X98148429Y-81920289D01*
X98110000Y-81727091D01*
X98110000Y-81530109D01*
X98148429Y-81336911D01*
X98223811Y-81154922D01*
X98333249Y-80991137D01*
X98472537Y-80851849D01*
X98636322Y-80742411D01*
X98818311Y-80667029D01*
X98916687Y-80647461D01*
X99011507Y-80628600D01*
X99208493Y-80628600D01*
X99303313Y-80647461D01*
X99303313Y-80647461D01*
G37*
G36*
X78903313Y-80647461D02*
G01*
X79001689Y-80667029D01*
X79183678Y-80742411D01*
X79347463Y-80851849D01*
X79486751Y-80991137D01*
X79596189Y-81154922D01*
X79671571Y-81336911D01*
X79710000Y-81530109D01*
X79710000Y-81727091D01*
X79671571Y-81920289D01*
X79596189Y-82102278D01*
X79486751Y-82266063D01*
X79347463Y-82405351D01*
X79183678Y-82514789D01*
X79001689Y-82590171D01*
X78937290Y-82602981D01*
X78808493Y-82628600D01*
X78611507Y-82628600D01*
X78482710Y-82602981D01*
X78418311Y-82590171D01*
X78236322Y-82514789D01*
X78072537Y-82405351D01*
X77933249Y-82266063D01*
X77823811Y-82102278D01*
X77748429Y-81920289D01*
X77710000Y-81727091D01*
X77710000Y-81530109D01*
X77748429Y-81336911D01*
X77823811Y-81154922D01*
X77933249Y-80991137D01*
X78072537Y-80851849D01*
X78236322Y-80742411D01*
X78418311Y-80667029D01*
X78516687Y-80647461D01*
X78611507Y-80628600D01*
X78808493Y-80628600D01*
X78903313Y-80647461D01*
X78903313Y-80647461D01*
G37*
G36*
X101803313Y-80647461D02*
G01*
X101901689Y-80667029D01*
X102083678Y-80742411D01*
X102247463Y-80851849D01*
X102386751Y-80991137D01*
X102496189Y-81154922D01*
X102571571Y-81336911D01*
X102610000Y-81530109D01*
X102610000Y-81727091D01*
X102571571Y-81920289D01*
X102496189Y-82102278D01*
X102386751Y-82266063D01*
X102247463Y-82405351D01*
X102083678Y-82514789D01*
X101901689Y-82590171D01*
X101837290Y-82602981D01*
X101708493Y-82628600D01*
X101511507Y-82628600D01*
X101382710Y-82602981D01*
X101318311Y-82590171D01*
X101136322Y-82514789D01*
X100972537Y-82405351D01*
X100833249Y-82266063D01*
X100723811Y-82102278D01*
X100648429Y-81920289D01*
X100610000Y-81727091D01*
X100610000Y-81530109D01*
X100648429Y-81336911D01*
X100723811Y-81154922D01*
X100833249Y-80991137D01*
X100972537Y-80851849D01*
X101136322Y-80742411D01*
X101318311Y-80667029D01*
X101416687Y-80647461D01*
X101511507Y-80628600D01*
X101708493Y-80628600D01*
X101803313Y-80647461D01*
X101803313Y-80647461D01*
G37*
G36*
X104303313Y-80647461D02*
G01*
X104401689Y-80667029D01*
X104583678Y-80742411D01*
X104747463Y-80851849D01*
X104886751Y-80991137D01*
X104996189Y-81154922D01*
X105071571Y-81336911D01*
X105110000Y-81530109D01*
X105110000Y-81727091D01*
X105071571Y-81920289D01*
X104996189Y-82102278D01*
X104886751Y-82266063D01*
X104747463Y-82405351D01*
X104583678Y-82514789D01*
X104401689Y-82590171D01*
X104337290Y-82602981D01*
X104208493Y-82628600D01*
X104011507Y-82628600D01*
X103882710Y-82602981D01*
X103818311Y-82590171D01*
X103636322Y-82514789D01*
X103472537Y-82405351D01*
X103333249Y-82266063D01*
X103223811Y-82102278D01*
X103148429Y-81920289D01*
X103110000Y-81727091D01*
X103110000Y-81530109D01*
X103148429Y-81336911D01*
X103223811Y-81154922D01*
X103333249Y-80991137D01*
X103472537Y-80851849D01*
X103636322Y-80742411D01*
X103818311Y-80667029D01*
X103916687Y-80647461D01*
X104011507Y-80628600D01*
X104208493Y-80628600D01*
X104303313Y-80647461D01*
X104303313Y-80647461D01*
G37*
G36*
X76403313Y-80647461D02*
G01*
X76501689Y-80667029D01*
X76683678Y-80742411D01*
X76847463Y-80851849D01*
X76986751Y-80991137D01*
X77096189Y-81154922D01*
X77171571Y-81336911D01*
X77210000Y-81530109D01*
X77210000Y-81727091D01*
X77171571Y-81920289D01*
X77096189Y-82102278D01*
X76986751Y-82266063D01*
X76847463Y-82405351D01*
X76683678Y-82514789D01*
X76501689Y-82590171D01*
X76437290Y-82602981D01*
X76308493Y-82628600D01*
X76111507Y-82628600D01*
X75982710Y-82602981D01*
X75918311Y-82590171D01*
X75736322Y-82514789D01*
X75572537Y-82405351D01*
X75433249Y-82266063D01*
X75323811Y-82102278D01*
X75248429Y-81920289D01*
X75210000Y-81727091D01*
X75210000Y-81530109D01*
X75248429Y-81336911D01*
X75323811Y-81154922D01*
X75433249Y-80991137D01*
X75572537Y-80851849D01*
X75736322Y-80742411D01*
X75918311Y-80667029D01*
X76016687Y-80647461D01*
X76111507Y-80628600D01*
X76308493Y-80628600D01*
X76403313Y-80647461D01*
X76403313Y-80647461D01*
G37*
G36*
X73903313Y-80647461D02*
G01*
X74001689Y-80667029D01*
X74183678Y-80742411D01*
X74347463Y-80851849D01*
X74486751Y-80991137D01*
X74596189Y-81154922D01*
X74671571Y-81336911D01*
X74710000Y-81530109D01*
X74710000Y-81727091D01*
X74671571Y-81920289D01*
X74596189Y-82102278D01*
X74486751Y-82266063D01*
X74347463Y-82405351D01*
X74183678Y-82514789D01*
X74001689Y-82590171D01*
X73937290Y-82602981D01*
X73808493Y-82628600D01*
X73611507Y-82628600D01*
X73482710Y-82602981D01*
X73418311Y-82590171D01*
X73236322Y-82514789D01*
X73072537Y-82405351D01*
X72933249Y-82266063D01*
X72823811Y-82102278D01*
X72748429Y-81920289D01*
X72710000Y-81727091D01*
X72710000Y-81530109D01*
X72748429Y-81336911D01*
X72823811Y-81154922D01*
X72933249Y-80991137D01*
X73072537Y-80851849D01*
X73236322Y-80742411D01*
X73418311Y-80667029D01*
X73516687Y-80647461D01*
X73611507Y-80628600D01*
X73808493Y-80628600D01*
X73903313Y-80647461D01*
X73903313Y-80647461D01*
G37*
G36*
X146010636Y-78663439D02*
G01*
X146038308Y-78671834D01*
X146063824Y-78685473D01*
X146086180Y-78703820D01*
X146104527Y-78726176D01*
X146118166Y-78751692D01*
X146126561Y-78779364D01*
X146130000Y-78814288D01*
X146130000Y-81205712D01*
X146126561Y-81240636D01*
X146118166Y-81268308D01*
X146104527Y-81293824D01*
X146086180Y-81316180D01*
X146063824Y-81334527D01*
X146038308Y-81348166D01*
X146010636Y-81356561D01*
X145975712Y-81360000D01*
X143584288Y-81360000D01*
X143549364Y-81356561D01*
X143521692Y-81348166D01*
X143496176Y-81334527D01*
X143473820Y-81316180D01*
X143455473Y-81293824D01*
X143441834Y-81268308D01*
X143433439Y-81240636D01*
X143430000Y-81205712D01*
X143430000Y-78814288D01*
X143433439Y-78779364D01*
X143441834Y-78751692D01*
X143455473Y-78726176D01*
X143473820Y-78703820D01*
X143496176Y-78685473D01*
X143521692Y-78671834D01*
X143549364Y-78663439D01*
X143584288Y-78660000D01*
X145975712Y-78660000D01*
X146010636Y-78663439D01*
X146010636Y-78663439D01*
G37*
G36*
X132307290Y-79035619D02*
G01*
X132371689Y-79048429D01*
X132553678Y-79123811D01*
X132717463Y-79233249D01*
X132856751Y-79372537D01*
X132966189Y-79536322D01*
X133041571Y-79718311D01*
X133080000Y-79911509D01*
X133080000Y-80108491D01*
X133041571Y-80301689D01*
X132966189Y-80483678D01*
X132856751Y-80647463D01*
X132717463Y-80786751D01*
X132553678Y-80896189D01*
X132371689Y-80971571D01*
X132307290Y-80984381D01*
X132178493Y-81010000D01*
X131981507Y-81010000D01*
X131852710Y-80984381D01*
X131788311Y-80971571D01*
X131606322Y-80896189D01*
X131442537Y-80786751D01*
X131303249Y-80647463D01*
X131193811Y-80483678D01*
X131118429Y-80301689D01*
X131080000Y-80108491D01*
X131080000Y-79911509D01*
X131118429Y-79718311D01*
X131193811Y-79536322D01*
X131303249Y-79372537D01*
X131442537Y-79233249D01*
X131606322Y-79123811D01*
X131788311Y-79048429D01*
X131852710Y-79035619D01*
X131981507Y-79010000D01*
X132178493Y-79010000D01*
X132307290Y-79035619D01*
X132307290Y-79035619D01*
G37*
G36*
X137387290Y-79035619D02*
G01*
X137451689Y-79048429D01*
X137633678Y-79123811D01*
X137797463Y-79233249D01*
X137936751Y-79372537D01*
X138046189Y-79536322D01*
X138121571Y-79718311D01*
X138160000Y-79911509D01*
X138160000Y-80108491D01*
X138121571Y-80301689D01*
X138046189Y-80483678D01*
X137936751Y-80647463D01*
X137797463Y-80786751D01*
X137633678Y-80896189D01*
X137451689Y-80971571D01*
X137387290Y-80984381D01*
X137258493Y-81010000D01*
X137061507Y-81010000D01*
X136932710Y-80984381D01*
X136868311Y-80971571D01*
X136686322Y-80896189D01*
X136522537Y-80786751D01*
X136383249Y-80647463D01*
X136273811Y-80483678D01*
X136198429Y-80301689D01*
X136160000Y-80108491D01*
X136160000Y-79911509D01*
X136198429Y-79718311D01*
X136273811Y-79536322D01*
X136383249Y-79372537D01*
X136522537Y-79233249D01*
X136686322Y-79123811D01*
X136868311Y-79048429D01*
X136932710Y-79035619D01*
X137061507Y-79010000D01*
X137258493Y-79010000D01*
X137387290Y-79035619D01*
X137387290Y-79035619D01*
G37*
G36*
X145173779Y-74751879D02*
G01*
X145419463Y-74853645D01*
X145419465Y-74853646D01*
X145530769Y-74928017D01*
X145640574Y-75001386D01*
X145828614Y-75189426D01*
X145976355Y-75410537D01*
X146078121Y-75656221D01*
X146130000Y-75917035D01*
X146130000Y-76182965D01*
X146078121Y-76443779D01*
X145976355Y-76689463D01*
X145976354Y-76689465D01*
X145828613Y-76910575D01*
X145640575Y-77098613D01*
X145419465Y-77246354D01*
X145419464Y-77246355D01*
X145419463Y-77246355D01*
X145173779Y-77348121D01*
X144912965Y-77400000D01*
X144647035Y-77400000D01*
X144386221Y-77348121D01*
X144140537Y-77246355D01*
X144140536Y-77246355D01*
X144140535Y-77246354D01*
X143919425Y-77098613D01*
X143731387Y-76910575D01*
X143583646Y-76689465D01*
X143583645Y-76689463D01*
X143481879Y-76443779D01*
X143430000Y-76182965D01*
X143430000Y-75917035D01*
X143481879Y-75656221D01*
X143583645Y-75410537D01*
X143731386Y-75189426D01*
X143919426Y-75001386D01*
X144029231Y-74928017D01*
X144140535Y-74853646D01*
X144140537Y-74853645D01*
X144386221Y-74751879D01*
X144647035Y-74700000D01*
X144912965Y-74700000D01*
X145173779Y-74751879D01*
X145173779Y-74751879D01*
G37*
G36*
X56292134Y-71881243D02*
G01*
X56565115Y-71994316D01*
X56565117Y-71994317D01*
X56688790Y-72076953D01*
X56810793Y-72158473D01*
X57019727Y-72367407D01*
X57183884Y-72613085D01*
X57296957Y-72886066D01*
X57354600Y-73175862D01*
X57354600Y-73471338D01*
X57296957Y-73761134D01*
X57183884Y-74034115D01*
X57183883Y-74034117D01*
X57019726Y-74279794D01*
X56810794Y-74488726D01*
X56565117Y-74652883D01*
X56565116Y-74652884D01*
X56565115Y-74652884D01*
X56292134Y-74765957D01*
X56002338Y-74823600D01*
X55706862Y-74823600D01*
X55417066Y-74765957D01*
X55144085Y-74652884D01*
X55144084Y-74652884D01*
X55144083Y-74652883D01*
X54898406Y-74488726D01*
X54689474Y-74279794D01*
X54525317Y-74034117D01*
X54525316Y-74034115D01*
X54412243Y-73761134D01*
X54354600Y-73471338D01*
X54354600Y-73175862D01*
X54412243Y-72886066D01*
X54525316Y-72613085D01*
X54689473Y-72367407D01*
X54898407Y-72158473D01*
X55020410Y-72076953D01*
X55144083Y-71994317D01*
X55144085Y-71994316D01*
X55417066Y-71881243D01*
X55706862Y-71823600D01*
X56002338Y-71823600D01*
X56292134Y-71881243D01*
X56292134Y-71881243D01*
G37*
G36*
X145173779Y-70791879D02*
G01*
X145419463Y-70893645D01*
X145419465Y-70893646D01*
X145494226Y-70943600D01*
X145640574Y-71041386D01*
X145828614Y-71229426D01*
X145976355Y-71450537D01*
X146078121Y-71696221D01*
X146130000Y-71957035D01*
X146130000Y-72222965D01*
X146078121Y-72483779D01*
X145976355Y-72729463D01*
X145828614Y-72950574D01*
X145640574Y-73138614D01*
X145530769Y-73211983D01*
X145419465Y-73286354D01*
X145419464Y-73286355D01*
X145419463Y-73286355D01*
X145173779Y-73388121D01*
X144912965Y-73440000D01*
X144647035Y-73440000D01*
X144386221Y-73388121D01*
X144140537Y-73286355D01*
X144140536Y-73286355D01*
X144140535Y-73286354D01*
X144029231Y-73211983D01*
X143919426Y-73138614D01*
X143731386Y-72950574D01*
X143583645Y-72729463D01*
X143481879Y-72483779D01*
X143430000Y-72222965D01*
X143430000Y-71957035D01*
X143481879Y-71696221D01*
X143583645Y-71450537D01*
X143731386Y-71229426D01*
X143919426Y-71041386D01*
X144065774Y-70943600D01*
X144140535Y-70893646D01*
X144140537Y-70893645D01*
X144386221Y-70791879D01*
X144647035Y-70740000D01*
X144912965Y-70740000D01*
X145173779Y-70791879D01*
X145173779Y-70791879D01*
G37*
G36*
X132307290Y-71415619D02*
G01*
X132371689Y-71428429D01*
X132553678Y-71503811D01*
X132717463Y-71613249D01*
X132856751Y-71752537D01*
X132966189Y-71916322D01*
X133041571Y-72098311D01*
X133080000Y-72291509D01*
X133080000Y-72488491D01*
X133041571Y-72681689D01*
X132966189Y-72863678D01*
X132856751Y-73027463D01*
X132717463Y-73166751D01*
X132553678Y-73276189D01*
X132371689Y-73351571D01*
X132307290Y-73364381D01*
X132178493Y-73390000D01*
X131981507Y-73390000D01*
X131852710Y-73364381D01*
X131788311Y-73351571D01*
X131606322Y-73276189D01*
X131442537Y-73166751D01*
X131303249Y-73027463D01*
X131193811Y-72863678D01*
X131118429Y-72681689D01*
X131080000Y-72488491D01*
X131080000Y-72291509D01*
X131118429Y-72098311D01*
X131193811Y-71916322D01*
X131303249Y-71752537D01*
X131442537Y-71613249D01*
X131606322Y-71503811D01*
X131788311Y-71428429D01*
X131852710Y-71415619D01*
X131981507Y-71390000D01*
X132178493Y-71390000D01*
X132307290Y-71415619D01*
X132307290Y-71415619D01*
G37*
G36*
X137387290Y-71415619D02*
G01*
X137451689Y-71428429D01*
X137633678Y-71503811D01*
X137797463Y-71613249D01*
X137936751Y-71752537D01*
X138046189Y-71916322D01*
X138121571Y-72098311D01*
X138160000Y-72291509D01*
X138160000Y-72488491D01*
X138121571Y-72681689D01*
X138046189Y-72863678D01*
X137936751Y-73027463D01*
X137797463Y-73166751D01*
X137633678Y-73276189D01*
X137451689Y-73351571D01*
X137387290Y-73364381D01*
X137258493Y-73390000D01*
X137061507Y-73390000D01*
X136932710Y-73364381D01*
X136868311Y-73351571D01*
X136686322Y-73276189D01*
X136522537Y-73166751D01*
X136383249Y-73027463D01*
X136273811Y-72863678D01*
X136198429Y-72681689D01*
X136160000Y-72488491D01*
X136160000Y-72291509D01*
X136198429Y-72098311D01*
X136273811Y-71916322D01*
X136383249Y-71752537D01*
X136522537Y-71613249D01*
X136686322Y-71503811D01*
X136868311Y-71428429D01*
X136932710Y-71415619D01*
X137061507Y-71390000D01*
X137258493Y-71390000D01*
X137387290Y-71415619D01*
X137387290Y-71415619D01*
G37*
G36*
X57354600Y-70943600D02*
G01*
X54354600Y-70943600D01*
X54354600Y-67943600D01*
X57354600Y-67943600D01*
X57354600Y-70943600D01*
X57354600Y-70943600D01*
G37*
G36*
X137387290Y-68875619D02*
G01*
X137451689Y-68888429D01*
X137633678Y-68963811D01*
X137797463Y-69073249D01*
X137936751Y-69212537D01*
X138046189Y-69376322D01*
X138121571Y-69558311D01*
X138160000Y-69751509D01*
X138160000Y-69948491D01*
X138121571Y-70141689D01*
X138046189Y-70323678D01*
X137936751Y-70487463D01*
X137797463Y-70626751D01*
X137633678Y-70736189D01*
X137451689Y-70811571D01*
X137387290Y-70824381D01*
X137258493Y-70850000D01*
X137061507Y-70850000D01*
X136932710Y-70824381D01*
X136868311Y-70811571D01*
X136686322Y-70736189D01*
X136522537Y-70626751D01*
X136383249Y-70487463D01*
X136273811Y-70323678D01*
X136198429Y-70141689D01*
X136160000Y-69948491D01*
X136160000Y-69751509D01*
X136198429Y-69558311D01*
X136273811Y-69376322D01*
X136383249Y-69212537D01*
X136522537Y-69073249D01*
X136686322Y-68963811D01*
X136868311Y-68888429D01*
X136932710Y-68875619D01*
X137061507Y-68850000D01*
X137258493Y-68850000D01*
X137387290Y-68875619D01*
X137387290Y-68875619D01*
G37*
G36*
X133080000Y-70850000D02*
G01*
X131080000Y-70850000D01*
X131080000Y-68850000D01*
X133080000Y-68850000D01*
X133080000Y-70850000D01*
X133080000Y-70850000D01*
G37*
G36*
X56317534Y-58952643D02*
G01*
X56590515Y-59065716D01*
X56590517Y-59065717D01*
X56714190Y-59148353D01*
X56836193Y-59229873D01*
X57045127Y-59438807D01*
X57209284Y-59684485D01*
X57322357Y-59957466D01*
X57380000Y-60247262D01*
X57380000Y-60542738D01*
X57322357Y-60832534D01*
X57209284Y-61105515D01*
X57209283Y-61105517D01*
X57045126Y-61351194D01*
X56836194Y-61560126D01*
X56590517Y-61724283D01*
X56590516Y-61724284D01*
X56590515Y-61724284D01*
X56317534Y-61837357D01*
X56027738Y-61895000D01*
X55732262Y-61895000D01*
X55442466Y-61837357D01*
X55169485Y-61724284D01*
X55169484Y-61724284D01*
X55169483Y-61724283D01*
X54923806Y-61560126D01*
X54714874Y-61351194D01*
X54550717Y-61105517D01*
X54550716Y-61105515D01*
X54437643Y-60832534D01*
X54380000Y-60542738D01*
X54380000Y-60247262D01*
X54437643Y-59957466D01*
X54550716Y-59684485D01*
X54714873Y-59438807D01*
X54923807Y-59229873D01*
X55045810Y-59148353D01*
X55169483Y-59065717D01*
X55169485Y-59065716D01*
X55442466Y-58952643D01*
X55732262Y-58895000D01*
X56027738Y-58895000D01*
X56317534Y-58952643D01*
X56317534Y-58952643D01*
G37*
G36*
X57380000Y-58015000D02*
G01*
X54380000Y-58015000D01*
X54380000Y-55015000D01*
X57380000Y-55015000D01*
X57380000Y-58015000D01*
X57380000Y-58015000D01*
G37*
G36*
X125179604Y-53351703D02*
G01*
X125422558Y-53452338D01*
X125422559Y-53452339D01*
X125641213Y-53598438D01*
X125827162Y-53784387D01*
X125924782Y-53930487D01*
X125973262Y-54003042D01*
X126073897Y-54245996D01*
X126125200Y-54503913D01*
X126125200Y-54766887D01*
X126073897Y-55024804D01*
X125973262Y-55267758D01*
X125973261Y-55267759D01*
X125827162Y-55486413D01*
X125641213Y-55672362D01*
X125495113Y-55769982D01*
X125422558Y-55818462D01*
X125179604Y-55919097D01*
X124921687Y-55970400D01*
X124658713Y-55970400D01*
X124400796Y-55919097D01*
X124157842Y-55818462D01*
X124085287Y-55769982D01*
X123939187Y-55672362D01*
X123753238Y-55486413D01*
X123607139Y-55267759D01*
X123607138Y-55267758D01*
X123506503Y-55024804D01*
X123455200Y-54766887D01*
X123455200Y-54503913D01*
X123506503Y-54245996D01*
X123607138Y-54003042D01*
X123655618Y-53930487D01*
X123753238Y-53784387D01*
X123939187Y-53598438D01*
X124157841Y-53452339D01*
X124157842Y-53452338D01*
X124400796Y-53351703D01*
X124658713Y-53300400D01*
X124921687Y-53300400D01*
X125179604Y-53351703D01*
X125179604Y-53351703D01*
G37*
G36*
X121369604Y-53351703D02*
G01*
X121612558Y-53452338D01*
X121612559Y-53452339D01*
X121831213Y-53598438D01*
X122017162Y-53784387D01*
X122114782Y-53930487D01*
X122163262Y-54003042D01*
X122263897Y-54245996D01*
X122315200Y-54503913D01*
X122315200Y-54766887D01*
X122263897Y-55024804D01*
X122163262Y-55267758D01*
X122163261Y-55267759D01*
X122017162Y-55486413D01*
X121831213Y-55672362D01*
X121685113Y-55769982D01*
X121612558Y-55818462D01*
X121369604Y-55919097D01*
X121111687Y-55970400D01*
X120848713Y-55970400D01*
X120590796Y-55919097D01*
X120347842Y-55818462D01*
X120275287Y-55769982D01*
X120129187Y-55672362D01*
X119943238Y-55486413D01*
X119797139Y-55267759D01*
X119797138Y-55267758D01*
X119696503Y-55024804D01*
X119645200Y-54766887D01*
X119645200Y-54503913D01*
X119696503Y-54245996D01*
X119797138Y-54003042D01*
X119845618Y-53930487D01*
X119943238Y-53784387D01*
X120129187Y-53598438D01*
X120347841Y-53452339D01*
X120347842Y-53452338D01*
X120590796Y-53351703D01*
X120848713Y-53300400D01*
X121111687Y-53300400D01*
X121369604Y-53351703D01*
X121369604Y-53351703D01*
G37*
G36*
X117559604Y-53351703D02*
G01*
X117802558Y-53452338D01*
X117802559Y-53452339D01*
X118021213Y-53598438D01*
X118207162Y-53784387D01*
X118304782Y-53930487D01*
X118353262Y-54003042D01*
X118453897Y-54245996D01*
X118505200Y-54503913D01*
X118505200Y-54766887D01*
X118453897Y-55024804D01*
X118353262Y-55267758D01*
X118353261Y-55267759D01*
X118207162Y-55486413D01*
X118021213Y-55672362D01*
X117875113Y-55769982D01*
X117802558Y-55818462D01*
X117559604Y-55919097D01*
X117301687Y-55970400D01*
X117038713Y-55970400D01*
X116780796Y-55919097D01*
X116537842Y-55818462D01*
X116465287Y-55769982D01*
X116319187Y-55672362D01*
X116133238Y-55486413D01*
X115987139Y-55267759D01*
X115987138Y-55267758D01*
X115886503Y-55024804D01*
X115835200Y-54766887D01*
X115835200Y-54503913D01*
X115886503Y-54245996D01*
X115987138Y-54003042D01*
X116035618Y-53930487D01*
X116133238Y-53784387D01*
X116319187Y-53598438D01*
X116537841Y-53452339D01*
X116537842Y-53452338D01*
X116780796Y-53351703D01*
X117038713Y-53300400D01*
X117301687Y-53300400D01*
X117559604Y-53351703D01*
X117559604Y-53351703D01*
G37*
G36*
X114695200Y-55970400D02*
G01*
X112025200Y-55970400D01*
X112025200Y-53300400D01*
X114695200Y-53300400D01*
X114695200Y-55970400D01*
X114695200Y-55970400D01*
G37*
G36*
X146216627Y-48692299D02*
G01*
X146296742Y-48716602D01*
X146376855Y-48740903D01*
X146376857Y-48740904D01*
X146524518Y-48819831D01*
X146653949Y-48926051D01*
X146760169Y-49055482D01*
X146839096Y-49203143D01*
X146887701Y-49363373D01*
X146904112Y-49530000D01*
X146887701Y-49696627D01*
X146839096Y-49856857D01*
X146760169Y-50004518D01*
X146653949Y-50133949D01*
X146524518Y-50240169D01*
X146376857Y-50319096D01*
X146376855Y-50319097D01*
X146296742Y-50343399D01*
X146216627Y-50367701D01*
X146091752Y-50380000D01*
X146008248Y-50380000D01*
X145883373Y-50367701D01*
X145803258Y-50343399D01*
X145723145Y-50319097D01*
X145723143Y-50319096D01*
X145575482Y-50240169D01*
X145446051Y-50133949D01*
X145339831Y-50004518D01*
X145260904Y-49856857D01*
X145212299Y-49696627D01*
X145195888Y-49530000D01*
X145212299Y-49363373D01*
X145260904Y-49203143D01*
X145339831Y-49055482D01*
X145446051Y-48926051D01*
X145575482Y-48819831D01*
X145723143Y-48740904D01*
X145723145Y-48740903D01*
X145803258Y-48716601D01*
X145883373Y-48692299D01*
X146008248Y-48680000D01*
X146091752Y-48680000D01*
X146216627Y-48692299D01*
X146216627Y-48692299D01*
G37*
G36*
X56317534Y-46252643D02*
G01*
X56590515Y-46365716D01*
X56590517Y-46365717D01*
X56620950Y-46386052D01*
X56836193Y-46529873D01*
X57045127Y-46738807D01*
X57209284Y-46984485D01*
X57322357Y-47257466D01*
X57380000Y-47547262D01*
X57380000Y-47842738D01*
X57322357Y-48132534D01*
X57209284Y-48405515D01*
X57209283Y-48405517D01*
X57045126Y-48651194D01*
X56836194Y-48860126D01*
X56590517Y-49024283D01*
X56590516Y-49024284D01*
X56590515Y-49024284D01*
X56317534Y-49137357D01*
X56027738Y-49195000D01*
X55732262Y-49195000D01*
X55442466Y-49137357D01*
X55169485Y-49024284D01*
X55169484Y-49024284D01*
X55169483Y-49024283D01*
X54923806Y-48860126D01*
X54714874Y-48651194D01*
X54550717Y-48405517D01*
X54550716Y-48405515D01*
X54437643Y-48132534D01*
X54380000Y-47842738D01*
X54380000Y-47547262D01*
X54437643Y-47257466D01*
X54550716Y-46984485D01*
X54714873Y-46738807D01*
X54923807Y-46529873D01*
X55139050Y-46386052D01*
X55169483Y-46365717D01*
X55169485Y-46365716D01*
X55442466Y-46252643D01*
X55732262Y-46195000D01*
X56027738Y-46195000D01*
X56317534Y-46252643D01*
X56317534Y-46252643D01*
G37*
G36*
X146216627Y-46152299D02*
G01*
X146296742Y-46176602D01*
X146376855Y-46200903D01*
X146376857Y-46200904D01*
X146524518Y-46279831D01*
X146653949Y-46386051D01*
X146760169Y-46515482D01*
X146839096Y-46663143D01*
X146887701Y-46823373D01*
X146904112Y-46990000D01*
X146887701Y-47156627D01*
X146839096Y-47316857D01*
X146760169Y-47464518D01*
X146653949Y-47593949D01*
X146524518Y-47700169D01*
X146376857Y-47779096D01*
X146376855Y-47779097D01*
X146296742Y-47803399D01*
X146216627Y-47827701D01*
X146091752Y-47840000D01*
X146008248Y-47840000D01*
X145883373Y-47827701D01*
X145803258Y-47803398D01*
X145723145Y-47779097D01*
X145723143Y-47779096D01*
X145575482Y-47700169D01*
X145446051Y-47593949D01*
X145339831Y-47464518D01*
X145260904Y-47316857D01*
X145212299Y-47156627D01*
X145195888Y-46990000D01*
X145212299Y-46823373D01*
X145260904Y-46663143D01*
X145339831Y-46515482D01*
X145446051Y-46386051D01*
X145575482Y-46279831D01*
X145723143Y-46200904D01*
X145723145Y-46200903D01*
X145803258Y-46176601D01*
X145883373Y-46152299D01*
X146008248Y-46140000D01*
X146091752Y-46140000D01*
X146216627Y-46152299D01*
X146216627Y-46152299D01*
G37*
G36*
X57380000Y-45315000D02*
G01*
X54380000Y-45315000D01*
X54380000Y-42315000D01*
X57380000Y-42315000D01*
X57380000Y-45315000D01*
X57380000Y-45315000D01*
G37*
G36*
X146216627Y-43612299D02*
G01*
X146296742Y-43636602D01*
X146376855Y-43660903D01*
X146376857Y-43660904D01*
X146524518Y-43739831D01*
X146653949Y-43846051D01*
X146760169Y-43975482D01*
X146839096Y-44123143D01*
X146887701Y-44283373D01*
X146904112Y-44450000D01*
X146887701Y-44616627D01*
X146839096Y-44776857D01*
X146760169Y-44924518D01*
X146653949Y-45053949D01*
X146524518Y-45160169D01*
X146376857Y-45239096D01*
X146376855Y-45239097D01*
X146296742Y-45263398D01*
X146216627Y-45287701D01*
X146091752Y-45300000D01*
X146008248Y-45300000D01*
X145883373Y-45287701D01*
X145803258Y-45263399D01*
X145723145Y-45239097D01*
X145723143Y-45239096D01*
X145575482Y-45160169D01*
X145446051Y-45053949D01*
X145339831Y-44924518D01*
X145260904Y-44776857D01*
X145212299Y-44616627D01*
X145195888Y-44450000D01*
X145212299Y-44283373D01*
X145260904Y-44123143D01*
X145339831Y-43975482D01*
X145446051Y-43846051D01*
X145575482Y-43739831D01*
X145723143Y-43660904D01*
X145723145Y-43660903D01*
X145803258Y-43636602D01*
X145883373Y-43612299D01*
X146008248Y-43600000D01*
X146091752Y-43600000D01*
X146216627Y-43612299D01*
X146216627Y-43612299D01*
G37*
G36*
X116934222Y-38871073D02*
G01*
X117389192Y-39059528D01*
X117389194Y-39059529D01*
X117595315Y-39197255D01*
X117798656Y-39333123D01*
X118146877Y-39681344D01*
X118420472Y-40090808D01*
X118608927Y-40545778D01*
X118705000Y-41028770D01*
X118705000Y-41521230D01*
X118608927Y-42004222D01*
X118420472Y-42459192D01*
X118219479Y-42760000D01*
X118146876Y-42868657D01*
X117798657Y-43216876D01*
X117389194Y-43490471D01*
X117389193Y-43490472D01*
X117389192Y-43490472D01*
X116934222Y-43678927D01*
X116451230Y-43775000D01*
X115958770Y-43775000D01*
X115475778Y-43678927D01*
X115020808Y-43490472D01*
X115020807Y-43490472D01*
X115020806Y-43490471D01*
X114611343Y-43216876D01*
X114263124Y-42868657D01*
X114190522Y-42760000D01*
X113989528Y-42459192D01*
X113801073Y-42004222D01*
X113705000Y-41521230D01*
X113705000Y-41028770D01*
X113801073Y-40545778D01*
X113989528Y-40090808D01*
X114263123Y-39681344D01*
X114611344Y-39333123D01*
X114814685Y-39197255D01*
X115020806Y-39059529D01*
X115020808Y-39059528D01*
X115475778Y-38871073D01*
X115958770Y-38775000D01*
X116451230Y-38775000D01*
X116934222Y-38871073D01*
X116934222Y-38871073D01*
G37*
G36*
X121730000Y-42845000D02*
G01*
X119430000Y-42845000D01*
X119430000Y-42245000D01*
X121730000Y-42245000D01*
X121730000Y-42845000D01*
X121730000Y-42845000D01*
G37*
G36*
X112980000Y-42845000D02*
G01*
X110680000Y-42845000D01*
X110680000Y-42245000D01*
X112980000Y-42245000D01*
X112980000Y-42845000D01*
X112980000Y-42845000D01*
G37*
G36*
X146216627Y-41072299D02*
G01*
X146296742Y-41096602D01*
X146376855Y-41120903D01*
X146376857Y-41120904D01*
X146524518Y-41199831D01*
X146653949Y-41306051D01*
X146760169Y-41435482D01*
X146839096Y-41583143D01*
X146887701Y-41743373D01*
X146904112Y-41910000D01*
X146887701Y-42076627D01*
X146839096Y-42236857D01*
X146760169Y-42384518D01*
X146653949Y-42513949D01*
X146524518Y-42620169D01*
X146376857Y-42699096D01*
X146376855Y-42699097D01*
X146296742Y-42723398D01*
X146216627Y-42747701D01*
X146091752Y-42760000D01*
X146008248Y-42760000D01*
X145883373Y-42747701D01*
X145803258Y-42723398D01*
X145723145Y-42699097D01*
X145723143Y-42699096D01*
X145575482Y-42620169D01*
X145446051Y-42513949D01*
X145339831Y-42384518D01*
X145260904Y-42236857D01*
X145212299Y-42076627D01*
X145195888Y-41910000D01*
X145212299Y-41743373D01*
X145260904Y-41583143D01*
X145339831Y-41435482D01*
X145446051Y-41306051D01*
X145575482Y-41199831D01*
X145723143Y-41120904D01*
X145723145Y-41120903D01*
X145803258Y-41096602D01*
X145883373Y-41072299D01*
X146008248Y-41060000D01*
X146091752Y-41060000D01*
X146216627Y-41072299D01*
X146216627Y-41072299D01*
G37*
G36*
X121730000Y-41575000D02*
G01*
X119430000Y-41575000D01*
X119430000Y-40975000D01*
X121730000Y-40975000D01*
X121730000Y-41575000D01*
X121730000Y-41575000D01*
G37*
G36*
X112980000Y-41575000D02*
G01*
X110680000Y-41575000D01*
X110680000Y-40975000D01*
X112980000Y-40975000D01*
X112980000Y-41575000D01*
X112980000Y-41575000D01*
G37*
G36*
X121730000Y-40305000D02*
G01*
X119430000Y-40305000D01*
X119430000Y-39705000D01*
X121730000Y-39705000D01*
X121730000Y-40305000D01*
X121730000Y-40305000D01*
G37*
G36*
X112980000Y-40305000D02*
G01*
X110680000Y-40305000D01*
X110680000Y-39705000D01*
X112980000Y-39705000D01*
X112980000Y-40305000D01*
X112980000Y-40305000D01*
G37*
G36*
X146900000Y-40220000D02*
G01*
X145200000Y-40220000D01*
X145200000Y-38520000D01*
X146900000Y-38520000D01*
X146900000Y-40220000D01*
X146900000Y-40220000D01*
G37*
G36*
X91574000Y-35573400D02*
G01*
X90574000Y-35573400D01*
X90574000Y-34073400D01*
X91574000Y-34073400D01*
X91574000Y-35573400D01*
X91574000Y-35573400D01*
G37*
G36*
X90274000Y-35573400D02*
G01*
X89274000Y-35573400D01*
X89274000Y-34073400D01*
X90274000Y-34073400D01*
X90274000Y-35573400D01*
X90274000Y-35573400D01*
G37*
G36*
X68682799Y-33946399D02*
G01*
X68682801Y-33946401D01*
X68681587Y-33950403D01*
X68675372Y-33965427D01*
X68670603Y-33989463D01*
X68670615Y-34013967D01*
X68675407Y-34037998D01*
X68684796Y-34060632D01*
X68698419Y-34081000D01*
X68715755Y-34098318D01*
X68736136Y-34111922D01*
X68758779Y-34121288D01*
X68782815Y-34126057D01*
X68807319Y-34126045D01*
X68831350Y-34121253D01*
X68853984Y-34111864D01*
X68874352Y-34098241D01*
X68891670Y-34080905D01*
X68899011Y-34070991D01*
X68978889Y-33951175D01*
X68982794Y-33946407D01*
X68982795Y-33946407D01*
X68982800Y-33946400D01*
X68982865Y-33946400D01*
X68988975Y-33945795D01*
X69976663Y-33945795D01*
X69982799Y-33946399D01*
X69982801Y-33946401D01*
X69983405Y-33952537D01*
X69983405Y-35440263D01*
X69982801Y-35446399D01*
X69982799Y-35446401D01*
X69976663Y-35447005D01*
X68988937Y-35447005D01*
X68982810Y-35446402D01*
X68982808Y-35446400D01*
X68982800Y-35446400D01*
X68982764Y-35446345D01*
X68978867Y-35441592D01*
X68898961Y-35321734D01*
X68883436Y-35302776D01*
X68864510Y-35287211D01*
X68842912Y-35275637D01*
X68819470Y-35268499D01*
X68795087Y-35266072D01*
X68770698Y-35268448D01*
X68747242Y-35275537D01*
X68725619Y-35287066D01*
X68706661Y-35302591D01*
X68691096Y-35321517D01*
X68679522Y-35343115D01*
X68672384Y-35366557D01*
X68669957Y-35390940D01*
X68672333Y-35415329D01*
X68679422Y-35438785D01*
X68682420Y-35445140D01*
X68682800Y-35446397D01*
X68682800Y-35446400D01*
X68682768Y-35446410D01*
X68676696Y-35447005D01*
X67538937Y-35447005D01*
X67532801Y-35446401D01*
X67532799Y-35446399D01*
X67532195Y-35440263D01*
X67532195Y-34696531D01*
X68208759Y-34696531D01*
X68211186Y-34720915D01*
X68218324Y-34744356D01*
X68229753Y-34765737D01*
X68266638Y-34821064D01*
X68282163Y-34840023D01*
X68301089Y-34855587D01*
X68322688Y-34867161D01*
X68346129Y-34874299D01*
X68370513Y-34876726D01*
X68394901Y-34874350D01*
X68418358Y-34867261D01*
X68439980Y-34855732D01*
X68458939Y-34840207D01*
X68474503Y-34821281D01*
X68486077Y-34799682D01*
X68493215Y-34776241D01*
X68495642Y-34751857D01*
X68493266Y-34727469D01*
X68486177Y-34704012D01*
X68483179Y-34697657D01*
X68482800Y-34696403D01*
X68482800Y-34696399D01*
X68484091Y-34692160D01*
X68490161Y-34677504D01*
X68494940Y-34653471D01*
X68494940Y-34628967D01*
X68490159Y-34604934D01*
X68480781Y-34582295D01*
X68467166Y-34561921D01*
X68449839Y-34544594D01*
X68429464Y-34530981D01*
X68406825Y-34521604D01*
X68382792Y-34516825D01*
X68358288Y-34516825D01*
X68334255Y-34521606D01*
X68311616Y-34530984D01*
X68291242Y-34544599D01*
X68273915Y-34561926D01*
X68266537Y-34571885D01*
X68229752Y-34627063D01*
X68218224Y-34648686D01*
X68211135Y-34672143D01*
X68208759Y-34696531D01*
X67532195Y-34696531D01*
X67532195Y-33952537D01*
X67532799Y-33946401D01*
X67532801Y-33946399D01*
X67538937Y-33945795D01*
X68676663Y-33945795D01*
X68682799Y-33946399D01*
X68682799Y-33946399D01*
G37*
G36*
X146516703Y-30211486D02*
G01*
X146807883Y-30332097D01*
X147069940Y-30507198D01*
X147292802Y-30730060D01*
X147467903Y-30992117D01*
X147588514Y-31283297D01*
X147650000Y-31592412D01*
X147650000Y-31907588D01*
X147588514Y-32216703D01*
X147467903Y-32507883D01*
X147292802Y-32769940D01*
X147069940Y-32992802D01*
X146807883Y-33167903D01*
X146516703Y-33288514D01*
X146207588Y-33350000D01*
X145892412Y-33350000D01*
X145583297Y-33288514D01*
X145292117Y-33167903D01*
X145030060Y-32992802D01*
X144807198Y-32769940D01*
X144632097Y-32507883D01*
X144511486Y-32216703D01*
X144450000Y-31907588D01*
X144450000Y-31592412D01*
X144511486Y-31283297D01*
X144632097Y-30992117D01*
X144807198Y-30730060D01*
X145030060Y-30507198D01*
X145292117Y-30332097D01*
X145583297Y-30211486D01*
X145892412Y-30150000D01*
X146207588Y-30150000D01*
X146516703Y-30211486D01*
X146516703Y-30211486D01*
G37*
G36*
X55076703Y-30211486D02*
G01*
X55367883Y-30332097D01*
X55629940Y-30507198D01*
X55852802Y-30730060D01*
X56027903Y-30992117D01*
X56148514Y-31283297D01*
X56210000Y-31592412D01*
X56210000Y-31907588D01*
X56148514Y-32216703D01*
X56027903Y-32507883D01*
X55852802Y-32769940D01*
X55629940Y-32992802D01*
X55367883Y-33167903D01*
X55076703Y-33288514D01*
X54767588Y-33350000D01*
X54452412Y-33350000D01*
X54143297Y-33288514D01*
X53852117Y-33167903D01*
X53590060Y-32992802D01*
X53367198Y-32769940D01*
X53192097Y-32507883D01*
X53071486Y-32216703D01*
X53010000Y-31907588D01*
X53010000Y-31592412D01*
X53071486Y-31283297D01*
X53192097Y-30992117D01*
X53367198Y-30730060D01*
X53590060Y-30507198D01*
X53852117Y-30332097D01*
X54143297Y-30211486D01*
X54452412Y-30150000D01*
X54767588Y-30150000D01*
X55076703Y-30211486D01*
X55076703Y-30211486D01*
G37*
G36*
X90288990Y-31152398D02*
G01*
X90288992Y-31152400D01*
X90289000Y-31152400D01*
X90289036Y-31152455D01*
X90292933Y-31157208D01*
X90372839Y-31277066D01*
X90388364Y-31296024D01*
X90407290Y-31311589D01*
X90428888Y-31323163D01*
X90452330Y-31330301D01*
X90476713Y-31332728D01*
X90501102Y-31330352D01*
X90524558Y-31323263D01*
X90546181Y-31311734D01*
X90565139Y-31296209D01*
X90580704Y-31277283D01*
X90592278Y-31255685D01*
X90599416Y-31232243D01*
X90601843Y-31207860D01*
X90599467Y-31183471D01*
X90592378Y-31160015D01*
X90589380Y-31153660D01*
X90589000Y-31152403D01*
X90589000Y-31152399D01*
X90589032Y-31152390D01*
X90595104Y-31151795D01*
X91732863Y-31151795D01*
X91738999Y-31152399D01*
X91739001Y-31152401D01*
X91739605Y-31158537D01*
X91739605Y-32646263D01*
X91739001Y-32652399D01*
X91738999Y-32652401D01*
X91732863Y-32653005D01*
X90595137Y-32653005D01*
X90589001Y-32652401D01*
X90588999Y-32652399D01*
X90590213Y-32648397D01*
X90596428Y-32633373D01*
X90601197Y-32609337D01*
X90601185Y-32584833D01*
X90596393Y-32560802D01*
X90587004Y-32538168D01*
X90573381Y-32517800D01*
X90556045Y-32500482D01*
X90535664Y-32486878D01*
X90513021Y-32477512D01*
X90488985Y-32472743D01*
X90464481Y-32472755D01*
X90440450Y-32477547D01*
X90417816Y-32486936D01*
X90397448Y-32500559D01*
X90380130Y-32517895D01*
X90372789Y-32527809D01*
X90292911Y-32647625D01*
X90289006Y-32652393D01*
X90289005Y-32652393D01*
X90289000Y-32652400D01*
X90288935Y-32652400D01*
X90282825Y-32653005D01*
X89295137Y-32653005D01*
X89289001Y-32652401D01*
X89288999Y-32652399D01*
X89288395Y-32646263D01*
X89288395Y-31846943D01*
X90776158Y-31846943D01*
X90778534Y-31871331D01*
X90785623Y-31894788D01*
X90788621Y-31901143D01*
X90789000Y-31902397D01*
X90789000Y-31902401D01*
X90787709Y-31906640D01*
X90781639Y-31921296D01*
X90776860Y-31945329D01*
X90776860Y-31969833D01*
X90781641Y-31993866D01*
X90791019Y-32016505D01*
X90804634Y-32036879D01*
X90821961Y-32054206D01*
X90842336Y-32067819D01*
X90864975Y-32077196D01*
X90889008Y-32081975D01*
X90913512Y-32081975D01*
X90937545Y-32077194D01*
X90960184Y-32067816D01*
X90980558Y-32054201D01*
X90997885Y-32036874D01*
X91005263Y-32026915D01*
X91042048Y-31971737D01*
X91053576Y-31950114D01*
X91060665Y-31926657D01*
X91063041Y-31902269D01*
X91060614Y-31877885D01*
X91053476Y-31854444D01*
X91042047Y-31833063D01*
X91005162Y-31777736D01*
X90989637Y-31758777D01*
X90970711Y-31743213D01*
X90949112Y-31731639D01*
X90925671Y-31724501D01*
X90901287Y-31722074D01*
X90876899Y-31724450D01*
X90853442Y-31731539D01*
X90831820Y-31743068D01*
X90812861Y-31758593D01*
X90797297Y-31777519D01*
X90785723Y-31799118D01*
X90778585Y-31822559D01*
X90776158Y-31846943D01*
X89288395Y-31846943D01*
X89288395Y-31158537D01*
X89288999Y-31152401D01*
X89289001Y-31152399D01*
X89295137Y-31151795D01*
X90282863Y-31151795D01*
X90288990Y-31152398D01*
X90288990Y-31152398D01*
G37*
G36*
X69892800Y-32423800D02*
G01*
X68892800Y-32423800D01*
X68892800Y-30923800D01*
X69892800Y-30923800D01*
X69892800Y-32423800D01*
X69892800Y-32423800D01*
G37*
G36*
X68592800Y-32423800D02*
G01*
X67592800Y-32423800D01*
X67592800Y-30923800D01*
X68592800Y-30923800D01*
X68592800Y-32423800D01*
X68592800Y-32423800D01*
G37*
M02*
