G04 #@! TF.GenerationSoftware,KiCad,Pcbnew,(5.1.4-0-10_14)*
G04 #@! TF.CreationDate,2020-04-29T09:46:46-07:00*
G04 #@! TF.ProjectId,Vent,56656e74-2e6b-4696-9361-645f70636258,rev?*
G04 #@! TF.SameCoordinates,Original*
G04 #@! TF.FileFunction,Legend,Bot*
G04 #@! TF.FilePolarity,Positive*
%FSLAX46Y46*%
G04 Gerber Fmt 4.6, Leading zero omitted, Abs format (unit mm)*
G04 Created by KiCad (PCBNEW (5.1.4-0-10_14)) date 2020-04-29 09:46:46*
%MOMM*%
%LPD*%
G04 APERTURE LIST*
%ADD10C,0.150000*%
%ADD11C,0.100000*%
%ADD12C,0.120000*%
G04 APERTURE END LIST*
D10*
X98492152Y-42870542D02*
X98539771Y-42918161D01*
X98682628Y-42965780D01*
X98777866Y-42965780D01*
X98920723Y-42918161D01*
X99015961Y-42822923D01*
X99063580Y-42727685D01*
X99111200Y-42537209D01*
X99111200Y-42394352D01*
X99063580Y-42203876D01*
X99015961Y-42108638D01*
X98920723Y-42013400D01*
X98777866Y-41965780D01*
X98682628Y-41965780D01*
X98539771Y-42013400D01*
X98492152Y-42061019D01*
X97920723Y-42965780D02*
X98015961Y-42918161D01*
X98063580Y-42870542D01*
X98111200Y-42775304D01*
X98111200Y-42489590D01*
X98063580Y-42394352D01*
X98015961Y-42346733D01*
X97920723Y-42299114D01*
X97777866Y-42299114D01*
X97682628Y-42346733D01*
X97635009Y-42394352D01*
X97587390Y-42489590D01*
X97587390Y-42775304D01*
X97635009Y-42870542D01*
X97682628Y-42918161D01*
X97777866Y-42965780D01*
X97920723Y-42965780D01*
X97158819Y-42299114D02*
X97158819Y-43299114D01*
X97158819Y-42346733D02*
X97063580Y-42299114D01*
X96873104Y-42299114D01*
X96777866Y-42346733D01*
X96730247Y-42394352D01*
X96682628Y-42489590D01*
X96682628Y-42775304D01*
X96730247Y-42870542D01*
X96777866Y-42918161D01*
X96873104Y-42965780D01*
X97063580Y-42965780D01*
X97158819Y-42918161D01*
X96349295Y-42299114D02*
X96111200Y-42965780D01*
X95873104Y-42299114D02*
X96111200Y-42965780D01*
X96206438Y-43203876D01*
X96254057Y-43251495D01*
X96349295Y-43299114D01*
X95492152Y-42965780D02*
X95492152Y-42299114D01*
X95492152Y-42489590D02*
X95444533Y-42394352D01*
X95396914Y-42346733D01*
X95301676Y-42299114D01*
X95206438Y-42299114D01*
X94873104Y-42965780D02*
X94873104Y-42299114D01*
X94873104Y-41965780D02*
X94920723Y-42013400D01*
X94873104Y-42061019D01*
X94825485Y-42013400D01*
X94873104Y-41965780D01*
X94873104Y-42061019D01*
X93968342Y-42299114D02*
X93968342Y-43108638D01*
X94015961Y-43203876D01*
X94063580Y-43251495D01*
X94158819Y-43299114D01*
X94301676Y-43299114D01*
X94396914Y-43251495D01*
X93968342Y-42918161D02*
X94063580Y-42965780D01*
X94254057Y-42965780D01*
X94349295Y-42918161D01*
X94396914Y-42870542D01*
X94444533Y-42775304D01*
X94444533Y-42489590D01*
X94396914Y-42394352D01*
X94349295Y-42346733D01*
X94254057Y-42299114D01*
X94063580Y-42299114D01*
X93968342Y-42346733D01*
X93492152Y-42965780D02*
X93492152Y-41965780D01*
X93063580Y-42965780D02*
X93063580Y-42441971D01*
X93111200Y-42346733D01*
X93206438Y-42299114D01*
X93349295Y-42299114D01*
X93444533Y-42346733D01*
X93492152Y-42394352D01*
X92730247Y-42299114D02*
X92349295Y-42299114D01*
X92587390Y-41965780D02*
X92587390Y-42822923D01*
X92539771Y-42918161D01*
X92444533Y-42965780D01*
X92349295Y-42965780D01*
X91301676Y-42061019D02*
X91254057Y-42013400D01*
X91158819Y-41965780D01*
X90920723Y-41965780D01*
X90825485Y-42013400D01*
X90777866Y-42061019D01*
X90730247Y-42156257D01*
X90730247Y-42251495D01*
X90777866Y-42394352D01*
X91349295Y-42965780D01*
X90730247Y-42965780D01*
X90111200Y-41965780D02*
X90015961Y-41965780D01*
X89920723Y-42013400D01*
X89873104Y-42061019D01*
X89825485Y-42156257D01*
X89777866Y-42346733D01*
X89777866Y-42584828D01*
X89825485Y-42775304D01*
X89873104Y-42870542D01*
X89920723Y-42918161D01*
X90015961Y-42965780D01*
X90111200Y-42965780D01*
X90206438Y-42918161D01*
X90254057Y-42870542D01*
X90301676Y-42775304D01*
X90349295Y-42584828D01*
X90349295Y-42346733D01*
X90301676Y-42156257D01*
X90254057Y-42061019D01*
X90206438Y-42013400D01*
X90111200Y-41965780D01*
X89396914Y-42061019D02*
X89349295Y-42013400D01*
X89254057Y-41965780D01*
X89015961Y-41965780D01*
X88920723Y-42013400D01*
X88873104Y-42061019D01*
X88825485Y-42156257D01*
X88825485Y-42251495D01*
X88873104Y-42394352D01*
X89444533Y-42965780D01*
X88825485Y-42965780D01*
X88206438Y-41965780D02*
X88111200Y-41965780D01*
X88015961Y-42013400D01*
X87968342Y-42061019D01*
X87920723Y-42156257D01*
X87873104Y-42346733D01*
X87873104Y-42584828D01*
X87920723Y-42775304D01*
X87968342Y-42870542D01*
X88015961Y-42918161D01*
X88111200Y-42965780D01*
X88206438Y-42965780D01*
X88301676Y-42918161D01*
X88349295Y-42870542D01*
X88396914Y-42775304D01*
X88444533Y-42584828D01*
X88444533Y-42346733D01*
X88396914Y-42156257D01*
X88349295Y-42061019D01*
X88301676Y-42013400D01*
X88206438Y-41965780D01*
X86349295Y-42441971D02*
X86206438Y-42489590D01*
X86158819Y-42537209D01*
X86111200Y-42632447D01*
X86111200Y-42775304D01*
X86158819Y-42870542D01*
X86206438Y-42918161D01*
X86301676Y-42965780D01*
X86682628Y-42965780D01*
X86682628Y-41965780D01*
X86349295Y-41965780D01*
X86254057Y-42013400D01*
X86206438Y-42061019D01*
X86158819Y-42156257D01*
X86158819Y-42251495D01*
X86206438Y-42346733D01*
X86254057Y-42394352D01*
X86349295Y-42441971D01*
X86682628Y-42441971D01*
X85682628Y-42965780D02*
X85682628Y-42299114D01*
X85682628Y-41965780D02*
X85730247Y-42013400D01*
X85682628Y-42061019D01*
X85635009Y-42013400D01*
X85682628Y-41965780D01*
X85682628Y-42061019D01*
X85063580Y-42965780D02*
X85158819Y-42918161D01*
X85206438Y-42822923D01*
X85206438Y-41965780D01*
X84539771Y-42965780D02*
X84635009Y-42918161D01*
X84682628Y-42822923D01*
X84682628Y-41965780D01*
X83396914Y-42965780D02*
X83396914Y-41965780D01*
X83158819Y-41965780D01*
X83015961Y-42013400D01*
X82920723Y-42108638D01*
X82873104Y-42203876D01*
X82825485Y-42394352D01*
X82825485Y-42537209D01*
X82873104Y-42727685D01*
X82920723Y-42822923D01*
X83015961Y-42918161D01*
X83158819Y-42965780D01*
X83396914Y-42965780D01*
X81968342Y-42965780D02*
X81968342Y-42441971D01*
X82015961Y-42346733D01*
X82111200Y-42299114D01*
X82301676Y-42299114D01*
X82396914Y-42346733D01*
X81968342Y-42918161D02*
X82063580Y-42965780D01*
X82301676Y-42965780D01*
X82396914Y-42918161D01*
X82444533Y-42822923D01*
X82444533Y-42727685D01*
X82396914Y-42632447D01*
X82301676Y-42584828D01*
X82063580Y-42584828D01*
X81968342Y-42537209D01*
X81349295Y-42965780D02*
X81444533Y-42918161D01*
X81492152Y-42822923D01*
X81492152Y-41965780D01*
X80825485Y-42965780D02*
X80920723Y-42918161D01*
X80968342Y-42822923D01*
X80968342Y-41965780D01*
X80539771Y-42299114D02*
X80301676Y-42965780D01*
X80063580Y-42299114D02*
X80301676Y-42965780D01*
X80396914Y-43203876D01*
X80444533Y-43251495D01*
X80539771Y-43299114D01*
X114849295Y-47915780D02*
X115325485Y-47915780D01*
X115325485Y-46915780D01*
X114515961Y-47915780D02*
X114515961Y-47249114D01*
X114515961Y-46915780D02*
X114563580Y-46963400D01*
X114515961Y-47011019D01*
X114468342Y-46963400D01*
X114515961Y-46915780D01*
X114515961Y-47011019D01*
X113611199Y-47868161D02*
X113706438Y-47915780D01*
X113896914Y-47915780D01*
X113992152Y-47868161D01*
X114039771Y-47820542D01*
X114087390Y-47725304D01*
X114087390Y-47439590D01*
X114039771Y-47344352D01*
X113992152Y-47296733D01*
X113896914Y-47249114D01*
X113706438Y-47249114D01*
X113611199Y-47296733D01*
X112801676Y-47868161D02*
X112896914Y-47915780D01*
X113087390Y-47915780D01*
X113182628Y-47868161D01*
X113230247Y-47772923D01*
X113230247Y-47391971D01*
X113182628Y-47296733D01*
X113087390Y-47249114D01*
X112896914Y-47249114D01*
X112801676Y-47296733D01*
X112754057Y-47391971D01*
X112754057Y-47487209D01*
X113230247Y-47582447D01*
X112325485Y-47249114D02*
X112325485Y-47915780D01*
X112325485Y-47344352D02*
X112277866Y-47296733D01*
X112182628Y-47249114D01*
X112039771Y-47249114D01*
X111944533Y-47296733D01*
X111896914Y-47391971D01*
X111896914Y-47915780D01*
X111468342Y-47868161D02*
X111373104Y-47915780D01*
X111182628Y-47915780D01*
X111087390Y-47868161D01*
X111039771Y-47772923D01*
X111039771Y-47725304D01*
X111087390Y-47630066D01*
X111182628Y-47582447D01*
X111325485Y-47582447D01*
X111420723Y-47534828D01*
X111468342Y-47439590D01*
X111468342Y-47391971D01*
X111420723Y-47296733D01*
X111325485Y-47249114D01*
X111182628Y-47249114D01*
X111087390Y-47296733D01*
X110230247Y-47868161D02*
X110325485Y-47915780D01*
X110515961Y-47915780D01*
X110611199Y-47868161D01*
X110658819Y-47772923D01*
X110658819Y-47391971D01*
X110611199Y-47296733D01*
X110515961Y-47249114D01*
X110325485Y-47249114D01*
X110230247Y-47296733D01*
X110182628Y-47391971D01*
X110182628Y-47487209D01*
X110658819Y-47582447D01*
X109325485Y-47915780D02*
X109325485Y-46915780D01*
X109325485Y-47868161D02*
X109420723Y-47915780D01*
X109611199Y-47915780D01*
X109706438Y-47868161D01*
X109754057Y-47820542D01*
X109801676Y-47725304D01*
X109801676Y-47439590D01*
X109754057Y-47344352D01*
X109706438Y-47296733D01*
X109611199Y-47249114D01*
X109420723Y-47249114D01*
X109325485Y-47296733D01*
X107658819Y-47249114D02*
X107658819Y-47915780D01*
X108087390Y-47249114D02*
X108087390Y-47772923D01*
X108039771Y-47868161D01*
X107944533Y-47915780D01*
X107801676Y-47915780D01*
X107706438Y-47868161D01*
X107658819Y-47820542D01*
X107182628Y-47249114D02*
X107182628Y-47915780D01*
X107182628Y-47344352D02*
X107135009Y-47296733D01*
X107039771Y-47249114D01*
X106896914Y-47249114D01*
X106801676Y-47296733D01*
X106754057Y-47391971D01*
X106754057Y-47915780D01*
X105849295Y-47915780D02*
X105849295Y-46915780D01*
X105849295Y-47868161D02*
X105944533Y-47915780D01*
X106135009Y-47915780D01*
X106230247Y-47868161D01*
X106277866Y-47820542D01*
X106325485Y-47725304D01*
X106325485Y-47439590D01*
X106277866Y-47344352D01*
X106230247Y-47296733D01*
X106135009Y-47249114D01*
X105944533Y-47249114D01*
X105849295Y-47296733D01*
X104992152Y-47868161D02*
X105087390Y-47915780D01*
X105277866Y-47915780D01*
X105373104Y-47868161D01*
X105420723Y-47772923D01*
X105420723Y-47391971D01*
X105373104Y-47296733D01*
X105277866Y-47249114D01*
X105087390Y-47249114D01*
X104992152Y-47296733D01*
X104944533Y-47391971D01*
X104944533Y-47487209D01*
X105420723Y-47582447D01*
X104515961Y-47915780D02*
X104515961Y-47249114D01*
X104515961Y-47439590D02*
X104468342Y-47344352D01*
X104420723Y-47296733D01*
X104325485Y-47249114D01*
X104230247Y-47249114D01*
X103277866Y-47249114D02*
X102896914Y-47249114D01*
X103135009Y-46915780D02*
X103135009Y-47772923D01*
X103087390Y-47868161D01*
X102992152Y-47915780D01*
X102896914Y-47915780D01*
X102563580Y-47915780D02*
X102563580Y-46915780D01*
X102135009Y-47915780D02*
X102135009Y-47391971D01*
X102182628Y-47296733D01*
X102277866Y-47249114D01*
X102420723Y-47249114D01*
X102515961Y-47296733D01*
X102563580Y-47344352D01*
X101277866Y-47868161D02*
X101373104Y-47915780D01*
X101563580Y-47915780D01*
X101658819Y-47868161D01*
X101706438Y-47772923D01*
X101706438Y-47391971D01*
X101658819Y-47296733D01*
X101563580Y-47249114D01*
X101373104Y-47249114D01*
X101277866Y-47296733D01*
X101230247Y-47391971D01*
X101230247Y-47487209D01*
X101706438Y-47582447D01*
X100182628Y-46915780D02*
X99849295Y-47915780D01*
X99515961Y-46915780D01*
X98801676Y-47868161D02*
X98896914Y-47915780D01*
X99087390Y-47915780D01*
X99182628Y-47868161D01*
X99230247Y-47772923D01*
X99230247Y-47391971D01*
X99182628Y-47296733D01*
X99087390Y-47249114D01*
X98896914Y-47249114D01*
X98801676Y-47296733D01*
X98754057Y-47391971D01*
X98754057Y-47487209D01*
X99230247Y-47582447D01*
X98325485Y-47249114D02*
X98325485Y-47915780D01*
X98325485Y-47344352D02*
X98277866Y-47296733D01*
X98182628Y-47249114D01*
X98039771Y-47249114D01*
X97944533Y-47296733D01*
X97896914Y-47391971D01*
X97896914Y-47915780D01*
X97563580Y-47249114D02*
X97182628Y-47249114D01*
X97420723Y-46915780D02*
X97420723Y-47772923D01*
X97373104Y-47868161D01*
X97277866Y-47915780D01*
X97182628Y-47915780D01*
X96849295Y-47915780D02*
X96849295Y-47249114D01*
X96849295Y-46915780D02*
X96896914Y-46963400D01*
X96849295Y-47011019D01*
X96801676Y-46963400D01*
X96849295Y-46915780D01*
X96849295Y-47011019D01*
X96230247Y-47915780D02*
X96325485Y-47868161D01*
X96373104Y-47772923D01*
X96373104Y-46915780D01*
X95420723Y-47915780D02*
X95420723Y-47391971D01*
X95468342Y-47296733D01*
X95563580Y-47249114D01*
X95754057Y-47249114D01*
X95849295Y-47296733D01*
X95420723Y-47868161D02*
X95515961Y-47915780D01*
X95754057Y-47915780D01*
X95849295Y-47868161D01*
X95896914Y-47772923D01*
X95896914Y-47677685D01*
X95849295Y-47582447D01*
X95754057Y-47534828D01*
X95515961Y-47534828D01*
X95420723Y-47487209D01*
X95087390Y-47249114D02*
X94706438Y-47249114D01*
X94944533Y-46915780D02*
X94944533Y-47772923D01*
X94896914Y-47868161D01*
X94801676Y-47915780D01*
X94706438Y-47915780D01*
X94230247Y-47915780D02*
X94325485Y-47868161D01*
X94373104Y-47820542D01*
X94420723Y-47725304D01*
X94420723Y-47439590D01*
X94373104Y-47344352D01*
X94325485Y-47296733D01*
X94230247Y-47249114D01*
X94087390Y-47249114D01*
X93992152Y-47296733D01*
X93944533Y-47344352D01*
X93896914Y-47439590D01*
X93896914Y-47725304D01*
X93944533Y-47820542D01*
X93992152Y-47868161D01*
X94087390Y-47915780D01*
X94230247Y-47915780D01*
X93468342Y-47915780D02*
X93468342Y-47249114D01*
X93468342Y-47439590D02*
X93420723Y-47344352D01*
X93373104Y-47296733D01*
X93277866Y-47249114D01*
X93182628Y-47249114D01*
X91896914Y-46915780D02*
X91706438Y-46915780D01*
X91611200Y-46963400D01*
X91515961Y-47058638D01*
X91468342Y-47249114D01*
X91468342Y-47582447D01*
X91515961Y-47772923D01*
X91611200Y-47868161D01*
X91706438Y-47915780D01*
X91896914Y-47915780D01*
X91992152Y-47868161D01*
X92087390Y-47772923D01*
X92135009Y-47582447D01*
X92135009Y-47249114D01*
X92087390Y-47058638D01*
X91992152Y-46963400D01*
X91896914Y-46915780D01*
X91039771Y-47249114D02*
X91039771Y-48249114D01*
X91039771Y-47296733D02*
X90944533Y-47249114D01*
X90754057Y-47249114D01*
X90658819Y-47296733D01*
X90611200Y-47344352D01*
X90563580Y-47439590D01*
X90563580Y-47725304D01*
X90611200Y-47820542D01*
X90658819Y-47868161D01*
X90754057Y-47915780D01*
X90944533Y-47915780D01*
X91039771Y-47868161D01*
X89754057Y-47868161D02*
X89849295Y-47915780D01*
X90039771Y-47915780D01*
X90135009Y-47868161D01*
X90182628Y-47772923D01*
X90182628Y-47391971D01*
X90135009Y-47296733D01*
X90039771Y-47249114D01*
X89849295Y-47249114D01*
X89754057Y-47296733D01*
X89706438Y-47391971D01*
X89706438Y-47487209D01*
X90182628Y-47582447D01*
X89277866Y-47249114D02*
X89277866Y-47915780D01*
X89277866Y-47344352D02*
X89230247Y-47296733D01*
X89135009Y-47249114D01*
X88992152Y-47249114D01*
X88896914Y-47296733D01*
X88849295Y-47391971D01*
X88849295Y-47915780D01*
X87658819Y-47868161D02*
X87515961Y-47915780D01*
X87277866Y-47915780D01*
X87182628Y-47868161D01*
X87135009Y-47820542D01*
X87087390Y-47725304D01*
X87087390Y-47630066D01*
X87135009Y-47534828D01*
X87182628Y-47487209D01*
X87277866Y-47439590D01*
X87468342Y-47391971D01*
X87563580Y-47344352D01*
X87611200Y-47296733D01*
X87658819Y-47201495D01*
X87658819Y-47106257D01*
X87611200Y-47011019D01*
X87563580Y-46963400D01*
X87468342Y-46915780D01*
X87230247Y-46915780D01*
X87087390Y-46963400D01*
X86515961Y-47915780D02*
X86611200Y-47868161D01*
X86658819Y-47820542D01*
X86706438Y-47725304D01*
X86706438Y-47439590D01*
X86658819Y-47344352D01*
X86611200Y-47296733D01*
X86515961Y-47249114D01*
X86373104Y-47249114D01*
X86277866Y-47296733D01*
X86230247Y-47344352D01*
X86182628Y-47439590D01*
X86182628Y-47725304D01*
X86230247Y-47820542D01*
X86277866Y-47868161D01*
X86373104Y-47915780D01*
X86515961Y-47915780D01*
X85325485Y-47249114D02*
X85325485Y-47915780D01*
X85754057Y-47249114D02*
X85754057Y-47772923D01*
X85706438Y-47868161D01*
X85611200Y-47915780D01*
X85468342Y-47915780D01*
X85373104Y-47868161D01*
X85325485Y-47820542D01*
X84849295Y-47915780D02*
X84849295Y-47249114D01*
X84849295Y-47439590D02*
X84801676Y-47344352D01*
X84754057Y-47296733D01*
X84658819Y-47249114D01*
X84563580Y-47249114D01*
X83801676Y-47868161D02*
X83896914Y-47915780D01*
X84087390Y-47915780D01*
X84182628Y-47868161D01*
X84230247Y-47820542D01*
X84277866Y-47725304D01*
X84277866Y-47439590D01*
X84230247Y-47344352D01*
X84182628Y-47296733D01*
X84087390Y-47249114D01*
X83896914Y-47249114D01*
X83801676Y-47296733D01*
X82992152Y-47868161D02*
X83087390Y-47915780D01*
X83277866Y-47915780D01*
X83373104Y-47868161D01*
X83420723Y-47772923D01*
X83420723Y-47391971D01*
X83373104Y-47296733D01*
X83277866Y-47249114D01*
X83087390Y-47249114D01*
X82992152Y-47296733D01*
X82944533Y-47391971D01*
X82944533Y-47487209D01*
X83420723Y-47582447D01*
X81277866Y-47915780D02*
X81754057Y-47915780D01*
X81754057Y-46915780D01*
X80944533Y-47915780D02*
X80944533Y-47249114D01*
X80944533Y-46915780D02*
X80992152Y-46963400D01*
X80944533Y-47011019D01*
X80896914Y-46963400D01*
X80944533Y-46915780D01*
X80944533Y-47011019D01*
X80039771Y-47868161D02*
X80135009Y-47915780D01*
X80325485Y-47915780D01*
X80420723Y-47868161D01*
X80468342Y-47820542D01*
X80515961Y-47725304D01*
X80515961Y-47439590D01*
X80468342Y-47344352D01*
X80420723Y-47296733D01*
X80325485Y-47249114D01*
X80135009Y-47249114D01*
X80039771Y-47296733D01*
X79230247Y-47868161D02*
X79325485Y-47915780D01*
X79515961Y-47915780D01*
X79611200Y-47868161D01*
X79658819Y-47772923D01*
X79658819Y-47391971D01*
X79611200Y-47296733D01*
X79515961Y-47249114D01*
X79325485Y-47249114D01*
X79230247Y-47296733D01*
X79182628Y-47391971D01*
X79182628Y-47487209D01*
X79658819Y-47582447D01*
X78754057Y-47249114D02*
X78754057Y-47915780D01*
X78754057Y-47344352D02*
X78706438Y-47296733D01*
X78611200Y-47249114D01*
X78468342Y-47249114D01*
X78373104Y-47296733D01*
X78325485Y-47391971D01*
X78325485Y-47915780D01*
X77896914Y-47868161D02*
X77801676Y-47915780D01*
X77611200Y-47915780D01*
X77515961Y-47868161D01*
X77468342Y-47772923D01*
X77468342Y-47725304D01*
X77515961Y-47630066D01*
X77611200Y-47582447D01*
X77754057Y-47582447D01*
X77849295Y-47534828D01*
X77896914Y-47439590D01*
X77896914Y-47391971D01*
X77849295Y-47296733D01*
X77754057Y-47249114D01*
X77611200Y-47249114D01*
X77515961Y-47296733D01*
X76658819Y-47868161D02*
X76754057Y-47915780D01*
X76944533Y-47915780D01*
X77039771Y-47868161D01*
X77087390Y-47772923D01*
X77087390Y-47391971D01*
X77039771Y-47296733D01*
X76944533Y-47249114D01*
X76754057Y-47249114D01*
X76658819Y-47296733D01*
X76611200Y-47391971D01*
X76611200Y-47487209D01*
X77087390Y-47582447D01*
X75135009Y-48296733D02*
X75182628Y-48249114D01*
X75277866Y-48106257D01*
X75325485Y-48011019D01*
X75373104Y-47868161D01*
X75420723Y-47630066D01*
X75420723Y-47439590D01*
X75373104Y-47201495D01*
X75325485Y-47058638D01*
X75277866Y-46963400D01*
X75182628Y-46820542D01*
X75135009Y-46772923D01*
X74896914Y-47249114D02*
X74515961Y-47249114D01*
X74754057Y-46915780D02*
X74754057Y-47772923D01*
X74706438Y-47868161D01*
X74611200Y-47915780D01*
X74515961Y-47915780D01*
X74182628Y-47915780D02*
X74182628Y-46915780D01*
X73754057Y-47915780D02*
X73754057Y-47391971D01*
X73801676Y-47296733D01*
X73896914Y-47249114D01*
X74039771Y-47249114D01*
X74135009Y-47296733D01*
X74182628Y-47344352D01*
X72896914Y-47868161D02*
X72992152Y-47915780D01*
X73182628Y-47915780D01*
X73277866Y-47868161D01*
X73325485Y-47772923D01*
X73325485Y-47391971D01*
X73277866Y-47296733D01*
X73182628Y-47249114D01*
X72992152Y-47249114D01*
X72896914Y-47296733D01*
X72849295Y-47391971D01*
X72849295Y-47487209D01*
X73325485Y-47582447D01*
X71373104Y-46963400D02*
X71373104Y-46915780D01*
X71325485Y-46820542D01*
X71277866Y-46772923D01*
X71754057Y-46963400D02*
X71754057Y-46915780D01*
X71706438Y-46820542D01*
X71658819Y-46772923D01*
X70420723Y-47915780D02*
X70896914Y-47915780D01*
X70896914Y-46915780D01*
X70087390Y-47915780D02*
X70087390Y-47249114D01*
X70087390Y-46915780D02*
X70135009Y-46963400D01*
X70087390Y-47011019D01*
X70039771Y-46963400D01*
X70087390Y-46915780D01*
X70087390Y-47011019D01*
X69182628Y-47868161D02*
X69277866Y-47915780D01*
X69468342Y-47915780D01*
X69563580Y-47868161D01*
X69611200Y-47820542D01*
X69658819Y-47725304D01*
X69658819Y-47439590D01*
X69611200Y-47344352D01*
X69563580Y-47296733D01*
X69468342Y-47249114D01*
X69277866Y-47249114D01*
X69182628Y-47296733D01*
X68373104Y-47868161D02*
X68468342Y-47915780D01*
X68658819Y-47915780D01*
X68754057Y-47868161D01*
X68801676Y-47772923D01*
X68801676Y-47391971D01*
X68754057Y-47296733D01*
X68658819Y-47249114D01*
X68468342Y-47249114D01*
X68373104Y-47296733D01*
X68325485Y-47391971D01*
X68325485Y-47487209D01*
X68801676Y-47582447D01*
X67896914Y-47249114D02*
X67896914Y-47915780D01*
X67896914Y-47344352D02*
X67849295Y-47296733D01*
X67754057Y-47249114D01*
X67611200Y-47249114D01*
X67515961Y-47296733D01*
X67468342Y-47391971D01*
X67468342Y-47915780D01*
X67039771Y-47868161D02*
X66944533Y-47915780D01*
X66754057Y-47915780D01*
X66658819Y-47868161D01*
X66611200Y-47772923D01*
X66611200Y-47725304D01*
X66658819Y-47630066D01*
X66754057Y-47582447D01*
X66896914Y-47582447D01*
X66992152Y-47534828D01*
X67039771Y-47439590D01*
X67039771Y-47391971D01*
X66992152Y-47296733D01*
X66896914Y-47249114D01*
X66754057Y-47249114D01*
X66658819Y-47296733D01*
X65801676Y-47868161D02*
X65896914Y-47915780D01*
X66087390Y-47915780D01*
X66182628Y-47868161D01*
X66230247Y-47772923D01*
X66230247Y-47391971D01*
X66182628Y-47296733D01*
X66087390Y-47249114D01*
X65896914Y-47249114D01*
X65801676Y-47296733D01*
X65754057Y-47391971D01*
X65754057Y-47487209D01*
X66230247Y-47582447D01*
X65325485Y-46915780D02*
X65325485Y-46963400D01*
X65373104Y-47058638D01*
X65420723Y-47106257D01*
X64944533Y-46915780D02*
X64944533Y-46963400D01*
X64992152Y-47058638D01*
X65039771Y-47106257D01*
X64658819Y-48296733D02*
X64611200Y-48249114D01*
X64515961Y-48106257D01*
X64468342Y-48011019D01*
X64420723Y-47868161D01*
X64373104Y-47630066D01*
X64373104Y-47439590D01*
X64420723Y-47201495D01*
X64468342Y-47058638D01*
X64515961Y-46963400D01*
X64611200Y-46820542D01*
X64658819Y-46772923D01*
X63849295Y-47868161D02*
X63849295Y-47915780D01*
X63896914Y-48011019D01*
X63944533Y-48058638D01*
X63896914Y-47296733D02*
X63849295Y-47344352D01*
X63896914Y-47391971D01*
X63944533Y-47344352D01*
X63896914Y-47296733D01*
X63896914Y-47391971D01*
X114587390Y-48899114D02*
X114349295Y-49565780D01*
X114111199Y-48899114D02*
X114349295Y-49565780D01*
X114444533Y-49803876D01*
X114492152Y-49851495D01*
X114587390Y-49899114D01*
X113587390Y-49565780D02*
X113682628Y-49518161D01*
X113730247Y-49470542D01*
X113777866Y-49375304D01*
X113777866Y-49089590D01*
X113730247Y-48994352D01*
X113682628Y-48946733D01*
X113587390Y-48899114D01*
X113444533Y-48899114D01*
X113349295Y-48946733D01*
X113301676Y-48994352D01*
X113254057Y-49089590D01*
X113254057Y-49375304D01*
X113301676Y-49470542D01*
X113349295Y-49518161D01*
X113444533Y-49565780D01*
X113587390Y-49565780D01*
X112396914Y-48899114D02*
X112396914Y-49565780D01*
X112825485Y-48899114D02*
X112825485Y-49422923D01*
X112777866Y-49518161D01*
X112682628Y-49565780D01*
X112539771Y-49565780D01*
X112444533Y-49518161D01*
X112396914Y-49470542D01*
X111158819Y-49565780D02*
X111158819Y-48899114D01*
X111158819Y-48994352D02*
X111111200Y-48946733D01*
X111015961Y-48899114D01*
X110873104Y-48899114D01*
X110777866Y-48946733D01*
X110730247Y-49041971D01*
X110730247Y-49565780D01*
X110730247Y-49041971D02*
X110682628Y-48946733D01*
X110587390Y-48899114D01*
X110444533Y-48899114D01*
X110349295Y-48946733D01*
X110301676Y-49041971D01*
X110301676Y-49565780D01*
X109396914Y-49565780D02*
X109396914Y-49041971D01*
X109444533Y-48946733D01*
X109539771Y-48899114D01*
X109730247Y-48899114D01*
X109825485Y-48946733D01*
X109396914Y-49518161D02*
X109492152Y-49565780D01*
X109730247Y-49565780D01*
X109825485Y-49518161D01*
X109873104Y-49422923D01*
X109873104Y-49327685D01*
X109825485Y-49232447D01*
X109730247Y-49184828D01*
X109492152Y-49184828D01*
X109396914Y-49137209D01*
X109015961Y-48899114D02*
X108777866Y-49565780D01*
X108539771Y-48899114D02*
X108777866Y-49565780D01*
X108873104Y-49803876D01*
X108920723Y-49851495D01*
X109015961Y-49899114D01*
X107396914Y-48899114D02*
X107396914Y-49565780D01*
X107396914Y-48994352D02*
X107349295Y-48946733D01*
X107254057Y-48899114D01*
X107111200Y-48899114D01*
X107015961Y-48946733D01*
X106968342Y-49041971D01*
X106968342Y-49565780D01*
X106349295Y-49565780D02*
X106444533Y-49518161D01*
X106492152Y-49470542D01*
X106539771Y-49375304D01*
X106539771Y-49089590D01*
X106492152Y-48994352D01*
X106444533Y-48946733D01*
X106349295Y-48899114D01*
X106206438Y-48899114D01*
X106111200Y-48946733D01*
X106063580Y-48994352D01*
X106015961Y-49089590D01*
X106015961Y-49375304D01*
X106063580Y-49470542D01*
X106111200Y-49518161D01*
X106206438Y-49565780D01*
X106349295Y-49565780D01*
X105730247Y-48899114D02*
X105349295Y-48899114D01*
X105587390Y-48565780D02*
X105587390Y-49422923D01*
X105539771Y-49518161D01*
X105444533Y-49565780D01*
X105349295Y-49565780D01*
X103825485Y-48899114D02*
X103825485Y-49565780D01*
X104254057Y-48899114D02*
X104254057Y-49422923D01*
X104206438Y-49518161D01*
X104111200Y-49565780D01*
X103968342Y-49565780D01*
X103873104Y-49518161D01*
X103825485Y-49470542D01*
X103396914Y-49518161D02*
X103301676Y-49565780D01*
X103111200Y-49565780D01*
X103015961Y-49518161D01*
X102968342Y-49422923D01*
X102968342Y-49375304D01*
X103015961Y-49280066D01*
X103111200Y-49232447D01*
X103254057Y-49232447D01*
X103349295Y-49184828D01*
X103396914Y-49089590D01*
X103396914Y-49041971D01*
X103349295Y-48946733D01*
X103254057Y-48899114D01*
X103111200Y-48899114D01*
X103015961Y-48946733D01*
X102158819Y-49518161D02*
X102254057Y-49565780D01*
X102444533Y-49565780D01*
X102539771Y-49518161D01*
X102587390Y-49422923D01*
X102587390Y-49041971D01*
X102539771Y-48946733D01*
X102444533Y-48899114D01*
X102254057Y-48899114D01*
X102158819Y-48946733D01*
X102111200Y-49041971D01*
X102111200Y-49137209D01*
X102587390Y-49232447D01*
X101063580Y-48899114D02*
X100682628Y-48899114D01*
X100920723Y-48565780D02*
X100920723Y-49422923D01*
X100873104Y-49518161D01*
X100777866Y-49565780D01*
X100682628Y-49565780D01*
X100349295Y-49565780D02*
X100349295Y-48565780D01*
X99920723Y-49565780D02*
X99920723Y-49041971D01*
X99968342Y-48946733D01*
X100063580Y-48899114D01*
X100206438Y-48899114D01*
X100301676Y-48946733D01*
X100349295Y-48994352D01*
X99444533Y-49565780D02*
X99444533Y-48899114D01*
X99444533Y-48565780D02*
X99492152Y-48613400D01*
X99444533Y-48661019D01*
X99396914Y-48613400D01*
X99444533Y-48565780D01*
X99444533Y-48661019D01*
X99015961Y-49518161D02*
X98920723Y-49565780D01*
X98730247Y-49565780D01*
X98635009Y-49518161D01*
X98587390Y-49422923D01*
X98587390Y-49375304D01*
X98635009Y-49280066D01*
X98730247Y-49232447D01*
X98873104Y-49232447D01*
X98968342Y-49184828D01*
X99015961Y-49089590D01*
X99015961Y-49041971D01*
X98968342Y-48946733D01*
X98873104Y-48899114D01*
X98730247Y-48899114D01*
X98635009Y-48946733D01*
X97539771Y-48899114D02*
X97158819Y-48899114D01*
X97396914Y-49565780D02*
X97396914Y-48708638D01*
X97349295Y-48613400D01*
X97254057Y-48565780D01*
X97158819Y-48565780D01*
X96825485Y-49565780D02*
X96825485Y-48899114D01*
X96825485Y-48565780D02*
X96873104Y-48613400D01*
X96825485Y-48661019D01*
X96777866Y-48613400D01*
X96825485Y-48565780D01*
X96825485Y-48661019D01*
X96206438Y-49565780D02*
X96301676Y-49518161D01*
X96349295Y-49422923D01*
X96349295Y-48565780D01*
X95444533Y-49518161D02*
X95539771Y-49565780D01*
X95730247Y-49565780D01*
X95825485Y-49518161D01*
X95873104Y-49422923D01*
X95873104Y-49041971D01*
X95825485Y-48946733D01*
X95730247Y-48899114D01*
X95539771Y-48899114D01*
X95444533Y-48946733D01*
X95396914Y-49041971D01*
X95396914Y-49137209D01*
X95873104Y-49232447D01*
X93825485Y-49518161D02*
X93920723Y-49565780D01*
X94111200Y-49565780D01*
X94206438Y-49518161D01*
X94254057Y-49422923D01*
X94254057Y-49041971D01*
X94206438Y-48946733D01*
X94111200Y-48899114D01*
X93920723Y-48899114D01*
X93825485Y-48946733D01*
X93777866Y-49041971D01*
X93777866Y-49137209D01*
X94254057Y-49232447D01*
X93444533Y-49565780D02*
X92920723Y-48899114D01*
X93444533Y-48899114D02*
X92920723Y-49565780D01*
X92111200Y-49518161D02*
X92206438Y-49565780D01*
X92396914Y-49565780D01*
X92492152Y-49518161D01*
X92539771Y-49470542D01*
X92587390Y-49375304D01*
X92587390Y-49089590D01*
X92539771Y-48994352D01*
X92492152Y-48946733D01*
X92396914Y-48899114D01*
X92206438Y-48899114D01*
X92111200Y-48946733D01*
X91301676Y-49518161D02*
X91396914Y-49565780D01*
X91587390Y-49565780D01*
X91682628Y-49518161D01*
X91730247Y-49422923D01*
X91730247Y-49041971D01*
X91682628Y-48946733D01*
X91587390Y-48899114D01*
X91396914Y-48899114D01*
X91301676Y-48946733D01*
X91254057Y-49041971D01*
X91254057Y-49137209D01*
X91730247Y-49232447D01*
X90825485Y-48899114D02*
X90825485Y-49899114D01*
X90825485Y-48946733D02*
X90730247Y-48899114D01*
X90539771Y-48899114D01*
X90444533Y-48946733D01*
X90396914Y-48994352D01*
X90349295Y-49089590D01*
X90349295Y-49375304D01*
X90396914Y-49470542D01*
X90444533Y-49518161D01*
X90539771Y-49565780D01*
X90730247Y-49565780D01*
X90825485Y-49518161D01*
X90063580Y-48899114D02*
X89682628Y-48899114D01*
X89920723Y-48565780D02*
X89920723Y-49422923D01*
X89873104Y-49518161D01*
X89777866Y-49565780D01*
X89682628Y-49565780D01*
X88587390Y-49565780D02*
X88587390Y-48899114D01*
X88587390Y-48565780D02*
X88635009Y-48613400D01*
X88587390Y-48661019D01*
X88539771Y-48613400D01*
X88587390Y-48565780D01*
X88587390Y-48661019D01*
X88111200Y-48899114D02*
X88111200Y-49565780D01*
X88111200Y-48994352D02*
X88063580Y-48946733D01*
X87968342Y-48899114D01*
X87825485Y-48899114D01*
X87730247Y-48946733D01*
X87682628Y-49041971D01*
X87682628Y-49565780D01*
X86015961Y-49518161D02*
X86111200Y-49565780D01*
X86301676Y-49565780D01*
X86396914Y-49518161D01*
X86444533Y-49470542D01*
X86492152Y-49375304D01*
X86492152Y-49089590D01*
X86444533Y-48994352D01*
X86396914Y-48946733D01*
X86301676Y-48899114D01*
X86111200Y-48899114D01*
X86015961Y-48946733D01*
X85444533Y-49565780D02*
X85539771Y-49518161D01*
X85587390Y-49470542D01*
X85635009Y-49375304D01*
X85635009Y-49089590D01*
X85587390Y-48994352D01*
X85539771Y-48946733D01*
X85444533Y-48899114D01*
X85301676Y-48899114D01*
X85206438Y-48946733D01*
X85158819Y-48994352D01*
X85111200Y-49089590D01*
X85111200Y-49375304D01*
X85158819Y-49470542D01*
X85206438Y-49518161D01*
X85301676Y-49565780D01*
X85444533Y-49565780D01*
X84682628Y-49565780D02*
X84682628Y-48899114D01*
X84682628Y-48994352D02*
X84635009Y-48946733D01*
X84539771Y-48899114D01*
X84396914Y-48899114D01*
X84301676Y-48946733D01*
X84254057Y-49041971D01*
X84254057Y-49565780D01*
X84254057Y-49041971D02*
X84206438Y-48946733D01*
X84111200Y-48899114D01*
X83968342Y-48899114D01*
X83873104Y-48946733D01*
X83825485Y-49041971D01*
X83825485Y-49565780D01*
X83349295Y-48899114D02*
X83349295Y-49899114D01*
X83349295Y-48946733D02*
X83254057Y-48899114D01*
X83063580Y-48899114D01*
X82968342Y-48946733D01*
X82920723Y-48994352D01*
X82873104Y-49089590D01*
X82873104Y-49375304D01*
X82920723Y-49470542D01*
X82968342Y-49518161D01*
X83063580Y-49565780D01*
X83254057Y-49565780D01*
X83349295Y-49518161D01*
X82301676Y-49565780D02*
X82396914Y-49518161D01*
X82444533Y-49422923D01*
X82444533Y-48565780D01*
X81920723Y-49565780D02*
X81920723Y-48899114D01*
X81920723Y-48565780D02*
X81968342Y-48613400D01*
X81920723Y-48661019D01*
X81873104Y-48613400D01*
X81920723Y-48565780D01*
X81920723Y-48661019D01*
X81015961Y-49565780D02*
X81015961Y-49041971D01*
X81063580Y-48946733D01*
X81158819Y-48899114D01*
X81349295Y-48899114D01*
X81444533Y-48946733D01*
X81015961Y-49518161D02*
X81111200Y-49565780D01*
X81349295Y-49565780D01*
X81444533Y-49518161D01*
X81492152Y-49422923D01*
X81492152Y-49327685D01*
X81444533Y-49232447D01*
X81349295Y-49184828D01*
X81111200Y-49184828D01*
X81015961Y-49137209D01*
X80539771Y-48899114D02*
X80539771Y-49565780D01*
X80539771Y-48994352D02*
X80492152Y-48946733D01*
X80396914Y-48899114D01*
X80254057Y-48899114D01*
X80158819Y-48946733D01*
X80111200Y-49041971D01*
X80111200Y-49565780D01*
X79206438Y-49518161D02*
X79301676Y-49565780D01*
X79492152Y-49565780D01*
X79587390Y-49518161D01*
X79635009Y-49470542D01*
X79682628Y-49375304D01*
X79682628Y-49089590D01*
X79635009Y-48994352D01*
X79587390Y-48946733D01*
X79492152Y-48899114D01*
X79301676Y-48899114D01*
X79206438Y-48946733D01*
X78396914Y-49518161D02*
X78492152Y-49565780D01*
X78682628Y-49565780D01*
X78777866Y-49518161D01*
X78825485Y-49422923D01*
X78825485Y-49041971D01*
X78777866Y-48946733D01*
X78682628Y-48899114D01*
X78492152Y-48899114D01*
X78396914Y-48946733D01*
X78349295Y-49041971D01*
X78349295Y-49137209D01*
X78825485Y-49232447D01*
X77254057Y-48899114D02*
X77063580Y-49565780D01*
X76873104Y-49089590D01*
X76682628Y-49565780D01*
X76492152Y-48899114D01*
X76111200Y-49565780D02*
X76111200Y-48899114D01*
X76111200Y-48565780D02*
X76158819Y-48613400D01*
X76111200Y-48661019D01*
X76063580Y-48613400D01*
X76111200Y-48565780D01*
X76111200Y-48661019D01*
X75777866Y-48899114D02*
X75396914Y-48899114D01*
X75635009Y-48565780D02*
X75635009Y-49422923D01*
X75587390Y-49518161D01*
X75492152Y-49565780D01*
X75396914Y-49565780D01*
X75063580Y-49565780D02*
X75063580Y-48565780D01*
X74635009Y-49565780D02*
X74635009Y-49041971D01*
X74682628Y-48946733D01*
X74777866Y-48899114D01*
X74920723Y-48899114D01*
X75015961Y-48946733D01*
X75063580Y-48994352D01*
X73539771Y-48899114D02*
X73158819Y-48899114D01*
X73396914Y-48565780D02*
X73396914Y-49422923D01*
X73349295Y-49518161D01*
X73254057Y-49565780D01*
X73158819Y-49565780D01*
X72825485Y-49565780D02*
X72825485Y-48565780D01*
X72396914Y-49565780D02*
X72396914Y-49041971D01*
X72444533Y-48946733D01*
X72539771Y-48899114D01*
X72682628Y-48899114D01*
X72777866Y-48946733D01*
X72825485Y-48994352D01*
X71539771Y-49518161D02*
X71635009Y-49565780D01*
X71825485Y-49565780D01*
X71920723Y-49518161D01*
X71968342Y-49422923D01*
X71968342Y-49041971D01*
X71920723Y-48946733D01*
X71825485Y-48899114D01*
X71635009Y-48899114D01*
X71539771Y-48946733D01*
X71492152Y-49041971D01*
X71492152Y-49137209D01*
X71968342Y-49232447D01*
X69825485Y-49565780D02*
X70301676Y-49565780D01*
X70301676Y-48565780D01*
X69492152Y-49565780D02*
X69492152Y-48899114D01*
X69492152Y-48565780D02*
X69539771Y-48613400D01*
X69492152Y-48661019D01*
X69444533Y-48613400D01*
X69492152Y-48565780D01*
X69492152Y-48661019D01*
X68587390Y-49518161D02*
X68682628Y-49565780D01*
X68873104Y-49565780D01*
X68968342Y-49518161D01*
X69015961Y-49470542D01*
X69063580Y-49375304D01*
X69063580Y-49089590D01*
X69015961Y-48994352D01*
X68968342Y-48946733D01*
X68873104Y-48899114D01*
X68682628Y-48899114D01*
X68587390Y-48946733D01*
X67777866Y-49518161D02*
X67873104Y-49565780D01*
X68063580Y-49565780D01*
X68158819Y-49518161D01*
X68206438Y-49422923D01*
X68206438Y-49041971D01*
X68158819Y-48946733D01*
X68063580Y-48899114D01*
X67873104Y-48899114D01*
X67777866Y-48946733D01*
X67730247Y-49041971D01*
X67730247Y-49137209D01*
X68206438Y-49232447D01*
X67301676Y-48899114D02*
X67301676Y-49565780D01*
X67301676Y-48994352D02*
X67254057Y-48946733D01*
X67158819Y-48899114D01*
X67015961Y-48899114D01*
X66920723Y-48946733D01*
X66873104Y-49041971D01*
X66873104Y-49565780D01*
X66444533Y-49518161D02*
X66349295Y-49565780D01*
X66158819Y-49565780D01*
X66063580Y-49518161D01*
X66015961Y-49422923D01*
X66015961Y-49375304D01*
X66063580Y-49280066D01*
X66158819Y-49232447D01*
X66301676Y-49232447D01*
X66396914Y-49184828D01*
X66444533Y-49089590D01*
X66444533Y-49041971D01*
X66396914Y-48946733D01*
X66301676Y-48899114D01*
X66158819Y-48899114D01*
X66063580Y-48946733D01*
X65206438Y-49518161D02*
X65301676Y-49565780D01*
X65492152Y-49565780D01*
X65587390Y-49518161D01*
X65635009Y-49422923D01*
X65635009Y-49041971D01*
X65587390Y-48946733D01*
X65492152Y-48899114D01*
X65301676Y-48899114D01*
X65206438Y-48946733D01*
X65158819Y-49041971D01*
X65158819Y-49137209D01*
X65635009Y-49232447D01*
X64730247Y-49470542D02*
X64682628Y-49518161D01*
X64730247Y-49565780D01*
X64777866Y-49518161D01*
X64730247Y-49470542D01*
X64730247Y-49565780D01*
X104992152Y-50739590D02*
X104992152Y-51215780D01*
X105325485Y-50215780D02*
X104992152Y-50739590D01*
X104658819Y-50215780D01*
X104182628Y-51215780D02*
X104277866Y-51168161D01*
X104325485Y-51120542D01*
X104373104Y-51025304D01*
X104373104Y-50739590D01*
X104325485Y-50644352D01*
X104277866Y-50596733D01*
X104182628Y-50549114D01*
X104039771Y-50549114D01*
X103944533Y-50596733D01*
X103896914Y-50644352D01*
X103849295Y-50739590D01*
X103849295Y-51025304D01*
X103896914Y-51120542D01*
X103944533Y-51168161D01*
X104039771Y-51215780D01*
X104182628Y-51215780D01*
X102992152Y-50549114D02*
X102992152Y-51215780D01*
X103420723Y-50549114D02*
X103420723Y-51072923D01*
X103373104Y-51168161D01*
X103277866Y-51215780D01*
X103135009Y-51215780D01*
X103039771Y-51168161D01*
X102992152Y-51120542D01*
X101754057Y-51215780D02*
X101754057Y-50549114D01*
X101754057Y-50644352D02*
X101706438Y-50596733D01*
X101611200Y-50549114D01*
X101468342Y-50549114D01*
X101373104Y-50596733D01*
X101325485Y-50691971D01*
X101325485Y-51215780D01*
X101325485Y-50691971D02*
X101277866Y-50596733D01*
X101182628Y-50549114D01*
X101039771Y-50549114D01*
X100944533Y-50596733D01*
X100896914Y-50691971D01*
X100896914Y-51215780D01*
X99992152Y-51215780D02*
X99992152Y-50691971D01*
X100039771Y-50596733D01*
X100135009Y-50549114D01*
X100325485Y-50549114D01*
X100420723Y-50596733D01*
X99992152Y-51168161D02*
X100087390Y-51215780D01*
X100325485Y-51215780D01*
X100420723Y-51168161D01*
X100468342Y-51072923D01*
X100468342Y-50977685D01*
X100420723Y-50882447D01*
X100325485Y-50834828D01*
X100087390Y-50834828D01*
X99992152Y-50787209D01*
X99611200Y-50549114D02*
X99373104Y-51215780D01*
X99135009Y-50549114D02*
X99373104Y-51215780D01*
X99468342Y-51453876D01*
X99515961Y-51501495D01*
X99611200Y-51549114D01*
X97849295Y-51215780D02*
X97944533Y-51168161D01*
X97992152Y-51120542D01*
X98039771Y-51025304D01*
X98039771Y-50739590D01*
X97992152Y-50644352D01*
X97944533Y-50596733D01*
X97849295Y-50549114D01*
X97706438Y-50549114D01*
X97611200Y-50596733D01*
X97563580Y-50644352D01*
X97515961Y-50739590D01*
X97515961Y-51025304D01*
X97563580Y-51120542D01*
X97611200Y-51168161D01*
X97706438Y-51215780D01*
X97849295Y-51215780D01*
X97087390Y-51215780D02*
X97087390Y-50215780D01*
X97087390Y-50596733D02*
X96992152Y-50549114D01*
X96801676Y-50549114D01*
X96706438Y-50596733D01*
X96658819Y-50644352D01*
X96611200Y-50739590D01*
X96611200Y-51025304D01*
X96658819Y-51120542D01*
X96706438Y-51168161D01*
X96801676Y-51215780D01*
X96992152Y-51215780D01*
X97087390Y-51168161D01*
X96325485Y-50549114D02*
X95944533Y-50549114D01*
X96182628Y-50215780D02*
X96182628Y-51072923D01*
X96135009Y-51168161D01*
X96039771Y-51215780D01*
X95944533Y-51215780D01*
X95182628Y-51215780D02*
X95182628Y-50691971D01*
X95230247Y-50596733D01*
X95325485Y-50549114D01*
X95515961Y-50549114D01*
X95611200Y-50596733D01*
X95182628Y-51168161D02*
X95277866Y-51215780D01*
X95515961Y-51215780D01*
X95611200Y-51168161D01*
X95658819Y-51072923D01*
X95658819Y-50977685D01*
X95611200Y-50882447D01*
X95515961Y-50834828D01*
X95277866Y-50834828D01*
X95182628Y-50787209D01*
X94706438Y-51215780D02*
X94706438Y-50549114D01*
X94706438Y-50215780D02*
X94754057Y-50263400D01*
X94706438Y-50311019D01*
X94658819Y-50263400D01*
X94706438Y-50215780D01*
X94706438Y-50311019D01*
X94230247Y-50549114D02*
X94230247Y-51215780D01*
X94230247Y-50644352D02*
X94182628Y-50596733D01*
X94087390Y-50549114D01*
X93944533Y-50549114D01*
X93849295Y-50596733D01*
X93801676Y-50691971D01*
X93801676Y-51215780D01*
X92135009Y-51215780D02*
X92135009Y-50691971D01*
X92182628Y-50596733D01*
X92277866Y-50549114D01*
X92468342Y-50549114D01*
X92563580Y-50596733D01*
X92135009Y-51168161D02*
X92230247Y-51215780D01*
X92468342Y-51215780D01*
X92563580Y-51168161D01*
X92611200Y-51072923D01*
X92611200Y-50977685D01*
X92563580Y-50882447D01*
X92468342Y-50834828D01*
X92230247Y-50834828D01*
X92135009Y-50787209D01*
X90468342Y-51168161D02*
X90563580Y-51215780D01*
X90754057Y-51215780D01*
X90849295Y-51168161D01*
X90896914Y-51120542D01*
X90944533Y-51025304D01*
X90944533Y-50739590D01*
X90896914Y-50644352D01*
X90849295Y-50596733D01*
X90754057Y-50549114D01*
X90563580Y-50549114D01*
X90468342Y-50596733D01*
X89896914Y-51215780D02*
X89992152Y-51168161D01*
X90039771Y-51120542D01*
X90087390Y-51025304D01*
X90087390Y-50739590D01*
X90039771Y-50644352D01*
X89992152Y-50596733D01*
X89896914Y-50549114D01*
X89754057Y-50549114D01*
X89658819Y-50596733D01*
X89611200Y-50644352D01*
X89563580Y-50739590D01*
X89563580Y-51025304D01*
X89611200Y-51120542D01*
X89658819Y-51168161D01*
X89754057Y-51215780D01*
X89896914Y-51215780D01*
X89135009Y-50549114D02*
X89135009Y-51549114D01*
X89135009Y-50596733D02*
X89039771Y-50549114D01*
X88849295Y-50549114D01*
X88754057Y-50596733D01*
X88706438Y-50644352D01*
X88658819Y-50739590D01*
X88658819Y-51025304D01*
X88706438Y-51120542D01*
X88754057Y-51168161D01*
X88849295Y-51215780D01*
X89039771Y-51215780D01*
X89135009Y-51168161D01*
X88325485Y-50549114D02*
X88087390Y-51215780D01*
X87849295Y-50549114D02*
X88087390Y-51215780D01*
X88182628Y-51453876D01*
X88230247Y-51501495D01*
X88325485Y-51549114D01*
X86563580Y-51215780D02*
X86658819Y-51168161D01*
X86706438Y-51120542D01*
X86754057Y-51025304D01*
X86754057Y-50739590D01*
X86706438Y-50644352D01*
X86658819Y-50596733D01*
X86563580Y-50549114D01*
X86420723Y-50549114D01*
X86325485Y-50596733D01*
X86277866Y-50644352D01*
X86230247Y-50739590D01*
X86230247Y-51025304D01*
X86277866Y-51120542D01*
X86325485Y-51168161D01*
X86420723Y-51215780D01*
X86563580Y-51215780D01*
X85944533Y-50549114D02*
X85563580Y-50549114D01*
X85801676Y-51215780D02*
X85801676Y-50358638D01*
X85754057Y-50263400D01*
X85658819Y-50215780D01*
X85563580Y-50215780D01*
X84611200Y-50549114D02*
X84230247Y-50549114D01*
X84468342Y-50215780D02*
X84468342Y-51072923D01*
X84420723Y-51168161D01*
X84325485Y-51215780D01*
X84230247Y-51215780D01*
X83896914Y-51215780D02*
X83896914Y-50215780D01*
X83468342Y-51215780D02*
X83468342Y-50691971D01*
X83515961Y-50596733D01*
X83611200Y-50549114D01*
X83754057Y-50549114D01*
X83849295Y-50596733D01*
X83896914Y-50644352D01*
X82611200Y-51168161D02*
X82706438Y-51215780D01*
X82896914Y-51215780D01*
X82992152Y-51168161D01*
X83039771Y-51072923D01*
X83039771Y-50691971D01*
X82992152Y-50596733D01*
X82896914Y-50549114D01*
X82706438Y-50549114D01*
X82611200Y-50596733D01*
X82563580Y-50691971D01*
X82563580Y-50787209D01*
X83039771Y-50882447D01*
X80896914Y-51215780D02*
X81373104Y-51215780D01*
X81373104Y-50215780D01*
X80563580Y-51215780D02*
X80563580Y-50549114D01*
X80563580Y-50215780D02*
X80611200Y-50263400D01*
X80563580Y-50311019D01*
X80515961Y-50263400D01*
X80563580Y-50215780D01*
X80563580Y-50311019D01*
X79658819Y-51168161D02*
X79754057Y-51215780D01*
X79944533Y-51215780D01*
X80039771Y-51168161D01*
X80087390Y-51120542D01*
X80135009Y-51025304D01*
X80135009Y-50739590D01*
X80087390Y-50644352D01*
X80039771Y-50596733D01*
X79944533Y-50549114D01*
X79754057Y-50549114D01*
X79658819Y-50596733D01*
X78849295Y-51168161D02*
X78944533Y-51215780D01*
X79135009Y-51215780D01*
X79230247Y-51168161D01*
X79277866Y-51072923D01*
X79277866Y-50691971D01*
X79230247Y-50596733D01*
X79135009Y-50549114D01*
X78944533Y-50549114D01*
X78849295Y-50596733D01*
X78801676Y-50691971D01*
X78801676Y-50787209D01*
X79277866Y-50882447D01*
X78373104Y-50549114D02*
X78373104Y-51215780D01*
X78373104Y-50644352D02*
X78325485Y-50596733D01*
X78230247Y-50549114D01*
X78087390Y-50549114D01*
X77992152Y-50596733D01*
X77944533Y-50691971D01*
X77944533Y-51215780D01*
X77515961Y-51168161D02*
X77420723Y-51215780D01*
X77230247Y-51215780D01*
X77135009Y-51168161D01*
X77087390Y-51072923D01*
X77087390Y-51025304D01*
X77135009Y-50930066D01*
X77230247Y-50882447D01*
X77373104Y-50882447D01*
X77468342Y-50834828D01*
X77515961Y-50739590D01*
X77515961Y-50691971D01*
X77468342Y-50596733D01*
X77373104Y-50549114D01*
X77230247Y-50549114D01*
X77135009Y-50596733D01*
X76277866Y-51168161D02*
X76373104Y-51215780D01*
X76563580Y-51215780D01*
X76658819Y-51168161D01*
X76706438Y-51072923D01*
X76706438Y-50691971D01*
X76658819Y-50596733D01*
X76563580Y-50549114D01*
X76373104Y-50549114D01*
X76277866Y-50596733D01*
X76230247Y-50691971D01*
X76230247Y-50787209D01*
X76706438Y-50882447D01*
X74611200Y-51215780D02*
X74611200Y-50691971D01*
X74658819Y-50596733D01*
X74754057Y-50549114D01*
X74944533Y-50549114D01*
X75039771Y-50596733D01*
X74611200Y-51168161D02*
X74706438Y-51215780D01*
X74944533Y-51215780D01*
X75039771Y-51168161D01*
X75087390Y-51072923D01*
X75087390Y-50977685D01*
X75039771Y-50882447D01*
X74944533Y-50834828D01*
X74706438Y-50834828D01*
X74611200Y-50787209D01*
X74277866Y-50549114D02*
X73896914Y-50549114D01*
X74135009Y-50215780D02*
X74135009Y-51072923D01*
X74087390Y-51168161D01*
X73992152Y-51215780D01*
X73896914Y-51215780D01*
X93182628Y-54420542D02*
X93135009Y-54468161D01*
X93182628Y-54515780D01*
X93230247Y-54468161D01*
X93182628Y-54420542D01*
X93182628Y-54515780D01*
X91992152Y-53468161D02*
X92849295Y-54753876D01*
X91182628Y-54515780D02*
X91658819Y-54515780D01*
X91658819Y-53515780D01*
X90849295Y-54515780D02*
X90849295Y-53515780D01*
X89801676Y-54420542D02*
X89849295Y-54468161D01*
X89992152Y-54515780D01*
X90087390Y-54515780D01*
X90230247Y-54468161D01*
X90325485Y-54372923D01*
X90373104Y-54277685D01*
X90420723Y-54087209D01*
X90420723Y-53944352D01*
X90373104Y-53753876D01*
X90325485Y-53658638D01*
X90230247Y-53563400D01*
X90087390Y-53515780D01*
X89992152Y-53515780D01*
X89849295Y-53563400D01*
X89801676Y-53611019D01*
X89373104Y-53991971D02*
X89039771Y-53991971D01*
X88896914Y-54515780D02*
X89373104Y-54515780D01*
X89373104Y-53515780D01*
X88896914Y-53515780D01*
X88468342Y-54515780D02*
X88468342Y-53515780D01*
X87896914Y-54515780D01*
X87896914Y-53515780D01*
X87468342Y-54468161D02*
X87325485Y-54515780D01*
X87087390Y-54515780D01*
X86992152Y-54468161D01*
X86944533Y-54420542D01*
X86896914Y-54325304D01*
X86896914Y-54230066D01*
X86944533Y-54134828D01*
X86992152Y-54087209D01*
X87087390Y-54039590D01*
X87277866Y-53991971D01*
X87373104Y-53944352D01*
X87420723Y-53896733D01*
X87468342Y-53801495D01*
X87468342Y-53706257D01*
X87420723Y-53611019D01*
X87373104Y-53563400D01*
X87277866Y-53515780D01*
X87039771Y-53515780D01*
X86896914Y-53563400D01*
X86468342Y-53991971D02*
X86135009Y-53991971D01*
X85992152Y-54515780D02*
X86468342Y-54515780D01*
X86468342Y-53515780D01*
X85992152Y-53515780D01*
X115277866Y-56815780D02*
X115277866Y-57625304D01*
X115230247Y-57720542D01*
X115182628Y-57768161D01*
X115087390Y-57815780D01*
X114896914Y-57815780D01*
X114801676Y-57768161D01*
X114754057Y-57720542D01*
X114706438Y-57625304D01*
X114706438Y-56815780D01*
X114230247Y-57149114D02*
X114230247Y-57815780D01*
X114230247Y-57244352D02*
X114182628Y-57196733D01*
X114087390Y-57149114D01*
X113944533Y-57149114D01*
X113849295Y-57196733D01*
X113801676Y-57291971D01*
X113801676Y-57815780D01*
X113182628Y-57815780D02*
X113277866Y-57768161D01*
X113325485Y-57672923D01*
X113325485Y-56815780D01*
X112420723Y-57768161D02*
X112515961Y-57815780D01*
X112706438Y-57815780D01*
X112801676Y-57768161D01*
X112849295Y-57672923D01*
X112849295Y-57291971D01*
X112801676Y-57196733D01*
X112706438Y-57149114D01*
X112515961Y-57149114D01*
X112420723Y-57196733D01*
X112373104Y-57291971D01*
X112373104Y-57387209D01*
X112849295Y-57482447D01*
X111992152Y-57768161D02*
X111896914Y-57815780D01*
X111706438Y-57815780D01*
X111611200Y-57768161D01*
X111563580Y-57672923D01*
X111563580Y-57625304D01*
X111611200Y-57530066D01*
X111706438Y-57482447D01*
X111849295Y-57482447D01*
X111944533Y-57434828D01*
X111992152Y-57339590D01*
X111992152Y-57291971D01*
X111944533Y-57196733D01*
X111849295Y-57149114D01*
X111706438Y-57149114D01*
X111611200Y-57196733D01*
X111182628Y-57768161D02*
X111087390Y-57815780D01*
X110896914Y-57815780D01*
X110801676Y-57768161D01*
X110754057Y-57672923D01*
X110754057Y-57625304D01*
X110801676Y-57530066D01*
X110896914Y-57482447D01*
X111039771Y-57482447D01*
X111135009Y-57434828D01*
X111182628Y-57339590D01*
X111182628Y-57291971D01*
X111135009Y-57196733D01*
X111039771Y-57149114D01*
X110896914Y-57149114D01*
X110801676Y-57196733D01*
X109563580Y-57815780D02*
X109563580Y-57149114D01*
X109563580Y-57339590D02*
X109515961Y-57244352D01*
X109468342Y-57196733D01*
X109373104Y-57149114D01*
X109277866Y-57149114D01*
X108563580Y-57768161D02*
X108658819Y-57815780D01*
X108849295Y-57815780D01*
X108944533Y-57768161D01*
X108992152Y-57672923D01*
X108992152Y-57291971D01*
X108944533Y-57196733D01*
X108849295Y-57149114D01*
X108658819Y-57149114D01*
X108563580Y-57196733D01*
X108515961Y-57291971D01*
X108515961Y-57387209D01*
X108992152Y-57482447D01*
X107658819Y-57149114D02*
X107658819Y-58149114D01*
X107658819Y-57768161D02*
X107754057Y-57815780D01*
X107944533Y-57815780D01*
X108039771Y-57768161D01*
X108087390Y-57720542D01*
X108135009Y-57625304D01*
X108135009Y-57339590D01*
X108087390Y-57244352D01*
X108039771Y-57196733D01*
X107944533Y-57149114D01*
X107754057Y-57149114D01*
X107658819Y-57196733D01*
X106754057Y-57149114D02*
X106754057Y-57815780D01*
X107182628Y-57149114D02*
X107182628Y-57672923D01*
X107135009Y-57768161D01*
X107039771Y-57815780D01*
X106896914Y-57815780D01*
X106801676Y-57768161D01*
X106754057Y-57720542D01*
X106277866Y-57815780D02*
X106277866Y-57149114D01*
X106277866Y-56815780D02*
X106325485Y-56863400D01*
X106277866Y-56911019D01*
X106230247Y-56863400D01*
X106277866Y-56815780D01*
X106277866Y-56911019D01*
X105801676Y-57815780D02*
X105801676Y-57149114D01*
X105801676Y-57339590D02*
X105754057Y-57244352D01*
X105706438Y-57196733D01*
X105611200Y-57149114D01*
X105515961Y-57149114D01*
X104801676Y-57768161D02*
X104896914Y-57815780D01*
X105087390Y-57815780D01*
X105182628Y-57768161D01*
X105230247Y-57672923D01*
X105230247Y-57291971D01*
X105182628Y-57196733D01*
X105087390Y-57149114D01*
X104896914Y-57149114D01*
X104801676Y-57196733D01*
X104754057Y-57291971D01*
X104754057Y-57387209D01*
X105230247Y-57482447D01*
X103896914Y-57815780D02*
X103896914Y-56815780D01*
X103896914Y-57768161D02*
X103992152Y-57815780D01*
X104182628Y-57815780D01*
X104277866Y-57768161D01*
X104325485Y-57720542D01*
X104373104Y-57625304D01*
X104373104Y-57339590D01*
X104325485Y-57244352D01*
X104277866Y-57196733D01*
X104182628Y-57149114D01*
X103992152Y-57149114D01*
X103896914Y-57196733D01*
X102658819Y-57815780D02*
X102658819Y-56815780D01*
X102658819Y-57196733D02*
X102563580Y-57149114D01*
X102373104Y-57149114D01*
X102277866Y-57196733D01*
X102230247Y-57244352D01*
X102182628Y-57339590D01*
X102182628Y-57625304D01*
X102230247Y-57720542D01*
X102277866Y-57768161D01*
X102373104Y-57815780D01*
X102563580Y-57815780D01*
X102658819Y-57768161D01*
X101849295Y-57149114D02*
X101611200Y-57815780D01*
X101373104Y-57149114D02*
X101611200Y-57815780D01*
X101706438Y-58053876D01*
X101754057Y-58101495D01*
X101849295Y-58149114D01*
X99801676Y-57815780D02*
X99801676Y-57291971D01*
X99849295Y-57196733D01*
X99944533Y-57149114D01*
X100135009Y-57149114D01*
X100230247Y-57196733D01*
X99801676Y-57768161D02*
X99896914Y-57815780D01*
X100135009Y-57815780D01*
X100230247Y-57768161D01*
X100277866Y-57672923D01*
X100277866Y-57577685D01*
X100230247Y-57482447D01*
X100135009Y-57434828D01*
X99896914Y-57434828D01*
X99801676Y-57387209D01*
X99325485Y-57149114D02*
X99325485Y-58149114D01*
X99325485Y-57196733D02*
X99230247Y-57149114D01*
X99039771Y-57149114D01*
X98944533Y-57196733D01*
X98896914Y-57244352D01*
X98849295Y-57339590D01*
X98849295Y-57625304D01*
X98896914Y-57720542D01*
X98944533Y-57768161D01*
X99039771Y-57815780D01*
X99230247Y-57815780D01*
X99325485Y-57768161D01*
X98420723Y-57149114D02*
X98420723Y-58149114D01*
X98420723Y-57196733D02*
X98325485Y-57149114D01*
X98135009Y-57149114D01*
X98039771Y-57196733D01*
X97992152Y-57244352D01*
X97944533Y-57339590D01*
X97944533Y-57625304D01*
X97992152Y-57720542D01*
X98039771Y-57768161D01*
X98135009Y-57815780D01*
X98325485Y-57815780D01*
X98420723Y-57768161D01*
X97373104Y-57815780D02*
X97468342Y-57768161D01*
X97515961Y-57672923D01*
X97515961Y-56815780D01*
X96992152Y-57815780D02*
X96992152Y-57149114D01*
X96992152Y-56815780D02*
X97039771Y-56863400D01*
X96992152Y-56911019D01*
X96944533Y-56863400D01*
X96992152Y-56815780D01*
X96992152Y-56911019D01*
X96087390Y-57768161D02*
X96182628Y-57815780D01*
X96373104Y-57815780D01*
X96468342Y-57768161D01*
X96515961Y-57720542D01*
X96563580Y-57625304D01*
X96563580Y-57339590D01*
X96515961Y-57244352D01*
X96468342Y-57196733D01*
X96373104Y-57149114D01*
X96182628Y-57149114D01*
X96087390Y-57196733D01*
X95230247Y-57815780D02*
X95230247Y-57291971D01*
X95277866Y-57196733D01*
X95373104Y-57149114D01*
X95563580Y-57149114D01*
X95658819Y-57196733D01*
X95230247Y-57768161D02*
X95325485Y-57815780D01*
X95563580Y-57815780D01*
X95658819Y-57768161D01*
X95706438Y-57672923D01*
X95706438Y-57577685D01*
X95658819Y-57482447D01*
X95563580Y-57434828D01*
X95325485Y-57434828D01*
X95230247Y-57387209D01*
X94754057Y-57815780D02*
X94754057Y-56815780D01*
X94754057Y-57196733D02*
X94658819Y-57149114D01*
X94468342Y-57149114D01*
X94373104Y-57196733D01*
X94325485Y-57244352D01*
X94277866Y-57339590D01*
X94277866Y-57625304D01*
X94325485Y-57720542D01*
X94373104Y-57768161D01*
X94468342Y-57815780D01*
X94658819Y-57815780D01*
X94754057Y-57768161D01*
X93706438Y-57815780D02*
X93801676Y-57768161D01*
X93849295Y-57672923D01*
X93849295Y-56815780D01*
X92944533Y-57768161D02*
X93039771Y-57815780D01*
X93230247Y-57815780D01*
X93325485Y-57768161D01*
X93373104Y-57672923D01*
X93373104Y-57291971D01*
X93325485Y-57196733D01*
X93230247Y-57149114D01*
X93039771Y-57149114D01*
X92944533Y-57196733D01*
X92896914Y-57291971D01*
X92896914Y-57387209D01*
X93373104Y-57482447D01*
X91563580Y-57815780D02*
X91658819Y-57768161D01*
X91706438Y-57672923D01*
X91706438Y-56815780D01*
X90754057Y-57815780D02*
X90754057Y-57291971D01*
X90801676Y-57196733D01*
X90896914Y-57149114D01*
X91087390Y-57149114D01*
X91182628Y-57196733D01*
X90754057Y-57768161D02*
X90849295Y-57815780D01*
X91087390Y-57815780D01*
X91182628Y-57768161D01*
X91230247Y-57672923D01*
X91230247Y-57577685D01*
X91182628Y-57482447D01*
X91087390Y-57434828D01*
X90849295Y-57434828D01*
X90754057Y-57387209D01*
X90373104Y-57149114D02*
X90182628Y-57815780D01*
X89992152Y-57339590D01*
X89801676Y-57815780D01*
X89611200Y-57149114D01*
X88325485Y-57815780D02*
X88420723Y-57768161D01*
X88468342Y-57720542D01*
X88515961Y-57625304D01*
X88515961Y-57339590D01*
X88468342Y-57244352D01*
X88420723Y-57196733D01*
X88325485Y-57149114D01*
X88182628Y-57149114D01*
X88087390Y-57196733D01*
X88039771Y-57244352D01*
X87992152Y-57339590D01*
X87992152Y-57625304D01*
X88039771Y-57720542D01*
X88087390Y-57768161D01*
X88182628Y-57815780D01*
X88325485Y-57815780D01*
X87563580Y-57815780D02*
X87563580Y-57149114D01*
X87563580Y-57339590D02*
X87515961Y-57244352D01*
X87468342Y-57196733D01*
X87373104Y-57149114D01*
X87277866Y-57149114D01*
X85754057Y-57815780D02*
X85754057Y-57291971D01*
X85801676Y-57196733D01*
X85896914Y-57149114D01*
X86087390Y-57149114D01*
X86182628Y-57196733D01*
X85754057Y-57768161D02*
X85849295Y-57815780D01*
X86087390Y-57815780D01*
X86182628Y-57768161D01*
X86230247Y-57672923D01*
X86230247Y-57577685D01*
X86182628Y-57482447D01*
X86087390Y-57434828D01*
X85849295Y-57434828D01*
X85754057Y-57387209D01*
X84849295Y-57149114D02*
X84849295Y-57958638D01*
X84896914Y-58053876D01*
X84944533Y-58101495D01*
X85039771Y-58149114D01*
X85182628Y-58149114D01*
X85277866Y-58101495D01*
X84849295Y-57768161D02*
X84944533Y-57815780D01*
X85135009Y-57815780D01*
X85230247Y-57768161D01*
X85277866Y-57720542D01*
X85325485Y-57625304D01*
X85325485Y-57339590D01*
X85277866Y-57244352D01*
X85230247Y-57196733D01*
X85135009Y-57149114D01*
X84944533Y-57149114D01*
X84849295Y-57196733D01*
X84373104Y-57815780D02*
X84373104Y-57149114D01*
X84373104Y-57339590D02*
X84325485Y-57244352D01*
X84277866Y-57196733D01*
X84182628Y-57149114D01*
X84087390Y-57149114D01*
X83373104Y-57768161D02*
X83468342Y-57815780D01*
X83658819Y-57815780D01*
X83754057Y-57768161D01*
X83801676Y-57672923D01*
X83801676Y-57291971D01*
X83754057Y-57196733D01*
X83658819Y-57149114D01*
X83468342Y-57149114D01*
X83373104Y-57196733D01*
X83325485Y-57291971D01*
X83325485Y-57387209D01*
X83801676Y-57482447D01*
X82515961Y-57768161D02*
X82611200Y-57815780D01*
X82801676Y-57815780D01*
X82896914Y-57768161D01*
X82944533Y-57672923D01*
X82944533Y-57291971D01*
X82896914Y-57196733D01*
X82801676Y-57149114D01*
X82611200Y-57149114D01*
X82515961Y-57196733D01*
X82468342Y-57291971D01*
X82468342Y-57387209D01*
X82944533Y-57482447D01*
X81611200Y-57815780D02*
X81611200Y-56815780D01*
X81611200Y-57768161D02*
X81706438Y-57815780D01*
X81896914Y-57815780D01*
X81992152Y-57768161D01*
X82039771Y-57720542D01*
X82087390Y-57625304D01*
X82087390Y-57339590D01*
X82039771Y-57244352D01*
X81992152Y-57196733D01*
X81896914Y-57149114D01*
X81706438Y-57149114D01*
X81611200Y-57196733D01*
X80515961Y-57149114D02*
X80135009Y-57149114D01*
X80373104Y-56815780D02*
X80373104Y-57672923D01*
X80325485Y-57768161D01*
X80230247Y-57815780D01*
X80135009Y-57815780D01*
X79658819Y-57815780D02*
X79754057Y-57768161D01*
X79801676Y-57720542D01*
X79849295Y-57625304D01*
X79849295Y-57339590D01*
X79801676Y-57244352D01*
X79754057Y-57196733D01*
X79658819Y-57149114D01*
X79515961Y-57149114D01*
X79420723Y-57196733D01*
X79373104Y-57244352D01*
X79325485Y-57339590D01*
X79325485Y-57625304D01*
X79373104Y-57720542D01*
X79420723Y-57768161D01*
X79515961Y-57815780D01*
X79658819Y-57815780D01*
X78135009Y-57815780D02*
X78135009Y-57149114D01*
X78135009Y-56815780D02*
X78182628Y-56863400D01*
X78135009Y-56911019D01*
X78087390Y-56863400D01*
X78135009Y-56815780D01*
X78135009Y-56911019D01*
X77658819Y-57149114D02*
X77658819Y-57815780D01*
X77658819Y-57244352D02*
X77611200Y-57196733D01*
X77515961Y-57149114D01*
X77373104Y-57149114D01*
X77277866Y-57196733D01*
X77230247Y-57291971D01*
X77230247Y-57815780D01*
X76087390Y-57149114D02*
X75896914Y-57815780D01*
X75706438Y-57339590D01*
X75515961Y-57815780D01*
X75325485Y-57149114D01*
X74944533Y-57815780D02*
X74944533Y-57149114D01*
X74944533Y-57339590D02*
X74896914Y-57244352D01*
X74849295Y-57196733D01*
X74754057Y-57149114D01*
X74658819Y-57149114D01*
X74325485Y-57815780D02*
X74325485Y-57149114D01*
X74325485Y-56815780D02*
X74373104Y-56863400D01*
X74325485Y-56911019D01*
X74277866Y-56863400D01*
X74325485Y-56815780D01*
X74325485Y-56911019D01*
X73992152Y-57149114D02*
X73611200Y-57149114D01*
X73849295Y-56815780D02*
X73849295Y-57672923D01*
X73801676Y-57768161D01*
X73706438Y-57815780D01*
X73611200Y-57815780D01*
X73277866Y-57815780D02*
X73277866Y-57149114D01*
X73277866Y-56815780D02*
X73325485Y-56863400D01*
X73277866Y-56911019D01*
X73230247Y-56863400D01*
X73277866Y-56815780D01*
X73277866Y-56911019D01*
X72801676Y-57149114D02*
X72801676Y-57815780D01*
X72801676Y-57244352D02*
X72754057Y-57196733D01*
X72658819Y-57149114D01*
X72515961Y-57149114D01*
X72420723Y-57196733D01*
X72373104Y-57291971D01*
X72373104Y-57815780D01*
X71468342Y-57149114D02*
X71468342Y-57958638D01*
X71515961Y-58053876D01*
X71563580Y-58101495D01*
X71658819Y-58149114D01*
X71801676Y-58149114D01*
X71896914Y-58101495D01*
X71468342Y-57768161D02*
X71563580Y-57815780D01*
X71754057Y-57815780D01*
X71849295Y-57768161D01*
X71896914Y-57720542D01*
X71944533Y-57625304D01*
X71944533Y-57339590D01*
X71896914Y-57244352D01*
X71849295Y-57196733D01*
X71754057Y-57149114D01*
X71563580Y-57149114D01*
X71468342Y-57196733D01*
X70944533Y-57768161D02*
X70944533Y-57815780D01*
X70992152Y-57911019D01*
X71039771Y-57958638D01*
X69801676Y-57768161D02*
X69706438Y-57815780D01*
X69515961Y-57815780D01*
X69420723Y-57768161D01*
X69373104Y-57672923D01*
X69373104Y-57625304D01*
X69420723Y-57530066D01*
X69515961Y-57482447D01*
X69658819Y-57482447D01*
X69754057Y-57434828D01*
X69801676Y-57339590D01*
X69801676Y-57291971D01*
X69754057Y-57196733D01*
X69658819Y-57149114D01*
X69515961Y-57149114D01*
X69420723Y-57196733D01*
X68801676Y-57815780D02*
X68896914Y-57768161D01*
X68944533Y-57720542D01*
X68992152Y-57625304D01*
X68992152Y-57339590D01*
X68944533Y-57244352D01*
X68896914Y-57196733D01*
X68801676Y-57149114D01*
X68658819Y-57149114D01*
X68563580Y-57196733D01*
X68515961Y-57244352D01*
X68468342Y-57339590D01*
X68468342Y-57625304D01*
X68515961Y-57720542D01*
X68563580Y-57768161D01*
X68658819Y-57815780D01*
X68801676Y-57815780D01*
X68182628Y-57149114D02*
X67801676Y-57149114D01*
X68039771Y-57815780D02*
X68039771Y-56958638D01*
X67992152Y-56863400D01*
X67896914Y-56815780D01*
X67801676Y-56815780D01*
X67611200Y-57149114D02*
X67230247Y-57149114D01*
X67468342Y-56815780D02*
X67468342Y-57672923D01*
X67420723Y-57768161D01*
X67325485Y-57815780D01*
X67230247Y-57815780D01*
X66992152Y-57149114D02*
X66801676Y-57815780D01*
X66611200Y-57339590D01*
X66420723Y-57815780D01*
X66230247Y-57149114D01*
X65420723Y-57815780D02*
X65420723Y-57291971D01*
X65468342Y-57196733D01*
X65563580Y-57149114D01*
X65754057Y-57149114D01*
X65849295Y-57196733D01*
X65420723Y-57768161D02*
X65515961Y-57815780D01*
X65754057Y-57815780D01*
X65849295Y-57768161D01*
X65896914Y-57672923D01*
X65896914Y-57577685D01*
X65849295Y-57482447D01*
X65754057Y-57434828D01*
X65515961Y-57434828D01*
X65420723Y-57387209D01*
X64944533Y-57815780D02*
X64944533Y-57149114D01*
X64944533Y-57339590D02*
X64896914Y-57244352D01*
X64849295Y-57196733D01*
X64754057Y-57149114D01*
X64658819Y-57149114D01*
X63944533Y-57768161D02*
X64039771Y-57815780D01*
X64230247Y-57815780D01*
X64325485Y-57768161D01*
X64373104Y-57672923D01*
X64373104Y-57291971D01*
X64325485Y-57196733D01*
X64230247Y-57149114D01*
X64039771Y-57149114D01*
X63944533Y-57196733D01*
X63896914Y-57291971D01*
X63896914Y-57387209D01*
X64373104Y-57482447D01*
X113992152Y-59465780D02*
X113992152Y-58465780D01*
X113992152Y-59418161D02*
X114087390Y-59465780D01*
X114277866Y-59465780D01*
X114373104Y-59418161D01*
X114420723Y-59370542D01*
X114468342Y-59275304D01*
X114468342Y-58989590D01*
X114420723Y-58894352D01*
X114373104Y-58846733D01*
X114277866Y-58799114D01*
X114087390Y-58799114D01*
X113992152Y-58846733D01*
X113515961Y-59465780D02*
X113515961Y-58799114D01*
X113515961Y-58465780D02*
X113563580Y-58513400D01*
X113515961Y-58561019D01*
X113468342Y-58513400D01*
X113515961Y-58465780D01*
X113515961Y-58561019D01*
X113087390Y-59418161D02*
X112992152Y-59465780D01*
X112801676Y-59465780D01*
X112706438Y-59418161D01*
X112658819Y-59322923D01*
X112658819Y-59275304D01*
X112706438Y-59180066D01*
X112801676Y-59132447D01*
X112944533Y-59132447D01*
X113039771Y-59084828D01*
X113087390Y-58989590D01*
X113087390Y-58941971D01*
X113039771Y-58846733D01*
X112944533Y-58799114D01*
X112801676Y-58799114D01*
X112706438Y-58846733D01*
X112373104Y-58799114D02*
X111992152Y-58799114D01*
X112230247Y-58465780D02*
X112230247Y-59322923D01*
X112182628Y-59418161D01*
X112087390Y-59465780D01*
X111992152Y-59465780D01*
X111658819Y-59465780D02*
X111658819Y-58799114D01*
X111658819Y-58989590D02*
X111611199Y-58894352D01*
X111563580Y-58846733D01*
X111468342Y-58799114D01*
X111373104Y-58799114D01*
X111039771Y-59465780D02*
X111039771Y-58799114D01*
X111039771Y-58465780D02*
X111087390Y-58513400D01*
X111039771Y-58561019D01*
X110992152Y-58513400D01*
X111039771Y-58465780D01*
X111039771Y-58561019D01*
X110563580Y-59465780D02*
X110563580Y-58465780D01*
X110563580Y-58846733D02*
X110468342Y-58799114D01*
X110277866Y-58799114D01*
X110182628Y-58846733D01*
X110135009Y-58894352D01*
X110087390Y-58989590D01*
X110087390Y-59275304D01*
X110135009Y-59370542D01*
X110182628Y-59418161D01*
X110277866Y-59465780D01*
X110468342Y-59465780D01*
X110563580Y-59418161D01*
X109230247Y-58799114D02*
X109230247Y-59465780D01*
X109658819Y-58799114D02*
X109658819Y-59322923D01*
X109611199Y-59418161D01*
X109515961Y-59465780D01*
X109373104Y-59465780D01*
X109277866Y-59418161D01*
X109230247Y-59370542D01*
X108896914Y-58799114D02*
X108515961Y-58799114D01*
X108754057Y-58465780D02*
X108754057Y-59322923D01*
X108706438Y-59418161D01*
X108611199Y-59465780D01*
X108515961Y-59465780D01*
X107801676Y-59418161D02*
X107896914Y-59465780D01*
X108087390Y-59465780D01*
X108182628Y-59418161D01*
X108230247Y-59322923D01*
X108230247Y-58941971D01*
X108182628Y-58846733D01*
X108087390Y-58799114D01*
X107896914Y-58799114D01*
X107801676Y-58846733D01*
X107754057Y-58941971D01*
X107754057Y-59037209D01*
X108230247Y-59132447D01*
X106896914Y-59465780D02*
X106896914Y-58465780D01*
X106896914Y-59418161D02*
X106992152Y-59465780D01*
X107182628Y-59465780D01*
X107277866Y-59418161D01*
X107325485Y-59370542D01*
X107373104Y-59275304D01*
X107373104Y-58989590D01*
X107325485Y-58894352D01*
X107277866Y-58846733D01*
X107182628Y-58799114D01*
X106992152Y-58799114D01*
X106896914Y-58846733D01*
X105230247Y-58799114D02*
X105230247Y-59465780D01*
X105658819Y-58799114D02*
X105658819Y-59322923D01*
X105611199Y-59418161D01*
X105515961Y-59465780D01*
X105373104Y-59465780D01*
X105277866Y-59418161D01*
X105230247Y-59370542D01*
X104754057Y-58799114D02*
X104754057Y-59465780D01*
X104754057Y-58894352D02*
X104706438Y-58846733D01*
X104611199Y-58799114D01*
X104468342Y-58799114D01*
X104373104Y-58846733D01*
X104325485Y-58941971D01*
X104325485Y-59465780D01*
X103420723Y-59465780D02*
X103420723Y-58465780D01*
X103420723Y-59418161D02*
X103515961Y-59465780D01*
X103706438Y-59465780D01*
X103801676Y-59418161D01*
X103849295Y-59370542D01*
X103896914Y-59275304D01*
X103896914Y-58989590D01*
X103849295Y-58894352D01*
X103801676Y-58846733D01*
X103706438Y-58799114D01*
X103515961Y-58799114D01*
X103420723Y-58846733D01*
X102563580Y-59418161D02*
X102658819Y-59465780D01*
X102849295Y-59465780D01*
X102944533Y-59418161D01*
X102992152Y-59322923D01*
X102992152Y-58941971D01*
X102944533Y-58846733D01*
X102849295Y-58799114D01*
X102658819Y-58799114D01*
X102563580Y-58846733D01*
X102515961Y-58941971D01*
X102515961Y-59037209D01*
X102992152Y-59132447D01*
X102087390Y-59465780D02*
X102087390Y-58799114D01*
X102087390Y-58989590D02*
X102039771Y-58894352D01*
X101992152Y-58846733D01*
X101896914Y-58799114D01*
X101801676Y-58799114D01*
X100849295Y-58799114D02*
X100468342Y-58799114D01*
X100706438Y-58465780D02*
X100706438Y-59322923D01*
X100658819Y-59418161D01*
X100563580Y-59465780D01*
X100468342Y-59465780D01*
X100135009Y-59465780D02*
X100135009Y-58465780D01*
X99706438Y-59465780D02*
X99706438Y-58941971D01*
X99754057Y-58846733D01*
X99849295Y-58799114D01*
X99992152Y-58799114D01*
X100087390Y-58846733D01*
X100135009Y-58894352D01*
X98849295Y-59418161D02*
X98944533Y-59465780D01*
X99135009Y-59465780D01*
X99230247Y-59418161D01*
X99277866Y-59322923D01*
X99277866Y-58941971D01*
X99230247Y-58846733D01*
X99135009Y-58799114D01*
X98944533Y-58799114D01*
X98849295Y-58846733D01*
X98801676Y-58941971D01*
X98801676Y-59037209D01*
X99277866Y-59132447D01*
X97135009Y-59465780D02*
X97611199Y-59465780D01*
X97611199Y-58465780D01*
X96801676Y-59465780D02*
X96801676Y-58799114D01*
X96801676Y-58465780D02*
X96849295Y-58513400D01*
X96801676Y-58561019D01*
X96754057Y-58513400D01*
X96801676Y-58465780D01*
X96801676Y-58561019D01*
X95896914Y-59418161D02*
X95992152Y-59465780D01*
X96182628Y-59465780D01*
X96277866Y-59418161D01*
X96325485Y-59370542D01*
X96373104Y-59275304D01*
X96373104Y-58989590D01*
X96325485Y-58894352D01*
X96277866Y-58846733D01*
X96182628Y-58799114D01*
X95992152Y-58799114D01*
X95896914Y-58846733D01*
X95087390Y-59418161D02*
X95182628Y-59465780D01*
X95373104Y-59465780D01*
X95468342Y-59418161D01*
X95515961Y-59322923D01*
X95515961Y-58941971D01*
X95468342Y-58846733D01*
X95373104Y-58799114D01*
X95182628Y-58799114D01*
X95087390Y-58846733D01*
X95039771Y-58941971D01*
X95039771Y-59037209D01*
X95515961Y-59132447D01*
X94611199Y-58799114D02*
X94611199Y-59465780D01*
X94611199Y-58894352D02*
X94563580Y-58846733D01*
X94468342Y-58799114D01*
X94325485Y-58799114D01*
X94230247Y-58846733D01*
X94182628Y-58941971D01*
X94182628Y-59465780D01*
X93754057Y-59418161D02*
X93658819Y-59465780D01*
X93468342Y-59465780D01*
X93373104Y-59418161D01*
X93325485Y-59322923D01*
X93325485Y-59275304D01*
X93373104Y-59180066D01*
X93468342Y-59132447D01*
X93611199Y-59132447D01*
X93706438Y-59084828D01*
X93754057Y-58989590D01*
X93754057Y-58941971D01*
X93706438Y-58846733D01*
X93611199Y-58799114D01*
X93468342Y-58799114D01*
X93373104Y-58846733D01*
X92515961Y-59418161D02*
X92611199Y-59465780D01*
X92801676Y-59465780D01*
X92896914Y-59418161D01*
X92944533Y-59322923D01*
X92944533Y-58941971D01*
X92896914Y-58846733D01*
X92801676Y-58799114D01*
X92611199Y-58799114D01*
X92515961Y-58846733D01*
X92468342Y-58941971D01*
X92468342Y-59037209D01*
X92944533Y-59132447D01*
X91277866Y-59465780D02*
X91277866Y-58799114D01*
X91277866Y-58465780D02*
X91325485Y-58513400D01*
X91277866Y-58561019D01*
X91230247Y-58513400D01*
X91277866Y-58465780D01*
X91277866Y-58561019D01*
X90849295Y-59418161D02*
X90754057Y-59465780D01*
X90563580Y-59465780D01*
X90468342Y-59418161D01*
X90420723Y-59322923D01*
X90420723Y-59275304D01*
X90468342Y-59180066D01*
X90563580Y-59132447D01*
X90706438Y-59132447D01*
X90801676Y-59084828D01*
X90849295Y-58989590D01*
X90849295Y-58941971D01*
X90801676Y-58846733D01*
X90706438Y-58799114D01*
X90563580Y-58799114D01*
X90468342Y-58846733D01*
X88801676Y-59465780D02*
X88801676Y-58465780D01*
X88801676Y-59418161D02*
X88896914Y-59465780D01*
X89087390Y-59465780D01*
X89182628Y-59418161D01*
X89230247Y-59370542D01*
X89277866Y-59275304D01*
X89277866Y-58989590D01*
X89230247Y-58894352D01*
X89182628Y-58846733D01*
X89087390Y-58799114D01*
X88896914Y-58799114D01*
X88801676Y-58846733D01*
X88325485Y-59465780D02*
X88325485Y-58799114D01*
X88325485Y-58465780D02*
X88373104Y-58513400D01*
X88325485Y-58561019D01*
X88277866Y-58513400D01*
X88325485Y-58465780D01*
X88325485Y-58561019D01*
X87896914Y-59418161D02*
X87801676Y-59465780D01*
X87611199Y-59465780D01*
X87515961Y-59418161D01*
X87468342Y-59322923D01*
X87468342Y-59275304D01*
X87515961Y-59180066D01*
X87611199Y-59132447D01*
X87754057Y-59132447D01*
X87849295Y-59084828D01*
X87896914Y-58989590D01*
X87896914Y-58941971D01*
X87849295Y-58846733D01*
X87754057Y-58799114D01*
X87611199Y-58799114D01*
X87515961Y-58846733D01*
X87182628Y-58799114D02*
X86801676Y-58799114D01*
X87039771Y-58465780D02*
X87039771Y-59322923D01*
X86992152Y-59418161D01*
X86896914Y-59465780D01*
X86801676Y-59465780D01*
X86468342Y-59465780D02*
X86468342Y-58799114D01*
X86468342Y-58989590D02*
X86420723Y-58894352D01*
X86373104Y-58846733D01*
X86277866Y-58799114D01*
X86182628Y-58799114D01*
X85849295Y-59465780D02*
X85849295Y-58799114D01*
X85849295Y-58465780D02*
X85896914Y-58513400D01*
X85849295Y-58561019D01*
X85801676Y-58513400D01*
X85849295Y-58465780D01*
X85849295Y-58561019D01*
X85373104Y-59465780D02*
X85373104Y-58465780D01*
X85373104Y-58846733D02*
X85277866Y-58799114D01*
X85087390Y-58799114D01*
X84992152Y-58846733D01*
X84944533Y-58894352D01*
X84896914Y-58989590D01*
X84896914Y-59275304D01*
X84944533Y-59370542D01*
X84992152Y-59418161D01*
X85087390Y-59465780D01*
X85277866Y-59465780D01*
X85373104Y-59418161D01*
X84039771Y-58799114D02*
X84039771Y-59465780D01*
X84468342Y-58799114D02*
X84468342Y-59322923D01*
X84420723Y-59418161D01*
X84325485Y-59465780D01*
X84182628Y-59465780D01*
X84087390Y-59418161D01*
X84039771Y-59370542D01*
X83706438Y-58799114D02*
X83325485Y-58799114D01*
X83563580Y-58465780D02*
X83563580Y-59322923D01*
X83515961Y-59418161D01*
X83420723Y-59465780D01*
X83325485Y-59465780D01*
X82611199Y-59418161D02*
X82706438Y-59465780D01*
X82896914Y-59465780D01*
X82992152Y-59418161D01*
X83039771Y-59322923D01*
X83039771Y-58941971D01*
X82992152Y-58846733D01*
X82896914Y-58799114D01*
X82706438Y-58799114D01*
X82611199Y-58846733D01*
X82563580Y-58941971D01*
X82563580Y-59037209D01*
X83039771Y-59132447D01*
X81706438Y-59465780D02*
X81706438Y-58465780D01*
X81706438Y-59418161D02*
X81801676Y-59465780D01*
X81992152Y-59465780D01*
X82087390Y-59418161D01*
X82135009Y-59370542D01*
X82182628Y-59275304D01*
X82182628Y-58989590D01*
X82135009Y-58894352D01*
X82087390Y-58846733D01*
X81992152Y-58799114D01*
X81801676Y-58799114D01*
X81706438Y-58846733D01*
X80325485Y-59465780D02*
X80420723Y-59418161D01*
X80468342Y-59370542D01*
X80515961Y-59275304D01*
X80515961Y-58989590D01*
X80468342Y-58894352D01*
X80420723Y-58846733D01*
X80325485Y-58799114D01*
X80182628Y-58799114D01*
X80087390Y-58846733D01*
X80039771Y-58894352D01*
X79992152Y-58989590D01*
X79992152Y-59275304D01*
X80039771Y-59370542D01*
X80087390Y-59418161D01*
X80182628Y-59465780D01*
X80325485Y-59465780D01*
X79563580Y-58799114D02*
X79563580Y-59465780D01*
X79563580Y-58894352D02*
X79515961Y-58846733D01*
X79420723Y-58799114D01*
X79277866Y-58799114D01*
X79182628Y-58846733D01*
X79135009Y-58941971D01*
X79135009Y-59465780D01*
X77468342Y-59465780D02*
X77468342Y-58941971D01*
X77515961Y-58846733D01*
X77611199Y-58799114D01*
X77801676Y-58799114D01*
X77896914Y-58846733D01*
X77468342Y-59418161D02*
X77563580Y-59465780D01*
X77801676Y-59465780D01*
X77896914Y-59418161D01*
X77944533Y-59322923D01*
X77944533Y-59227685D01*
X77896914Y-59132447D01*
X77801676Y-59084828D01*
X77563580Y-59084828D01*
X77468342Y-59037209D01*
X76992152Y-58799114D02*
X76992152Y-59465780D01*
X76992152Y-58894352D02*
X76944533Y-58846733D01*
X76849295Y-58799114D01*
X76706438Y-58799114D01*
X76611199Y-58846733D01*
X76563580Y-58941971D01*
X76563580Y-59465780D01*
X75039771Y-58513400D02*
X75039771Y-58465780D01*
X74992152Y-58370542D01*
X74944533Y-58322923D01*
X75420723Y-58513400D02*
X75420723Y-58465780D01*
X75373104Y-58370542D01*
X75325485Y-58322923D01*
X74611199Y-59180066D02*
X74135009Y-59180066D01*
X74706438Y-59465780D02*
X74373104Y-58465780D01*
X74039771Y-59465780D01*
X73754057Y-59418161D02*
X73611199Y-59465780D01*
X73373104Y-59465780D01*
X73277866Y-59418161D01*
X73230247Y-59370542D01*
X73182628Y-59275304D01*
X73182628Y-59180066D01*
X73230247Y-59084828D01*
X73277866Y-59037209D01*
X73373104Y-58989590D01*
X73563580Y-58941971D01*
X73658819Y-58894352D01*
X73706438Y-58846733D01*
X73754057Y-58751495D01*
X73754057Y-58656257D01*
X73706438Y-58561019D01*
X73658819Y-58513400D01*
X73563580Y-58465780D01*
X73325485Y-58465780D01*
X73182628Y-58513400D01*
X71992152Y-59465780D02*
X71992152Y-58465780D01*
X71563580Y-59418161D02*
X71420723Y-59465780D01*
X71182628Y-59465780D01*
X71087390Y-59418161D01*
X71039771Y-59370542D01*
X70992152Y-59275304D01*
X70992152Y-59180066D01*
X71039771Y-59084828D01*
X71087390Y-59037209D01*
X71182628Y-58989590D01*
X71373104Y-58941971D01*
X71468342Y-58894352D01*
X71515961Y-58846733D01*
X71563580Y-58751495D01*
X71563580Y-58656257D01*
X71515961Y-58561019D01*
X71468342Y-58513400D01*
X71373104Y-58465780D01*
X71135009Y-58465780D01*
X70992152Y-58513400D01*
X70563580Y-58465780D02*
X70563580Y-58513400D01*
X70611199Y-58608638D01*
X70658819Y-58656257D01*
X70182628Y-58465780D02*
X70182628Y-58513400D01*
X70230247Y-58608638D01*
X70277866Y-58656257D01*
X68706438Y-58941971D02*
X68563580Y-58989590D01*
X68515961Y-59037209D01*
X68468342Y-59132447D01*
X68468342Y-59275304D01*
X68515961Y-59370542D01*
X68563580Y-59418161D01*
X68658819Y-59465780D01*
X69039771Y-59465780D01*
X69039771Y-58465780D01*
X68706438Y-58465780D01*
X68611199Y-58513400D01*
X68563580Y-58561019D01*
X68515961Y-58656257D01*
X68515961Y-58751495D01*
X68563580Y-58846733D01*
X68611199Y-58894352D01*
X68706438Y-58941971D01*
X69039771Y-58941971D01*
X68087390Y-59180066D02*
X67611199Y-59180066D01*
X68182628Y-59465780D02*
X67849295Y-58465780D01*
X67515961Y-59465780D01*
X67230247Y-59418161D02*
X67087390Y-59465780D01*
X66849295Y-59465780D01*
X66754057Y-59418161D01*
X66706438Y-59370542D01*
X66658819Y-59275304D01*
X66658819Y-59180066D01*
X66706438Y-59084828D01*
X66754057Y-59037209D01*
X66849295Y-58989590D01*
X67039771Y-58941971D01*
X67135009Y-58894352D01*
X67182628Y-58846733D01*
X67230247Y-58751495D01*
X67230247Y-58656257D01*
X67182628Y-58561019D01*
X67135009Y-58513400D01*
X67039771Y-58465780D01*
X66801676Y-58465780D01*
X66658819Y-58513400D01*
X66230247Y-59465780D02*
X66230247Y-58465780D01*
X65801676Y-59418161D02*
X65658819Y-59465780D01*
X65420723Y-59465780D01*
X65325485Y-59418161D01*
X65277866Y-59370542D01*
X65230247Y-59275304D01*
X65230247Y-59180066D01*
X65277866Y-59084828D01*
X65325485Y-59037209D01*
X65420723Y-58989590D01*
X65611199Y-58941971D01*
X65706438Y-58894352D01*
X65754057Y-58846733D01*
X65801676Y-58751495D01*
X65801676Y-58656257D01*
X65754057Y-58561019D01*
X65706438Y-58513400D01*
X65611199Y-58465780D01*
X65373104Y-58465780D01*
X65230247Y-58513400D01*
X64754057Y-59418161D02*
X64754057Y-59465780D01*
X64801676Y-59561019D01*
X64849295Y-59608638D01*
X119420723Y-60115780D02*
X119182628Y-61115780D01*
X118992152Y-60401495D01*
X118801676Y-61115780D01*
X118563580Y-60115780D01*
X118182628Y-61115780D02*
X118182628Y-60115780D01*
X117849295Y-60115780D02*
X117277866Y-60115780D01*
X117563580Y-61115780D02*
X117563580Y-60115780D01*
X116944533Y-61115780D02*
X116944533Y-60115780D01*
X116944533Y-60591971D02*
X116373104Y-60591971D01*
X116373104Y-61115780D02*
X116373104Y-60115780D01*
X115706438Y-60115780D02*
X115515961Y-60115780D01*
X115420723Y-60163400D01*
X115325485Y-60258638D01*
X115277866Y-60449114D01*
X115277866Y-60782447D01*
X115325485Y-60972923D01*
X115420723Y-61068161D01*
X115515961Y-61115780D01*
X115706438Y-61115780D01*
X115801676Y-61068161D01*
X115896914Y-60972923D01*
X115944533Y-60782447D01*
X115944533Y-60449114D01*
X115896914Y-60258638D01*
X115801676Y-60163400D01*
X115706438Y-60115780D01*
X114849295Y-60115780D02*
X114849295Y-60925304D01*
X114801676Y-61020542D01*
X114754057Y-61068161D01*
X114658819Y-61115780D01*
X114468342Y-61115780D01*
X114373104Y-61068161D01*
X114325485Y-61020542D01*
X114277866Y-60925304D01*
X114277866Y-60115780D01*
X113944533Y-60115780D02*
X113373104Y-60115780D01*
X113658819Y-61115780D02*
X113658819Y-60115780D01*
X112373104Y-60115780D02*
X112135009Y-61115780D01*
X111944533Y-60401495D01*
X111754057Y-61115780D01*
X111515961Y-60115780D01*
X111182628Y-60830066D02*
X110706438Y-60830066D01*
X111277866Y-61115780D02*
X110944533Y-60115780D01*
X110611200Y-61115780D01*
X109706438Y-61115780D02*
X110039771Y-60639590D01*
X110277866Y-61115780D02*
X110277866Y-60115780D01*
X109896914Y-60115780D01*
X109801676Y-60163400D01*
X109754057Y-60211019D01*
X109706438Y-60306257D01*
X109706438Y-60449114D01*
X109754057Y-60544352D01*
X109801676Y-60591971D01*
X109896914Y-60639590D01*
X110277866Y-60639590D01*
X108706438Y-61115780D02*
X109039771Y-60639590D01*
X109277866Y-61115780D02*
X109277866Y-60115780D01*
X108896914Y-60115780D01*
X108801676Y-60163400D01*
X108754057Y-60211019D01*
X108706438Y-60306257D01*
X108706438Y-60449114D01*
X108754057Y-60544352D01*
X108801676Y-60591971D01*
X108896914Y-60639590D01*
X109277866Y-60639590D01*
X108325485Y-60830066D02*
X107849295Y-60830066D01*
X108420723Y-61115780D02*
X108087390Y-60115780D01*
X107754057Y-61115780D01*
X107420723Y-61115780D02*
X107420723Y-60115780D01*
X106849295Y-61115780D01*
X106849295Y-60115780D01*
X106515961Y-60115780D02*
X105944533Y-60115780D01*
X106230247Y-61115780D02*
X106230247Y-60115780D01*
X105611200Y-61115780D02*
X105611200Y-60115780D01*
X105135009Y-60591971D02*
X104801676Y-60591971D01*
X104658819Y-61115780D02*
X105135009Y-61115780D01*
X105135009Y-60115780D01*
X104658819Y-60115780D01*
X104277866Y-61068161D02*
X104135009Y-61115780D01*
X103896914Y-61115780D01*
X103801676Y-61068161D01*
X103754057Y-61020542D01*
X103706438Y-60925304D01*
X103706438Y-60830066D01*
X103754057Y-60734828D01*
X103801676Y-60687209D01*
X103896914Y-60639590D01*
X104087390Y-60591971D01*
X104182628Y-60544352D01*
X104230247Y-60496733D01*
X104277866Y-60401495D01*
X104277866Y-60306257D01*
X104230247Y-60211019D01*
X104182628Y-60163400D01*
X104087390Y-60115780D01*
X103849295Y-60115780D01*
X103706438Y-60163400D01*
X102325485Y-60115780D02*
X102135009Y-60115780D01*
X102039771Y-60163400D01*
X101944533Y-60258638D01*
X101896914Y-60449114D01*
X101896914Y-60782447D01*
X101944533Y-60972923D01*
X102039771Y-61068161D01*
X102135009Y-61115780D01*
X102325485Y-61115780D01*
X102420723Y-61068161D01*
X102515961Y-60972923D01*
X102563580Y-60782447D01*
X102563580Y-60449114D01*
X102515961Y-60258638D01*
X102420723Y-60163400D01*
X102325485Y-60115780D01*
X100896914Y-61115780D02*
X101230247Y-60639590D01*
X101468342Y-61115780D02*
X101468342Y-60115780D01*
X101087390Y-60115780D01*
X100992152Y-60163400D01*
X100944533Y-60211019D01*
X100896914Y-60306257D01*
X100896914Y-60449114D01*
X100944533Y-60544352D01*
X100992152Y-60591971D01*
X101087390Y-60639590D01*
X101468342Y-60639590D01*
X99135009Y-61020542D02*
X99182628Y-61068161D01*
X99325485Y-61115780D01*
X99420723Y-61115780D01*
X99563580Y-61068161D01*
X99658819Y-60972923D01*
X99706438Y-60877685D01*
X99754057Y-60687209D01*
X99754057Y-60544352D01*
X99706438Y-60353876D01*
X99658819Y-60258638D01*
X99563580Y-60163400D01*
X99420723Y-60115780D01*
X99325485Y-60115780D01*
X99182628Y-60163400D01*
X99135009Y-60211019D01*
X98515961Y-60115780D02*
X98325485Y-60115780D01*
X98230247Y-60163400D01*
X98135009Y-60258638D01*
X98087390Y-60449114D01*
X98087390Y-60782447D01*
X98135009Y-60972923D01*
X98230247Y-61068161D01*
X98325485Y-61115780D01*
X98515961Y-61115780D01*
X98611200Y-61068161D01*
X98706438Y-60972923D01*
X98754057Y-60782447D01*
X98754057Y-60449114D01*
X98706438Y-60258638D01*
X98611200Y-60163400D01*
X98515961Y-60115780D01*
X97658819Y-61115780D02*
X97658819Y-60115780D01*
X97087390Y-61115780D01*
X97087390Y-60115780D01*
X96611200Y-61115780D02*
X96611200Y-60115780D01*
X96373104Y-60115780D01*
X96230247Y-60163400D01*
X96135009Y-60258638D01*
X96087390Y-60353876D01*
X96039771Y-60544352D01*
X96039771Y-60687209D01*
X96087390Y-60877685D01*
X96135009Y-60972923D01*
X96230247Y-61068161D01*
X96373104Y-61115780D01*
X96611200Y-61115780D01*
X95611200Y-61115780D02*
X95611200Y-60115780D01*
X95277866Y-60115780D02*
X94706438Y-60115780D01*
X94992152Y-61115780D02*
X94992152Y-60115780D01*
X94373104Y-61115780D02*
X94373104Y-60115780D01*
X93706438Y-60115780D02*
X93515961Y-60115780D01*
X93420723Y-60163400D01*
X93325485Y-60258638D01*
X93277866Y-60449114D01*
X93277866Y-60782447D01*
X93325485Y-60972923D01*
X93420723Y-61068161D01*
X93515961Y-61115780D01*
X93706438Y-61115780D01*
X93801676Y-61068161D01*
X93896914Y-60972923D01*
X93944533Y-60782447D01*
X93944533Y-60449114D01*
X93896914Y-60258638D01*
X93801676Y-60163400D01*
X93706438Y-60115780D01*
X92849295Y-61115780D02*
X92849295Y-60115780D01*
X92277866Y-61115780D01*
X92277866Y-60115780D01*
X91849295Y-61068161D02*
X91706438Y-61115780D01*
X91468342Y-61115780D01*
X91373104Y-61068161D01*
X91325485Y-61020542D01*
X91277866Y-60925304D01*
X91277866Y-60830066D01*
X91325485Y-60734828D01*
X91373104Y-60687209D01*
X91468342Y-60639590D01*
X91658819Y-60591971D01*
X91754057Y-60544352D01*
X91801676Y-60496733D01*
X91849295Y-60401495D01*
X91849295Y-60306257D01*
X91801676Y-60211019D01*
X91754057Y-60163400D01*
X91658819Y-60115780D01*
X91420723Y-60115780D01*
X91277866Y-60163400D01*
X89896914Y-60115780D02*
X89706438Y-60115780D01*
X89611200Y-60163400D01*
X89515961Y-60258638D01*
X89468342Y-60449114D01*
X89468342Y-60782447D01*
X89515961Y-60972923D01*
X89611200Y-61068161D01*
X89706438Y-61115780D01*
X89896914Y-61115780D01*
X89992152Y-61068161D01*
X90087390Y-60972923D01*
X90135009Y-60782447D01*
X90135009Y-60449114D01*
X90087390Y-60258638D01*
X89992152Y-60163400D01*
X89896914Y-60115780D01*
X88706438Y-60591971D02*
X89039771Y-60591971D01*
X89039771Y-61115780D02*
X89039771Y-60115780D01*
X88563580Y-60115780D01*
X87468342Y-60830066D02*
X86992152Y-60830066D01*
X87563580Y-61115780D02*
X87230247Y-60115780D01*
X86896914Y-61115780D01*
X86563580Y-61115780D02*
X86563580Y-60115780D01*
X85992152Y-61115780D01*
X85992152Y-60115780D01*
X85325485Y-60639590D02*
X85325485Y-61115780D01*
X85658819Y-60115780D02*
X85325485Y-60639590D01*
X84992152Y-60115780D01*
X83896914Y-61115780D02*
X83896914Y-60115780D01*
X83325485Y-61115780D02*
X83754057Y-60544352D01*
X83325485Y-60115780D02*
X83896914Y-60687209D01*
X82896914Y-61115780D02*
X82896914Y-60115780D01*
X82420723Y-61115780D02*
X82420723Y-60115780D01*
X81849295Y-61115780D01*
X81849295Y-60115780D01*
X81373104Y-61115780D02*
X81373104Y-60115780D01*
X81135009Y-60115780D01*
X80992152Y-60163400D01*
X80896914Y-60258638D01*
X80849295Y-60353876D01*
X80801676Y-60544352D01*
X80801676Y-60687209D01*
X80849295Y-60877685D01*
X80896914Y-60972923D01*
X80992152Y-61068161D01*
X81135009Y-61115780D01*
X81373104Y-61115780D01*
X80325485Y-61068161D02*
X80325485Y-61115780D01*
X80373104Y-61211019D01*
X80420723Y-61258638D01*
X78754057Y-61068161D02*
X78849295Y-61115780D01*
X79039771Y-61115780D01*
X79135009Y-61068161D01*
X79182628Y-60972923D01*
X79182628Y-60591971D01*
X79135009Y-60496733D01*
X79039771Y-60449114D01*
X78849295Y-60449114D01*
X78754057Y-60496733D01*
X78706438Y-60591971D01*
X78706438Y-60687209D01*
X79182628Y-60782447D01*
X78277866Y-61115780D02*
X78277866Y-60449114D01*
X78277866Y-60115780D02*
X78325485Y-60163400D01*
X78277866Y-60211019D01*
X78230247Y-60163400D01*
X78277866Y-60115780D01*
X78277866Y-60211019D01*
X77944533Y-60449114D02*
X77563580Y-60449114D01*
X77801676Y-60115780D02*
X77801676Y-60972923D01*
X77754057Y-61068161D01*
X77658819Y-61115780D01*
X77563580Y-61115780D01*
X77230247Y-61115780D02*
X77230247Y-60115780D01*
X76801676Y-61115780D02*
X76801676Y-60591971D01*
X76849295Y-60496733D01*
X76944533Y-60449114D01*
X77087390Y-60449114D01*
X77182628Y-60496733D01*
X77230247Y-60544352D01*
X75944533Y-61068161D02*
X76039771Y-61115780D01*
X76230247Y-61115780D01*
X76325485Y-61068161D01*
X76373104Y-60972923D01*
X76373104Y-60591971D01*
X76325485Y-60496733D01*
X76230247Y-60449114D01*
X76039771Y-60449114D01*
X75944533Y-60496733D01*
X75896914Y-60591971D01*
X75896914Y-60687209D01*
X76373104Y-60782447D01*
X75468342Y-61115780D02*
X75468342Y-60449114D01*
X75468342Y-60639590D02*
X75420723Y-60544352D01*
X75373104Y-60496733D01*
X75277866Y-60449114D01*
X75182628Y-60449114D01*
X73706438Y-61068161D02*
X73801676Y-61115780D01*
X73992152Y-61115780D01*
X74087390Y-61068161D01*
X74135009Y-60972923D01*
X74135009Y-60591971D01*
X74087390Y-60496733D01*
X73992152Y-60449114D01*
X73801676Y-60449114D01*
X73706438Y-60496733D01*
X73658819Y-60591971D01*
X73658819Y-60687209D01*
X74135009Y-60782447D01*
X73325485Y-61115780D02*
X72801676Y-60449114D01*
X73325485Y-60449114D02*
X72801676Y-61115780D01*
X72420723Y-60449114D02*
X72420723Y-61449114D01*
X72420723Y-60496733D02*
X72325485Y-60449114D01*
X72135009Y-60449114D01*
X72039771Y-60496733D01*
X71992152Y-60544352D01*
X71944533Y-60639590D01*
X71944533Y-60925304D01*
X71992152Y-61020542D01*
X72039771Y-61068161D01*
X72135009Y-61115780D01*
X72325485Y-61115780D01*
X72420723Y-61068161D01*
X71515961Y-61115780D02*
X71515961Y-60449114D01*
X71515961Y-60639590D02*
X71468342Y-60544352D01*
X71420723Y-60496733D01*
X71325485Y-60449114D01*
X71230247Y-60449114D01*
X70515961Y-61068161D02*
X70611200Y-61115780D01*
X70801676Y-61115780D01*
X70896914Y-61068161D01*
X70944533Y-60972923D01*
X70944533Y-60591971D01*
X70896914Y-60496733D01*
X70801676Y-60449114D01*
X70611200Y-60449114D01*
X70515961Y-60496733D01*
X70468342Y-60591971D01*
X70468342Y-60687209D01*
X70944533Y-60782447D01*
X70087390Y-61068161D02*
X69992152Y-61115780D01*
X69801676Y-61115780D01*
X69706438Y-61068161D01*
X69658819Y-60972923D01*
X69658819Y-60925304D01*
X69706438Y-60830066D01*
X69801676Y-60782447D01*
X69944533Y-60782447D01*
X70039771Y-60734828D01*
X70087390Y-60639590D01*
X70087390Y-60591971D01*
X70039771Y-60496733D01*
X69944533Y-60449114D01*
X69801676Y-60449114D01*
X69706438Y-60496733D01*
X69277866Y-61068161D02*
X69182628Y-61115780D01*
X68992152Y-61115780D01*
X68896914Y-61068161D01*
X68849295Y-60972923D01*
X68849295Y-60925304D01*
X68896914Y-60830066D01*
X68992152Y-60782447D01*
X69135009Y-60782447D01*
X69230247Y-60734828D01*
X69277866Y-60639590D01*
X69277866Y-60591971D01*
X69230247Y-60496733D01*
X69135009Y-60449114D01*
X68992152Y-60449114D01*
X68896914Y-60496733D01*
X67515961Y-61115780D02*
X67611200Y-61068161D01*
X67658819Y-61020542D01*
X67706438Y-60925304D01*
X67706438Y-60639590D01*
X67658819Y-60544352D01*
X67611200Y-60496733D01*
X67515961Y-60449114D01*
X67373104Y-60449114D01*
X67277866Y-60496733D01*
X67230247Y-60544352D01*
X67182628Y-60639590D01*
X67182628Y-60925304D01*
X67230247Y-61020542D01*
X67277866Y-61068161D01*
X67373104Y-61115780D01*
X67515961Y-61115780D01*
X66754057Y-61115780D02*
X66754057Y-60449114D01*
X66754057Y-60639590D02*
X66706438Y-60544352D01*
X66658819Y-60496733D01*
X66563580Y-60449114D01*
X66468342Y-60449114D01*
X65373104Y-61115780D02*
X65373104Y-60449114D01*
X65373104Y-60115780D02*
X65420723Y-60163400D01*
X65373104Y-60211019D01*
X65325485Y-60163400D01*
X65373104Y-60115780D01*
X65373104Y-60211019D01*
X64896914Y-61115780D02*
X64896914Y-60449114D01*
X64896914Y-60544352D02*
X64849295Y-60496733D01*
X64754057Y-60449114D01*
X64611199Y-60449114D01*
X64515961Y-60496733D01*
X64468342Y-60591971D01*
X64468342Y-61115780D01*
X64468342Y-60591971D02*
X64420723Y-60496733D01*
X64325485Y-60449114D01*
X64182628Y-60449114D01*
X64087390Y-60496733D01*
X64039771Y-60591971D01*
X64039771Y-61115780D01*
X63563580Y-60449114D02*
X63563580Y-61449114D01*
X63563580Y-60496733D02*
X63468342Y-60449114D01*
X63277866Y-60449114D01*
X63182628Y-60496733D01*
X63135009Y-60544352D01*
X63087390Y-60639590D01*
X63087390Y-60925304D01*
X63135009Y-61020542D01*
X63182628Y-61068161D01*
X63277866Y-61115780D01*
X63468342Y-61115780D01*
X63563580Y-61068161D01*
X62515961Y-61115780D02*
X62611199Y-61068161D01*
X62658819Y-60972923D01*
X62658819Y-60115780D01*
X62135009Y-61115780D02*
X62135009Y-60449114D01*
X62135009Y-60115780D02*
X62182628Y-60163400D01*
X62135009Y-60211019D01*
X62087390Y-60163400D01*
X62135009Y-60115780D01*
X62135009Y-60211019D01*
X61277866Y-61068161D02*
X61373104Y-61115780D01*
X61563580Y-61115780D01*
X61658819Y-61068161D01*
X61706438Y-60972923D01*
X61706438Y-60591971D01*
X61658819Y-60496733D01*
X61563580Y-60449114D01*
X61373104Y-60449114D01*
X61277866Y-60496733D01*
X61230247Y-60591971D01*
X61230247Y-60687209D01*
X61706438Y-60782447D01*
X60373104Y-61115780D02*
X60373104Y-60115780D01*
X60373104Y-61068161D02*
X60468342Y-61115780D01*
X60658819Y-61115780D01*
X60754057Y-61068161D01*
X60801676Y-61020542D01*
X60849295Y-60925304D01*
X60849295Y-60639590D01*
X60801676Y-60544352D01*
X60754057Y-60496733D01*
X60658819Y-60449114D01*
X60468342Y-60449114D01*
X60373104Y-60496733D01*
X59896914Y-61020542D02*
X59849295Y-61068161D01*
X59896914Y-61115780D01*
X59944533Y-61068161D01*
X59896914Y-61020542D01*
X59896914Y-61115780D01*
X116087390Y-62718161D02*
X115944533Y-62765780D01*
X115706438Y-62765780D01*
X115611200Y-62718161D01*
X115563580Y-62670542D01*
X115515961Y-62575304D01*
X115515961Y-62480066D01*
X115563580Y-62384828D01*
X115611200Y-62337209D01*
X115706438Y-62289590D01*
X115896914Y-62241971D01*
X115992152Y-62194352D01*
X116039771Y-62146733D01*
X116087390Y-62051495D01*
X116087390Y-61956257D01*
X116039771Y-61861019D01*
X115992152Y-61813400D01*
X115896914Y-61765780D01*
X115658819Y-61765780D01*
X115515961Y-61813400D01*
X114706438Y-62718161D02*
X114801676Y-62765780D01*
X114992152Y-62765780D01*
X115087390Y-62718161D01*
X115135009Y-62622923D01*
X115135009Y-62241971D01*
X115087390Y-62146733D01*
X114992152Y-62099114D01*
X114801676Y-62099114D01*
X114706438Y-62146733D01*
X114658819Y-62241971D01*
X114658819Y-62337209D01*
X115135009Y-62432447D01*
X113849295Y-62718161D02*
X113944533Y-62765780D01*
X114135009Y-62765780D01*
X114230247Y-62718161D01*
X114277866Y-62622923D01*
X114277866Y-62241971D01*
X114230247Y-62146733D01*
X114135009Y-62099114D01*
X113944533Y-62099114D01*
X113849295Y-62146733D01*
X113801676Y-62241971D01*
X113801676Y-62337209D01*
X114277866Y-62432447D01*
X112754057Y-62099114D02*
X112373104Y-62099114D01*
X112611200Y-61765780D02*
X112611200Y-62622923D01*
X112563580Y-62718161D01*
X112468342Y-62765780D01*
X112373104Y-62765780D01*
X112039771Y-62765780D02*
X112039771Y-61765780D01*
X111611200Y-62765780D02*
X111611200Y-62241971D01*
X111658819Y-62146733D01*
X111754057Y-62099114D01*
X111896914Y-62099114D01*
X111992152Y-62146733D01*
X112039771Y-62194352D01*
X110754057Y-62718161D02*
X110849295Y-62765780D01*
X111039771Y-62765780D01*
X111135009Y-62718161D01*
X111182628Y-62622923D01*
X111182628Y-62241971D01*
X111135009Y-62146733D01*
X111039771Y-62099114D01*
X110849295Y-62099114D01*
X110754057Y-62146733D01*
X110706438Y-62241971D01*
X110706438Y-62337209D01*
X111182628Y-62432447D01*
X109039771Y-62765780D02*
X109515961Y-62765780D01*
X109515961Y-61765780D01*
X108706438Y-62765780D02*
X108706438Y-62099114D01*
X108706438Y-61765780D02*
X108754057Y-61813400D01*
X108706438Y-61861019D01*
X108658819Y-61813400D01*
X108706438Y-61765780D01*
X108706438Y-61861019D01*
X107801676Y-62718161D02*
X107896914Y-62765780D01*
X108087390Y-62765780D01*
X108182628Y-62718161D01*
X108230247Y-62670542D01*
X108277866Y-62575304D01*
X108277866Y-62289590D01*
X108230247Y-62194352D01*
X108182628Y-62146733D01*
X108087390Y-62099114D01*
X107896914Y-62099114D01*
X107801676Y-62146733D01*
X106992152Y-62718161D02*
X107087390Y-62765780D01*
X107277866Y-62765780D01*
X107373104Y-62718161D01*
X107420723Y-62622923D01*
X107420723Y-62241971D01*
X107373104Y-62146733D01*
X107277866Y-62099114D01*
X107087390Y-62099114D01*
X106992152Y-62146733D01*
X106944533Y-62241971D01*
X106944533Y-62337209D01*
X107420723Y-62432447D01*
X106515961Y-62099114D02*
X106515961Y-62765780D01*
X106515961Y-62194352D02*
X106468342Y-62146733D01*
X106373104Y-62099114D01*
X106230247Y-62099114D01*
X106135009Y-62146733D01*
X106087390Y-62241971D01*
X106087390Y-62765780D01*
X105658819Y-62718161D02*
X105563580Y-62765780D01*
X105373104Y-62765780D01*
X105277866Y-62718161D01*
X105230247Y-62622923D01*
X105230247Y-62575304D01*
X105277866Y-62480066D01*
X105373104Y-62432447D01*
X105515961Y-62432447D01*
X105611200Y-62384828D01*
X105658819Y-62289590D01*
X105658819Y-62241971D01*
X105611200Y-62146733D01*
X105515961Y-62099114D01*
X105373104Y-62099114D01*
X105277866Y-62146733D01*
X104420723Y-62718161D02*
X104515961Y-62765780D01*
X104706438Y-62765780D01*
X104801676Y-62718161D01*
X104849295Y-62622923D01*
X104849295Y-62241971D01*
X104801676Y-62146733D01*
X104706438Y-62099114D01*
X104515961Y-62099114D01*
X104420723Y-62146733D01*
X104373104Y-62241971D01*
X104373104Y-62337209D01*
X104849295Y-62432447D01*
X103325485Y-62099114D02*
X102944533Y-62099114D01*
X103182628Y-62765780D02*
X103182628Y-61908638D01*
X103135009Y-61813400D01*
X103039771Y-61765780D01*
X102944533Y-61765780D01*
X102468342Y-62765780D02*
X102563580Y-62718161D01*
X102611200Y-62670542D01*
X102658819Y-62575304D01*
X102658819Y-62289590D01*
X102611200Y-62194352D01*
X102563580Y-62146733D01*
X102468342Y-62099114D01*
X102325485Y-62099114D01*
X102230247Y-62146733D01*
X102182628Y-62194352D01*
X102135009Y-62289590D01*
X102135009Y-62575304D01*
X102182628Y-62670542D01*
X102230247Y-62718161D01*
X102325485Y-62765780D01*
X102468342Y-62765780D01*
X101706438Y-62765780D02*
X101706438Y-62099114D01*
X101706438Y-62289590D02*
X101658819Y-62194352D01*
X101611200Y-62146733D01*
X101515961Y-62099114D01*
X101420723Y-62099114D01*
X100468342Y-62099114D02*
X100087390Y-62099114D01*
X100325485Y-61765780D02*
X100325485Y-62622923D01*
X100277866Y-62718161D01*
X100182628Y-62765780D01*
X100087390Y-62765780D01*
X99754057Y-62765780D02*
X99754057Y-61765780D01*
X99325485Y-62765780D02*
X99325485Y-62241971D01*
X99373104Y-62146733D01*
X99468342Y-62099114D01*
X99611200Y-62099114D01*
X99706438Y-62146733D01*
X99754057Y-62194352D01*
X98468342Y-62718161D02*
X98563580Y-62765780D01*
X98754057Y-62765780D01*
X98849295Y-62718161D01*
X98896914Y-62622923D01*
X98896914Y-62241971D01*
X98849295Y-62146733D01*
X98754057Y-62099114D01*
X98563580Y-62099114D01*
X98468342Y-62146733D01*
X98420723Y-62241971D01*
X98420723Y-62337209D01*
X98896914Y-62432447D01*
X97277866Y-62718161D02*
X97182628Y-62765780D01*
X96992152Y-62765780D01*
X96896914Y-62718161D01*
X96849295Y-62622923D01*
X96849295Y-62575304D01*
X96896914Y-62480066D01*
X96992152Y-62432447D01*
X97135009Y-62432447D01*
X97230247Y-62384828D01*
X97277866Y-62289590D01*
X97277866Y-62241971D01*
X97230247Y-62146733D01*
X97135009Y-62099114D01*
X96992152Y-62099114D01*
X96896914Y-62146733D01*
X96420723Y-62099114D02*
X96420723Y-63099114D01*
X96420723Y-62146733D02*
X96325485Y-62099114D01*
X96135009Y-62099114D01*
X96039771Y-62146733D01*
X95992152Y-62194352D01*
X95944533Y-62289590D01*
X95944533Y-62575304D01*
X95992152Y-62670542D01*
X96039771Y-62718161D01*
X96135009Y-62765780D01*
X96325485Y-62765780D01*
X96420723Y-62718161D01*
X95135009Y-62718161D02*
X95230247Y-62765780D01*
X95420723Y-62765780D01*
X95515961Y-62718161D01*
X95563580Y-62622923D01*
X95563580Y-62241971D01*
X95515961Y-62146733D01*
X95420723Y-62099114D01*
X95230247Y-62099114D01*
X95135009Y-62146733D01*
X95087390Y-62241971D01*
X95087390Y-62337209D01*
X95563580Y-62432447D01*
X94230247Y-62718161D02*
X94325485Y-62765780D01*
X94515961Y-62765780D01*
X94611200Y-62718161D01*
X94658819Y-62670542D01*
X94706438Y-62575304D01*
X94706438Y-62289590D01*
X94658819Y-62194352D01*
X94611200Y-62146733D01*
X94515961Y-62099114D01*
X94325485Y-62099114D01*
X94230247Y-62146733D01*
X93801676Y-62765780D02*
X93801676Y-62099114D01*
X93801676Y-61765780D02*
X93849295Y-61813400D01*
X93801676Y-61861019D01*
X93754057Y-61813400D01*
X93801676Y-61765780D01*
X93801676Y-61861019D01*
X93468342Y-62099114D02*
X93087390Y-62099114D01*
X93325485Y-62765780D02*
X93325485Y-61908638D01*
X93277866Y-61813400D01*
X93182628Y-61765780D01*
X93087390Y-61765780D01*
X92754057Y-62765780D02*
X92754057Y-62099114D01*
X92754057Y-61765780D02*
X92801676Y-61813400D01*
X92754057Y-61861019D01*
X92706438Y-61813400D01*
X92754057Y-61765780D01*
X92754057Y-61861019D01*
X91849295Y-62718161D02*
X91944533Y-62765780D01*
X92135009Y-62765780D01*
X92230247Y-62718161D01*
X92277866Y-62670542D01*
X92325485Y-62575304D01*
X92325485Y-62289590D01*
X92277866Y-62194352D01*
X92230247Y-62146733D01*
X92135009Y-62099114D01*
X91944533Y-62099114D01*
X91849295Y-62146733D01*
X90515961Y-62765780D02*
X90611200Y-62718161D01*
X90658819Y-62622923D01*
X90658819Y-61765780D01*
X89706438Y-62765780D02*
X89706438Y-62241971D01*
X89754057Y-62146733D01*
X89849295Y-62099114D01*
X90039771Y-62099114D01*
X90135009Y-62146733D01*
X89706438Y-62718161D02*
X89801676Y-62765780D01*
X90039771Y-62765780D01*
X90135009Y-62718161D01*
X90182628Y-62622923D01*
X90182628Y-62527685D01*
X90135009Y-62432447D01*
X90039771Y-62384828D01*
X89801676Y-62384828D01*
X89706438Y-62337209D01*
X89230247Y-62099114D02*
X89230247Y-62765780D01*
X89230247Y-62194352D02*
X89182628Y-62146733D01*
X89087390Y-62099114D01*
X88944533Y-62099114D01*
X88849295Y-62146733D01*
X88801676Y-62241971D01*
X88801676Y-62765780D01*
X87896914Y-62099114D02*
X87896914Y-62908638D01*
X87944533Y-63003876D01*
X87992152Y-63051495D01*
X88087390Y-63099114D01*
X88230247Y-63099114D01*
X88325485Y-63051495D01*
X87896914Y-62718161D02*
X87992152Y-62765780D01*
X88182628Y-62765780D01*
X88277866Y-62718161D01*
X88325485Y-62670542D01*
X88373104Y-62575304D01*
X88373104Y-62289590D01*
X88325485Y-62194352D01*
X88277866Y-62146733D01*
X88182628Y-62099114D01*
X87992152Y-62099114D01*
X87896914Y-62146733D01*
X86992152Y-62099114D02*
X86992152Y-62765780D01*
X87420723Y-62099114D02*
X87420723Y-62622923D01*
X87373104Y-62718161D01*
X87277866Y-62765780D01*
X87135009Y-62765780D01*
X87039771Y-62718161D01*
X86992152Y-62670542D01*
X86087390Y-62765780D02*
X86087390Y-62241971D01*
X86135009Y-62146733D01*
X86230247Y-62099114D01*
X86420723Y-62099114D01*
X86515961Y-62146733D01*
X86087390Y-62718161D02*
X86182628Y-62765780D01*
X86420723Y-62765780D01*
X86515961Y-62718161D01*
X86563580Y-62622923D01*
X86563580Y-62527685D01*
X86515961Y-62432447D01*
X86420723Y-62384828D01*
X86182628Y-62384828D01*
X86087390Y-62337209D01*
X85182628Y-62099114D02*
X85182628Y-62908638D01*
X85230247Y-63003876D01*
X85277866Y-63051495D01*
X85373104Y-63099114D01*
X85515961Y-63099114D01*
X85611200Y-63051495D01*
X85182628Y-62718161D02*
X85277866Y-62765780D01*
X85468342Y-62765780D01*
X85563580Y-62718161D01*
X85611200Y-62670542D01*
X85658819Y-62575304D01*
X85658819Y-62289590D01*
X85611200Y-62194352D01*
X85563580Y-62146733D01*
X85468342Y-62099114D01*
X85277866Y-62099114D01*
X85182628Y-62146733D01*
X84325485Y-62718161D02*
X84420723Y-62765780D01*
X84611200Y-62765780D01*
X84706438Y-62718161D01*
X84754057Y-62622923D01*
X84754057Y-62241971D01*
X84706438Y-62146733D01*
X84611200Y-62099114D01*
X84420723Y-62099114D01*
X84325485Y-62146733D01*
X84277866Y-62241971D01*
X84277866Y-62337209D01*
X84754057Y-62432447D01*
X82658819Y-62099114D02*
X82658819Y-62908638D01*
X82706438Y-63003876D01*
X82754057Y-63051495D01*
X82849295Y-63099114D01*
X82992152Y-63099114D01*
X83087390Y-63051495D01*
X82658819Y-62718161D02*
X82754057Y-62765780D01*
X82944533Y-62765780D01*
X83039771Y-62718161D01*
X83087390Y-62670542D01*
X83135009Y-62575304D01*
X83135009Y-62289590D01*
X83087390Y-62194352D01*
X83039771Y-62146733D01*
X82944533Y-62099114D01*
X82754057Y-62099114D01*
X82658819Y-62146733D01*
X82039771Y-62765780D02*
X82135009Y-62718161D01*
X82182628Y-62670542D01*
X82230247Y-62575304D01*
X82230247Y-62289590D01*
X82182628Y-62194352D01*
X82135009Y-62146733D01*
X82039771Y-62099114D01*
X81896914Y-62099114D01*
X81801676Y-62146733D01*
X81754057Y-62194352D01*
X81706438Y-62289590D01*
X81706438Y-62575304D01*
X81754057Y-62670542D01*
X81801676Y-62718161D01*
X81896914Y-62765780D01*
X82039771Y-62765780D01*
X81373104Y-62099114D02*
X81135009Y-62765780D01*
X80896914Y-62099114D01*
X80135009Y-62718161D02*
X80230247Y-62765780D01*
X80420723Y-62765780D01*
X80515961Y-62718161D01*
X80563580Y-62622923D01*
X80563580Y-62241971D01*
X80515961Y-62146733D01*
X80420723Y-62099114D01*
X80230247Y-62099114D01*
X80135009Y-62146733D01*
X80087390Y-62241971D01*
X80087390Y-62337209D01*
X80563580Y-62432447D01*
X79658819Y-62765780D02*
X79658819Y-62099114D01*
X79658819Y-62289590D02*
X79611200Y-62194352D01*
X79563580Y-62146733D01*
X79468342Y-62099114D01*
X79373104Y-62099114D01*
X79039771Y-62099114D02*
X79039771Y-62765780D01*
X79039771Y-62194352D02*
X78992152Y-62146733D01*
X78896914Y-62099114D01*
X78754057Y-62099114D01*
X78658819Y-62146733D01*
X78611200Y-62241971D01*
X78611200Y-62765780D01*
X78135009Y-62765780D02*
X78135009Y-62099114D01*
X78135009Y-61765780D02*
X78182628Y-61813400D01*
X78135009Y-61861019D01*
X78087390Y-61813400D01*
X78135009Y-61765780D01*
X78135009Y-61861019D01*
X77658819Y-62099114D02*
X77658819Y-62765780D01*
X77658819Y-62194352D02*
X77611200Y-62146733D01*
X77515961Y-62099114D01*
X77373104Y-62099114D01*
X77277866Y-62146733D01*
X77230247Y-62241971D01*
X77230247Y-62765780D01*
X76325485Y-62099114D02*
X76325485Y-62908638D01*
X76373104Y-63003876D01*
X76420723Y-63051495D01*
X76515961Y-63099114D01*
X76658819Y-63099114D01*
X76754057Y-63051495D01*
X76325485Y-62718161D02*
X76420723Y-62765780D01*
X76611200Y-62765780D01*
X76706438Y-62718161D01*
X76754057Y-62670542D01*
X76801676Y-62575304D01*
X76801676Y-62289590D01*
X76754057Y-62194352D01*
X76706438Y-62146733D01*
X76611200Y-62099114D01*
X76420723Y-62099114D01*
X76325485Y-62146733D01*
X75087390Y-62099114D02*
X75087390Y-63099114D01*
X75087390Y-62146733D02*
X74992152Y-62099114D01*
X74801676Y-62099114D01*
X74706438Y-62146733D01*
X74658819Y-62194352D01*
X74611200Y-62289590D01*
X74611200Y-62575304D01*
X74658819Y-62670542D01*
X74706438Y-62718161D01*
X74801676Y-62765780D01*
X74992152Y-62765780D01*
X75087390Y-62718161D01*
X73801676Y-62718161D02*
X73896914Y-62765780D01*
X74087390Y-62765780D01*
X74182628Y-62718161D01*
X74230247Y-62622923D01*
X74230247Y-62241971D01*
X74182628Y-62146733D01*
X74087390Y-62099114D01*
X73896914Y-62099114D01*
X73801676Y-62146733D01*
X73754057Y-62241971D01*
X73754057Y-62337209D01*
X74230247Y-62432447D01*
X73325485Y-62765780D02*
X73325485Y-62099114D01*
X73325485Y-62289590D02*
X73277866Y-62194352D01*
X73230247Y-62146733D01*
X73135009Y-62099114D01*
X73039771Y-62099114D01*
X72706438Y-62765780D02*
X72706438Y-62099114D01*
X72706438Y-62194352D02*
X72658819Y-62146733D01*
X72563580Y-62099114D01*
X72420723Y-62099114D01*
X72325485Y-62146733D01*
X72277866Y-62241971D01*
X72277866Y-62765780D01*
X72277866Y-62241971D02*
X72230247Y-62146733D01*
X72135009Y-62099114D01*
X71992152Y-62099114D01*
X71896914Y-62146733D01*
X71849295Y-62241971D01*
X71849295Y-62765780D01*
X71373104Y-62765780D02*
X71373104Y-62099114D01*
X71373104Y-61765780D02*
X71420723Y-61813400D01*
X71373104Y-61861019D01*
X71325485Y-61813400D01*
X71373104Y-61765780D01*
X71373104Y-61861019D01*
X70944533Y-62718161D02*
X70849295Y-62765780D01*
X70658819Y-62765780D01*
X70563580Y-62718161D01*
X70515961Y-62622923D01*
X70515961Y-62575304D01*
X70563580Y-62480066D01*
X70658819Y-62432447D01*
X70801676Y-62432447D01*
X70896914Y-62384828D01*
X70944533Y-62289590D01*
X70944533Y-62241971D01*
X70896914Y-62146733D01*
X70801676Y-62099114D01*
X70658819Y-62099114D01*
X70563580Y-62146733D01*
X70135009Y-62718161D02*
X70039771Y-62765780D01*
X69849295Y-62765780D01*
X69754057Y-62718161D01*
X69706438Y-62622923D01*
X69706438Y-62575304D01*
X69754057Y-62480066D01*
X69849295Y-62432447D01*
X69992152Y-62432447D01*
X70087390Y-62384828D01*
X70135009Y-62289590D01*
X70135009Y-62241971D01*
X70087390Y-62146733D01*
X69992152Y-62099114D01*
X69849295Y-62099114D01*
X69754057Y-62146733D01*
X69277866Y-62765780D02*
X69277866Y-62099114D01*
X69277866Y-61765780D02*
X69325485Y-61813400D01*
X69277866Y-61861019D01*
X69230247Y-61813400D01*
X69277866Y-61765780D01*
X69277866Y-61861019D01*
X68658819Y-62765780D02*
X68754057Y-62718161D01*
X68801676Y-62670542D01*
X68849295Y-62575304D01*
X68849295Y-62289590D01*
X68801676Y-62194352D01*
X68754057Y-62146733D01*
X68658819Y-62099114D01*
X68515961Y-62099114D01*
X68420723Y-62146733D01*
X68373104Y-62194352D01*
X68325485Y-62289590D01*
X68325485Y-62575304D01*
X68373104Y-62670542D01*
X68420723Y-62718161D01*
X68515961Y-62765780D01*
X68658819Y-62765780D01*
X67896914Y-62099114D02*
X67896914Y-62765780D01*
X67896914Y-62194352D02*
X67849295Y-62146733D01*
X67754057Y-62099114D01*
X67611200Y-62099114D01*
X67515961Y-62146733D01*
X67468342Y-62241971D01*
X67468342Y-62765780D01*
X67039771Y-62718161D02*
X66944533Y-62765780D01*
X66754057Y-62765780D01*
X66658819Y-62718161D01*
X66611200Y-62622923D01*
X66611200Y-62575304D01*
X66658819Y-62480066D01*
X66754057Y-62432447D01*
X66896914Y-62432447D01*
X66992152Y-62384828D01*
X67039771Y-62289590D01*
X67039771Y-62241971D01*
X66992152Y-62146733D01*
X66896914Y-62099114D01*
X66754057Y-62099114D01*
X66658819Y-62146733D01*
X64992152Y-62765780D02*
X64992152Y-62241971D01*
X65039771Y-62146733D01*
X65135009Y-62099114D01*
X65325485Y-62099114D01*
X65420723Y-62146733D01*
X64992152Y-62718161D02*
X65087390Y-62765780D01*
X65325485Y-62765780D01*
X65420723Y-62718161D01*
X65468342Y-62622923D01*
X65468342Y-62527685D01*
X65420723Y-62432447D01*
X65325485Y-62384828D01*
X65087390Y-62384828D01*
X64992152Y-62337209D01*
X64515961Y-62099114D02*
X64515961Y-62765780D01*
X64515961Y-62194352D02*
X64468342Y-62146733D01*
X64373104Y-62099114D01*
X64230247Y-62099114D01*
X64135009Y-62146733D01*
X64087390Y-62241971D01*
X64087390Y-62765780D01*
X63182628Y-62765780D02*
X63182628Y-61765780D01*
X63182628Y-62718161D02*
X63277866Y-62765780D01*
X63468342Y-62765780D01*
X63563580Y-62718161D01*
X63611200Y-62670542D01*
X63658819Y-62575304D01*
X63658819Y-62289590D01*
X63611200Y-62194352D01*
X63563580Y-62146733D01*
X63468342Y-62099114D01*
X63277866Y-62099114D01*
X63182628Y-62146733D01*
X100635009Y-64415780D02*
X100730247Y-64368161D01*
X100777866Y-64272923D01*
X100777866Y-63415780D01*
X100254057Y-64415780D02*
X100254057Y-63749114D01*
X100254057Y-63415780D02*
X100301676Y-63463400D01*
X100254057Y-63511019D01*
X100206438Y-63463400D01*
X100254057Y-63415780D01*
X100254057Y-63511019D01*
X99777866Y-64415780D02*
X99777866Y-63749114D01*
X99777866Y-63844352D02*
X99730247Y-63796733D01*
X99635009Y-63749114D01*
X99492152Y-63749114D01*
X99396914Y-63796733D01*
X99349295Y-63891971D01*
X99349295Y-64415780D01*
X99349295Y-63891971D02*
X99301676Y-63796733D01*
X99206438Y-63749114D01*
X99063580Y-63749114D01*
X98968342Y-63796733D01*
X98920723Y-63891971D01*
X98920723Y-64415780D01*
X98444533Y-64415780D02*
X98444533Y-63749114D01*
X98444533Y-63415780D02*
X98492152Y-63463400D01*
X98444533Y-63511019D01*
X98396914Y-63463400D01*
X98444533Y-63415780D01*
X98444533Y-63511019D01*
X98111200Y-63749114D02*
X97730247Y-63749114D01*
X97968342Y-63415780D02*
X97968342Y-64272923D01*
X97920723Y-64368161D01*
X97825485Y-64415780D01*
X97730247Y-64415780D01*
X96968342Y-64415780D02*
X96968342Y-63891971D01*
X97015961Y-63796733D01*
X97111200Y-63749114D01*
X97301676Y-63749114D01*
X97396914Y-63796733D01*
X96968342Y-64368161D02*
X97063580Y-64415780D01*
X97301676Y-64415780D01*
X97396914Y-64368161D01*
X97444533Y-64272923D01*
X97444533Y-64177685D01*
X97396914Y-64082447D01*
X97301676Y-64034828D01*
X97063580Y-64034828D01*
X96968342Y-63987209D01*
X96635009Y-63749114D02*
X96254057Y-63749114D01*
X96492152Y-63415780D02*
X96492152Y-64272923D01*
X96444533Y-64368161D01*
X96349295Y-64415780D01*
X96254057Y-64415780D01*
X95920723Y-64415780D02*
X95920723Y-63749114D01*
X95920723Y-63415780D02*
X95968342Y-63463400D01*
X95920723Y-63511019D01*
X95873104Y-63463400D01*
X95920723Y-63415780D01*
X95920723Y-63511019D01*
X95301676Y-64415780D02*
X95396914Y-64368161D01*
X95444533Y-64320542D01*
X95492152Y-64225304D01*
X95492152Y-63939590D01*
X95444533Y-63844352D01*
X95396914Y-63796733D01*
X95301676Y-63749114D01*
X95158819Y-63749114D01*
X95063580Y-63796733D01*
X95015961Y-63844352D01*
X94968342Y-63939590D01*
X94968342Y-64225304D01*
X95015961Y-64320542D01*
X95063580Y-64368161D01*
X95158819Y-64415780D01*
X95301676Y-64415780D01*
X94539771Y-63749114D02*
X94539771Y-64415780D01*
X94539771Y-63844352D02*
X94492152Y-63796733D01*
X94396914Y-63749114D01*
X94254057Y-63749114D01*
X94158819Y-63796733D01*
X94111200Y-63891971D01*
X94111200Y-64415780D01*
X93682628Y-64368161D02*
X93587390Y-64415780D01*
X93396914Y-64415780D01*
X93301676Y-64368161D01*
X93254057Y-64272923D01*
X93254057Y-64225304D01*
X93301676Y-64130066D01*
X93396914Y-64082447D01*
X93539771Y-64082447D01*
X93635009Y-64034828D01*
X93682628Y-63939590D01*
X93682628Y-63891971D01*
X93635009Y-63796733D01*
X93539771Y-63749114D01*
X93396914Y-63749114D01*
X93301676Y-63796733D01*
X91635009Y-63749114D02*
X91635009Y-64415780D01*
X92063580Y-63749114D02*
X92063580Y-64272923D01*
X92015961Y-64368161D01*
X91920723Y-64415780D01*
X91777866Y-64415780D01*
X91682628Y-64368161D01*
X91635009Y-64320542D01*
X91158819Y-63749114D02*
X91158819Y-64415780D01*
X91158819Y-63844352D02*
X91111200Y-63796733D01*
X91015961Y-63749114D01*
X90873104Y-63749114D01*
X90777866Y-63796733D01*
X90730247Y-63891971D01*
X90730247Y-64415780D01*
X89825485Y-64415780D02*
X89825485Y-63415780D01*
X89825485Y-64368161D02*
X89920723Y-64415780D01*
X90111200Y-64415780D01*
X90206438Y-64368161D01*
X90254057Y-64320542D01*
X90301676Y-64225304D01*
X90301676Y-63939590D01*
X90254057Y-63844352D01*
X90206438Y-63796733D01*
X90111200Y-63749114D01*
X89920723Y-63749114D01*
X89825485Y-63796733D01*
X88968342Y-64368161D02*
X89063580Y-64415780D01*
X89254057Y-64415780D01*
X89349295Y-64368161D01*
X89396914Y-64272923D01*
X89396914Y-63891971D01*
X89349295Y-63796733D01*
X89254057Y-63749114D01*
X89063580Y-63749114D01*
X88968342Y-63796733D01*
X88920723Y-63891971D01*
X88920723Y-63987209D01*
X89396914Y-64082447D01*
X88492152Y-64415780D02*
X88492152Y-63749114D01*
X88492152Y-63939590D02*
X88444533Y-63844352D01*
X88396914Y-63796733D01*
X88301676Y-63749114D01*
X88206438Y-63749114D01*
X87254057Y-63749114D02*
X86873104Y-63749114D01*
X87111200Y-63415780D02*
X87111200Y-64272923D01*
X87063580Y-64368161D01*
X86968342Y-64415780D01*
X86873104Y-64415780D01*
X86539771Y-64415780D02*
X86539771Y-63415780D01*
X86111200Y-64415780D02*
X86111200Y-63891971D01*
X86158819Y-63796733D01*
X86254057Y-63749114D01*
X86396914Y-63749114D01*
X86492152Y-63796733D01*
X86539771Y-63844352D01*
X85254057Y-64368161D02*
X85349295Y-64415780D01*
X85539771Y-64415780D01*
X85635009Y-64368161D01*
X85682628Y-64272923D01*
X85682628Y-63891971D01*
X85635009Y-63796733D01*
X85539771Y-63749114D01*
X85349295Y-63749114D01*
X85254057Y-63796733D01*
X85206438Y-63891971D01*
X85206438Y-63987209D01*
X85682628Y-64082447D01*
X83539771Y-64415780D02*
X84015961Y-64415780D01*
X84015961Y-63415780D01*
X83206438Y-64415780D02*
X83206438Y-63749114D01*
X83206438Y-63415780D02*
X83254057Y-63463400D01*
X83206438Y-63511019D01*
X83158819Y-63463400D01*
X83206438Y-63415780D01*
X83206438Y-63511019D01*
X82301676Y-64368161D02*
X82396914Y-64415780D01*
X82587390Y-64415780D01*
X82682628Y-64368161D01*
X82730247Y-64320542D01*
X82777866Y-64225304D01*
X82777866Y-63939590D01*
X82730247Y-63844352D01*
X82682628Y-63796733D01*
X82587390Y-63749114D01*
X82396914Y-63749114D01*
X82301676Y-63796733D01*
X81492152Y-64368161D02*
X81587390Y-64415780D01*
X81777866Y-64415780D01*
X81873104Y-64368161D01*
X81920723Y-64272923D01*
X81920723Y-63891971D01*
X81873104Y-63796733D01*
X81777866Y-63749114D01*
X81587390Y-63749114D01*
X81492152Y-63796733D01*
X81444533Y-63891971D01*
X81444533Y-63987209D01*
X81920723Y-64082447D01*
X81015961Y-63749114D02*
X81015961Y-64415780D01*
X81015961Y-63844352D02*
X80968342Y-63796733D01*
X80873104Y-63749114D01*
X80730247Y-63749114D01*
X80635009Y-63796733D01*
X80587390Y-63891971D01*
X80587390Y-64415780D01*
X80158819Y-64368161D02*
X80063580Y-64415780D01*
X79873104Y-64415780D01*
X79777866Y-64368161D01*
X79730247Y-64272923D01*
X79730247Y-64225304D01*
X79777866Y-64130066D01*
X79873104Y-64082447D01*
X80015961Y-64082447D01*
X80111200Y-64034828D01*
X80158819Y-63939590D01*
X80158819Y-63891971D01*
X80111200Y-63796733D01*
X80015961Y-63749114D01*
X79873104Y-63749114D01*
X79777866Y-63796733D01*
X78920723Y-64368161D02*
X79015961Y-64415780D01*
X79206438Y-64415780D01*
X79301676Y-64368161D01*
X79349295Y-64272923D01*
X79349295Y-63891971D01*
X79301676Y-63796733D01*
X79206438Y-63749114D01*
X79015961Y-63749114D01*
X78920723Y-63796733D01*
X78873104Y-63891971D01*
X78873104Y-63987209D01*
X79349295Y-64082447D01*
X78444533Y-64320542D02*
X78396914Y-64368161D01*
X78444533Y-64415780D01*
X78492152Y-64368161D01*
X78444533Y-64320542D01*
X78444533Y-64415780D01*
X101906457Y-69749380D02*
X101573123Y-70749380D01*
X101239790Y-69749380D01*
X100525504Y-70701761D02*
X100620742Y-70749380D01*
X100811219Y-70749380D01*
X100906457Y-70701761D01*
X100954076Y-70606523D01*
X100954076Y-70225571D01*
X100906457Y-70130333D01*
X100811219Y-70082714D01*
X100620742Y-70082714D01*
X100525504Y-70130333D01*
X100477885Y-70225571D01*
X100477885Y-70320809D01*
X100954076Y-70416047D01*
X100049314Y-70082714D02*
X100049314Y-70749380D01*
X100049314Y-70177952D02*
X100001695Y-70130333D01*
X99906457Y-70082714D01*
X99763600Y-70082714D01*
X99668361Y-70130333D01*
X99620742Y-70225571D01*
X99620742Y-70749380D01*
X99287409Y-70082714D02*
X98906457Y-70082714D01*
X99144552Y-69749380D02*
X99144552Y-70606523D01*
X99096933Y-70701761D01*
X99001695Y-70749380D01*
X98906457Y-70749380D01*
X98573123Y-70749380D02*
X98573123Y-70082714D01*
X98573123Y-69749380D02*
X98620742Y-69797000D01*
X98573123Y-69844619D01*
X98525504Y-69797000D01*
X98573123Y-69749380D01*
X98573123Y-69844619D01*
X97954076Y-70749380D02*
X98049314Y-70701761D01*
X98096933Y-70606523D01*
X98096933Y-69749380D01*
X97144552Y-70749380D02*
X97144552Y-70225571D01*
X97192171Y-70130333D01*
X97287409Y-70082714D01*
X97477885Y-70082714D01*
X97573123Y-70130333D01*
X97144552Y-70701761D02*
X97239790Y-70749380D01*
X97477885Y-70749380D01*
X97573123Y-70701761D01*
X97620742Y-70606523D01*
X97620742Y-70511285D01*
X97573123Y-70416047D01*
X97477885Y-70368428D01*
X97239790Y-70368428D01*
X97144552Y-70320809D01*
X96811219Y-70082714D02*
X96430266Y-70082714D01*
X96668361Y-69749380D02*
X96668361Y-70606523D01*
X96620742Y-70701761D01*
X96525504Y-70749380D01*
X96430266Y-70749380D01*
X95954076Y-70749380D02*
X96049314Y-70701761D01*
X96096933Y-70654142D01*
X96144552Y-70558904D01*
X96144552Y-70273190D01*
X96096933Y-70177952D01*
X96049314Y-70130333D01*
X95954076Y-70082714D01*
X95811219Y-70082714D01*
X95715980Y-70130333D01*
X95668361Y-70177952D01*
X95620742Y-70273190D01*
X95620742Y-70558904D01*
X95668361Y-70654142D01*
X95715980Y-70701761D01*
X95811219Y-70749380D01*
X95954076Y-70749380D01*
X95192171Y-70749380D02*
X95192171Y-70082714D01*
X95192171Y-70273190D02*
X95144552Y-70177952D01*
X95096933Y-70130333D01*
X95001695Y-70082714D01*
X94906457Y-70082714D01*
X93239790Y-70654142D02*
X93287409Y-70701761D01*
X93430266Y-70749380D01*
X93525504Y-70749380D01*
X93668361Y-70701761D01*
X93763600Y-70606523D01*
X93811219Y-70511285D01*
X93858838Y-70320809D01*
X93858838Y-70177952D01*
X93811219Y-69987476D01*
X93763600Y-69892238D01*
X93668361Y-69797000D01*
X93525504Y-69749380D01*
X93430266Y-69749380D01*
X93287409Y-69797000D01*
X93239790Y-69844619D01*
X92668361Y-70749380D02*
X92763600Y-70701761D01*
X92811219Y-70654142D01*
X92858838Y-70558904D01*
X92858838Y-70273190D01*
X92811219Y-70177952D01*
X92763600Y-70130333D01*
X92668361Y-70082714D01*
X92525504Y-70082714D01*
X92430266Y-70130333D01*
X92382647Y-70177952D01*
X92335028Y-70273190D01*
X92335028Y-70558904D01*
X92382647Y-70654142D01*
X92430266Y-70701761D01*
X92525504Y-70749380D01*
X92668361Y-70749380D01*
X91906457Y-70082714D02*
X91906457Y-70749380D01*
X91906457Y-70177952D02*
X91858838Y-70130333D01*
X91763600Y-70082714D01*
X91620742Y-70082714D01*
X91525504Y-70130333D01*
X91477885Y-70225571D01*
X91477885Y-70749380D01*
X91144552Y-70082714D02*
X90763600Y-70082714D01*
X91001695Y-69749380D02*
X91001695Y-70606523D01*
X90954076Y-70701761D01*
X90858838Y-70749380D01*
X90763600Y-70749380D01*
X90430266Y-70749380D02*
X90430266Y-70082714D01*
X90430266Y-70273190D02*
X90382647Y-70177952D01*
X90335028Y-70130333D01*
X90239790Y-70082714D01*
X90144552Y-70082714D01*
X89668361Y-70749380D02*
X89763600Y-70701761D01*
X89811219Y-70654142D01*
X89858838Y-70558904D01*
X89858838Y-70273190D01*
X89811219Y-70177952D01*
X89763600Y-70130333D01*
X89668361Y-70082714D01*
X89525504Y-70082714D01*
X89430266Y-70130333D01*
X89382647Y-70177952D01*
X89335028Y-70273190D01*
X89335028Y-70558904D01*
X89382647Y-70654142D01*
X89430266Y-70701761D01*
X89525504Y-70749380D01*
X89668361Y-70749380D01*
X88763600Y-70749380D02*
X88858838Y-70701761D01*
X88906457Y-70606523D01*
X88906457Y-69749380D01*
X88239790Y-70749380D02*
X88335028Y-70701761D01*
X88382647Y-70606523D01*
X88382647Y-69749380D01*
X87477885Y-70701761D02*
X87573123Y-70749380D01*
X87763600Y-70749380D01*
X87858838Y-70701761D01*
X87906457Y-70606523D01*
X87906457Y-70225571D01*
X87858838Y-70130333D01*
X87763600Y-70082714D01*
X87573123Y-70082714D01*
X87477885Y-70130333D01*
X87430266Y-70225571D01*
X87430266Y-70320809D01*
X87906457Y-70416047D01*
X87001695Y-70749380D02*
X87001695Y-70082714D01*
X87001695Y-70273190D02*
X86954076Y-70177952D01*
X86906457Y-70130333D01*
X86811219Y-70082714D01*
X86715980Y-70082714D01*
X85287409Y-70225571D02*
X85144552Y-70273190D01*
X85096933Y-70320809D01*
X85049314Y-70416047D01*
X85049314Y-70558904D01*
X85096933Y-70654142D01*
X85144552Y-70701761D01*
X85239790Y-70749380D01*
X85620742Y-70749380D01*
X85620742Y-69749380D01*
X85287409Y-69749380D01*
X85192171Y-69797000D01*
X85144552Y-69844619D01*
X85096933Y-69939857D01*
X85096933Y-70035095D01*
X85144552Y-70130333D01*
X85192171Y-70177952D01*
X85287409Y-70225571D01*
X85620742Y-70225571D01*
X84477885Y-70749380D02*
X84573123Y-70701761D01*
X84620742Y-70654142D01*
X84668361Y-70558904D01*
X84668361Y-70273190D01*
X84620742Y-70177952D01*
X84573123Y-70130333D01*
X84477885Y-70082714D01*
X84335028Y-70082714D01*
X84239790Y-70130333D01*
X84192171Y-70177952D01*
X84144552Y-70273190D01*
X84144552Y-70558904D01*
X84192171Y-70654142D01*
X84239790Y-70701761D01*
X84335028Y-70749380D01*
X84477885Y-70749380D01*
X83287409Y-70749380D02*
X83287409Y-70225571D01*
X83335028Y-70130333D01*
X83430266Y-70082714D01*
X83620742Y-70082714D01*
X83715980Y-70130333D01*
X83287409Y-70701761D02*
X83382647Y-70749380D01*
X83620742Y-70749380D01*
X83715980Y-70701761D01*
X83763600Y-70606523D01*
X83763600Y-70511285D01*
X83715980Y-70416047D01*
X83620742Y-70368428D01*
X83382647Y-70368428D01*
X83287409Y-70320809D01*
X82811219Y-70749380D02*
X82811219Y-70082714D01*
X82811219Y-70273190D02*
X82763600Y-70177952D01*
X82715980Y-70130333D01*
X82620742Y-70082714D01*
X82525504Y-70082714D01*
X81763600Y-70749380D02*
X81763600Y-69749380D01*
X81763600Y-70701761D02*
X81858838Y-70749380D01*
X82049314Y-70749380D01*
X82144552Y-70701761D01*
X82192171Y-70654142D01*
X82239790Y-70558904D01*
X82239790Y-70273190D01*
X82192171Y-70177952D01*
X82144552Y-70130333D01*
X82049314Y-70082714D01*
X81858838Y-70082714D01*
X81763600Y-70130333D01*
X80668361Y-69749380D02*
X80335028Y-70749380D01*
X80001695Y-69749380D01*
X79715980Y-69844619D02*
X79668361Y-69797000D01*
X79573123Y-69749380D01*
X79335028Y-69749380D01*
X79239790Y-69797000D01*
X79192171Y-69844619D01*
X79144552Y-69939857D01*
X79144552Y-70035095D01*
X79192171Y-70177952D01*
X79763600Y-70749380D01*
X79144552Y-70749380D01*
X78715980Y-70654142D02*
X78668361Y-70701761D01*
X78715980Y-70749380D01*
X78763600Y-70701761D01*
X78715980Y-70654142D01*
X78715980Y-70749380D01*
X78287409Y-69844619D02*
X78239790Y-69797000D01*
X78144552Y-69749380D01*
X77906457Y-69749380D01*
X77811219Y-69797000D01*
X77763600Y-69844619D01*
X77715980Y-69939857D01*
X77715980Y-70035095D01*
X77763600Y-70177952D01*
X78335028Y-70749380D01*
X77715980Y-70749380D01*
X95073123Y-72113666D02*
X94596933Y-72113666D01*
X95168361Y-72399380D02*
X94835028Y-71399380D01*
X94501695Y-72399380D01*
X94311219Y-71399380D02*
X93739790Y-71399380D01*
X94025504Y-72399380D02*
X94025504Y-71399380D01*
X93406457Y-72399380D02*
X93406457Y-71399380D01*
X93073123Y-72113666D01*
X92739790Y-71399380D01*
X92739790Y-72399380D01*
X91882647Y-72351761D02*
X91977885Y-72399380D01*
X92168361Y-72399380D01*
X92263600Y-72351761D01*
X92311219Y-72256523D01*
X92311219Y-71875571D01*
X92263600Y-71780333D01*
X92168361Y-71732714D01*
X91977885Y-71732714D01*
X91882647Y-71780333D01*
X91835028Y-71875571D01*
X91835028Y-71970809D01*
X92311219Y-72066047D01*
X90977885Y-71732714D02*
X90977885Y-72542238D01*
X91025504Y-72637476D01*
X91073123Y-72685095D01*
X91168361Y-72732714D01*
X91311219Y-72732714D01*
X91406457Y-72685095D01*
X90977885Y-72351761D02*
X91073123Y-72399380D01*
X91263600Y-72399380D01*
X91358838Y-72351761D01*
X91406457Y-72304142D01*
X91454076Y-72208904D01*
X91454076Y-71923190D01*
X91406457Y-71827952D01*
X91358838Y-71780333D01*
X91263600Y-71732714D01*
X91073123Y-71732714D01*
X90977885Y-71780333D01*
X90073123Y-72399380D02*
X90073123Y-71875571D01*
X90120742Y-71780333D01*
X90215980Y-71732714D01*
X90406457Y-71732714D01*
X90501695Y-71780333D01*
X90073123Y-72351761D02*
X90168361Y-72399380D01*
X90406457Y-72399380D01*
X90501695Y-72351761D01*
X90549314Y-72256523D01*
X90549314Y-72161285D01*
X90501695Y-72066047D01*
X90406457Y-72018428D01*
X90168361Y-72018428D01*
X90073123Y-71970809D01*
X88311219Y-72399380D02*
X88882647Y-72399380D01*
X88596933Y-72399380D02*
X88596933Y-71399380D01*
X88692171Y-71542238D01*
X88787409Y-71637476D01*
X88882647Y-71685095D01*
X87930266Y-71494619D02*
X87882647Y-71447000D01*
X87787409Y-71399380D01*
X87549314Y-71399380D01*
X87454076Y-71447000D01*
X87406457Y-71494619D01*
X87358838Y-71589857D01*
X87358838Y-71685095D01*
X87406457Y-71827952D01*
X87977885Y-72399380D01*
X87358838Y-72399380D01*
X86787409Y-71827952D02*
X86882647Y-71780333D01*
X86930266Y-71732714D01*
X86977885Y-71637476D01*
X86977885Y-71589857D01*
X86930266Y-71494619D01*
X86882647Y-71447000D01*
X86787409Y-71399380D01*
X86596933Y-71399380D01*
X86501695Y-71447000D01*
X86454076Y-71494619D01*
X86406457Y-71589857D01*
X86406457Y-71637476D01*
X86454076Y-71732714D01*
X86501695Y-71780333D01*
X86596933Y-71827952D01*
X86787409Y-71827952D01*
X86882647Y-71875571D01*
X86930266Y-71923190D01*
X86977885Y-72018428D01*
X86977885Y-72208904D01*
X86930266Y-72304142D01*
X86882647Y-72351761D01*
X86787409Y-72399380D01*
X86596933Y-72399380D01*
X86501695Y-72351761D01*
X86454076Y-72304142D01*
X86406457Y-72208904D01*
X86406457Y-72018428D01*
X86454076Y-71923190D01*
X86501695Y-71875571D01*
X86596933Y-71827952D01*
X85549314Y-71732714D02*
X85549314Y-72399380D01*
X85787409Y-71351761D02*
X86025504Y-72066047D01*
X85406457Y-72066047D01*
X85025504Y-72399380D02*
X85025504Y-71399380D01*
X84644552Y-71399380D01*
X84549314Y-71447000D01*
X84501695Y-71494619D01*
X84454076Y-71589857D01*
X84454076Y-71732714D01*
X84501695Y-71827952D01*
X84549314Y-71875571D01*
X84644552Y-71923190D01*
X85025504Y-71923190D01*
X102596933Y-73382714D02*
X102596933Y-74049380D01*
X102835028Y-73001761D02*
X103073123Y-73716047D01*
X102454076Y-73716047D01*
X101311219Y-74049380D02*
X101311219Y-73382714D01*
X101311219Y-73573190D02*
X101263600Y-73477952D01*
X101215980Y-73430333D01*
X101120742Y-73382714D01*
X101025504Y-73382714D01*
X100311219Y-74001761D02*
X100406457Y-74049380D01*
X100596933Y-74049380D01*
X100692171Y-74001761D01*
X100739790Y-73906523D01*
X100739790Y-73525571D01*
X100692171Y-73430333D01*
X100596933Y-73382714D01*
X100406457Y-73382714D01*
X100311219Y-73430333D01*
X100263600Y-73525571D01*
X100263600Y-73620809D01*
X100739790Y-73716047D01*
X99692171Y-74049380D02*
X99787409Y-74001761D01*
X99835028Y-73906523D01*
X99835028Y-73049380D01*
X98882647Y-74049380D02*
X98882647Y-73525571D01*
X98930266Y-73430333D01*
X99025504Y-73382714D01*
X99215980Y-73382714D01*
X99311219Y-73430333D01*
X98882647Y-74001761D02*
X98977885Y-74049380D01*
X99215980Y-74049380D01*
X99311219Y-74001761D01*
X99358838Y-73906523D01*
X99358838Y-73811285D01*
X99311219Y-73716047D01*
X99215980Y-73668428D01*
X98977885Y-73668428D01*
X98882647Y-73620809D01*
X98501695Y-73382714D02*
X98263600Y-74049380D01*
X98025504Y-73382714D02*
X98263600Y-74049380D01*
X98358838Y-74287476D01*
X98406457Y-74335095D01*
X98501695Y-74382714D01*
X96454076Y-74049380D02*
X96454076Y-73049380D01*
X96454076Y-74001761D02*
X96549314Y-74049380D01*
X96739790Y-74049380D01*
X96835028Y-74001761D01*
X96882647Y-73954142D01*
X96930266Y-73858904D01*
X96930266Y-73573190D01*
X96882647Y-73477952D01*
X96835028Y-73430333D01*
X96739790Y-73382714D01*
X96549314Y-73382714D01*
X96454076Y-73430333D01*
X95977885Y-74049380D02*
X95977885Y-73382714D01*
X95977885Y-73573190D02*
X95930266Y-73477952D01*
X95882647Y-73430333D01*
X95787409Y-73382714D01*
X95692171Y-73382714D01*
X95358838Y-74049380D02*
X95358838Y-73382714D01*
X95358838Y-73049380D02*
X95406457Y-73097000D01*
X95358838Y-73144619D01*
X95311219Y-73097000D01*
X95358838Y-73049380D01*
X95358838Y-73144619D01*
X94977885Y-73382714D02*
X94739790Y-74049380D01*
X94501695Y-73382714D01*
X93739790Y-74001761D02*
X93835028Y-74049380D01*
X94025504Y-74049380D01*
X94120742Y-74001761D01*
X94168361Y-73906523D01*
X94168361Y-73525571D01*
X94120742Y-73430333D01*
X94025504Y-73382714D01*
X93835028Y-73382714D01*
X93739790Y-73430333D01*
X93692171Y-73525571D01*
X93692171Y-73620809D01*
X94168361Y-73716047D01*
X93263600Y-74049380D02*
X93263600Y-73382714D01*
X93263600Y-73573190D02*
X93215980Y-73477952D01*
X93168361Y-73430333D01*
X93073123Y-73382714D01*
X92977885Y-73382714D01*
X92692171Y-74001761D02*
X92596933Y-74049380D01*
X92406457Y-74049380D01*
X92311219Y-74001761D01*
X92263600Y-73906523D01*
X92263600Y-73858904D01*
X92311219Y-73763666D01*
X92406457Y-73716047D01*
X92549314Y-73716047D01*
X92644552Y-73668428D01*
X92692171Y-73573190D01*
X92692171Y-73525571D01*
X92644552Y-73430333D01*
X92549314Y-73382714D01*
X92406457Y-73382714D01*
X92311219Y-73430333D01*
X91787409Y-74001761D02*
X91787409Y-74049380D01*
X91835028Y-74144619D01*
X91882647Y-74192238D01*
X90120742Y-73049380D02*
X90596933Y-73049380D01*
X90644552Y-73525571D01*
X90596933Y-73477952D01*
X90501695Y-73430333D01*
X90263600Y-73430333D01*
X90168361Y-73477952D01*
X90120742Y-73525571D01*
X90073123Y-73620809D01*
X90073123Y-73858904D01*
X90120742Y-73954142D01*
X90168361Y-74001761D01*
X90263600Y-74049380D01*
X90501695Y-74049380D01*
X90596933Y-74001761D01*
X90644552Y-73954142D01*
X88882647Y-73382714D02*
X88882647Y-74382714D01*
X88882647Y-73430333D02*
X88787409Y-73382714D01*
X88596933Y-73382714D01*
X88501695Y-73430333D01*
X88454076Y-73477952D01*
X88406457Y-73573190D01*
X88406457Y-73858904D01*
X88454076Y-73954142D01*
X88501695Y-74001761D01*
X88596933Y-74049380D01*
X88787409Y-74049380D01*
X88882647Y-74001761D01*
X87977885Y-74049380D02*
X87977885Y-73382714D01*
X87977885Y-73573190D02*
X87930266Y-73477952D01*
X87882647Y-73430333D01*
X87787409Y-73382714D01*
X87692171Y-73382714D01*
X86977885Y-74001761D02*
X87073123Y-74049380D01*
X87263600Y-74049380D01*
X87358838Y-74001761D01*
X87406457Y-73906523D01*
X87406457Y-73525571D01*
X87358838Y-73430333D01*
X87263600Y-73382714D01*
X87073123Y-73382714D01*
X86977885Y-73430333D01*
X86930266Y-73525571D01*
X86930266Y-73620809D01*
X87406457Y-73716047D01*
X86549314Y-74001761D02*
X86454076Y-74049380D01*
X86263600Y-74049380D01*
X86168361Y-74001761D01*
X86120742Y-73906523D01*
X86120742Y-73858904D01*
X86168361Y-73763666D01*
X86263600Y-73716047D01*
X86406457Y-73716047D01*
X86501695Y-73668428D01*
X86549314Y-73573190D01*
X86549314Y-73525571D01*
X86501695Y-73430333D01*
X86406457Y-73382714D01*
X86263600Y-73382714D01*
X86168361Y-73430333D01*
X85739790Y-74001761D02*
X85644552Y-74049380D01*
X85454076Y-74049380D01*
X85358838Y-74001761D01*
X85311219Y-73906523D01*
X85311219Y-73858904D01*
X85358838Y-73763666D01*
X85454076Y-73716047D01*
X85596933Y-73716047D01*
X85692171Y-73668428D01*
X85739790Y-73573190D01*
X85739790Y-73525571D01*
X85692171Y-73430333D01*
X85596933Y-73382714D01*
X85454076Y-73382714D01*
X85358838Y-73430333D01*
X84454076Y-73382714D02*
X84454076Y-74049380D01*
X84882647Y-73382714D02*
X84882647Y-73906523D01*
X84835028Y-74001761D01*
X84739790Y-74049380D01*
X84596933Y-74049380D01*
X84501695Y-74001761D01*
X84454076Y-73954142D01*
X83977885Y-74049380D02*
X83977885Y-73382714D01*
X83977885Y-73573190D02*
X83930266Y-73477952D01*
X83882647Y-73430333D01*
X83787409Y-73382714D01*
X83692171Y-73382714D01*
X82977885Y-74001761D02*
X83073123Y-74049380D01*
X83263600Y-74049380D01*
X83358838Y-74001761D01*
X83406457Y-73906523D01*
X83406457Y-73525571D01*
X83358838Y-73430333D01*
X83263600Y-73382714D01*
X83073123Y-73382714D01*
X82977885Y-73430333D01*
X82930266Y-73525571D01*
X82930266Y-73620809D01*
X83406457Y-73716047D01*
X81787409Y-74001761D02*
X81692171Y-74049380D01*
X81501695Y-74049380D01*
X81406457Y-74001761D01*
X81358838Y-73906523D01*
X81358838Y-73858904D01*
X81406457Y-73763666D01*
X81501695Y-73716047D01*
X81644552Y-73716047D01*
X81739790Y-73668428D01*
X81787409Y-73573190D01*
X81787409Y-73525571D01*
X81739790Y-73430333D01*
X81644552Y-73382714D01*
X81501695Y-73382714D01*
X81406457Y-73430333D01*
X80549314Y-74001761D02*
X80644552Y-74049380D01*
X80835028Y-74049380D01*
X80930266Y-74001761D01*
X80977885Y-73906523D01*
X80977885Y-73525571D01*
X80930266Y-73430333D01*
X80835028Y-73382714D01*
X80644552Y-73382714D01*
X80549314Y-73430333D01*
X80501695Y-73525571D01*
X80501695Y-73620809D01*
X80977885Y-73716047D01*
X80073123Y-73382714D02*
X80073123Y-74049380D01*
X80073123Y-73477952D02*
X80025504Y-73430333D01*
X79930266Y-73382714D01*
X79787409Y-73382714D01*
X79692171Y-73430333D01*
X79644552Y-73525571D01*
X79644552Y-74049380D01*
X79215980Y-74001761D02*
X79120742Y-74049380D01*
X78930266Y-74049380D01*
X78835028Y-74001761D01*
X78787409Y-73906523D01*
X78787409Y-73858904D01*
X78835028Y-73763666D01*
X78930266Y-73716047D01*
X79073123Y-73716047D01*
X79168361Y-73668428D01*
X79215980Y-73573190D01*
X79215980Y-73525571D01*
X79168361Y-73430333D01*
X79073123Y-73382714D01*
X78930266Y-73382714D01*
X78835028Y-73430333D01*
X78215980Y-74049380D02*
X78311219Y-74001761D01*
X78358838Y-73954142D01*
X78406457Y-73858904D01*
X78406457Y-73573190D01*
X78358838Y-73477952D01*
X78311219Y-73430333D01*
X78215980Y-73382714D01*
X78073123Y-73382714D01*
X77977885Y-73430333D01*
X77930266Y-73477952D01*
X77882647Y-73573190D01*
X77882647Y-73858904D01*
X77930266Y-73954142D01*
X77977885Y-74001761D01*
X78073123Y-74049380D01*
X78215980Y-74049380D01*
X77454076Y-74049380D02*
X77454076Y-73382714D01*
X77454076Y-73573190D02*
X77406457Y-73477952D01*
X77358838Y-73430333D01*
X77263600Y-73382714D01*
X77168361Y-73382714D01*
X76882647Y-74001761D02*
X76787409Y-74049380D01*
X76596933Y-74049380D01*
X76501695Y-74001761D01*
X76454076Y-73906523D01*
X76454076Y-73858904D01*
X76501695Y-73763666D01*
X76596933Y-73716047D01*
X76739790Y-73716047D01*
X76835028Y-73668428D01*
X76882647Y-73573190D01*
X76882647Y-73525571D01*
X76835028Y-73430333D01*
X76739790Y-73382714D01*
X76596933Y-73382714D01*
X76501695Y-73430333D01*
X98882647Y-74794619D02*
X98835028Y-74747000D01*
X98739790Y-74699380D01*
X98501695Y-74699380D01*
X98406457Y-74747000D01*
X98358838Y-74794619D01*
X98311219Y-74889857D01*
X98311219Y-74985095D01*
X98358838Y-75127952D01*
X98930266Y-75699380D01*
X98311219Y-75699380D01*
X97263600Y-75032714D02*
X96882647Y-75032714D01*
X97120742Y-75699380D02*
X97120742Y-74842238D01*
X97073123Y-74747000D01*
X96977885Y-74699380D01*
X96882647Y-74699380D01*
X96406457Y-75699380D02*
X96501695Y-75651761D01*
X96549314Y-75556523D01*
X96549314Y-74699380D01*
X95882647Y-75699380D02*
X95977885Y-75651761D01*
X96025504Y-75604142D01*
X96073123Y-75508904D01*
X96073123Y-75223190D01*
X96025504Y-75127952D01*
X95977885Y-75080333D01*
X95882647Y-75032714D01*
X95739790Y-75032714D01*
X95644552Y-75080333D01*
X95596933Y-75127952D01*
X95549314Y-75223190D01*
X95549314Y-75508904D01*
X95596933Y-75604142D01*
X95644552Y-75651761D01*
X95739790Y-75699380D01*
X95882647Y-75699380D01*
X95215980Y-75032714D02*
X95025504Y-75699380D01*
X94835028Y-75223190D01*
X94644552Y-75699380D01*
X94454076Y-75032714D01*
X93358838Y-75651761D02*
X93263600Y-75699380D01*
X93073123Y-75699380D01*
X92977885Y-75651761D01*
X92930266Y-75556523D01*
X92930266Y-75508904D01*
X92977885Y-75413666D01*
X93073123Y-75366047D01*
X93215980Y-75366047D01*
X93311219Y-75318428D01*
X93358838Y-75223190D01*
X93358838Y-75175571D01*
X93311219Y-75080333D01*
X93215980Y-75032714D01*
X93073123Y-75032714D01*
X92977885Y-75080333D01*
X92120742Y-75651761D02*
X92215980Y-75699380D01*
X92406457Y-75699380D01*
X92501695Y-75651761D01*
X92549314Y-75556523D01*
X92549314Y-75175571D01*
X92501695Y-75080333D01*
X92406457Y-75032714D01*
X92215980Y-75032714D01*
X92120742Y-75080333D01*
X92073123Y-75175571D01*
X92073123Y-75270809D01*
X92549314Y-75366047D01*
X91644552Y-75032714D02*
X91644552Y-75699380D01*
X91644552Y-75127952D02*
X91596933Y-75080333D01*
X91501695Y-75032714D01*
X91358838Y-75032714D01*
X91263600Y-75080333D01*
X91215980Y-75175571D01*
X91215980Y-75699380D01*
X90787409Y-75651761D02*
X90692171Y-75699380D01*
X90501695Y-75699380D01*
X90406457Y-75651761D01*
X90358838Y-75556523D01*
X90358838Y-75508904D01*
X90406457Y-75413666D01*
X90501695Y-75366047D01*
X90644552Y-75366047D01*
X90739790Y-75318428D01*
X90787409Y-75223190D01*
X90787409Y-75175571D01*
X90739790Y-75080333D01*
X90644552Y-75032714D01*
X90501695Y-75032714D01*
X90406457Y-75080333D01*
X89787409Y-75699380D02*
X89882647Y-75651761D01*
X89930266Y-75604142D01*
X89977885Y-75508904D01*
X89977885Y-75223190D01*
X89930266Y-75127952D01*
X89882647Y-75080333D01*
X89787409Y-75032714D01*
X89644552Y-75032714D01*
X89549314Y-75080333D01*
X89501695Y-75127952D01*
X89454076Y-75223190D01*
X89454076Y-75508904D01*
X89501695Y-75604142D01*
X89549314Y-75651761D01*
X89644552Y-75699380D01*
X89787409Y-75699380D01*
X89025504Y-75699380D02*
X89025504Y-75032714D01*
X89025504Y-75223190D02*
X88977885Y-75127952D01*
X88930266Y-75080333D01*
X88835028Y-75032714D01*
X88739790Y-75032714D01*
X87644552Y-75699380D02*
X87644552Y-75032714D01*
X87644552Y-74699380D02*
X87692171Y-74747000D01*
X87644552Y-74794619D01*
X87596933Y-74747000D01*
X87644552Y-74699380D01*
X87644552Y-74794619D01*
X87168361Y-75032714D02*
X87168361Y-75699380D01*
X87168361Y-75127952D02*
X87120742Y-75080333D01*
X87025504Y-75032714D01*
X86882647Y-75032714D01*
X86787409Y-75080333D01*
X86739790Y-75175571D01*
X86739790Y-75699380D01*
X86406457Y-75032714D02*
X86025504Y-75032714D01*
X86263600Y-74699380D02*
X86263600Y-75556523D01*
X86215980Y-75651761D01*
X86120742Y-75699380D01*
X86025504Y-75699380D01*
X85311219Y-75651761D02*
X85406457Y-75699380D01*
X85596933Y-75699380D01*
X85692171Y-75651761D01*
X85739790Y-75556523D01*
X85739790Y-75175571D01*
X85692171Y-75080333D01*
X85596933Y-75032714D01*
X85406457Y-75032714D01*
X85311219Y-75080333D01*
X85263600Y-75175571D01*
X85263600Y-75270809D01*
X85739790Y-75366047D01*
X84835028Y-75699380D02*
X84835028Y-75032714D01*
X84835028Y-75223190D02*
X84787409Y-75127952D01*
X84739790Y-75080333D01*
X84644552Y-75032714D01*
X84549314Y-75032714D01*
X84358838Y-75032714D02*
X83977885Y-75032714D01*
X84215980Y-75699380D02*
X84215980Y-74842238D01*
X84168361Y-74747000D01*
X84073123Y-74699380D01*
X83977885Y-74699380D01*
X83215980Y-75699380D02*
X83215980Y-75175571D01*
X83263600Y-75080333D01*
X83358838Y-75032714D01*
X83549314Y-75032714D01*
X83644552Y-75080333D01*
X83215980Y-75651761D02*
X83311219Y-75699380D01*
X83549314Y-75699380D01*
X83644552Y-75651761D01*
X83692171Y-75556523D01*
X83692171Y-75461285D01*
X83644552Y-75366047D01*
X83549314Y-75318428D01*
X83311219Y-75318428D01*
X83215980Y-75270809D01*
X82311219Y-75651761D02*
X82406457Y-75699380D01*
X82596933Y-75699380D01*
X82692171Y-75651761D01*
X82739790Y-75604142D01*
X82787409Y-75508904D01*
X82787409Y-75223190D01*
X82739790Y-75127952D01*
X82692171Y-75080333D01*
X82596933Y-75032714D01*
X82406457Y-75032714D01*
X82311219Y-75080333D01*
X81501695Y-75651761D02*
X81596933Y-75699380D01*
X81787409Y-75699380D01*
X81882647Y-75651761D01*
X81930266Y-75556523D01*
X81930266Y-75175571D01*
X81882647Y-75080333D01*
X81787409Y-75032714D01*
X81596933Y-75032714D01*
X81501695Y-75080333D01*
X81454076Y-75175571D01*
X81454076Y-75270809D01*
X81930266Y-75366047D01*
X81073123Y-75651761D02*
X80977885Y-75699380D01*
X80787409Y-75699380D01*
X80692171Y-75651761D01*
X80644552Y-75556523D01*
X80644552Y-75508904D01*
X80692171Y-75413666D01*
X80787409Y-75366047D01*
X80930266Y-75366047D01*
X81025504Y-75318428D01*
X81073123Y-75223190D01*
X81073123Y-75175571D01*
X81025504Y-75080333D01*
X80930266Y-75032714D01*
X80787409Y-75032714D01*
X80692171Y-75080333D01*
X104049314Y-76349380D02*
X104049314Y-77158904D01*
X104001695Y-77254142D01*
X103954076Y-77301761D01*
X103858838Y-77349380D01*
X103668361Y-77349380D01*
X103573123Y-77301761D01*
X103525504Y-77254142D01*
X103477885Y-77158904D01*
X103477885Y-76349380D01*
X103049314Y-77301761D02*
X102906457Y-77349380D01*
X102668361Y-77349380D01*
X102573123Y-77301761D01*
X102525504Y-77254142D01*
X102477885Y-77158904D01*
X102477885Y-77063666D01*
X102525504Y-76968428D01*
X102573123Y-76920809D01*
X102668361Y-76873190D01*
X102858838Y-76825571D01*
X102954076Y-76777952D01*
X103001695Y-76730333D01*
X103049314Y-76635095D01*
X103049314Y-76539857D01*
X103001695Y-76444619D01*
X102954076Y-76397000D01*
X102858838Y-76349380D01*
X102620742Y-76349380D01*
X102477885Y-76397000D01*
X101715980Y-76825571D02*
X101573123Y-76873190D01*
X101525504Y-76920809D01*
X101477885Y-77016047D01*
X101477885Y-77158904D01*
X101525504Y-77254142D01*
X101573123Y-77301761D01*
X101668361Y-77349380D01*
X102049314Y-77349380D01*
X102049314Y-76349380D01*
X101715980Y-76349380D01*
X101620742Y-76397000D01*
X101573123Y-76444619D01*
X101525504Y-76539857D01*
X101525504Y-76635095D01*
X101573123Y-76730333D01*
X101620742Y-76777952D01*
X101715980Y-76825571D01*
X102049314Y-76825571D01*
X101001695Y-77301761D02*
X101001695Y-77349380D01*
X101049314Y-77444619D01*
X101096933Y-77492238D01*
X99239790Y-77349380D02*
X99573123Y-76873190D01*
X99811219Y-77349380D02*
X99811219Y-76349380D01*
X99430266Y-76349380D01*
X99335028Y-76397000D01*
X99287409Y-76444619D01*
X99239790Y-76539857D01*
X99239790Y-76682714D01*
X99287409Y-76777952D01*
X99335028Y-76825571D01*
X99430266Y-76873190D01*
X99811219Y-76873190D01*
X98858838Y-77301761D02*
X98715980Y-77349380D01*
X98477885Y-77349380D01*
X98382647Y-77301761D01*
X98335028Y-77254142D01*
X98287409Y-77158904D01*
X98287409Y-77063666D01*
X98335028Y-76968428D01*
X98382647Y-76920809D01*
X98477885Y-76873190D01*
X98668361Y-76825571D01*
X98763600Y-76777952D01*
X98811219Y-76730333D01*
X98858838Y-76635095D01*
X98858838Y-76539857D01*
X98811219Y-76444619D01*
X98763600Y-76397000D01*
X98668361Y-76349380D01*
X98430266Y-76349380D01*
X98287409Y-76397000D01*
X97906457Y-76444619D02*
X97858838Y-76397000D01*
X97763600Y-76349380D01*
X97525504Y-76349380D01*
X97430266Y-76397000D01*
X97382647Y-76444619D01*
X97335028Y-76539857D01*
X97335028Y-76635095D01*
X97382647Y-76777952D01*
X97954076Y-77349380D01*
X97335028Y-77349380D01*
X97001695Y-76349380D02*
X96382647Y-76349380D01*
X96715980Y-76730333D01*
X96573123Y-76730333D01*
X96477885Y-76777952D01*
X96430266Y-76825571D01*
X96382647Y-76920809D01*
X96382647Y-77158904D01*
X96430266Y-77254142D01*
X96477885Y-77301761D01*
X96573123Y-77349380D01*
X96858838Y-77349380D01*
X96954076Y-77301761D01*
X97001695Y-77254142D01*
X96001695Y-76444619D02*
X95954076Y-76397000D01*
X95858838Y-76349380D01*
X95620742Y-76349380D01*
X95525504Y-76397000D01*
X95477885Y-76444619D01*
X95430266Y-76539857D01*
X95430266Y-76635095D01*
X95477885Y-76777952D01*
X96049314Y-77349380D01*
X95430266Y-77349380D01*
X94954076Y-77301761D02*
X94954076Y-77349380D01*
X95001695Y-77444619D01*
X95049314Y-77492238D01*
X93811219Y-77301761D02*
X93668361Y-77349380D01*
X93430266Y-77349380D01*
X93335028Y-77301761D01*
X93287409Y-77254142D01*
X93239790Y-77158904D01*
X93239790Y-77063666D01*
X93287409Y-76968428D01*
X93335028Y-76920809D01*
X93430266Y-76873190D01*
X93620742Y-76825571D01*
X93715980Y-76777952D01*
X93763600Y-76730333D01*
X93811219Y-76635095D01*
X93811219Y-76539857D01*
X93763600Y-76444619D01*
X93715980Y-76397000D01*
X93620742Y-76349380D01*
X93382647Y-76349380D01*
X93239790Y-76397000D01*
X92811219Y-77349380D02*
X92811219Y-76349380D01*
X92430266Y-76349380D01*
X92335028Y-76397000D01*
X92287409Y-76444619D01*
X92239790Y-76539857D01*
X92239790Y-76682714D01*
X92287409Y-76777952D01*
X92335028Y-76825571D01*
X92430266Y-76873190D01*
X92811219Y-76873190D01*
X91811219Y-77349380D02*
X91811219Y-76349380D01*
X91287409Y-77301761D02*
X91287409Y-77349380D01*
X91335028Y-77444619D01*
X91382647Y-77492238D01*
X90096933Y-77349380D02*
X90096933Y-76349380D01*
X89668361Y-76444619D02*
X89620742Y-76397000D01*
X89525504Y-76349380D01*
X89287409Y-76349380D01*
X89192171Y-76397000D01*
X89144552Y-76444619D01*
X89096933Y-76539857D01*
X89096933Y-76635095D01*
X89144552Y-76777952D01*
X89715980Y-77349380D01*
X89096933Y-77349380D01*
X88096933Y-77254142D02*
X88144552Y-77301761D01*
X88287409Y-77349380D01*
X88382647Y-77349380D01*
X88525504Y-77301761D01*
X88620742Y-77206523D01*
X88668361Y-77111285D01*
X88715980Y-76920809D01*
X88715980Y-76777952D01*
X88668361Y-76587476D01*
X88620742Y-76492238D01*
X88525504Y-76397000D01*
X88382647Y-76349380D01*
X88287409Y-76349380D01*
X88144552Y-76397000D01*
X88096933Y-76444619D01*
X87620742Y-77301761D02*
X87620742Y-77349380D01*
X87668361Y-77444619D01*
X87715980Y-77492238D01*
X86096933Y-76825571D02*
X85954076Y-76873190D01*
X85906457Y-76920809D01*
X85858838Y-77016047D01*
X85858838Y-77158904D01*
X85906457Y-77254142D01*
X85954076Y-77301761D01*
X86049314Y-77349380D01*
X86430266Y-77349380D01*
X86430266Y-76349380D01*
X86096933Y-76349380D01*
X86001695Y-76397000D01*
X85954076Y-76444619D01*
X85906457Y-76539857D01*
X85906457Y-76635095D01*
X85954076Y-76730333D01*
X86001695Y-76777952D01*
X86096933Y-76825571D01*
X86430266Y-76825571D01*
X85001695Y-77349380D02*
X85001695Y-76825571D01*
X85049314Y-76730333D01*
X85144552Y-76682714D01*
X85335028Y-76682714D01*
X85430266Y-76730333D01*
X85001695Y-77301761D02*
X85096933Y-77349380D01*
X85335028Y-77349380D01*
X85430266Y-77301761D01*
X85477885Y-77206523D01*
X85477885Y-77111285D01*
X85430266Y-77016047D01*
X85335028Y-76968428D01*
X85096933Y-76968428D01*
X85001695Y-76920809D01*
X84668361Y-76682714D02*
X84287409Y-76682714D01*
X84525504Y-76349380D02*
X84525504Y-77206523D01*
X84477885Y-77301761D01*
X84382647Y-77349380D01*
X84287409Y-77349380D01*
X84096933Y-76682714D02*
X83715980Y-76682714D01*
X83954076Y-76349380D02*
X83954076Y-77206523D01*
X83906457Y-77301761D01*
X83811219Y-77349380D01*
X83715980Y-77349380D01*
X83001695Y-77301761D02*
X83096933Y-77349380D01*
X83287409Y-77349380D01*
X83382647Y-77301761D01*
X83430266Y-77206523D01*
X83430266Y-76825571D01*
X83382647Y-76730333D01*
X83287409Y-76682714D01*
X83096933Y-76682714D01*
X83001695Y-76730333D01*
X82954076Y-76825571D01*
X82954076Y-76920809D01*
X83430266Y-77016047D01*
X82525504Y-77349380D02*
X82525504Y-76682714D01*
X82525504Y-76873190D02*
X82477885Y-76777952D01*
X82430266Y-76730333D01*
X82335028Y-76682714D01*
X82239790Y-76682714D01*
X82001695Y-76682714D02*
X81763600Y-77349380D01*
X81525504Y-76682714D02*
X81763600Y-77349380D01*
X81858838Y-77587476D01*
X81906457Y-77635095D01*
X82001695Y-77682714D01*
X80049314Y-76825571D02*
X79906457Y-76873190D01*
X79858838Y-76920809D01*
X79811219Y-77016047D01*
X79811219Y-77158904D01*
X79858838Y-77254142D01*
X79906457Y-77301761D01*
X80001695Y-77349380D01*
X80382647Y-77349380D01*
X80382647Y-76349380D01*
X80049314Y-76349380D01*
X79954076Y-76397000D01*
X79906457Y-76444619D01*
X79858838Y-76539857D01*
X79858838Y-76635095D01*
X79906457Y-76730333D01*
X79954076Y-76777952D01*
X80049314Y-76825571D01*
X80382647Y-76825571D01*
X78954076Y-77349380D02*
X78954076Y-76825571D01*
X79001695Y-76730333D01*
X79096933Y-76682714D01*
X79287409Y-76682714D01*
X79382647Y-76730333D01*
X78954076Y-77301761D02*
X79049314Y-77349380D01*
X79287409Y-77349380D01*
X79382647Y-77301761D01*
X79430266Y-77206523D01*
X79430266Y-77111285D01*
X79382647Y-77016047D01*
X79287409Y-76968428D01*
X79049314Y-76968428D01*
X78954076Y-76920809D01*
X78049314Y-77301761D02*
X78144552Y-77349380D01*
X78335028Y-77349380D01*
X78430266Y-77301761D01*
X78477885Y-77254142D01*
X78525504Y-77158904D01*
X78525504Y-76873190D01*
X78477885Y-76777952D01*
X78430266Y-76730333D01*
X78335028Y-76682714D01*
X78144552Y-76682714D01*
X78049314Y-76730333D01*
X77620742Y-77349380D02*
X77620742Y-76349380D01*
X77525504Y-76968428D02*
X77239790Y-77349380D01*
X77239790Y-76682714D02*
X77620742Y-77063666D01*
X76382647Y-76682714D02*
X76382647Y-77349380D01*
X76811219Y-76682714D02*
X76811219Y-77206523D01*
X76763600Y-77301761D01*
X76668361Y-77349380D01*
X76525504Y-77349380D01*
X76430266Y-77301761D01*
X76382647Y-77254142D01*
X75906457Y-76682714D02*
X75906457Y-77682714D01*
X75906457Y-76730333D02*
X75811219Y-76682714D01*
X75620742Y-76682714D01*
X75525504Y-76730333D01*
X75477885Y-76777952D01*
X75430266Y-76873190D01*
X75430266Y-77158904D01*
X75477885Y-77254142D01*
X75525504Y-77301761D01*
X75620742Y-77349380D01*
X75811219Y-77349380D01*
X75906457Y-77301761D01*
X102430266Y-78475571D02*
X102763600Y-78475571D01*
X102763600Y-78999380D02*
X102763600Y-77999380D01*
X102287409Y-77999380D01*
X101906457Y-78999380D02*
X101906457Y-78332714D01*
X101906457Y-78523190D02*
X101858838Y-78427952D01*
X101811219Y-78380333D01*
X101715980Y-78332714D01*
X101620742Y-78332714D01*
X101144552Y-78999380D02*
X101239790Y-78951761D01*
X101287409Y-78904142D01*
X101335028Y-78808904D01*
X101335028Y-78523190D01*
X101287409Y-78427952D01*
X101239790Y-78380333D01*
X101144552Y-78332714D01*
X101001695Y-78332714D01*
X100906457Y-78380333D01*
X100858838Y-78427952D01*
X100811219Y-78523190D01*
X100811219Y-78808904D01*
X100858838Y-78904142D01*
X100906457Y-78951761D01*
X101001695Y-78999380D01*
X101144552Y-78999380D01*
X100382647Y-78332714D02*
X100382647Y-78999380D01*
X100382647Y-78427952D02*
X100335028Y-78380333D01*
X100239790Y-78332714D01*
X100096933Y-78332714D01*
X100001695Y-78380333D01*
X99954076Y-78475571D01*
X99954076Y-78999380D01*
X99620742Y-78332714D02*
X99239790Y-78332714D01*
X99477885Y-77999380D02*
X99477885Y-78856523D01*
X99430266Y-78951761D01*
X99335028Y-78999380D01*
X99239790Y-78999380D01*
X97763600Y-78951761D02*
X97858838Y-78999380D01*
X98049314Y-78999380D01*
X98144552Y-78951761D01*
X98192171Y-78856523D01*
X98192171Y-78475571D01*
X98144552Y-78380333D01*
X98049314Y-78332714D01*
X97858838Y-78332714D01*
X97763600Y-78380333D01*
X97715980Y-78475571D01*
X97715980Y-78570809D01*
X98192171Y-78666047D01*
X97287409Y-78332714D02*
X97287409Y-78999380D01*
X97287409Y-78427952D02*
X97239790Y-78380333D01*
X97144552Y-78332714D01*
X97001695Y-78332714D01*
X96906457Y-78380333D01*
X96858838Y-78475571D01*
X96858838Y-78999380D01*
X95954076Y-78951761D02*
X96049314Y-78999380D01*
X96239790Y-78999380D01*
X96335028Y-78951761D01*
X96382647Y-78904142D01*
X96430266Y-78808904D01*
X96430266Y-78523190D01*
X96382647Y-78427952D01*
X96335028Y-78380333D01*
X96239790Y-78332714D01*
X96049314Y-78332714D01*
X95954076Y-78380333D01*
X95382647Y-78999380D02*
X95477885Y-78951761D01*
X95525504Y-78904142D01*
X95573123Y-78808904D01*
X95573123Y-78523190D01*
X95525504Y-78427952D01*
X95477885Y-78380333D01*
X95382647Y-78332714D01*
X95239790Y-78332714D01*
X95144552Y-78380333D01*
X95096933Y-78427952D01*
X95049314Y-78523190D01*
X95049314Y-78808904D01*
X95096933Y-78904142D01*
X95144552Y-78951761D01*
X95239790Y-78999380D01*
X95382647Y-78999380D01*
X94192171Y-78999380D02*
X94192171Y-77999380D01*
X94192171Y-78951761D02*
X94287409Y-78999380D01*
X94477885Y-78999380D01*
X94573123Y-78951761D01*
X94620742Y-78904142D01*
X94668361Y-78808904D01*
X94668361Y-78523190D01*
X94620742Y-78427952D01*
X94573123Y-78380333D01*
X94477885Y-78332714D01*
X94287409Y-78332714D01*
X94192171Y-78380333D01*
X93335028Y-78951761D02*
X93430266Y-78999380D01*
X93620742Y-78999380D01*
X93715980Y-78951761D01*
X93763600Y-78856523D01*
X93763600Y-78475571D01*
X93715980Y-78380333D01*
X93620742Y-78332714D01*
X93430266Y-78332714D01*
X93335028Y-78380333D01*
X93287409Y-78475571D01*
X93287409Y-78570809D01*
X93763600Y-78666047D01*
X92858838Y-78999380D02*
X92858838Y-78332714D01*
X92858838Y-78523190D02*
X92811219Y-78427952D01*
X92763600Y-78380333D01*
X92668361Y-78332714D01*
X92573123Y-78332714D01*
X92287409Y-78951761D02*
X92192171Y-78999380D01*
X92001695Y-78999380D01*
X91906457Y-78951761D01*
X91858838Y-78856523D01*
X91858838Y-78808904D01*
X91906457Y-78713666D01*
X92001695Y-78666047D01*
X92144552Y-78666047D01*
X92239790Y-78618428D01*
X92287409Y-78523190D01*
X92287409Y-78475571D01*
X92239790Y-78380333D01*
X92144552Y-78332714D01*
X92001695Y-78332714D01*
X91906457Y-78380333D01*
X90239790Y-78999380D02*
X90239790Y-78475571D01*
X90287409Y-78380333D01*
X90382647Y-78332714D01*
X90573123Y-78332714D01*
X90668361Y-78380333D01*
X90239790Y-78951761D02*
X90335028Y-78999380D01*
X90573123Y-78999380D01*
X90668361Y-78951761D01*
X90715980Y-78856523D01*
X90715980Y-78761285D01*
X90668361Y-78666047D01*
X90573123Y-78618428D01*
X90335028Y-78618428D01*
X90239790Y-78570809D01*
X89763600Y-78332714D02*
X89763600Y-78999380D01*
X89763600Y-78427952D02*
X89715980Y-78380333D01*
X89620742Y-78332714D01*
X89477885Y-78332714D01*
X89382647Y-78380333D01*
X89335028Y-78475571D01*
X89335028Y-78999380D01*
X88430266Y-78999380D02*
X88430266Y-77999380D01*
X88430266Y-78951761D02*
X88525504Y-78999380D01*
X88715980Y-78999380D01*
X88811219Y-78951761D01*
X88858838Y-78904142D01*
X88906457Y-78808904D01*
X88906457Y-78523190D01*
X88858838Y-78427952D01*
X88811219Y-78380333D01*
X88715980Y-78332714D01*
X88525504Y-78332714D01*
X88430266Y-78380333D01*
X87239790Y-78951761D02*
X87144552Y-78999380D01*
X86954076Y-78999380D01*
X86858838Y-78951761D01*
X86811219Y-78856523D01*
X86811219Y-78808904D01*
X86858838Y-78713666D01*
X86954076Y-78666047D01*
X87096933Y-78666047D01*
X87192171Y-78618428D01*
X87239790Y-78523190D01*
X87239790Y-78475571D01*
X87192171Y-78380333D01*
X87096933Y-78332714D01*
X86954076Y-78332714D01*
X86858838Y-78380333D01*
X86477885Y-78332714D02*
X86287409Y-78999380D01*
X86096933Y-78523190D01*
X85906457Y-78999380D01*
X85715980Y-78332714D01*
X85335028Y-78999380D02*
X85335028Y-78332714D01*
X85335028Y-77999380D02*
X85382647Y-78047000D01*
X85335028Y-78094619D01*
X85287409Y-78047000D01*
X85335028Y-77999380D01*
X85335028Y-78094619D01*
X85001695Y-78332714D02*
X84620742Y-78332714D01*
X84858838Y-77999380D02*
X84858838Y-78856523D01*
X84811219Y-78951761D01*
X84715980Y-78999380D01*
X84620742Y-78999380D01*
X83858838Y-78951761D02*
X83954076Y-78999380D01*
X84144552Y-78999380D01*
X84239790Y-78951761D01*
X84287409Y-78904142D01*
X84335028Y-78808904D01*
X84335028Y-78523190D01*
X84287409Y-78427952D01*
X84239790Y-78380333D01*
X84144552Y-78332714D01*
X83954076Y-78332714D01*
X83858838Y-78380333D01*
X83430266Y-78999380D02*
X83430266Y-77999380D01*
X83001695Y-78999380D02*
X83001695Y-78475571D01*
X83049314Y-78380333D01*
X83144552Y-78332714D01*
X83287409Y-78332714D01*
X83382647Y-78380333D01*
X83430266Y-78427952D01*
X82477885Y-78951761D02*
X82477885Y-78999380D01*
X82525504Y-79094619D01*
X82573123Y-79142238D01*
X80954076Y-78475571D02*
X80811219Y-78523190D01*
X80763600Y-78570809D01*
X80715980Y-78666047D01*
X80715980Y-78808904D01*
X80763600Y-78904142D01*
X80811219Y-78951761D01*
X80906457Y-78999380D01*
X81287409Y-78999380D01*
X81287409Y-77999380D01*
X80954076Y-77999380D01*
X80858838Y-78047000D01*
X80811219Y-78094619D01*
X80763600Y-78189857D01*
X80763600Y-78285095D01*
X80811219Y-78380333D01*
X80858838Y-78427952D01*
X80954076Y-78475571D01*
X81287409Y-78475571D01*
X79858838Y-78332714D02*
X79858838Y-78999380D01*
X80287409Y-78332714D02*
X80287409Y-78856523D01*
X80239790Y-78951761D01*
X80144552Y-78999380D01*
X80001695Y-78999380D01*
X79906457Y-78951761D01*
X79858838Y-78904142D01*
X79477885Y-78332714D02*
X78954076Y-78332714D01*
X79477885Y-78999380D01*
X78954076Y-78999380D01*
X78668361Y-78332714D02*
X78144552Y-78332714D01*
X78668361Y-78999380D01*
X78144552Y-78999380D01*
X77382647Y-78951761D02*
X77477885Y-78999380D01*
X77668361Y-78999380D01*
X77763600Y-78951761D01*
X77811219Y-78856523D01*
X77811219Y-78475571D01*
X77763600Y-78380333D01*
X77668361Y-78332714D01*
X77477885Y-78332714D01*
X77382647Y-78380333D01*
X77335028Y-78475571D01*
X77335028Y-78570809D01*
X77811219Y-78666047D01*
X76906457Y-78999380D02*
X76906457Y-78332714D01*
X76906457Y-78523190D02*
X76858838Y-78427952D01*
X76811219Y-78380333D01*
X76715980Y-78332714D01*
X76620742Y-78332714D01*
D11*
X107985000Y-95953600D02*
X107985000Y-95453600D01*
X107285000Y-95953600D02*
X107985000Y-95953600D01*
X107985000Y-82303600D02*
X107185000Y-82303600D01*
X107985000Y-82878600D02*
X107985000Y-82303600D01*
X95235000Y-95953600D02*
X95235000Y-95278600D01*
X96085000Y-95953600D02*
X95235000Y-95953600D01*
X95235000Y-82303600D02*
X95235000Y-82978600D01*
X96185000Y-82303600D02*
X95235000Y-82303600D01*
D12*
X89024000Y-35823400D02*
X91824000Y-35823400D01*
X91824000Y-35823400D02*
X91824000Y-33823400D01*
X91824000Y-33823400D02*
X89024000Y-33823400D01*
X89024000Y-33823400D02*
X89024000Y-35823400D01*
X70142800Y-30673800D02*
X67342800Y-30673800D01*
X67342800Y-30673800D02*
X67342800Y-32673800D01*
X67342800Y-32673800D02*
X70142800Y-32673800D01*
X70142800Y-32673800D02*
X70142800Y-30673800D01*
X89114000Y-32902400D02*
X91914000Y-32902400D01*
X91914000Y-32902400D02*
X91914000Y-30902400D01*
X91914000Y-30902400D02*
X89114000Y-30902400D01*
X89114000Y-30902400D02*
X89114000Y-32902400D01*
X70157800Y-33696400D02*
X67357800Y-33696400D01*
X67357800Y-33696400D02*
X67357800Y-35696400D01*
X67357800Y-35696400D02*
X70157800Y-35696400D01*
X70157800Y-35696400D02*
X70157800Y-33696400D01*
X122230000Y-43345000D02*
X122230000Y-40005000D01*
X110180000Y-43345000D02*
X122230000Y-43345000D01*
X110180000Y-39205000D02*
X110180000Y-43345000D01*
X121430000Y-39205000D02*
X110180000Y-39205000D01*
X122230000Y-40005000D02*
X121430000Y-39205000D01*
D11*
X123535000Y-95605000D02*
X123885000Y-95605000D01*
X123535000Y-95230000D02*
X123535000Y-95605000D01*
X123535000Y-82705000D02*
X123535000Y-83105000D01*
X123535000Y-82705000D02*
X123910000Y-82705000D01*
X130585000Y-82705000D02*
X130160000Y-82705000D01*
X130585000Y-82705000D02*
X130585000Y-83155000D01*
X130585000Y-95580000D02*
X130585000Y-95130000D01*
X130585000Y-95605000D02*
X130160000Y-95605000D01*
X82585000Y-95953600D02*
X82585000Y-95453600D01*
X81885000Y-95953600D02*
X82585000Y-95953600D01*
X82585000Y-82303600D02*
X81785000Y-82303600D01*
X82585000Y-82878600D02*
X82585000Y-82303600D01*
X69835000Y-95953600D02*
X69835000Y-95278600D01*
X70685000Y-95953600D02*
X69835000Y-95953600D01*
X69835000Y-82303600D02*
X69835000Y-82978600D01*
X70785000Y-82303600D02*
X69835000Y-82303600D01*
D10*
X76984123Y-113201580D02*
X76984123Y-113915866D01*
X77031742Y-114058723D01*
X77126980Y-114153961D01*
X77269838Y-114201580D01*
X77365076Y-114201580D01*
X75984123Y-114201580D02*
X76555552Y-114201580D01*
X76269838Y-114201580D02*
X76269838Y-113201580D01*
X76365076Y-113344438D01*
X76460314Y-113439676D01*
X76555552Y-113487295D01*
X75650790Y-113201580D02*
X74984123Y-113201580D01*
X75412695Y-114201580D01*
X102399285Y-98457171D02*
X102065952Y-98457171D01*
X101923095Y-98980980D02*
X102399285Y-98980980D01*
X102399285Y-97980980D01*
X101923095Y-97980980D01*
X101494523Y-98980980D02*
X101494523Y-97980980D01*
X100923095Y-98980980D01*
X100923095Y-97980980D01*
X100494523Y-98076219D02*
X100446904Y-98028600D01*
X100351666Y-97980980D01*
X100113571Y-97980980D01*
X100018333Y-98028600D01*
X99970714Y-98076219D01*
X99923095Y-98171457D01*
X99923095Y-98266695D01*
X99970714Y-98409552D01*
X100542142Y-98980980D01*
X99923095Y-98980980D01*
X94635533Y-34326580D02*
X94635533Y-35040866D01*
X94683152Y-35183723D01*
X94778390Y-35278961D01*
X94921247Y-35326580D01*
X95016485Y-35326580D01*
X94159342Y-35326580D02*
X94159342Y-34326580D01*
X93778390Y-34326580D01*
X93683152Y-34374200D01*
X93635533Y-34421819D01*
X93587914Y-34517057D01*
X93587914Y-34659914D01*
X93635533Y-34755152D01*
X93683152Y-34802771D01*
X93778390Y-34850390D01*
X94159342Y-34850390D01*
X93111723Y-35326580D02*
X92921247Y-35326580D01*
X92826009Y-35278961D01*
X92778390Y-35231342D01*
X92683152Y-35088485D01*
X92635533Y-34898009D01*
X92635533Y-34517057D01*
X92683152Y-34421819D01*
X92730771Y-34374200D01*
X92826009Y-34326580D01*
X93016485Y-34326580D01*
X93111723Y-34374200D01*
X93159342Y-34421819D01*
X93206961Y-34517057D01*
X93206961Y-34755152D01*
X93159342Y-34850390D01*
X93111723Y-34898009D01*
X93016485Y-34945628D01*
X92826009Y-34945628D01*
X92730771Y-34898009D01*
X92683152Y-34850390D01*
X92635533Y-34755152D01*
X66136733Y-31126180D02*
X66136733Y-31840466D01*
X66184352Y-31983323D01*
X66279590Y-32078561D01*
X66422447Y-32126180D01*
X66517685Y-32126180D01*
X65660542Y-32126180D02*
X65660542Y-31126180D01*
X65279590Y-31126180D01*
X65184352Y-31173800D01*
X65136733Y-31221419D01*
X65089114Y-31316657D01*
X65089114Y-31459514D01*
X65136733Y-31554752D01*
X65184352Y-31602371D01*
X65279590Y-31649990D01*
X65660542Y-31649990D01*
X64755780Y-31126180D02*
X64089114Y-31126180D01*
X64517685Y-32126180D01*
X94584733Y-31354780D02*
X94584733Y-32069066D01*
X94632352Y-32211923D01*
X94727590Y-32307161D01*
X94870447Y-32354780D01*
X94965685Y-32354780D01*
X94108542Y-32354780D02*
X94108542Y-31354780D01*
X93727590Y-31354780D01*
X93632352Y-31402400D01*
X93584733Y-31450019D01*
X93537114Y-31545257D01*
X93537114Y-31688114D01*
X93584733Y-31783352D01*
X93632352Y-31830971D01*
X93727590Y-31878590D01*
X94108542Y-31878590D01*
X92965685Y-31783352D02*
X93060923Y-31735733D01*
X93108542Y-31688114D01*
X93156161Y-31592876D01*
X93156161Y-31545257D01*
X93108542Y-31450019D01*
X93060923Y-31402400D01*
X92965685Y-31354780D01*
X92775209Y-31354780D01*
X92679971Y-31402400D01*
X92632352Y-31450019D01*
X92584733Y-31545257D01*
X92584733Y-31592876D01*
X92632352Y-31688114D01*
X92679971Y-31735733D01*
X92775209Y-31783352D01*
X92965685Y-31783352D01*
X93060923Y-31830971D01*
X93108542Y-31878590D01*
X93156161Y-31973828D01*
X93156161Y-32164304D01*
X93108542Y-32259542D01*
X93060923Y-32307161D01*
X92965685Y-32354780D01*
X92775209Y-32354780D01*
X92679971Y-32307161D01*
X92632352Y-32259542D01*
X92584733Y-32164304D01*
X92584733Y-31973828D01*
X92632352Y-31878590D01*
X92679971Y-31830971D01*
X92775209Y-31783352D01*
X66289133Y-34199580D02*
X66289133Y-34913866D01*
X66336752Y-35056723D01*
X66431990Y-35151961D01*
X66574847Y-35199580D01*
X66670085Y-35199580D01*
X65812942Y-35199580D02*
X65812942Y-34199580D01*
X65431990Y-34199580D01*
X65336752Y-34247200D01*
X65289133Y-34294819D01*
X65241514Y-34390057D01*
X65241514Y-34532914D01*
X65289133Y-34628152D01*
X65336752Y-34675771D01*
X65431990Y-34723390D01*
X65812942Y-34723390D01*
X64384371Y-34199580D02*
X64574847Y-34199580D01*
X64670085Y-34247200D01*
X64717704Y-34294819D01*
X64812942Y-34437676D01*
X64860561Y-34628152D01*
X64860561Y-35009104D01*
X64812942Y-35104342D01*
X64765323Y-35151961D01*
X64670085Y-35199580D01*
X64479609Y-35199580D01*
X64384371Y-35151961D01*
X64336752Y-35104342D01*
X64289133Y-35009104D01*
X64289133Y-34771009D01*
X64336752Y-34675771D01*
X64384371Y-34628152D01*
X64479609Y-34580533D01*
X64670085Y-34580533D01*
X64765323Y-34628152D01*
X64812942Y-34675771D01*
X64860561Y-34771009D01*
X121557895Y-37628580D02*
X121557895Y-38438104D01*
X121510276Y-38533342D01*
X121462657Y-38580961D01*
X121367419Y-38628580D01*
X121176942Y-38628580D01*
X121081704Y-38580961D01*
X121034085Y-38533342D01*
X120986466Y-38438104D01*
X120986466Y-37628580D01*
X119986466Y-38628580D02*
X120557895Y-38628580D01*
X120272180Y-38628580D02*
X120272180Y-37628580D01*
X120367419Y-37771438D01*
X120462657Y-37866676D01*
X120557895Y-37914295D01*
X119653133Y-37628580D02*
X119034085Y-37628580D01*
X119367419Y-38009533D01*
X119224561Y-38009533D01*
X119129323Y-38057152D01*
X119081704Y-38104771D01*
X119034085Y-38200009D01*
X119034085Y-38438104D01*
X119081704Y-38533342D01*
X119129323Y-38580961D01*
X119224561Y-38628580D01*
X119510276Y-38628580D01*
X119605514Y-38580961D01*
X119653133Y-38533342D01*
X128240933Y-81405361D02*
X128098076Y-81452980D01*
X127859980Y-81452980D01*
X127764742Y-81405361D01*
X127717123Y-81357742D01*
X127669504Y-81262504D01*
X127669504Y-81167266D01*
X127717123Y-81072028D01*
X127764742Y-81024409D01*
X127859980Y-80976790D01*
X128050457Y-80929171D01*
X128145695Y-80881552D01*
X128193314Y-80833933D01*
X128240933Y-80738695D01*
X128240933Y-80643457D01*
X128193314Y-80548219D01*
X128145695Y-80500600D01*
X128050457Y-80452980D01*
X127812361Y-80452980D01*
X127669504Y-80500600D01*
X127336171Y-80452980D02*
X127098076Y-81452980D01*
X126907600Y-80738695D01*
X126717123Y-81452980D01*
X126479028Y-80452980D01*
X125574266Y-81452980D02*
X126145695Y-81452980D01*
X125859980Y-81452980D02*
X125859980Y-80452980D01*
X125955219Y-80595838D01*
X126050457Y-80691076D01*
X126145695Y-80738695D01*
X76999285Y-98457171D02*
X76665952Y-98457171D01*
X76523095Y-98980980D02*
X76999285Y-98980980D01*
X76999285Y-97980980D01*
X76523095Y-97980980D01*
X76094523Y-98980980D02*
X76094523Y-97980980D01*
X75523095Y-98980980D01*
X75523095Y-97980980D01*
X74523095Y-98980980D02*
X75094523Y-98980980D01*
X74808809Y-98980980D02*
X74808809Y-97980980D01*
X74904047Y-98123838D01*
X74999285Y-98219076D01*
X75094523Y-98266695D01*
M02*
