G04 #@! TF.GenerationSoftware,KiCad,Pcbnew,(5.1.4-0-10_14)*
G04 #@! TF.CreationDate,2020-04-29T09:46:46-07:00*
G04 #@! TF.ProjectId,Vent,56656e74-2e6b-4696-9361-645f70636258,rev?*
G04 #@! TF.SameCoordinates,Original*
G04 #@! TF.FileFunction,Legend,Top*
G04 #@! TF.FilePolarity,Positive*
%FSLAX46Y46*%
G04 Gerber Fmt 4.6, Leading zero omitted, Abs format (unit mm)*
G04 Created by KiCad (PCBNEW (5.1.4-0-10_14)) date 2020-04-29 09:46:46*
%MOMM*%
%LPD*%
G04 APERTURE LIST*
%ADD10C,0.150000*%
%ADD11C,0.120000*%
%ADD12C,0.100000*%
G04 APERTURE END LIST*
D10*
X98194742Y-99658380D02*
X98528076Y-100658380D01*
X98861409Y-99658380D01*
X99575695Y-100610761D02*
X99480457Y-100658380D01*
X99289980Y-100658380D01*
X99194742Y-100610761D01*
X99147123Y-100515523D01*
X99147123Y-100134571D01*
X99194742Y-100039333D01*
X99289980Y-99991714D01*
X99480457Y-99991714D01*
X99575695Y-100039333D01*
X99623314Y-100134571D01*
X99623314Y-100229809D01*
X99147123Y-100325047D01*
X100051885Y-99991714D02*
X100051885Y-100658380D01*
X100051885Y-100086952D02*
X100099504Y-100039333D01*
X100194742Y-99991714D01*
X100337600Y-99991714D01*
X100432838Y-100039333D01*
X100480457Y-100134571D01*
X100480457Y-100658380D01*
X100813790Y-99991714D02*
X101194742Y-99991714D01*
X100956647Y-99658380D02*
X100956647Y-100515523D01*
X101004266Y-100610761D01*
X101099504Y-100658380D01*
X101194742Y-100658380D01*
X101528076Y-100658380D02*
X101528076Y-99991714D01*
X101528076Y-99658380D02*
X101480457Y-99706000D01*
X101528076Y-99753619D01*
X101575695Y-99706000D01*
X101528076Y-99658380D01*
X101528076Y-99753619D01*
X102147123Y-100658380D02*
X102051885Y-100610761D01*
X102004266Y-100515523D01*
X102004266Y-99658380D01*
X102956647Y-100658380D02*
X102956647Y-100134571D01*
X102909028Y-100039333D01*
X102813790Y-99991714D01*
X102623314Y-99991714D01*
X102528076Y-100039333D01*
X102956647Y-100610761D02*
X102861409Y-100658380D01*
X102623314Y-100658380D01*
X102528076Y-100610761D01*
X102480457Y-100515523D01*
X102480457Y-100420285D01*
X102528076Y-100325047D01*
X102623314Y-100277428D01*
X102861409Y-100277428D01*
X102956647Y-100229809D01*
X103289980Y-99991714D02*
X103670933Y-99991714D01*
X103432838Y-99658380D02*
X103432838Y-100515523D01*
X103480457Y-100610761D01*
X103575695Y-100658380D01*
X103670933Y-100658380D01*
X104147123Y-100658380D02*
X104051885Y-100610761D01*
X104004266Y-100563142D01*
X103956647Y-100467904D01*
X103956647Y-100182190D01*
X104004266Y-100086952D01*
X104051885Y-100039333D01*
X104147123Y-99991714D01*
X104289980Y-99991714D01*
X104385219Y-100039333D01*
X104432838Y-100086952D01*
X104480457Y-100182190D01*
X104480457Y-100467904D01*
X104432838Y-100563142D01*
X104385219Y-100610761D01*
X104289980Y-100658380D01*
X104147123Y-100658380D01*
X104909028Y-100658380D02*
X104909028Y-99991714D01*
X104909028Y-100182190D02*
X104956647Y-100086952D01*
X105004266Y-100039333D01*
X105099504Y-99991714D01*
X105194742Y-99991714D01*
X106861409Y-100563142D02*
X106813790Y-100610761D01*
X106670933Y-100658380D01*
X106575695Y-100658380D01*
X106432838Y-100610761D01*
X106337600Y-100515523D01*
X106289980Y-100420285D01*
X106242361Y-100229809D01*
X106242361Y-100086952D01*
X106289980Y-99896476D01*
X106337600Y-99801238D01*
X106432838Y-99706000D01*
X106575695Y-99658380D01*
X106670933Y-99658380D01*
X106813790Y-99706000D01*
X106861409Y-99753619D01*
X107432838Y-100658380D02*
X107337600Y-100610761D01*
X107289980Y-100563142D01*
X107242361Y-100467904D01*
X107242361Y-100182190D01*
X107289980Y-100086952D01*
X107337600Y-100039333D01*
X107432838Y-99991714D01*
X107575695Y-99991714D01*
X107670933Y-100039333D01*
X107718552Y-100086952D01*
X107766171Y-100182190D01*
X107766171Y-100467904D01*
X107718552Y-100563142D01*
X107670933Y-100610761D01*
X107575695Y-100658380D01*
X107432838Y-100658380D01*
X108194742Y-99991714D02*
X108194742Y-100658380D01*
X108194742Y-100086952D02*
X108242361Y-100039333D01*
X108337600Y-99991714D01*
X108480457Y-99991714D01*
X108575695Y-100039333D01*
X108623314Y-100134571D01*
X108623314Y-100658380D01*
X108956647Y-99991714D02*
X109337600Y-99991714D01*
X109099504Y-99658380D02*
X109099504Y-100515523D01*
X109147123Y-100610761D01*
X109242361Y-100658380D01*
X109337600Y-100658380D01*
X109670933Y-100658380D02*
X109670933Y-99991714D01*
X109670933Y-100182190D02*
X109718552Y-100086952D01*
X109766171Y-100039333D01*
X109861409Y-99991714D01*
X109956647Y-99991714D01*
X110432838Y-100658380D02*
X110337600Y-100610761D01*
X110289980Y-100563142D01*
X110242361Y-100467904D01*
X110242361Y-100182190D01*
X110289980Y-100086952D01*
X110337600Y-100039333D01*
X110432838Y-99991714D01*
X110575695Y-99991714D01*
X110670933Y-100039333D01*
X110718552Y-100086952D01*
X110766171Y-100182190D01*
X110766171Y-100467904D01*
X110718552Y-100563142D01*
X110670933Y-100610761D01*
X110575695Y-100658380D01*
X110432838Y-100658380D01*
X111337600Y-100658380D02*
X111242361Y-100610761D01*
X111194742Y-100515523D01*
X111194742Y-99658380D01*
X111861409Y-100658380D02*
X111766171Y-100610761D01*
X111718552Y-100515523D01*
X111718552Y-99658380D01*
X112623314Y-100610761D02*
X112528076Y-100658380D01*
X112337600Y-100658380D01*
X112242361Y-100610761D01*
X112194742Y-100515523D01*
X112194742Y-100134571D01*
X112242361Y-100039333D01*
X112337600Y-99991714D01*
X112528076Y-99991714D01*
X112623314Y-100039333D01*
X112670933Y-100134571D01*
X112670933Y-100229809D01*
X112194742Y-100325047D01*
X113099504Y-100658380D02*
X113099504Y-99991714D01*
X113099504Y-100182190D02*
X113147123Y-100086952D01*
X113194742Y-100039333D01*
X113289980Y-99991714D01*
X113385219Y-99991714D01*
X114813790Y-100134571D02*
X114956647Y-100182190D01*
X115004266Y-100229809D01*
X115051885Y-100325047D01*
X115051885Y-100467904D01*
X115004266Y-100563142D01*
X114956647Y-100610761D01*
X114861409Y-100658380D01*
X114480457Y-100658380D01*
X114480457Y-99658380D01*
X114813790Y-99658380D01*
X114909028Y-99706000D01*
X114956647Y-99753619D01*
X115004266Y-99848857D01*
X115004266Y-99944095D01*
X114956647Y-100039333D01*
X114909028Y-100086952D01*
X114813790Y-100134571D01*
X114480457Y-100134571D01*
X115623314Y-100658380D02*
X115528076Y-100610761D01*
X115480457Y-100563142D01*
X115432838Y-100467904D01*
X115432838Y-100182190D01*
X115480457Y-100086952D01*
X115528076Y-100039333D01*
X115623314Y-99991714D01*
X115766171Y-99991714D01*
X115861409Y-100039333D01*
X115909028Y-100086952D01*
X115956647Y-100182190D01*
X115956647Y-100467904D01*
X115909028Y-100563142D01*
X115861409Y-100610761D01*
X115766171Y-100658380D01*
X115623314Y-100658380D01*
X116813790Y-100658380D02*
X116813790Y-100134571D01*
X116766171Y-100039333D01*
X116670933Y-99991714D01*
X116480457Y-99991714D01*
X116385219Y-100039333D01*
X116813790Y-100610761D02*
X116718552Y-100658380D01*
X116480457Y-100658380D01*
X116385219Y-100610761D01*
X116337600Y-100515523D01*
X116337600Y-100420285D01*
X116385219Y-100325047D01*
X116480457Y-100277428D01*
X116718552Y-100277428D01*
X116813790Y-100229809D01*
X117289980Y-100658380D02*
X117289980Y-99991714D01*
X117289980Y-100182190D02*
X117337600Y-100086952D01*
X117385219Y-100039333D01*
X117480457Y-99991714D01*
X117575695Y-99991714D01*
X118337600Y-100658380D02*
X118337600Y-99658380D01*
X118337600Y-100610761D02*
X118242361Y-100658380D01*
X118051885Y-100658380D01*
X117956647Y-100610761D01*
X117909028Y-100563142D01*
X117861409Y-100467904D01*
X117861409Y-100182190D01*
X117909028Y-100086952D01*
X117956647Y-100039333D01*
X118051885Y-99991714D01*
X118242361Y-99991714D01*
X118337600Y-100039333D01*
X119432838Y-99658380D02*
X119766171Y-100658380D01*
X120099504Y-99658380D01*
X120385219Y-99753619D02*
X120432838Y-99706000D01*
X120528076Y-99658380D01*
X120766171Y-99658380D01*
X120861409Y-99706000D01*
X120909028Y-99753619D01*
X120956647Y-99848857D01*
X120956647Y-99944095D01*
X120909028Y-100086952D01*
X120337600Y-100658380D01*
X120956647Y-100658380D01*
X121385219Y-100563142D02*
X121432838Y-100610761D01*
X121385219Y-100658380D01*
X121337600Y-100610761D01*
X121385219Y-100563142D01*
X121385219Y-100658380D01*
X121813790Y-99753619D02*
X121861409Y-99706000D01*
X121956647Y-99658380D01*
X122194742Y-99658380D01*
X122289980Y-99706000D01*
X122337600Y-99753619D01*
X122385219Y-99848857D01*
X122385219Y-99944095D01*
X122337600Y-100086952D01*
X121766171Y-100658380D01*
X122385219Y-100658380D01*
X101051885Y-102689333D02*
X101004266Y-102641714D01*
X100909028Y-102498857D01*
X100861409Y-102403619D01*
X100813790Y-102260761D01*
X100766171Y-102022666D01*
X100766171Y-101832190D01*
X100813790Y-101594095D01*
X100861409Y-101451238D01*
X100909028Y-101356000D01*
X101004266Y-101213142D01*
X101051885Y-101165523D01*
X102004266Y-102213142D02*
X101956647Y-102260761D01*
X101813790Y-102308380D01*
X101718552Y-102308380D01*
X101575695Y-102260761D01*
X101480457Y-102165523D01*
X101432838Y-102070285D01*
X101385219Y-101879809D01*
X101385219Y-101736952D01*
X101432838Y-101546476D01*
X101480457Y-101451238D01*
X101575695Y-101356000D01*
X101718552Y-101308380D01*
X101813790Y-101308380D01*
X101956647Y-101356000D01*
X102004266Y-101403619D01*
X102337600Y-102689333D02*
X102385219Y-102641714D01*
X102480457Y-102498857D01*
X102528076Y-102403619D01*
X102575695Y-102260761D01*
X102623314Y-102022666D01*
X102623314Y-101832190D01*
X102575695Y-101594095D01*
X102528076Y-101451238D01*
X102480457Y-101356000D01*
X102385219Y-101213142D01*
X102337600Y-101165523D01*
X104194742Y-101784571D02*
X104337600Y-101832190D01*
X104385219Y-101879809D01*
X104432838Y-101975047D01*
X104432838Y-102117904D01*
X104385219Y-102213142D01*
X104337600Y-102260761D01*
X104242361Y-102308380D01*
X103861409Y-102308380D01*
X103861409Y-101308380D01*
X104194742Y-101308380D01*
X104289980Y-101356000D01*
X104337600Y-101403619D01*
X104385219Y-101498857D01*
X104385219Y-101594095D01*
X104337600Y-101689333D01*
X104289980Y-101736952D01*
X104194742Y-101784571D01*
X103861409Y-101784571D01*
X104861409Y-102308380D02*
X104861409Y-101641714D01*
X104861409Y-101308380D02*
X104813790Y-101356000D01*
X104861409Y-101403619D01*
X104909028Y-101356000D01*
X104861409Y-101308380D01*
X104861409Y-101403619D01*
X105480457Y-102308380D02*
X105385219Y-102260761D01*
X105337600Y-102165523D01*
X105337600Y-101308380D01*
X106004266Y-102308380D02*
X105909028Y-102260761D01*
X105861409Y-102165523D01*
X105861409Y-101308380D01*
X107147123Y-102308380D02*
X107147123Y-101308380D01*
X107385219Y-101308380D01*
X107528076Y-101356000D01*
X107623314Y-101451238D01*
X107670933Y-101546476D01*
X107718552Y-101736952D01*
X107718552Y-101879809D01*
X107670933Y-102070285D01*
X107623314Y-102165523D01*
X107528076Y-102260761D01*
X107385219Y-102308380D01*
X107147123Y-102308380D01*
X108575695Y-102308380D02*
X108575695Y-101784571D01*
X108528076Y-101689333D01*
X108432838Y-101641714D01*
X108242361Y-101641714D01*
X108147123Y-101689333D01*
X108575695Y-102260761D02*
X108480457Y-102308380D01*
X108242361Y-102308380D01*
X108147123Y-102260761D01*
X108099504Y-102165523D01*
X108099504Y-102070285D01*
X108147123Y-101975047D01*
X108242361Y-101927428D01*
X108480457Y-101927428D01*
X108575695Y-101879809D01*
X109194742Y-102308380D02*
X109099504Y-102260761D01*
X109051885Y-102165523D01*
X109051885Y-101308380D01*
X109718552Y-102308380D02*
X109623314Y-102260761D01*
X109575695Y-102165523D01*
X109575695Y-101308380D01*
X110004266Y-101641714D02*
X110242361Y-102308380D01*
X110480457Y-101641714D02*
X110242361Y-102308380D01*
X110147123Y-102546476D01*
X110099504Y-102594095D01*
X110004266Y-102641714D01*
X112051885Y-101641714D02*
X112051885Y-102308380D01*
X111813790Y-101260761D02*
X111575695Y-101975047D01*
X112194742Y-101975047D01*
X113289980Y-101260761D02*
X112432838Y-102546476D01*
X113575695Y-101403619D02*
X113623314Y-101356000D01*
X113718552Y-101308380D01*
X113956647Y-101308380D01*
X114051885Y-101356000D01*
X114099504Y-101403619D01*
X114147123Y-101498857D01*
X114147123Y-101594095D01*
X114099504Y-101736952D01*
X113528076Y-102308380D01*
X114147123Y-102308380D01*
X114623314Y-102308380D02*
X114813790Y-102308380D01*
X114909028Y-102260761D01*
X114956647Y-102213142D01*
X115051885Y-102070285D01*
X115099504Y-101879809D01*
X115099504Y-101498857D01*
X115051885Y-101403619D01*
X115004266Y-101356000D01*
X114909028Y-101308380D01*
X114718552Y-101308380D01*
X114623314Y-101356000D01*
X114575695Y-101403619D01*
X114528076Y-101498857D01*
X114528076Y-101736952D01*
X114575695Y-101832190D01*
X114623314Y-101879809D01*
X114718552Y-101927428D01*
X114909028Y-101927428D01*
X115004266Y-101879809D01*
X115051885Y-101832190D01*
X115099504Y-101736952D01*
X116242361Y-101260761D02*
X115385219Y-102546476D01*
X116528076Y-101403619D02*
X116575695Y-101356000D01*
X116670933Y-101308380D01*
X116909028Y-101308380D01*
X117004266Y-101356000D01*
X117051885Y-101403619D01*
X117099504Y-101498857D01*
X117099504Y-101594095D01*
X117051885Y-101736952D01*
X116480457Y-102308380D01*
X117099504Y-102308380D01*
X117718552Y-101308380D02*
X117813790Y-101308380D01*
X117909028Y-101356000D01*
X117956647Y-101403619D01*
X118004266Y-101498857D01*
X118051885Y-101689333D01*
X118051885Y-101927428D01*
X118004266Y-102117904D01*
X117956647Y-102213142D01*
X117909028Y-102260761D01*
X117813790Y-102308380D01*
X117718552Y-102308380D01*
X117623314Y-102260761D01*
X117575695Y-102213142D01*
X117528076Y-102117904D01*
X117480457Y-101927428D01*
X117480457Y-101689333D01*
X117528076Y-101498857D01*
X117575695Y-101403619D01*
X117623314Y-101356000D01*
X117718552Y-101308380D01*
X118432838Y-101403619D02*
X118480457Y-101356000D01*
X118575695Y-101308380D01*
X118813790Y-101308380D01*
X118909028Y-101356000D01*
X118956647Y-101403619D01*
X119004266Y-101498857D01*
X119004266Y-101594095D01*
X118956647Y-101736952D01*
X118385219Y-102308380D01*
X119004266Y-102308380D01*
X119623314Y-101308380D02*
X119718552Y-101308380D01*
X119813790Y-101356000D01*
X119861409Y-101403619D01*
X119909028Y-101498857D01*
X119956647Y-101689333D01*
X119956647Y-101927428D01*
X119909028Y-102117904D01*
X119861409Y-102213142D01*
X119813790Y-102260761D01*
X119718552Y-102308380D01*
X119623314Y-102308380D01*
X119528076Y-102260761D01*
X119480457Y-102213142D01*
X119432838Y-102117904D01*
X119385219Y-101927428D01*
X119385219Y-101689333D01*
X119432838Y-101498857D01*
X119480457Y-101403619D01*
X119528076Y-101356000D01*
X119623314Y-101308380D01*
X105028076Y-103672666D02*
X105504266Y-103672666D01*
X104932838Y-103958380D02*
X105266171Y-102958380D01*
X105599504Y-103958380D01*
X105789980Y-102958380D02*
X106361409Y-102958380D01*
X106075695Y-103958380D02*
X106075695Y-102958380D01*
X106694742Y-103958380D02*
X106694742Y-102958380D01*
X107028076Y-103672666D01*
X107361409Y-102958380D01*
X107361409Y-103958380D01*
X108218552Y-103910761D02*
X108123314Y-103958380D01*
X107932838Y-103958380D01*
X107837600Y-103910761D01*
X107789980Y-103815523D01*
X107789980Y-103434571D01*
X107837600Y-103339333D01*
X107932838Y-103291714D01*
X108123314Y-103291714D01*
X108218552Y-103339333D01*
X108266171Y-103434571D01*
X108266171Y-103529809D01*
X107789980Y-103625047D01*
X109123314Y-103291714D02*
X109123314Y-104101238D01*
X109075695Y-104196476D01*
X109028076Y-104244095D01*
X108932838Y-104291714D01*
X108789980Y-104291714D01*
X108694742Y-104244095D01*
X109123314Y-103910761D02*
X109028076Y-103958380D01*
X108837600Y-103958380D01*
X108742361Y-103910761D01*
X108694742Y-103863142D01*
X108647123Y-103767904D01*
X108647123Y-103482190D01*
X108694742Y-103386952D01*
X108742361Y-103339333D01*
X108837600Y-103291714D01*
X109028076Y-103291714D01*
X109123314Y-103339333D01*
X110028076Y-103958380D02*
X110028076Y-103434571D01*
X109980457Y-103339333D01*
X109885219Y-103291714D01*
X109694742Y-103291714D01*
X109599504Y-103339333D01*
X110028076Y-103910761D02*
X109932838Y-103958380D01*
X109694742Y-103958380D01*
X109599504Y-103910761D01*
X109551885Y-103815523D01*
X109551885Y-103720285D01*
X109599504Y-103625047D01*
X109694742Y-103577428D01*
X109932838Y-103577428D01*
X110028076Y-103529809D01*
X111789980Y-103958380D02*
X111218552Y-103958380D01*
X111504266Y-103958380D02*
X111504266Y-102958380D01*
X111409028Y-103101238D01*
X111313790Y-103196476D01*
X111218552Y-103244095D01*
X112170933Y-103053619D02*
X112218552Y-103006000D01*
X112313790Y-102958380D01*
X112551885Y-102958380D01*
X112647123Y-103006000D01*
X112694742Y-103053619D01*
X112742361Y-103148857D01*
X112742361Y-103244095D01*
X112694742Y-103386952D01*
X112123314Y-103958380D01*
X112742361Y-103958380D01*
X113313790Y-103386952D02*
X113218552Y-103339333D01*
X113170933Y-103291714D01*
X113123314Y-103196476D01*
X113123314Y-103148857D01*
X113170933Y-103053619D01*
X113218552Y-103006000D01*
X113313790Y-102958380D01*
X113504266Y-102958380D01*
X113599504Y-103006000D01*
X113647123Y-103053619D01*
X113694742Y-103148857D01*
X113694742Y-103196476D01*
X113647123Y-103291714D01*
X113599504Y-103339333D01*
X113504266Y-103386952D01*
X113313790Y-103386952D01*
X113218552Y-103434571D01*
X113170933Y-103482190D01*
X113123314Y-103577428D01*
X113123314Y-103767904D01*
X113170933Y-103863142D01*
X113218552Y-103910761D01*
X113313790Y-103958380D01*
X113504266Y-103958380D01*
X113599504Y-103910761D01*
X113647123Y-103863142D01*
X113694742Y-103767904D01*
X113694742Y-103577428D01*
X113647123Y-103482190D01*
X113599504Y-103434571D01*
X113504266Y-103386952D01*
X114551885Y-103291714D02*
X114551885Y-103958380D01*
X114313790Y-102910761D02*
X114075695Y-103625047D01*
X114694742Y-103625047D01*
X115075695Y-103958380D02*
X115075695Y-102958380D01*
X115456647Y-102958380D01*
X115551885Y-103006000D01*
X115599504Y-103053619D01*
X115647123Y-103148857D01*
X115647123Y-103291714D01*
X115599504Y-103386952D01*
X115551885Y-103434571D01*
X115456647Y-103482190D01*
X115075695Y-103482190D01*
X97504266Y-104941714D02*
X97504266Y-105608380D01*
X97266171Y-104560761D02*
X97028076Y-105275047D01*
X97647123Y-105275047D01*
X98789980Y-105608380D02*
X98789980Y-104941714D01*
X98789980Y-105132190D02*
X98837600Y-105036952D01*
X98885219Y-104989333D01*
X98980457Y-104941714D01*
X99075695Y-104941714D01*
X99789980Y-105560761D02*
X99694742Y-105608380D01*
X99504266Y-105608380D01*
X99409028Y-105560761D01*
X99361409Y-105465523D01*
X99361409Y-105084571D01*
X99409028Y-104989333D01*
X99504266Y-104941714D01*
X99694742Y-104941714D01*
X99789980Y-104989333D01*
X99837600Y-105084571D01*
X99837600Y-105179809D01*
X99361409Y-105275047D01*
X100409028Y-105608380D02*
X100313790Y-105560761D01*
X100266171Y-105465523D01*
X100266171Y-104608380D01*
X101218552Y-105608380D02*
X101218552Y-105084571D01*
X101170933Y-104989333D01*
X101075695Y-104941714D01*
X100885219Y-104941714D01*
X100789980Y-104989333D01*
X101218552Y-105560761D02*
X101123314Y-105608380D01*
X100885219Y-105608380D01*
X100789980Y-105560761D01*
X100742361Y-105465523D01*
X100742361Y-105370285D01*
X100789980Y-105275047D01*
X100885219Y-105227428D01*
X101123314Y-105227428D01*
X101218552Y-105179809D01*
X101599504Y-104941714D02*
X101837600Y-105608380D01*
X102075695Y-104941714D02*
X101837600Y-105608380D01*
X101742361Y-105846476D01*
X101694742Y-105894095D01*
X101599504Y-105941714D01*
X103647123Y-105608380D02*
X103647123Y-104608380D01*
X103647123Y-105560761D02*
X103551885Y-105608380D01*
X103361409Y-105608380D01*
X103266171Y-105560761D01*
X103218552Y-105513142D01*
X103170933Y-105417904D01*
X103170933Y-105132190D01*
X103218552Y-105036952D01*
X103266171Y-104989333D01*
X103361409Y-104941714D01*
X103551885Y-104941714D01*
X103647123Y-104989333D01*
X104123314Y-105608380D02*
X104123314Y-104941714D01*
X104123314Y-105132190D02*
X104170933Y-105036952D01*
X104218552Y-104989333D01*
X104313790Y-104941714D01*
X104409028Y-104941714D01*
X104742361Y-105608380D02*
X104742361Y-104941714D01*
X104742361Y-104608380D02*
X104694742Y-104656000D01*
X104742361Y-104703619D01*
X104789980Y-104656000D01*
X104742361Y-104608380D01*
X104742361Y-104703619D01*
X105123314Y-104941714D02*
X105361409Y-105608380D01*
X105599504Y-104941714D01*
X106361409Y-105560761D02*
X106266171Y-105608380D01*
X106075695Y-105608380D01*
X105980457Y-105560761D01*
X105932838Y-105465523D01*
X105932838Y-105084571D01*
X105980457Y-104989333D01*
X106075695Y-104941714D01*
X106266171Y-104941714D01*
X106361409Y-104989333D01*
X106409028Y-105084571D01*
X106409028Y-105179809D01*
X105932838Y-105275047D01*
X106837600Y-105608380D02*
X106837600Y-104941714D01*
X106837600Y-105132190D02*
X106885219Y-105036952D01*
X106932838Y-104989333D01*
X107028076Y-104941714D01*
X107123314Y-104941714D01*
X107409028Y-105560761D02*
X107504266Y-105608380D01*
X107694742Y-105608380D01*
X107789980Y-105560761D01*
X107837600Y-105465523D01*
X107837600Y-105417904D01*
X107789980Y-105322666D01*
X107694742Y-105275047D01*
X107551885Y-105275047D01*
X107456647Y-105227428D01*
X107409028Y-105132190D01*
X107409028Y-105084571D01*
X107456647Y-104989333D01*
X107551885Y-104941714D01*
X107694742Y-104941714D01*
X107789980Y-104989333D01*
X108313790Y-105560761D02*
X108313790Y-105608380D01*
X108266171Y-105703619D01*
X108218552Y-105751238D01*
X109980457Y-104608380D02*
X109504266Y-104608380D01*
X109456647Y-105084571D01*
X109504266Y-105036952D01*
X109599504Y-104989333D01*
X109837600Y-104989333D01*
X109932838Y-105036952D01*
X109980457Y-105084571D01*
X110028076Y-105179809D01*
X110028076Y-105417904D01*
X109980457Y-105513142D01*
X109932838Y-105560761D01*
X109837600Y-105608380D01*
X109599504Y-105608380D01*
X109504266Y-105560761D01*
X109456647Y-105513142D01*
X111218552Y-104941714D02*
X111218552Y-105941714D01*
X111218552Y-104989333D02*
X111313790Y-104941714D01*
X111504266Y-104941714D01*
X111599504Y-104989333D01*
X111647123Y-105036952D01*
X111694742Y-105132190D01*
X111694742Y-105417904D01*
X111647123Y-105513142D01*
X111599504Y-105560761D01*
X111504266Y-105608380D01*
X111313790Y-105608380D01*
X111218552Y-105560761D01*
X112123314Y-105608380D02*
X112123314Y-104941714D01*
X112123314Y-105132190D02*
X112170933Y-105036952D01*
X112218552Y-104989333D01*
X112313790Y-104941714D01*
X112409028Y-104941714D01*
X113123314Y-105560761D02*
X113028076Y-105608380D01*
X112837600Y-105608380D01*
X112742361Y-105560761D01*
X112694742Y-105465523D01*
X112694742Y-105084571D01*
X112742361Y-104989333D01*
X112837600Y-104941714D01*
X113028076Y-104941714D01*
X113123314Y-104989333D01*
X113170933Y-105084571D01*
X113170933Y-105179809D01*
X112694742Y-105275047D01*
X113551885Y-105560761D02*
X113647123Y-105608380D01*
X113837600Y-105608380D01*
X113932838Y-105560761D01*
X113980457Y-105465523D01*
X113980457Y-105417904D01*
X113932838Y-105322666D01*
X113837600Y-105275047D01*
X113694742Y-105275047D01*
X113599504Y-105227428D01*
X113551885Y-105132190D01*
X113551885Y-105084571D01*
X113599504Y-104989333D01*
X113694742Y-104941714D01*
X113837600Y-104941714D01*
X113932838Y-104989333D01*
X114361409Y-105560761D02*
X114456647Y-105608380D01*
X114647123Y-105608380D01*
X114742361Y-105560761D01*
X114789980Y-105465523D01*
X114789980Y-105417904D01*
X114742361Y-105322666D01*
X114647123Y-105275047D01*
X114504266Y-105275047D01*
X114409028Y-105227428D01*
X114361409Y-105132190D01*
X114361409Y-105084571D01*
X114409028Y-104989333D01*
X114504266Y-104941714D01*
X114647123Y-104941714D01*
X114742361Y-104989333D01*
X115647123Y-104941714D02*
X115647123Y-105608380D01*
X115218552Y-104941714D02*
X115218552Y-105465523D01*
X115266171Y-105560761D01*
X115361409Y-105608380D01*
X115504266Y-105608380D01*
X115599504Y-105560761D01*
X115647123Y-105513142D01*
X116123314Y-105608380D02*
X116123314Y-104941714D01*
X116123314Y-105132190D02*
X116170933Y-105036952D01*
X116218552Y-104989333D01*
X116313790Y-104941714D01*
X116409028Y-104941714D01*
X117123314Y-105560761D02*
X117028076Y-105608380D01*
X116837600Y-105608380D01*
X116742361Y-105560761D01*
X116694742Y-105465523D01*
X116694742Y-105084571D01*
X116742361Y-104989333D01*
X116837600Y-104941714D01*
X117028076Y-104941714D01*
X117123314Y-104989333D01*
X117170933Y-105084571D01*
X117170933Y-105179809D01*
X116694742Y-105275047D01*
X118313790Y-105560761D02*
X118409028Y-105608380D01*
X118599504Y-105608380D01*
X118694742Y-105560761D01*
X118742361Y-105465523D01*
X118742361Y-105417904D01*
X118694742Y-105322666D01*
X118599504Y-105275047D01*
X118456647Y-105275047D01*
X118361409Y-105227428D01*
X118313790Y-105132190D01*
X118313790Y-105084571D01*
X118361409Y-104989333D01*
X118456647Y-104941714D01*
X118599504Y-104941714D01*
X118694742Y-104989333D01*
X119551885Y-105560761D02*
X119456647Y-105608380D01*
X119266171Y-105608380D01*
X119170933Y-105560761D01*
X119123314Y-105465523D01*
X119123314Y-105084571D01*
X119170933Y-104989333D01*
X119266171Y-104941714D01*
X119456647Y-104941714D01*
X119551885Y-104989333D01*
X119599504Y-105084571D01*
X119599504Y-105179809D01*
X119123314Y-105275047D01*
X120028076Y-104941714D02*
X120028076Y-105608380D01*
X120028076Y-105036952D02*
X120075695Y-104989333D01*
X120170933Y-104941714D01*
X120313790Y-104941714D01*
X120409028Y-104989333D01*
X120456647Y-105084571D01*
X120456647Y-105608380D01*
X120885219Y-105560761D02*
X120980457Y-105608380D01*
X121170933Y-105608380D01*
X121266171Y-105560761D01*
X121313790Y-105465523D01*
X121313790Y-105417904D01*
X121266171Y-105322666D01*
X121170933Y-105275047D01*
X121028076Y-105275047D01*
X120932838Y-105227428D01*
X120885219Y-105132190D01*
X120885219Y-105084571D01*
X120932838Y-104989333D01*
X121028076Y-104941714D01*
X121170933Y-104941714D01*
X121266171Y-104989333D01*
X121885219Y-105608380D02*
X121789980Y-105560761D01*
X121742361Y-105513142D01*
X121694742Y-105417904D01*
X121694742Y-105132190D01*
X121742361Y-105036952D01*
X121789980Y-104989333D01*
X121885219Y-104941714D01*
X122028076Y-104941714D01*
X122123314Y-104989333D01*
X122170933Y-105036952D01*
X122218552Y-105132190D01*
X122218552Y-105417904D01*
X122170933Y-105513142D01*
X122123314Y-105560761D01*
X122028076Y-105608380D01*
X121885219Y-105608380D01*
X122647123Y-105608380D02*
X122647123Y-104941714D01*
X122647123Y-105132190D02*
X122694742Y-105036952D01*
X122742361Y-104989333D01*
X122837600Y-104941714D01*
X122932838Y-104941714D01*
X123218552Y-105560761D02*
X123313790Y-105608380D01*
X123504266Y-105608380D01*
X123599504Y-105560761D01*
X123647123Y-105465523D01*
X123647123Y-105417904D01*
X123599504Y-105322666D01*
X123504266Y-105275047D01*
X123361409Y-105275047D01*
X123266171Y-105227428D01*
X123218552Y-105132190D01*
X123218552Y-105084571D01*
X123266171Y-104989333D01*
X123361409Y-104941714D01*
X123504266Y-104941714D01*
X123599504Y-104989333D01*
X101218552Y-106353619D02*
X101266171Y-106306000D01*
X101361409Y-106258380D01*
X101599504Y-106258380D01*
X101694742Y-106306000D01*
X101742361Y-106353619D01*
X101789980Y-106448857D01*
X101789980Y-106544095D01*
X101742361Y-106686952D01*
X101170933Y-107258380D01*
X101789980Y-107258380D01*
X102837600Y-106591714D02*
X103218552Y-106591714D01*
X102980457Y-107258380D02*
X102980457Y-106401238D01*
X103028076Y-106306000D01*
X103123314Y-106258380D01*
X103218552Y-106258380D01*
X103694742Y-107258380D02*
X103599504Y-107210761D01*
X103551885Y-107115523D01*
X103551885Y-106258380D01*
X104218552Y-107258380D02*
X104123314Y-107210761D01*
X104075695Y-107163142D01*
X104028076Y-107067904D01*
X104028076Y-106782190D01*
X104075695Y-106686952D01*
X104123314Y-106639333D01*
X104218552Y-106591714D01*
X104361409Y-106591714D01*
X104456647Y-106639333D01*
X104504266Y-106686952D01*
X104551885Y-106782190D01*
X104551885Y-107067904D01*
X104504266Y-107163142D01*
X104456647Y-107210761D01*
X104361409Y-107258380D01*
X104218552Y-107258380D01*
X104885219Y-106591714D02*
X105075695Y-107258380D01*
X105266171Y-106782190D01*
X105456647Y-107258380D01*
X105647123Y-106591714D01*
X106742361Y-107210761D02*
X106837600Y-107258380D01*
X107028076Y-107258380D01*
X107123314Y-107210761D01*
X107170933Y-107115523D01*
X107170933Y-107067904D01*
X107123314Y-106972666D01*
X107028076Y-106925047D01*
X106885219Y-106925047D01*
X106789980Y-106877428D01*
X106742361Y-106782190D01*
X106742361Y-106734571D01*
X106789980Y-106639333D01*
X106885219Y-106591714D01*
X107028076Y-106591714D01*
X107123314Y-106639333D01*
X107980457Y-107210761D02*
X107885219Y-107258380D01*
X107694742Y-107258380D01*
X107599504Y-107210761D01*
X107551885Y-107115523D01*
X107551885Y-106734571D01*
X107599504Y-106639333D01*
X107694742Y-106591714D01*
X107885219Y-106591714D01*
X107980457Y-106639333D01*
X108028076Y-106734571D01*
X108028076Y-106829809D01*
X107551885Y-106925047D01*
X108456647Y-106591714D02*
X108456647Y-107258380D01*
X108456647Y-106686952D02*
X108504266Y-106639333D01*
X108599504Y-106591714D01*
X108742361Y-106591714D01*
X108837600Y-106639333D01*
X108885219Y-106734571D01*
X108885219Y-107258380D01*
X109313790Y-107210761D02*
X109409028Y-107258380D01*
X109599504Y-107258380D01*
X109694742Y-107210761D01*
X109742361Y-107115523D01*
X109742361Y-107067904D01*
X109694742Y-106972666D01*
X109599504Y-106925047D01*
X109456647Y-106925047D01*
X109361409Y-106877428D01*
X109313790Y-106782190D01*
X109313790Y-106734571D01*
X109361409Y-106639333D01*
X109456647Y-106591714D01*
X109599504Y-106591714D01*
X109694742Y-106639333D01*
X110313790Y-107258380D02*
X110218552Y-107210761D01*
X110170933Y-107163142D01*
X110123314Y-107067904D01*
X110123314Y-106782190D01*
X110170933Y-106686952D01*
X110218552Y-106639333D01*
X110313790Y-106591714D01*
X110456647Y-106591714D01*
X110551885Y-106639333D01*
X110599504Y-106686952D01*
X110647123Y-106782190D01*
X110647123Y-107067904D01*
X110599504Y-107163142D01*
X110551885Y-107210761D01*
X110456647Y-107258380D01*
X110313790Y-107258380D01*
X111075695Y-107258380D02*
X111075695Y-106591714D01*
X111075695Y-106782190D02*
X111123314Y-106686952D01*
X111170933Y-106639333D01*
X111266171Y-106591714D01*
X111361409Y-106591714D01*
X112456647Y-107258380D02*
X112456647Y-106591714D01*
X112456647Y-106258380D02*
X112409028Y-106306000D01*
X112456647Y-106353619D01*
X112504266Y-106306000D01*
X112456647Y-106258380D01*
X112456647Y-106353619D01*
X112932838Y-106591714D02*
X112932838Y-107258380D01*
X112932838Y-106686952D02*
X112980457Y-106639333D01*
X113075695Y-106591714D01*
X113218552Y-106591714D01*
X113313790Y-106639333D01*
X113361409Y-106734571D01*
X113361409Y-107258380D01*
X113694742Y-106591714D02*
X114075695Y-106591714D01*
X113837600Y-106258380D02*
X113837600Y-107115523D01*
X113885219Y-107210761D01*
X113980457Y-107258380D01*
X114075695Y-107258380D01*
X114789980Y-107210761D02*
X114694742Y-107258380D01*
X114504266Y-107258380D01*
X114409028Y-107210761D01*
X114361409Y-107115523D01*
X114361409Y-106734571D01*
X114409028Y-106639333D01*
X114504266Y-106591714D01*
X114694742Y-106591714D01*
X114789980Y-106639333D01*
X114837600Y-106734571D01*
X114837600Y-106829809D01*
X114361409Y-106925047D01*
X115266171Y-107258380D02*
X115266171Y-106591714D01*
X115266171Y-106782190D02*
X115313790Y-106686952D01*
X115361409Y-106639333D01*
X115456647Y-106591714D01*
X115551885Y-106591714D01*
X115742361Y-106591714D02*
X116123314Y-106591714D01*
X115885219Y-107258380D02*
X115885219Y-106401238D01*
X115932838Y-106306000D01*
X116028076Y-106258380D01*
X116123314Y-106258380D01*
X116885219Y-107258380D02*
X116885219Y-106734571D01*
X116837600Y-106639333D01*
X116742361Y-106591714D01*
X116551885Y-106591714D01*
X116456647Y-106639333D01*
X116885219Y-107210761D02*
X116789980Y-107258380D01*
X116551885Y-107258380D01*
X116456647Y-107210761D01*
X116409028Y-107115523D01*
X116409028Y-107020285D01*
X116456647Y-106925047D01*
X116551885Y-106877428D01*
X116789980Y-106877428D01*
X116885219Y-106829809D01*
X117789980Y-107210761D02*
X117694742Y-107258380D01*
X117504266Y-107258380D01*
X117409028Y-107210761D01*
X117361409Y-107163142D01*
X117313790Y-107067904D01*
X117313790Y-106782190D01*
X117361409Y-106686952D01*
X117409028Y-106639333D01*
X117504266Y-106591714D01*
X117694742Y-106591714D01*
X117789980Y-106639333D01*
X118599504Y-107210761D02*
X118504266Y-107258380D01*
X118313790Y-107258380D01*
X118218552Y-107210761D01*
X118170933Y-107115523D01*
X118170933Y-106734571D01*
X118218552Y-106639333D01*
X118313790Y-106591714D01*
X118504266Y-106591714D01*
X118599504Y-106639333D01*
X118647123Y-106734571D01*
X118647123Y-106829809D01*
X118170933Y-106925047D01*
X119028076Y-107210761D02*
X119123314Y-107258380D01*
X119313790Y-107258380D01*
X119409028Y-107210761D01*
X119456647Y-107115523D01*
X119456647Y-107067904D01*
X119409028Y-106972666D01*
X119313790Y-106925047D01*
X119170933Y-106925047D01*
X119075695Y-106877428D01*
X119028076Y-106782190D01*
X119028076Y-106734571D01*
X119075695Y-106639333D01*
X119170933Y-106591714D01*
X119313790Y-106591714D01*
X119409028Y-106639333D01*
X96051885Y-107908380D02*
X96051885Y-108717904D01*
X96099504Y-108813142D01*
X96147123Y-108860761D01*
X96242361Y-108908380D01*
X96432838Y-108908380D01*
X96528076Y-108860761D01*
X96575695Y-108813142D01*
X96623314Y-108717904D01*
X96623314Y-107908380D01*
X97051885Y-108860761D02*
X97194742Y-108908380D01*
X97432838Y-108908380D01*
X97528076Y-108860761D01*
X97575695Y-108813142D01*
X97623314Y-108717904D01*
X97623314Y-108622666D01*
X97575695Y-108527428D01*
X97528076Y-108479809D01*
X97432838Y-108432190D01*
X97242361Y-108384571D01*
X97147123Y-108336952D01*
X97099504Y-108289333D01*
X97051885Y-108194095D01*
X97051885Y-108098857D01*
X97099504Y-108003619D01*
X97147123Y-107956000D01*
X97242361Y-107908380D01*
X97480457Y-107908380D01*
X97623314Y-107956000D01*
X98385219Y-108384571D02*
X98528076Y-108432190D01*
X98575695Y-108479809D01*
X98623314Y-108575047D01*
X98623314Y-108717904D01*
X98575695Y-108813142D01*
X98528076Y-108860761D01*
X98432838Y-108908380D01*
X98051885Y-108908380D01*
X98051885Y-107908380D01*
X98385219Y-107908380D01*
X98480457Y-107956000D01*
X98528076Y-108003619D01*
X98575695Y-108098857D01*
X98575695Y-108194095D01*
X98528076Y-108289333D01*
X98480457Y-108336952D01*
X98385219Y-108384571D01*
X98051885Y-108384571D01*
X99099504Y-108860761D02*
X99099504Y-108908380D01*
X99051885Y-109003619D01*
X99004266Y-109051238D01*
X100861409Y-108908380D02*
X100528076Y-108432190D01*
X100289980Y-108908380D02*
X100289980Y-107908380D01*
X100670933Y-107908380D01*
X100766171Y-107956000D01*
X100813790Y-108003619D01*
X100861409Y-108098857D01*
X100861409Y-108241714D01*
X100813790Y-108336952D01*
X100766171Y-108384571D01*
X100670933Y-108432190D01*
X100289980Y-108432190D01*
X101242361Y-108860761D02*
X101385219Y-108908380D01*
X101623314Y-108908380D01*
X101718552Y-108860761D01*
X101766171Y-108813142D01*
X101813790Y-108717904D01*
X101813790Y-108622666D01*
X101766171Y-108527428D01*
X101718552Y-108479809D01*
X101623314Y-108432190D01*
X101432838Y-108384571D01*
X101337600Y-108336952D01*
X101289980Y-108289333D01*
X101242361Y-108194095D01*
X101242361Y-108098857D01*
X101289980Y-108003619D01*
X101337600Y-107956000D01*
X101432838Y-107908380D01*
X101670933Y-107908380D01*
X101813790Y-107956000D01*
X102194742Y-108003619D02*
X102242361Y-107956000D01*
X102337600Y-107908380D01*
X102575695Y-107908380D01*
X102670933Y-107956000D01*
X102718552Y-108003619D01*
X102766171Y-108098857D01*
X102766171Y-108194095D01*
X102718552Y-108336952D01*
X102147123Y-108908380D01*
X102766171Y-108908380D01*
X103099504Y-107908380D02*
X103718552Y-107908380D01*
X103385219Y-108289333D01*
X103528076Y-108289333D01*
X103623314Y-108336952D01*
X103670933Y-108384571D01*
X103718552Y-108479809D01*
X103718552Y-108717904D01*
X103670933Y-108813142D01*
X103623314Y-108860761D01*
X103528076Y-108908380D01*
X103242361Y-108908380D01*
X103147123Y-108860761D01*
X103099504Y-108813142D01*
X104099504Y-108003619D02*
X104147123Y-107956000D01*
X104242361Y-107908380D01*
X104480457Y-107908380D01*
X104575695Y-107956000D01*
X104623314Y-108003619D01*
X104670933Y-108098857D01*
X104670933Y-108194095D01*
X104623314Y-108336952D01*
X104051885Y-108908380D01*
X104670933Y-108908380D01*
X105147123Y-108860761D02*
X105147123Y-108908380D01*
X105099504Y-109003619D01*
X105051885Y-109051238D01*
X106289980Y-108860761D02*
X106432838Y-108908380D01*
X106670933Y-108908380D01*
X106766171Y-108860761D01*
X106813790Y-108813142D01*
X106861409Y-108717904D01*
X106861409Y-108622666D01*
X106813790Y-108527428D01*
X106766171Y-108479809D01*
X106670933Y-108432190D01*
X106480457Y-108384571D01*
X106385219Y-108336952D01*
X106337600Y-108289333D01*
X106289980Y-108194095D01*
X106289980Y-108098857D01*
X106337600Y-108003619D01*
X106385219Y-107956000D01*
X106480457Y-107908380D01*
X106718552Y-107908380D01*
X106861409Y-107956000D01*
X107289980Y-108908380D02*
X107289980Y-107908380D01*
X107670933Y-107908380D01*
X107766171Y-107956000D01*
X107813790Y-108003619D01*
X107861409Y-108098857D01*
X107861409Y-108241714D01*
X107813790Y-108336952D01*
X107766171Y-108384571D01*
X107670933Y-108432190D01*
X107289980Y-108432190D01*
X108289980Y-108908380D02*
X108289980Y-107908380D01*
X108813790Y-108860761D02*
X108813790Y-108908380D01*
X108766171Y-109003619D01*
X108718552Y-109051238D01*
X110004266Y-108908380D02*
X110004266Y-107908380D01*
X110432838Y-108003619D02*
X110480457Y-107956000D01*
X110575695Y-107908380D01*
X110813790Y-107908380D01*
X110909028Y-107956000D01*
X110956647Y-108003619D01*
X111004266Y-108098857D01*
X111004266Y-108194095D01*
X110956647Y-108336952D01*
X110385219Y-108908380D01*
X111004266Y-108908380D01*
X112004266Y-108813142D02*
X111956647Y-108860761D01*
X111813790Y-108908380D01*
X111718552Y-108908380D01*
X111575695Y-108860761D01*
X111480457Y-108765523D01*
X111432838Y-108670285D01*
X111385219Y-108479809D01*
X111385219Y-108336952D01*
X111432838Y-108146476D01*
X111480457Y-108051238D01*
X111575695Y-107956000D01*
X111718552Y-107908380D01*
X111813790Y-107908380D01*
X111956647Y-107956000D01*
X112004266Y-108003619D01*
X112480457Y-108860761D02*
X112480457Y-108908380D01*
X112432838Y-109003619D01*
X112385219Y-109051238D01*
X114004266Y-108384571D02*
X114147123Y-108432190D01*
X114194742Y-108479809D01*
X114242361Y-108575047D01*
X114242361Y-108717904D01*
X114194742Y-108813142D01*
X114147123Y-108860761D01*
X114051885Y-108908380D01*
X113670933Y-108908380D01*
X113670933Y-107908380D01*
X114004266Y-107908380D01*
X114099504Y-107956000D01*
X114147123Y-108003619D01*
X114194742Y-108098857D01*
X114194742Y-108194095D01*
X114147123Y-108289333D01*
X114099504Y-108336952D01*
X114004266Y-108384571D01*
X113670933Y-108384571D01*
X115099504Y-108908380D02*
X115099504Y-108384571D01*
X115051885Y-108289333D01*
X114956647Y-108241714D01*
X114766171Y-108241714D01*
X114670933Y-108289333D01*
X115099504Y-108860761D02*
X115004266Y-108908380D01*
X114766171Y-108908380D01*
X114670933Y-108860761D01*
X114623314Y-108765523D01*
X114623314Y-108670285D01*
X114670933Y-108575047D01*
X114766171Y-108527428D01*
X115004266Y-108527428D01*
X115099504Y-108479809D01*
X115432838Y-108241714D02*
X115813790Y-108241714D01*
X115575695Y-107908380D02*
X115575695Y-108765523D01*
X115623314Y-108860761D01*
X115718552Y-108908380D01*
X115813790Y-108908380D01*
X116004266Y-108241714D02*
X116385219Y-108241714D01*
X116147123Y-107908380D02*
X116147123Y-108765523D01*
X116194742Y-108860761D01*
X116289980Y-108908380D01*
X116385219Y-108908380D01*
X117099504Y-108860761D02*
X117004266Y-108908380D01*
X116813790Y-108908380D01*
X116718552Y-108860761D01*
X116670933Y-108765523D01*
X116670933Y-108384571D01*
X116718552Y-108289333D01*
X116813790Y-108241714D01*
X117004266Y-108241714D01*
X117099504Y-108289333D01*
X117147123Y-108384571D01*
X117147123Y-108479809D01*
X116670933Y-108575047D01*
X117575695Y-108908380D02*
X117575695Y-108241714D01*
X117575695Y-108432190D02*
X117623314Y-108336952D01*
X117670933Y-108289333D01*
X117766171Y-108241714D01*
X117861409Y-108241714D01*
X118099504Y-108241714D02*
X118337600Y-108908380D01*
X118575695Y-108241714D02*
X118337600Y-108908380D01*
X118242361Y-109146476D01*
X118194742Y-109194095D01*
X118099504Y-109241714D01*
X120051885Y-108384571D02*
X120194742Y-108432190D01*
X120242361Y-108479809D01*
X120289980Y-108575047D01*
X120289980Y-108717904D01*
X120242361Y-108813142D01*
X120194742Y-108860761D01*
X120099504Y-108908380D01*
X119718552Y-108908380D01*
X119718552Y-107908380D01*
X120051885Y-107908380D01*
X120147123Y-107956000D01*
X120194742Y-108003619D01*
X120242361Y-108098857D01*
X120242361Y-108194095D01*
X120194742Y-108289333D01*
X120147123Y-108336952D01*
X120051885Y-108384571D01*
X119718552Y-108384571D01*
X121147123Y-108908380D02*
X121147123Y-108384571D01*
X121099504Y-108289333D01*
X121004266Y-108241714D01*
X120813790Y-108241714D01*
X120718552Y-108289333D01*
X121147123Y-108860761D02*
X121051885Y-108908380D01*
X120813790Y-108908380D01*
X120718552Y-108860761D01*
X120670933Y-108765523D01*
X120670933Y-108670285D01*
X120718552Y-108575047D01*
X120813790Y-108527428D01*
X121051885Y-108527428D01*
X121147123Y-108479809D01*
X122051885Y-108860761D02*
X121956647Y-108908380D01*
X121766171Y-108908380D01*
X121670933Y-108860761D01*
X121623314Y-108813142D01*
X121575695Y-108717904D01*
X121575695Y-108432190D01*
X121623314Y-108336952D01*
X121670933Y-108289333D01*
X121766171Y-108241714D01*
X121956647Y-108241714D01*
X122051885Y-108289333D01*
X122480457Y-108908380D02*
X122480457Y-107908380D01*
X122575695Y-108527428D02*
X122861409Y-108908380D01*
X122861409Y-108241714D02*
X122480457Y-108622666D01*
X123718552Y-108241714D02*
X123718552Y-108908380D01*
X123289980Y-108241714D02*
X123289980Y-108765523D01*
X123337600Y-108860761D01*
X123432838Y-108908380D01*
X123575695Y-108908380D01*
X123670933Y-108860761D01*
X123718552Y-108813142D01*
X124194742Y-108241714D02*
X124194742Y-109241714D01*
X124194742Y-108289333D02*
X124289980Y-108241714D01*
X124480457Y-108241714D01*
X124575695Y-108289333D01*
X124623314Y-108336952D01*
X124670933Y-108432190D01*
X124670933Y-108717904D01*
X124623314Y-108813142D01*
X124575695Y-108860761D01*
X124480457Y-108908380D01*
X124289980Y-108908380D01*
X124194742Y-108860761D01*
X97670933Y-110034571D02*
X97337600Y-110034571D01*
X97337600Y-110558380D02*
X97337600Y-109558380D01*
X97813790Y-109558380D01*
X98194742Y-110558380D02*
X98194742Y-109891714D01*
X98194742Y-110082190D02*
X98242361Y-109986952D01*
X98289980Y-109939333D01*
X98385219Y-109891714D01*
X98480457Y-109891714D01*
X98956647Y-110558380D02*
X98861409Y-110510761D01*
X98813790Y-110463142D01*
X98766171Y-110367904D01*
X98766171Y-110082190D01*
X98813790Y-109986952D01*
X98861409Y-109939333D01*
X98956647Y-109891714D01*
X99099504Y-109891714D01*
X99194742Y-109939333D01*
X99242361Y-109986952D01*
X99289980Y-110082190D01*
X99289980Y-110367904D01*
X99242361Y-110463142D01*
X99194742Y-110510761D01*
X99099504Y-110558380D01*
X98956647Y-110558380D01*
X99718552Y-109891714D02*
X99718552Y-110558380D01*
X99718552Y-109986952D02*
X99766171Y-109939333D01*
X99861409Y-109891714D01*
X100004266Y-109891714D01*
X100099504Y-109939333D01*
X100147123Y-110034571D01*
X100147123Y-110558380D01*
X100480457Y-109891714D02*
X100861409Y-109891714D01*
X100623314Y-109558380D02*
X100623314Y-110415523D01*
X100670933Y-110510761D01*
X100766171Y-110558380D01*
X100861409Y-110558380D01*
X102337600Y-110510761D02*
X102242361Y-110558380D01*
X102051885Y-110558380D01*
X101956647Y-110510761D01*
X101909028Y-110415523D01*
X101909028Y-110034571D01*
X101956647Y-109939333D01*
X102051885Y-109891714D01*
X102242361Y-109891714D01*
X102337600Y-109939333D01*
X102385219Y-110034571D01*
X102385219Y-110129809D01*
X101909028Y-110225047D01*
X102813790Y-109891714D02*
X102813790Y-110558380D01*
X102813790Y-109986952D02*
X102861409Y-109939333D01*
X102956647Y-109891714D01*
X103099504Y-109891714D01*
X103194742Y-109939333D01*
X103242361Y-110034571D01*
X103242361Y-110558380D01*
X104147123Y-110510761D02*
X104051885Y-110558380D01*
X103861409Y-110558380D01*
X103766171Y-110510761D01*
X103718552Y-110463142D01*
X103670933Y-110367904D01*
X103670933Y-110082190D01*
X103718552Y-109986952D01*
X103766171Y-109939333D01*
X103861409Y-109891714D01*
X104051885Y-109891714D01*
X104147123Y-109939333D01*
X104718552Y-110558380D02*
X104623314Y-110510761D01*
X104575695Y-110463142D01*
X104528076Y-110367904D01*
X104528076Y-110082190D01*
X104575695Y-109986952D01*
X104623314Y-109939333D01*
X104718552Y-109891714D01*
X104861409Y-109891714D01*
X104956647Y-109939333D01*
X105004266Y-109986952D01*
X105051885Y-110082190D01*
X105051885Y-110367904D01*
X105004266Y-110463142D01*
X104956647Y-110510761D01*
X104861409Y-110558380D01*
X104718552Y-110558380D01*
X105909028Y-110558380D02*
X105909028Y-109558380D01*
X105909028Y-110510761D02*
X105813790Y-110558380D01*
X105623314Y-110558380D01*
X105528076Y-110510761D01*
X105480457Y-110463142D01*
X105432838Y-110367904D01*
X105432838Y-110082190D01*
X105480457Y-109986952D01*
X105528076Y-109939333D01*
X105623314Y-109891714D01*
X105813790Y-109891714D01*
X105909028Y-109939333D01*
X106766171Y-110510761D02*
X106670933Y-110558380D01*
X106480457Y-110558380D01*
X106385219Y-110510761D01*
X106337600Y-110415523D01*
X106337600Y-110034571D01*
X106385219Y-109939333D01*
X106480457Y-109891714D01*
X106670933Y-109891714D01*
X106766171Y-109939333D01*
X106813790Y-110034571D01*
X106813790Y-110129809D01*
X106337600Y-110225047D01*
X107242361Y-110558380D02*
X107242361Y-109891714D01*
X107242361Y-110082190D02*
X107289980Y-109986952D01*
X107337600Y-109939333D01*
X107432838Y-109891714D01*
X107528076Y-109891714D01*
X107813790Y-110510761D02*
X107909028Y-110558380D01*
X108099504Y-110558380D01*
X108194742Y-110510761D01*
X108242361Y-110415523D01*
X108242361Y-110367904D01*
X108194742Y-110272666D01*
X108099504Y-110225047D01*
X107956647Y-110225047D01*
X107861409Y-110177428D01*
X107813790Y-110082190D01*
X107813790Y-110034571D01*
X107861409Y-109939333D01*
X107956647Y-109891714D01*
X108099504Y-109891714D01*
X108194742Y-109939333D01*
X109861409Y-110558380D02*
X109861409Y-110034571D01*
X109813790Y-109939333D01*
X109718552Y-109891714D01*
X109528076Y-109891714D01*
X109432838Y-109939333D01*
X109861409Y-110510761D02*
X109766171Y-110558380D01*
X109528076Y-110558380D01*
X109432838Y-110510761D01*
X109385219Y-110415523D01*
X109385219Y-110320285D01*
X109432838Y-110225047D01*
X109528076Y-110177428D01*
X109766171Y-110177428D01*
X109861409Y-110129809D01*
X110337600Y-109891714D02*
X110337600Y-110558380D01*
X110337600Y-109986952D02*
X110385219Y-109939333D01*
X110480457Y-109891714D01*
X110623314Y-109891714D01*
X110718552Y-109939333D01*
X110766171Y-110034571D01*
X110766171Y-110558380D01*
X111670933Y-110558380D02*
X111670933Y-109558380D01*
X111670933Y-110510761D02*
X111575695Y-110558380D01*
X111385219Y-110558380D01*
X111289980Y-110510761D01*
X111242361Y-110463142D01*
X111194742Y-110367904D01*
X111194742Y-110082190D01*
X111242361Y-109986952D01*
X111289980Y-109939333D01*
X111385219Y-109891714D01*
X111575695Y-109891714D01*
X111670933Y-109939333D01*
X112861409Y-110510761D02*
X112956647Y-110558380D01*
X113147123Y-110558380D01*
X113242361Y-110510761D01*
X113289980Y-110415523D01*
X113289980Y-110367904D01*
X113242361Y-110272666D01*
X113147123Y-110225047D01*
X113004266Y-110225047D01*
X112909028Y-110177428D01*
X112861409Y-110082190D01*
X112861409Y-110034571D01*
X112909028Y-109939333D01*
X113004266Y-109891714D01*
X113147123Y-109891714D01*
X113242361Y-109939333D01*
X113623314Y-109891714D02*
X113813790Y-110558380D01*
X114004266Y-110082190D01*
X114194742Y-110558380D01*
X114385219Y-109891714D01*
X114766171Y-110558380D02*
X114766171Y-109891714D01*
X114766171Y-109558380D02*
X114718552Y-109606000D01*
X114766171Y-109653619D01*
X114813790Y-109606000D01*
X114766171Y-109558380D01*
X114766171Y-109653619D01*
X115099504Y-109891714D02*
X115480457Y-109891714D01*
X115242361Y-109558380D02*
X115242361Y-110415523D01*
X115289980Y-110510761D01*
X115385219Y-110558380D01*
X115480457Y-110558380D01*
X116242361Y-110510761D02*
X116147123Y-110558380D01*
X115956647Y-110558380D01*
X115861409Y-110510761D01*
X115813790Y-110463142D01*
X115766171Y-110367904D01*
X115766171Y-110082190D01*
X115813790Y-109986952D01*
X115861409Y-109939333D01*
X115956647Y-109891714D01*
X116147123Y-109891714D01*
X116242361Y-109939333D01*
X116670933Y-110558380D02*
X116670933Y-109558380D01*
X117099504Y-110558380D02*
X117099504Y-110034571D01*
X117051885Y-109939333D01*
X116956647Y-109891714D01*
X116813790Y-109891714D01*
X116718552Y-109939333D01*
X116670933Y-109986952D01*
X117623314Y-110510761D02*
X117623314Y-110558380D01*
X117575695Y-110653619D01*
X117528076Y-110701238D01*
X119147123Y-110034571D02*
X119289980Y-110082190D01*
X119337600Y-110129809D01*
X119385219Y-110225047D01*
X119385219Y-110367904D01*
X119337600Y-110463142D01*
X119289980Y-110510761D01*
X119194742Y-110558380D01*
X118813790Y-110558380D01*
X118813790Y-109558380D01*
X119147123Y-109558380D01*
X119242361Y-109606000D01*
X119289980Y-109653619D01*
X119337600Y-109748857D01*
X119337600Y-109844095D01*
X119289980Y-109939333D01*
X119242361Y-109986952D01*
X119147123Y-110034571D01*
X118813790Y-110034571D01*
X120242361Y-109891714D02*
X120242361Y-110558380D01*
X119813790Y-109891714D02*
X119813790Y-110415523D01*
X119861409Y-110510761D01*
X119956647Y-110558380D01*
X120099504Y-110558380D01*
X120194742Y-110510761D01*
X120242361Y-110463142D01*
X120623314Y-109891714D02*
X121147123Y-109891714D01*
X120623314Y-110558380D01*
X121147123Y-110558380D01*
X121432838Y-109891714D02*
X121956647Y-109891714D01*
X121432838Y-110558380D01*
X121956647Y-110558380D01*
X122718552Y-110510761D02*
X122623314Y-110558380D01*
X122432838Y-110558380D01*
X122337600Y-110510761D01*
X122289980Y-110415523D01*
X122289980Y-110034571D01*
X122337600Y-109939333D01*
X122432838Y-109891714D01*
X122623314Y-109891714D01*
X122718552Y-109939333D01*
X122766171Y-110034571D01*
X122766171Y-110129809D01*
X122289980Y-110225047D01*
X123194742Y-110558380D02*
X123194742Y-109891714D01*
X123194742Y-110082190D02*
X123242361Y-109986952D01*
X123289980Y-109939333D01*
X123385219Y-109891714D01*
X123480457Y-109891714D01*
D11*
X62022222Y-40511800D02*
X62539378Y-40511800D01*
X62022222Y-39091800D02*
X62539378Y-39091800D01*
X95931222Y-40562600D02*
X96448378Y-40562600D01*
X95931222Y-39142600D02*
X96448378Y-39142600D01*
X81032878Y-39117200D02*
X80515722Y-39117200D01*
X81032878Y-40537200D02*
X80515722Y-40537200D01*
X66010022Y-40537200D02*
X66527178Y-40537200D01*
X66010022Y-39117200D02*
X66527178Y-39117200D01*
X70572422Y-101598800D02*
X71089578Y-101598800D01*
X70572422Y-100178800D02*
X71089578Y-100178800D01*
X66162422Y-101598800D02*
X66679578Y-101598800D01*
X66162422Y-100178800D02*
X66679578Y-100178800D01*
D12*
X126360200Y-52785400D02*
X125860200Y-52785400D01*
X126410200Y-52785400D02*
X126410200Y-53285400D01*
X126410200Y-52785400D02*
X126360200Y-52785400D01*
X111660200Y-52785400D02*
X112160200Y-52785400D01*
X111660200Y-52785400D02*
X111660200Y-53285400D01*
X111660200Y-56485400D02*
X112160200Y-56485400D01*
X111660200Y-56485400D02*
X111660200Y-55985400D01*
X126410200Y-56485400D02*
X125910200Y-56485400D01*
X126410200Y-56485400D02*
X126410200Y-55985400D01*
D11*
X78458600Y-52151400D02*
X76998600Y-52151400D01*
X78458600Y-48991400D02*
X76298600Y-48991400D01*
X78458600Y-48991400D02*
X78458600Y-49921400D01*
X78458600Y-52151400D02*
X78458600Y-51221400D01*
X63005400Y-108924600D02*
X60205400Y-108924600D01*
X60205400Y-108924600D02*
X60205400Y-106924600D01*
X60205400Y-106924600D02*
X63005400Y-106924600D01*
X63005400Y-106924600D02*
X63005400Y-108924600D01*
X63173400Y-102845600D02*
X68573400Y-102845600D01*
X63173400Y-106145600D02*
X68573400Y-106145600D01*
X63173400Y-102845600D02*
X63173400Y-106145600D01*
X133751822Y-57834600D02*
X134268978Y-57834600D01*
X133751822Y-56414600D02*
X134268978Y-56414600D01*
X51050000Y-115190000D02*
X55880000Y-115190000D01*
X55880000Y-107060000D02*
X51050000Y-107060000D01*
X57790000Y-107060000D02*
X57790000Y-115190000D01*
X57790000Y-108330000D02*
X59180000Y-108330000D01*
X57790000Y-113920000D02*
X59180000Y-113920000D01*
X59180000Y-108330000D02*
X59180000Y-113920000D01*
X57790000Y-107060000D02*
X55880000Y-107060000D01*
X57790000Y-115190000D02*
X55880000Y-115190000D01*
X58930000Y-108330000D02*
X58930000Y-113920000D01*
X58040000Y-108330000D02*
X58040000Y-113920000D01*
X51310000Y-111510000D02*
X51050000Y-111510000D01*
X51310000Y-110740000D02*
X51310000Y-111510000D01*
X51050000Y-110740000D02*
X51310000Y-110740000D01*
X51050000Y-110740000D02*
X51050000Y-107060000D01*
X51050000Y-111510000D02*
X51050000Y-115190000D01*
X58080000Y-108020000D02*
X58080000Y-106720000D01*
X58080000Y-106720000D02*
X55880000Y-106720000D01*
X145990000Y-83760000D02*
X147320000Y-83760000D01*
X145990000Y-85090000D02*
X145990000Y-83760000D01*
X145990000Y-86360000D02*
X148650000Y-86360000D01*
X148650000Y-86360000D02*
X148650000Y-94040000D01*
X145990000Y-86360000D02*
X145990000Y-94040000D01*
X145990000Y-94040000D02*
X148650000Y-94040000D01*
X51050000Y-49785000D02*
X55880000Y-49785000D01*
X55880000Y-41655000D02*
X51050000Y-41655000D01*
X57790000Y-41655000D02*
X57790000Y-49785000D01*
X57790000Y-42925000D02*
X59180000Y-42925000D01*
X57790000Y-48515000D02*
X59180000Y-48515000D01*
X59180000Y-42925000D02*
X59180000Y-48515000D01*
X57790000Y-41655000D02*
X55880000Y-41655000D01*
X57790000Y-49785000D02*
X55880000Y-49785000D01*
X58930000Y-42925000D02*
X58930000Y-48515000D01*
X58040000Y-42925000D02*
X58040000Y-48515000D01*
X51310000Y-46105000D02*
X51050000Y-46105000D01*
X51310000Y-45335000D02*
X51310000Y-46105000D01*
X51050000Y-45335000D02*
X51310000Y-45335000D01*
X51050000Y-45335000D02*
X51050000Y-41655000D01*
X51050000Y-46105000D02*
X51050000Y-49785000D01*
X58080000Y-42615000D02*
X58080000Y-41315000D01*
X58080000Y-41315000D02*
X55880000Y-41315000D01*
X51050000Y-62485000D02*
X55880000Y-62485000D01*
X55880000Y-54355000D02*
X51050000Y-54355000D01*
X57790000Y-54355000D02*
X57790000Y-62485000D01*
X57790000Y-55625000D02*
X59180000Y-55625000D01*
X57790000Y-61215000D02*
X59180000Y-61215000D01*
X59180000Y-55625000D02*
X59180000Y-61215000D01*
X57790000Y-54355000D02*
X55880000Y-54355000D01*
X57790000Y-62485000D02*
X55880000Y-62485000D01*
X58930000Y-55625000D02*
X58930000Y-61215000D01*
X58040000Y-55625000D02*
X58040000Y-61215000D01*
X51310000Y-58805000D02*
X51050000Y-58805000D01*
X51310000Y-58035000D02*
X51310000Y-58805000D01*
X51050000Y-58035000D02*
X51310000Y-58035000D01*
X51050000Y-58035000D02*
X51050000Y-54355000D01*
X51050000Y-58805000D02*
X51050000Y-62485000D01*
X58080000Y-55315000D02*
X58080000Y-54015000D01*
X58080000Y-54015000D02*
X55880000Y-54015000D01*
X135407000Y-73660000D02*
X135407000Y-74676000D01*
X133502000Y-74676000D02*
X135407000Y-74676000D01*
X133502000Y-73660000D02*
X133502000Y-74676000D01*
X135407000Y-73660000D02*
X133502000Y-73660000D01*
X136042000Y-74168000D02*
X135407000Y-74168000D01*
X136042000Y-73533000D02*
X136042000Y-74168000D01*
X132842000Y-74168000D02*
X133502000Y-74168000D01*
X132842000Y-73533000D02*
X132842000Y-74168000D01*
X135026000Y-73660000D02*
X134391000Y-74676000D01*
X130680000Y-68550000D02*
X138480000Y-68550000D01*
X138480000Y-68550000D02*
X138480000Y-81250000D01*
X138480000Y-81250000D02*
X130680000Y-81250000D01*
X130680000Y-81250000D02*
X130680000Y-68550000D01*
X130480000Y-70450000D02*
X130480000Y-68350000D01*
X130480000Y-68350000D02*
X132680000Y-68350000D01*
X144480000Y-82870000D02*
X144780000Y-82270000D01*
X145080000Y-82870000D02*
X144480000Y-82870000D01*
X144780000Y-82270000D02*
X145080000Y-82870000D01*
X149690000Y-70030000D02*
X149690000Y-82070000D01*
X142670000Y-70030000D02*
X149690000Y-70030000D01*
X142670000Y-71230000D02*
X142670000Y-70030000D01*
X140970000Y-71230000D02*
X142670000Y-71230000D01*
X140970000Y-80870000D02*
X140970000Y-71230000D01*
X142670000Y-80870000D02*
X140970000Y-80870000D01*
X142670000Y-82070000D02*
X142670000Y-80870000D01*
X149690000Y-82070000D02*
X142670000Y-82070000D01*
X75969122Y-45972800D02*
X76486278Y-45972800D01*
X75969122Y-44552800D02*
X76486278Y-44552800D01*
X91968822Y-43178800D02*
X92485978Y-43178800D01*
X91968822Y-41758800D02*
X92485978Y-41758800D01*
X92485978Y-39117200D02*
X91968822Y-39117200D01*
X92485978Y-40537200D02*
X91968822Y-40537200D01*
X82529178Y-44502000D02*
X82012022Y-44502000D01*
X82529178Y-45922000D02*
X82012022Y-45922000D01*
X82012022Y-43255000D02*
X82529178Y-43255000D01*
X82012022Y-41835000D02*
X82529178Y-41835000D01*
X51024600Y-75413600D02*
X55854600Y-75413600D01*
X55854600Y-67283600D02*
X51024600Y-67283600D01*
X57764600Y-67283600D02*
X57764600Y-75413600D01*
X57764600Y-68553600D02*
X59154600Y-68553600D01*
X57764600Y-74143600D02*
X59154600Y-74143600D01*
X59154600Y-68553600D02*
X59154600Y-74143600D01*
X57764600Y-67283600D02*
X55854600Y-67283600D01*
X57764600Y-75413600D02*
X55854600Y-75413600D01*
X58904600Y-68553600D02*
X58904600Y-74143600D01*
X58014600Y-68553600D02*
X58014600Y-74143600D01*
X51284600Y-71733600D02*
X51024600Y-71733600D01*
X51284600Y-70963600D02*
X51284600Y-71733600D01*
X51024600Y-70963600D02*
X51284600Y-70963600D01*
X51024600Y-70963600D02*
X51024600Y-67283600D01*
X51024600Y-71733600D02*
X51024600Y-75413600D01*
X58054600Y-68243600D02*
X58054600Y-66943600D01*
X58054600Y-66943600D02*
X55854600Y-66943600D01*
X69910000Y-60450000D02*
X69910000Y-61470000D01*
X64710000Y-60450000D02*
X64710000Y-61470000D01*
X69910000Y-57910000D02*
X69910000Y-58930000D01*
X64710000Y-57910000D02*
X64710000Y-58930000D01*
X69910000Y-55370000D02*
X69910000Y-56390000D01*
X64710000Y-55370000D02*
X64710000Y-56390000D01*
X69910000Y-52830000D02*
X69910000Y-53850000D01*
X64710000Y-52830000D02*
X64710000Y-53850000D01*
X69910000Y-50290000D02*
X69910000Y-51310000D01*
X64710000Y-50290000D02*
X64710000Y-51310000D01*
X69910000Y-47750000D02*
X69910000Y-48770000D01*
X64710000Y-47750000D02*
X64710000Y-48770000D01*
X69910000Y-45210000D02*
X69910000Y-46230000D01*
X64710000Y-45210000D02*
X64710000Y-46230000D01*
X69910000Y-62990000D02*
X69910000Y-63560000D01*
X64710000Y-62990000D02*
X64710000Y-63560000D01*
X69910000Y-43120000D02*
X69910000Y-43690000D01*
X64710000Y-43120000D02*
X64710000Y-43690000D01*
X63270000Y-43690000D02*
X64710000Y-43690000D01*
X64710000Y-63560000D02*
X69910000Y-63560000D01*
X64710000Y-43120000D02*
X69910000Y-43120000D01*
X61808800Y-94799200D02*
X55798800Y-94799200D01*
X59558800Y-87979200D02*
X55798800Y-87979200D01*
X55798800Y-94799200D02*
X55798800Y-93539200D01*
X55798800Y-87979200D02*
X55798800Y-89239200D01*
X76483978Y-41835000D02*
X75966822Y-41835000D01*
X76483978Y-43255000D02*
X75966822Y-43255000D01*
X128183000Y-120354600D02*
X125383000Y-120354600D01*
X125383000Y-120354600D02*
X125383000Y-118354600D01*
X125383000Y-118354600D02*
X128183000Y-118354600D01*
X128183000Y-118354600D02*
X128183000Y-120354600D01*
X84579722Y-40511800D02*
X85096878Y-40511800D01*
X84579722Y-39091800D02*
X85096878Y-39091800D01*
X57840378Y-84659400D02*
X57323222Y-84659400D01*
X57840378Y-86079400D02*
X57323222Y-86079400D01*
X102245000Y-38090000D02*
X102245000Y-28750000D01*
X122545000Y-38090000D02*
X102245000Y-38090000D01*
X122545000Y-27950000D02*
X122545000Y-38090000D01*
X103045000Y-27950000D02*
X122545000Y-27950000D01*
X102245000Y-28750000D02*
X103045000Y-27950000D01*
X98707400Y-118119400D02*
X95907400Y-118119400D01*
X95907400Y-118119400D02*
X95907400Y-116119400D01*
X95907400Y-116119400D02*
X98707400Y-116119400D01*
X98707400Y-116119400D02*
X98707400Y-118119400D01*
X98707400Y-115046000D02*
X95907400Y-115046000D01*
X95907400Y-115046000D02*
X95907400Y-113046000D01*
X95907400Y-113046000D02*
X98707400Y-113046000D01*
X98707400Y-113046000D02*
X98707400Y-115046000D01*
X92770000Y-119828000D02*
X92770000Y-121158000D01*
X91440000Y-119828000D02*
X92770000Y-119828000D01*
X92770000Y-122428000D02*
X92770000Y-125028000D01*
X90170000Y-122428000D02*
X92770000Y-122428000D01*
X90170000Y-119828000D02*
X90170000Y-122428000D01*
X92770000Y-125028000D02*
X85030000Y-125028000D01*
X90170000Y-119828000D02*
X85030000Y-119828000D01*
X85030000Y-119828000D02*
X85030000Y-125028000D01*
X114302278Y-65253800D02*
X113785122Y-65253800D01*
X114302278Y-66673800D02*
X113785122Y-66673800D01*
X114378478Y-69698800D02*
X113861322Y-69698800D01*
X114378478Y-71118800D02*
X113861322Y-71118800D01*
X114357678Y-74093000D02*
X113840522Y-74093000D01*
X114357678Y-75513000D02*
X113840522Y-75513000D01*
X119820400Y-64978400D02*
X117135400Y-64978400D01*
X119820400Y-66898400D02*
X119820400Y-64978400D01*
X117135400Y-66898400D02*
X119820400Y-66898400D01*
X120023600Y-69423400D02*
X117338600Y-69423400D01*
X120023600Y-71343400D02*
X120023600Y-69423400D01*
X117338600Y-71343400D02*
X120023600Y-71343400D01*
X120023600Y-73843000D02*
X117338600Y-73843000D01*
X120023600Y-75763000D02*
X120023600Y-73843000D01*
X117338600Y-75763000D02*
X120023600Y-75763000D01*
X131886000Y-103438000D02*
X130556000Y-103438000D01*
X131886000Y-102108000D02*
X131886000Y-103438000D01*
X131886000Y-100838000D02*
X129226000Y-100838000D01*
X129226000Y-100838000D02*
X129226000Y-98238000D01*
X131886000Y-100838000D02*
X131886000Y-98238000D01*
X131886000Y-98238000D02*
X129226000Y-98238000D01*
X120650000Y-45700000D02*
X117200000Y-45700000D01*
X120650000Y-45700000D02*
X122600000Y-45700000D01*
X120650000Y-50820000D02*
X118700000Y-50820000D01*
X120650000Y-50820000D02*
X122600000Y-50820000D01*
X103886000Y-42398000D02*
X100436000Y-42398000D01*
X103886000Y-42398000D02*
X105836000Y-42398000D01*
X103886000Y-47518000D02*
X101936000Y-47518000D01*
X103886000Y-47518000D02*
X105836000Y-47518000D01*
X110796000Y-46906922D02*
X110796000Y-47424078D01*
X112216000Y-46906922D02*
X112216000Y-47424078D01*
X115772000Y-47424078D02*
X115772000Y-46906922D01*
X114352000Y-47424078D02*
X114352000Y-46906922D01*
X102620578Y-48820000D02*
X102103422Y-48820000D01*
X102620578Y-50240000D02*
X102103422Y-50240000D01*
X97918200Y-46985422D02*
X97918200Y-47502578D01*
X99338200Y-46985422D02*
X99338200Y-47502578D01*
X97918200Y-42999922D02*
X97918200Y-43517078D01*
X99338200Y-42999922D02*
X99338200Y-43517078D01*
X132080000Y-34905000D02*
X128630000Y-34905000D01*
X132080000Y-34905000D02*
X134030000Y-34905000D01*
X132080000Y-40025000D02*
X130130000Y-40025000D01*
X132080000Y-40025000D02*
X134030000Y-40025000D01*
X80655000Y-38090000D02*
X80655000Y-28750000D01*
X100955000Y-38090000D02*
X80655000Y-38090000D01*
X100955000Y-27950000D02*
X100955000Y-38090000D01*
X81455000Y-27950000D02*
X100955000Y-27950000D01*
X80655000Y-28750000D02*
X81455000Y-27950000D01*
X123264000Y-32821500D02*
X123264000Y-28938500D01*
X135816000Y-32821500D02*
X123264000Y-32821500D01*
X135816000Y-28138500D02*
X135816000Y-32821500D01*
X124064000Y-28138500D02*
X135816000Y-28138500D01*
X123264000Y-28938500D02*
X124064000Y-28138500D01*
X59065000Y-38090000D02*
X59065000Y-28750000D01*
X79365000Y-38090000D02*
X59065000Y-38090000D01*
X79365000Y-27950000D02*
X79365000Y-38090000D01*
X59865000Y-27950000D02*
X79365000Y-27950000D01*
X59065000Y-28750000D02*
X59865000Y-27950000D01*
D10*
X108931000Y-119132000D02*
X102956000Y-119132000D01*
X107356000Y-113607000D02*
X102956000Y-113607000D01*
D11*
X134285000Y-112960000D02*
X134760000Y-112960000D01*
X130540000Y-108740000D02*
X130540000Y-109215000D01*
X131015000Y-108740000D02*
X130540000Y-108740000D01*
X134760000Y-108740000D02*
X134760000Y-109215000D01*
X134285000Y-108740000D02*
X134760000Y-108740000D01*
X130540000Y-112960000D02*
X130540000Y-112485000D01*
X131015000Y-112960000D02*
X130540000Y-112960000D01*
X125020000Y-40381422D02*
X125020000Y-40898578D01*
X126440000Y-40381422D02*
X126440000Y-40898578D01*
X125020000Y-35936422D02*
X125020000Y-36453578D01*
X126440000Y-35936422D02*
X126440000Y-36453578D01*
X130103922Y-106760000D02*
X130621078Y-106760000D01*
X130103922Y-105340000D02*
X130621078Y-105340000D01*
X115376000Y-122368000D02*
X115376000Y-123698000D01*
X114046000Y-122368000D02*
X115376000Y-122368000D01*
X112776000Y-122368000D02*
X112776000Y-125028000D01*
X112776000Y-125028000D02*
X107636000Y-125028000D01*
X112776000Y-122368000D02*
X107636000Y-122368000D01*
X107636000Y-122368000D02*
X107636000Y-125028000D01*
X102676000Y-122368000D02*
X102676000Y-123698000D01*
X101346000Y-122368000D02*
X102676000Y-122368000D01*
X100076000Y-122368000D02*
X100076000Y-125028000D01*
X100076000Y-125028000D02*
X94936000Y-125028000D01*
X100076000Y-122368000D02*
X94936000Y-122368000D01*
X94936000Y-122368000D02*
X94936000Y-125028000D01*
X148150000Y-114400000D02*
X146200000Y-114400000D01*
X143980000Y-114400000D02*
X140750000Y-114400000D01*
X138830000Y-113680000D02*
X138830000Y-112600000D01*
X138830000Y-108380000D02*
X138830000Y-107300000D01*
X143980000Y-106580000D02*
X140750000Y-106580000D01*
X148150000Y-106580000D02*
X146200000Y-106580000D01*
X138830000Y-112600000D02*
X138400000Y-112600000D01*
X148150000Y-106580000D02*
X148150000Y-114400000D01*
X106303578Y-39295000D02*
X105786422Y-39295000D01*
X106303578Y-40715000D02*
X105786422Y-40715000D01*
X115772000Y-119384578D02*
X115772000Y-118867422D01*
X114352000Y-119384578D02*
X114352000Y-118867422D01*
X114352000Y-114549422D02*
X114352000Y-115066578D01*
X115772000Y-114549422D02*
X115772000Y-115066578D01*
X112216000Y-115066578D02*
X112216000Y-114549422D01*
X110796000Y-115066578D02*
X110796000Y-114549422D01*
X112294500Y-119384578D02*
X112294500Y-118867422D01*
X110874500Y-119384578D02*
X110874500Y-118867422D01*
X135053922Y-116760000D02*
X135571078Y-116760000D01*
X135053922Y-115340000D02*
X135571078Y-115340000D01*
X134091422Y-103110000D02*
X134608578Y-103110000D01*
X134091422Y-101690000D02*
X134608578Y-101690000D01*
X135053922Y-120460000D02*
X135571078Y-120460000D01*
X135053922Y-119040000D02*
X135571078Y-119040000D01*
X134178922Y-106710000D02*
X134696078Y-106710000D01*
X134178922Y-105290000D02*
X134696078Y-105290000D01*
X61758000Y-104121000D02*
X55748000Y-104121000D01*
X59508000Y-97301000D02*
X55748000Y-97301000D01*
X55748000Y-104121000D02*
X55748000Y-102861000D01*
X55748000Y-97301000D02*
X55748000Y-98561000D01*
D10*
X86840000Y-68421000D02*
X86840000Y-69696000D01*
X86265000Y-58071000D02*
X86265000Y-58746000D01*
X96615000Y-58071000D02*
X96615000Y-58746000D01*
X96615000Y-68421000D02*
X96615000Y-67746000D01*
X86265000Y-68421000D02*
X86265000Y-67746000D01*
X96615000Y-68421000D02*
X95940000Y-68421000D01*
X96615000Y-58071000D02*
X95940000Y-58071000D01*
X86265000Y-58071000D02*
X86940000Y-58071000D01*
X86265000Y-68421000D02*
X86840000Y-68421000D01*
D11*
X61698600Y-78811000D02*
X63158600Y-78811000D01*
X61698600Y-81971000D02*
X63858600Y-81971000D01*
X61698600Y-81971000D02*
X61698600Y-81041000D01*
X61698600Y-78811000D02*
X61698600Y-79741000D01*
X52962600Y-78741000D02*
X58362600Y-78741000D01*
X52962600Y-82041000D02*
X58362600Y-82041000D01*
X52962600Y-78741000D02*
X52962600Y-82041000D01*
X139265922Y-48716000D02*
X139783078Y-48716000D01*
X139265922Y-47296000D02*
X139783078Y-47296000D01*
X139783078Y-43994000D02*
X139265922Y-43994000D01*
X139783078Y-45414000D02*
X139265922Y-45414000D01*
X89073222Y-53694400D02*
X89590378Y-53694400D01*
X89073222Y-52274400D02*
X89590378Y-52274400D01*
X140115000Y-38370000D02*
X142915000Y-38370000D01*
X142915000Y-38370000D02*
X142915000Y-40370000D01*
X142915000Y-40370000D02*
X140115000Y-40370000D01*
X140115000Y-40370000D02*
X140115000Y-38370000D01*
X100833422Y-121360000D02*
X101350578Y-121360000D01*
X100833422Y-119940000D02*
X101350578Y-119940000D01*
X136879500Y-36317422D02*
X136879500Y-36834578D01*
X138299500Y-36317422D02*
X138299500Y-36834578D01*
X101116200Y-63250578D02*
X101116200Y-62733422D01*
X99696200Y-63250578D02*
X99696200Y-62733422D01*
X95726000Y-71590000D02*
X95726000Y-71190000D01*
X95526000Y-71590000D02*
X95526000Y-71190000D01*
X91926000Y-71590000D02*
X91926000Y-71190000D01*
X95726000Y-73590000D02*
X95726000Y-71590000D01*
X94526000Y-71190000D02*
X94526000Y-70790000D01*
X94526000Y-71190000D02*
X95526000Y-71190000D01*
X95526000Y-71590000D02*
X95526000Y-73590000D01*
X95526000Y-73590000D02*
X94526000Y-73590000D01*
X92726000Y-73590000D02*
X91926000Y-73590000D01*
X91926000Y-73590000D02*
X91926000Y-71590000D01*
X91926000Y-71190000D02*
X92726000Y-71190000D01*
D10*
X71237400Y-74656600D02*
X65262400Y-74656600D01*
X69662400Y-69131600D02*
X65262400Y-69131600D01*
D11*
X134112000Y-59416000D02*
X130662000Y-59416000D01*
X134112000Y-59416000D02*
X136062000Y-59416000D01*
X134112000Y-64536000D02*
X132162000Y-64536000D01*
X134112000Y-64536000D02*
X136062000Y-64536000D01*
X126487422Y-64464000D02*
X127004578Y-64464000D01*
X126487422Y-63044000D02*
X127004578Y-63044000D01*
X126487422Y-60908000D02*
X127004578Y-60908000D01*
X126487422Y-59488000D02*
X127004578Y-59488000D01*
X137443978Y-94260600D02*
X136926822Y-94260600D01*
X137443978Y-95680600D02*
X136926822Y-95680600D01*
X93806778Y-50064600D02*
X93289622Y-50064600D01*
X93806778Y-51484600D02*
X93289622Y-51484600D01*
X71454000Y-108600000D02*
X73194000Y-108600000D01*
X71454000Y-110340000D02*
X71454000Y-108600000D01*
X77244000Y-114240000D02*
X77244000Y-116690000D01*
X76844000Y-114240000D02*
X77244000Y-114240000D01*
X76844000Y-112240000D02*
X76844000Y-114240000D01*
X75244000Y-112240000D02*
X76844000Y-112240000D01*
X68444000Y-112240000D02*
X71444000Y-112240000D01*
X68444000Y-114240000D02*
X68444000Y-112240000D01*
X68044000Y-114240000D02*
X68444000Y-114240000D01*
X68044000Y-116690000D02*
X68044000Y-114240000D01*
X68044000Y-126940000D02*
X68044000Y-123390000D01*
X77244000Y-126940000D02*
X68044000Y-126940000D01*
X77244000Y-123390000D02*
X77244000Y-126940000D01*
X149140000Y-67045000D02*
X148290000Y-67045000D01*
X149140000Y-54875000D02*
X149140000Y-67045000D01*
X148290000Y-54875000D02*
X149140000Y-54875000D01*
X143920000Y-67045000D02*
X143920000Y-64720000D01*
X144770000Y-67045000D02*
X143920000Y-67045000D01*
X143920000Y-57200000D02*
X141530000Y-57200000D01*
X143920000Y-54875000D02*
X143920000Y-57200000D01*
X144770000Y-54875000D02*
X143920000Y-54875000D01*
X144720000Y-38040000D02*
X146050000Y-38040000D01*
X144720000Y-39370000D02*
X144720000Y-38040000D01*
X144720000Y-40640000D02*
X147380000Y-40640000D01*
X147380000Y-40640000D02*
X147380000Y-50860000D01*
X144720000Y-40640000D02*
X144720000Y-50860000D01*
X144720000Y-50860000D02*
X147380000Y-50860000D01*
X125790000Y-122368000D02*
X125790000Y-123698000D01*
X124460000Y-122368000D02*
X125790000Y-122368000D01*
X123190000Y-122368000D02*
X123190000Y-125028000D01*
X123190000Y-125028000D02*
X118050000Y-125028000D01*
X123190000Y-122368000D02*
X118050000Y-122368000D01*
X118050000Y-122368000D02*
X118050000Y-125028000D01*
X143142000Y-101190000D02*
X141927000Y-101190000D01*
X147102000Y-101130000D02*
X149362000Y-101130000D01*
X147102000Y-100630000D02*
X149362000Y-100630000D01*
X145502000Y-98030000D02*
X145502000Y-97030000D01*
X147102000Y-98030000D02*
X145502000Y-98030000D01*
X147102000Y-97030000D02*
X147102000Y-98030000D01*
X145502000Y-97030000D02*
X147102000Y-97030000D01*
X145502000Y-100630000D02*
X145502000Y-101630000D01*
X147102000Y-100630000D02*
X145502000Y-100630000D01*
X147102000Y-101630000D02*
X147102000Y-100630000D01*
X145502000Y-101630000D02*
X147102000Y-101630000D01*
X143142000Y-96270000D02*
X143142000Y-97190000D01*
X143142000Y-102390000D02*
X143142000Y-101470000D01*
X145002000Y-98830000D02*
X149362000Y-98830000D01*
X145002000Y-99830000D02*
X145002000Y-98830000D01*
X149362000Y-99830000D02*
X145002000Y-99830000D01*
X143142000Y-97190000D02*
X143142000Y-97470000D01*
X141542000Y-97190000D02*
X143142000Y-97190000D01*
X141542000Y-96270000D02*
X141542000Y-97190000D01*
X149362000Y-96270000D02*
X141542000Y-96270000D01*
X149362000Y-102390000D02*
X149362000Y-96270000D01*
X141542000Y-102390000D02*
X149362000Y-102390000D01*
X141542000Y-101470000D02*
X141542000Y-102390000D01*
X143142000Y-101470000D02*
X141542000Y-101470000D01*
X143142000Y-101190000D02*
X143142000Y-101470000D01*
X138490000Y-122368000D02*
X138490000Y-123698000D01*
X137160000Y-122368000D02*
X138490000Y-122368000D01*
X135890000Y-122368000D02*
X135890000Y-125028000D01*
X135890000Y-125028000D02*
X128210000Y-125028000D01*
X135890000Y-122368000D02*
X128210000Y-122368000D01*
X128210000Y-122368000D02*
X128210000Y-125028000D01*
X135660000Y-96940000D02*
X138210000Y-96940000D01*
X135660000Y-98640000D02*
X138210000Y-98640000D01*
X135660000Y-96940000D02*
X135660000Y-98640000D01*
X61218578Y-122988000D02*
X60701422Y-122988000D01*
X61218578Y-124408000D02*
X60701422Y-124408000D01*
X93213422Y-54558000D02*
X93730578Y-54558000D01*
X93213422Y-53138000D02*
X93730578Y-53138000D01*
X89403422Y-76656000D02*
X89920578Y-76656000D01*
X89403422Y-75236000D02*
X89920578Y-75236000D01*
X81840000Y-62733422D02*
X81840000Y-63250578D01*
X83260000Y-62733422D02*
X83260000Y-63250578D01*
X89403422Y-73100000D02*
X89920578Y-73100000D01*
X89403422Y-71680000D02*
X89920578Y-71680000D01*
X125528000Y-47239422D02*
X125528000Y-47756578D01*
X126948000Y-47239422D02*
X126948000Y-47756578D01*
X94990000Y-109474000D02*
G75*
G03X94990000Y-109474000I-6100000J0D01*
G01*
D10*
X58335942Y-40285942D02*
X58288323Y-40333561D01*
X58145466Y-40381180D01*
X58050228Y-40381180D01*
X57907371Y-40333561D01*
X57812133Y-40238323D01*
X57764514Y-40143085D01*
X57716895Y-39952609D01*
X57716895Y-39809752D01*
X57764514Y-39619276D01*
X57812133Y-39524038D01*
X57907371Y-39428800D01*
X58050228Y-39381180D01*
X58145466Y-39381180D01*
X58288323Y-39428800D01*
X58335942Y-39476419D01*
X58716895Y-39476419D02*
X58764514Y-39428800D01*
X58859752Y-39381180D01*
X59097847Y-39381180D01*
X59193085Y-39428800D01*
X59240704Y-39476419D01*
X59288323Y-39571657D01*
X59288323Y-39666895D01*
X59240704Y-39809752D01*
X58669276Y-40381180D01*
X59288323Y-40381180D01*
X59669276Y-39476419D02*
X59716895Y-39428800D01*
X59812133Y-39381180D01*
X60050228Y-39381180D01*
X60145466Y-39428800D01*
X60193085Y-39476419D01*
X60240704Y-39571657D01*
X60240704Y-39666895D01*
X60193085Y-39809752D01*
X59621657Y-40381180D01*
X60240704Y-40381180D01*
X98899742Y-40031942D02*
X98852123Y-40079561D01*
X98709266Y-40127180D01*
X98614028Y-40127180D01*
X98471171Y-40079561D01*
X98375933Y-39984323D01*
X98328314Y-39889085D01*
X98280695Y-39698609D01*
X98280695Y-39555752D01*
X98328314Y-39365276D01*
X98375933Y-39270038D01*
X98471171Y-39174800D01*
X98614028Y-39127180D01*
X98709266Y-39127180D01*
X98852123Y-39174800D01*
X98899742Y-39222419D01*
X99280695Y-39222419D02*
X99328314Y-39174800D01*
X99423552Y-39127180D01*
X99661647Y-39127180D01*
X99756885Y-39174800D01*
X99804504Y-39222419D01*
X99852123Y-39317657D01*
X99852123Y-39412895D01*
X99804504Y-39555752D01*
X99233076Y-40127180D01*
X99852123Y-40127180D01*
X100709266Y-39127180D02*
X100518790Y-39127180D01*
X100423552Y-39174800D01*
X100375933Y-39222419D01*
X100280695Y-39365276D01*
X100233076Y-39555752D01*
X100233076Y-39936704D01*
X100280695Y-40031942D01*
X100328314Y-40079561D01*
X100423552Y-40127180D01*
X100614028Y-40127180D01*
X100709266Y-40079561D01*
X100756885Y-40031942D01*
X100804504Y-39936704D01*
X100804504Y-39698609D01*
X100756885Y-39603371D01*
X100709266Y-39555752D01*
X100614028Y-39508133D01*
X100423552Y-39508133D01*
X100328314Y-39555752D01*
X100280695Y-39603371D01*
X100233076Y-39698609D01*
X76750942Y-39346142D02*
X76703323Y-39393761D01*
X76560466Y-39441380D01*
X76465228Y-39441380D01*
X76322371Y-39393761D01*
X76227133Y-39298523D01*
X76179514Y-39203285D01*
X76131895Y-39012809D01*
X76131895Y-38869952D01*
X76179514Y-38679476D01*
X76227133Y-38584238D01*
X76322371Y-38489000D01*
X76465228Y-38441380D01*
X76560466Y-38441380D01*
X76703323Y-38489000D01*
X76750942Y-38536619D01*
X77131895Y-38536619D02*
X77179514Y-38489000D01*
X77274752Y-38441380D01*
X77512847Y-38441380D01*
X77608085Y-38489000D01*
X77655704Y-38536619D01*
X77703323Y-38631857D01*
X77703323Y-38727095D01*
X77655704Y-38869952D01*
X77084276Y-39441380D01*
X77703323Y-39441380D01*
X78608085Y-38441380D02*
X78131895Y-38441380D01*
X78084276Y-38917571D01*
X78131895Y-38869952D01*
X78227133Y-38822333D01*
X78465228Y-38822333D01*
X78560466Y-38869952D01*
X78608085Y-38917571D01*
X78655704Y-39012809D01*
X78655704Y-39250904D01*
X78608085Y-39346142D01*
X78560466Y-39393761D01*
X78465228Y-39441380D01*
X78227133Y-39441380D01*
X78131895Y-39393761D01*
X78084276Y-39346142D01*
X68978542Y-40133542D02*
X68930923Y-40181161D01*
X68788066Y-40228780D01*
X68692828Y-40228780D01*
X68549971Y-40181161D01*
X68454733Y-40085923D01*
X68407114Y-39990685D01*
X68359495Y-39800209D01*
X68359495Y-39657352D01*
X68407114Y-39466876D01*
X68454733Y-39371638D01*
X68549971Y-39276400D01*
X68692828Y-39228780D01*
X68788066Y-39228780D01*
X68930923Y-39276400D01*
X68978542Y-39324019D01*
X69359495Y-39324019D02*
X69407114Y-39276400D01*
X69502352Y-39228780D01*
X69740447Y-39228780D01*
X69835685Y-39276400D01*
X69883304Y-39324019D01*
X69930923Y-39419257D01*
X69930923Y-39514495D01*
X69883304Y-39657352D01*
X69311876Y-40228780D01*
X69930923Y-40228780D01*
X70788066Y-39562114D02*
X70788066Y-40228780D01*
X70549971Y-39181161D02*
X70311876Y-39895447D01*
X70930923Y-39895447D01*
X70188142Y-99691180D02*
X69854809Y-99214990D01*
X69616714Y-99691180D02*
X69616714Y-98691180D01*
X69997666Y-98691180D01*
X70092904Y-98738800D01*
X70140523Y-98786419D01*
X70188142Y-98881657D01*
X70188142Y-99024514D01*
X70140523Y-99119752D01*
X70092904Y-99167371D01*
X69997666Y-99214990D01*
X69616714Y-99214990D01*
X70569095Y-98786419D02*
X70616714Y-98738800D01*
X70711952Y-98691180D01*
X70950047Y-98691180D01*
X71045285Y-98738800D01*
X71092904Y-98786419D01*
X71140523Y-98881657D01*
X71140523Y-98976895D01*
X71092904Y-99119752D01*
X70521476Y-99691180D01*
X71140523Y-99691180D01*
X71997666Y-99024514D02*
X71997666Y-99691180D01*
X71759571Y-98643561D02*
X71521476Y-99357847D01*
X72140523Y-99357847D01*
X65778142Y-99691180D02*
X65444809Y-99214990D01*
X65206714Y-99691180D02*
X65206714Y-98691180D01*
X65587666Y-98691180D01*
X65682904Y-98738800D01*
X65730523Y-98786419D01*
X65778142Y-98881657D01*
X65778142Y-99024514D01*
X65730523Y-99119752D01*
X65682904Y-99167371D01*
X65587666Y-99214990D01*
X65206714Y-99214990D01*
X66159095Y-98786419D02*
X66206714Y-98738800D01*
X66301952Y-98691180D01*
X66540047Y-98691180D01*
X66635285Y-98738800D01*
X66682904Y-98786419D01*
X66730523Y-98881657D01*
X66730523Y-98976895D01*
X66682904Y-99119752D01*
X66111476Y-99691180D01*
X66730523Y-99691180D01*
X67063857Y-98691180D02*
X67682904Y-98691180D01*
X67349571Y-99072133D01*
X67492428Y-99072133D01*
X67587666Y-99119752D01*
X67635285Y-99167371D01*
X67682904Y-99262609D01*
X67682904Y-99500704D01*
X67635285Y-99595942D01*
X67587666Y-99643561D01*
X67492428Y-99691180D01*
X67206714Y-99691180D01*
X67111476Y-99643561D01*
X67063857Y-99595942D01*
X118182104Y-51237780D02*
X118182104Y-52047304D01*
X118229723Y-52142542D01*
X118277342Y-52190161D01*
X118372580Y-52237780D01*
X118563057Y-52237780D01*
X118658295Y-52190161D01*
X118705914Y-52142542D01*
X118753533Y-52047304D01*
X118753533Y-51237780D01*
X119753533Y-52237780D02*
X119182104Y-52237780D01*
X119467819Y-52237780D02*
X119467819Y-51237780D01*
X119372580Y-51380638D01*
X119277342Y-51475876D01*
X119182104Y-51523495D01*
X120086866Y-51237780D02*
X120753533Y-51237780D01*
X120324961Y-52237780D01*
X79857695Y-50074580D02*
X79857695Y-50884104D01*
X79905314Y-50979342D01*
X79952933Y-51026961D01*
X80048171Y-51074580D01*
X80238647Y-51074580D01*
X80333885Y-51026961D01*
X80381504Y-50979342D01*
X80429123Y-50884104D01*
X80429123Y-50074580D01*
X81333885Y-50074580D02*
X81143409Y-50074580D01*
X81048171Y-50122200D01*
X81000552Y-50169819D01*
X80905314Y-50312676D01*
X80857695Y-50503152D01*
X80857695Y-50884104D01*
X80905314Y-50979342D01*
X80952933Y-51026961D01*
X81048171Y-51074580D01*
X81238647Y-51074580D01*
X81333885Y-51026961D01*
X81381504Y-50979342D01*
X81429123Y-50884104D01*
X81429123Y-50646009D01*
X81381504Y-50550771D01*
X81333885Y-50503152D01*
X81238647Y-50455533D01*
X81048171Y-50455533D01*
X80952933Y-50503152D01*
X80905314Y-50550771D01*
X80857695Y-50646009D01*
X60295876Y-109176980D02*
X60295876Y-109891266D01*
X60248257Y-110034123D01*
X60153019Y-110129361D01*
X60010161Y-110176980D01*
X59914923Y-110176980D01*
X60772066Y-110176980D02*
X60772066Y-109176980D01*
X61153019Y-109176980D01*
X61248257Y-109224600D01*
X61295876Y-109272219D01*
X61343495Y-109367457D01*
X61343495Y-109510314D01*
X61295876Y-109605552D01*
X61248257Y-109653171D01*
X61153019Y-109700790D01*
X60772066Y-109700790D01*
X62295876Y-110176980D02*
X61724447Y-110176980D01*
X62010161Y-110176980D02*
X62010161Y-109176980D01*
X61914923Y-109319838D01*
X61819685Y-109415076D01*
X61724447Y-109462695D01*
X62914923Y-109176980D02*
X63010161Y-109176980D01*
X63105400Y-109224600D01*
X63153019Y-109272219D01*
X63200638Y-109367457D01*
X63248257Y-109557933D01*
X63248257Y-109796028D01*
X63200638Y-109986504D01*
X63153019Y-110081742D01*
X63105400Y-110129361D01*
X63010161Y-110176980D01*
X62914923Y-110176980D01*
X62819685Y-110129361D01*
X62772066Y-110081742D01*
X62724447Y-109986504D01*
X62676828Y-109796028D01*
X62676828Y-109557933D01*
X62724447Y-109367457D01*
X62772066Y-109272219D01*
X62819685Y-109224600D01*
X62914923Y-109176980D01*
X70458104Y-105024180D02*
X70458104Y-104024180D01*
X70696200Y-104024180D01*
X70839057Y-104071800D01*
X70934295Y-104167038D01*
X70981914Y-104262276D01*
X71029533Y-104452752D01*
X71029533Y-104595609D01*
X70981914Y-104786085D01*
X70934295Y-104881323D01*
X70839057Y-104976561D01*
X70696200Y-105024180D01*
X70458104Y-105024180D01*
X71886676Y-104024180D02*
X71696200Y-104024180D01*
X71600961Y-104071800D01*
X71553342Y-104119419D01*
X71458104Y-104262276D01*
X71410485Y-104452752D01*
X71410485Y-104833704D01*
X71458104Y-104928942D01*
X71505723Y-104976561D01*
X71600961Y-105024180D01*
X71791438Y-105024180D01*
X71886676Y-104976561D01*
X71934295Y-104928942D01*
X71981914Y-104833704D01*
X71981914Y-104595609D01*
X71934295Y-104500371D01*
X71886676Y-104452752D01*
X71791438Y-104405133D01*
X71600961Y-104405133D01*
X71505723Y-104452752D01*
X71458104Y-104500371D01*
X71410485Y-104595609D01*
X133367542Y-55831742D02*
X133319923Y-55879361D01*
X133177066Y-55926980D01*
X133081828Y-55926980D01*
X132938971Y-55879361D01*
X132843733Y-55784123D01*
X132796114Y-55688885D01*
X132748495Y-55498409D01*
X132748495Y-55355552D01*
X132796114Y-55165076D01*
X132843733Y-55069838D01*
X132938971Y-54974600D01*
X133081828Y-54926980D01*
X133177066Y-54926980D01*
X133319923Y-54974600D01*
X133367542Y-55022219D01*
X133748495Y-55022219D02*
X133796114Y-54974600D01*
X133891352Y-54926980D01*
X134129447Y-54926980D01*
X134224685Y-54974600D01*
X134272304Y-55022219D01*
X134319923Y-55117457D01*
X134319923Y-55212695D01*
X134272304Y-55355552D01*
X133700876Y-55926980D01*
X134319923Y-55926980D01*
X134653257Y-54926980D02*
X135272304Y-54926980D01*
X134938971Y-55307933D01*
X135081828Y-55307933D01*
X135177066Y-55355552D01*
X135224685Y-55403171D01*
X135272304Y-55498409D01*
X135272304Y-55736504D01*
X135224685Y-55831742D01*
X135177066Y-55879361D01*
X135081828Y-55926980D01*
X134796114Y-55926980D01*
X134700876Y-55879361D01*
X134653257Y-55831742D01*
X60412380Y-111939523D02*
X61126666Y-111939523D01*
X61269523Y-111987142D01*
X61364761Y-112082380D01*
X61412380Y-112225238D01*
X61412380Y-112320476D01*
X61412380Y-110939523D02*
X61412380Y-111510952D01*
X61412380Y-111225238D02*
X60412380Y-111225238D01*
X60555238Y-111320476D01*
X60650476Y-111415714D01*
X60698095Y-111510952D01*
X60840952Y-110368095D02*
X60793333Y-110463333D01*
X60745714Y-110510952D01*
X60650476Y-110558571D01*
X60602857Y-110558571D01*
X60507619Y-110510952D01*
X60460000Y-110463333D01*
X60412380Y-110368095D01*
X60412380Y-110177619D01*
X60460000Y-110082380D01*
X60507619Y-110034761D01*
X60602857Y-109987142D01*
X60650476Y-109987142D01*
X60745714Y-110034761D01*
X60793333Y-110082380D01*
X60840952Y-110177619D01*
X60840952Y-110368095D01*
X60888571Y-110463333D01*
X60936190Y-110510952D01*
X61031428Y-110558571D01*
X61221904Y-110558571D01*
X61317142Y-110510952D01*
X61364761Y-110463333D01*
X61412380Y-110368095D01*
X61412380Y-110177619D01*
X61364761Y-110082380D01*
X61317142Y-110034761D01*
X61221904Y-109987142D01*
X61031428Y-109987142D01*
X60936190Y-110034761D01*
X60888571Y-110082380D01*
X60840952Y-110177619D01*
X146510476Y-82212380D02*
X146510476Y-82926666D01*
X146462857Y-83069523D01*
X146367619Y-83164761D01*
X146224761Y-83212380D01*
X146129523Y-83212380D01*
X147510476Y-83212380D02*
X146939047Y-83212380D01*
X147224761Y-83212380D02*
X147224761Y-82212380D01*
X147129523Y-82355238D01*
X147034285Y-82450476D01*
X146939047Y-82498095D01*
X148367619Y-82212380D02*
X148177142Y-82212380D01*
X148081904Y-82260000D01*
X148034285Y-82307619D01*
X147939047Y-82450476D01*
X147891428Y-82640952D01*
X147891428Y-83021904D01*
X147939047Y-83117142D01*
X147986666Y-83164761D01*
X148081904Y-83212380D01*
X148272380Y-83212380D01*
X148367619Y-83164761D01*
X148415238Y-83117142D01*
X148462857Y-83021904D01*
X148462857Y-82783809D01*
X148415238Y-82688571D01*
X148367619Y-82640952D01*
X148272380Y-82593333D01*
X148081904Y-82593333D01*
X147986666Y-82640952D01*
X147939047Y-82688571D01*
X147891428Y-82783809D01*
X60412380Y-46534523D02*
X61126666Y-46534523D01*
X61269523Y-46582142D01*
X61364761Y-46677380D01*
X61412380Y-46820238D01*
X61412380Y-46915476D01*
X61412380Y-45534523D02*
X61412380Y-46105952D01*
X61412380Y-45820238D02*
X60412380Y-45820238D01*
X60555238Y-45915476D01*
X60650476Y-46010714D01*
X60698095Y-46105952D01*
X60745714Y-44677380D02*
X61412380Y-44677380D01*
X60364761Y-44915476D02*
X61079047Y-45153571D01*
X61079047Y-44534523D01*
X60412380Y-59234523D02*
X61126666Y-59234523D01*
X61269523Y-59282142D01*
X61364761Y-59377380D01*
X61412380Y-59520238D01*
X61412380Y-59615476D01*
X61412380Y-58234523D02*
X61412380Y-58805952D01*
X61412380Y-58520238D02*
X60412380Y-58520238D01*
X60555238Y-58615476D01*
X60650476Y-58710714D01*
X60698095Y-58805952D01*
X60412380Y-57901190D02*
X60412380Y-57282142D01*
X60793333Y-57615476D01*
X60793333Y-57472619D01*
X60840952Y-57377380D01*
X60888571Y-57329761D01*
X60983809Y-57282142D01*
X61221904Y-57282142D01*
X61317142Y-57329761D01*
X61364761Y-57377380D01*
X61412380Y-57472619D01*
X61412380Y-57758333D01*
X61364761Y-57853571D01*
X61317142Y-57901190D01*
X133841904Y-68102380D02*
X133841904Y-67102380D01*
X134413333Y-68102380D02*
X133984761Y-67530952D01*
X134413333Y-67102380D02*
X133841904Y-67673809D01*
X135365714Y-68102380D02*
X134794285Y-68102380D01*
X135080000Y-68102380D02*
X135080000Y-67102380D01*
X134984761Y-67245238D01*
X134889523Y-67340476D01*
X134794285Y-67388095D01*
X139332380Y-76859523D02*
X140046666Y-76859523D01*
X140189523Y-76907142D01*
X140284761Y-77002380D01*
X140332380Y-77145238D01*
X140332380Y-77240476D01*
X140332380Y-75859523D02*
X140332380Y-76430952D01*
X140332380Y-76145238D02*
X139332380Y-76145238D01*
X139475238Y-76240476D01*
X139570476Y-76335714D01*
X139618095Y-76430952D01*
X139332380Y-74954761D02*
X139332380Y-75430952D01*
X139808571Y-75478571D01*
X139760952Y-75430952D01*
X139713333Y-75335714D01*
X139713333Y-75097619D01*
X139760952Y-75002380D01*
X139808571Y-74954761D01*
X139903809Y-74907142D01*
X140141904Y-74907142D01*
X140237142Y-74954761D01*
X140284761Y-75002380D01*
X140332380Y-75097619D01*
X140332380Y-75335714D01*
X140284761Y-75430952D01*
X140237142Y-75478571D01*
X75582542Y-47620180D02*
X75249209Y-47143990D01*
X75011114Y-47620180D02*
X75011114Y-46620180D01*
X75392066Y-46620180D01*
X75487304Y-46667800D01*
X75534923Y-46715419D01*
X75582542Y-46810657D01*
X75582542Y-46953514D01*
X75534923Y-47048752D01*
X75487304Y-47096371D01*
X75392066Y-47143990D01*
X75011114Y-47143990D01*
X76534923Y-47620180D02*
X75963495Y-47620180D01*
X76249209Y-47620180D02*
X76249209Y-46620180D01*
X76153971Y-46763038D01*
X76058733Y-46858276D01*
X75963495Y-46905895D01*
X77106352Y-47048752D02*
X77011114Y-47001133D01*
X76963495Y-46953514D01*
X76915876Y-46858276D01*
X76915876Y-46810657D01*
X76963495Y-46715419D01*
X77011114Y-46667800D01*
X77106352Y-46620180D01*
X77296828Y-46620180D01*
X77392066Y-46667800D01*
X77439685Y-46715419D01*
X77487304Y-46810657D01*
X77487304Y-46858276D01*
X77439685Y-46953514D01*
X77392066Y-47001133D01*
X77296828Y-47048752D01*
X77106352Y-47048752D01*
X77011114Y-47096371D01*
X76963495Y-47143990D01*
X76915876Y-47239228D01*
X76915876Y-47429704D01*
X76963495Y-47524942D01*
X77011114Y-47572561D01*
X77106352Y-47620180D01*
X77296828Y-47620180D01*
X77392066Y-47572561D01*
X77439685Y-47524942D01*
X77487304Y-47429704D01*
X77487304Y-47239228D01*
X77439685Y-47143990D01*
X77392066Y-47096371D01*
X77296828Y-47048752D01*
X88003142Y-42921180D02*
X87669809Y-42444990D01*
X87431714Y-42921180D02*
X87431714Y-41921180D01*
X87812666Y-41921180D01*
X87907904Y-41968800D01*
X87955523Y-42016419D01*
X88003142Y-42111657D01*
X88003142Y-42254514D01*
X87955523Y-42349752D01*
X87907904Y-42397371D01*
X87812666Y-42444990D01*
X87431714Y-42444990D01*
X88384095Y-42016419D02*
X88431714Y-41968800D01*
X88526952Y-41921180D01*
X88765047Y-41921180D01*
X88860285Y-41968800D01*
X88907904Y-42016419D01*
X88955523Y-42111657D01*
X88955523Y-42206895D01*
X88907904Y-42349752D01*
X88336476Y-42921180D01*
X88955523Y-42921180D01*
X89336476Y-42016419D02*
X89384095Y-41968800D01*
X89479333Y-41921180D01*
X89717428Y-41921180D01*
X89812666Y-41968800D01*
X89860285Y-42016419D01*
X89907904Y-42111657D01*
X89907904Y-42206895D01*
X89860285Y-42349752D01*
X89288857Y-42921180D01*
X89907904Y-42921180D01*
X94911942Y-39898580D02*
X94578609Y-39422390D01*
X94340514Y-39898580D02*
X94340514Y-38898580D01*
X94721466Y-38898580D01*
X94816704Y-38946200D01*
X94864323Y-38993819D01*
X94911942Y-39089057D01*
X94911942Y-39231914D01*
X94864323Y-39327152D01*
X94816704Y-39374771D01*
X94721466Y-39422390D01*
X94340514Y-39422390D01*
X95292895Y-38993819D02*
X95340514Y-38946200D01*
X95435752Y-38898580D01*
X95673847Y-38898580D01*
X95769085Y-38946200D01*
X95816704Y-38993819D01*
X95864323Y-39089057D01*
X95864323Y-39184295D01*
X95816704Y-39327152D01*
X95245276Y-39898580D01*
X95864323Y-39898580D01*
X96816704Y-39898580D02*
X96245276Y-39898580D01*
X96530990Y-39898580D02*
X96530990Y-38898580D01*
X96435752Y-39041438D01*
X96340514Y-39136676D01*
X96245276Y-39184295D01*
X84878942Y-45740580D02*
X84545609Y-45264390D01*
X84307514Y-45740580D02*
X84307514Y-44740580D01*
X84688466Y-44740580D01*
X84783704Y-44788200D01*
X84831323Y-44835819D01*
X84878942Y-44931057D01*
X84878942Y-45073914D01*
X84831323Y-45169152D01*
X84783704Y-45216771D01*
X84688466Y-45264390D01*
X84307514Y-45264390D01*
X85259895Y-44835819D02*
X85307514Y-44788200D01*
X85402752Y-44740580D01*
X85640847Y-44740580D01*
X85736085Y-44788200D01*
X85783704Y-44835819D01*
X85831323Y-44931057D01*
X85831323Y-45026295D01*
X85783704Y-45169152D01*
X85212276Y-45740580D01*
X85831323Y-45740580D01*
X86450371Y-44740580D02*
X86545609Y-44740580D01*
X86640847Y-44788200D01*
X86688466Y-44835819D01*
X86736085Y-44931057D01*
X86783704Y-45121533D01*
X86783704Y-45359628D01*
X86736085Y-45550104D01*
X86688466Y-45645342D01*
X86640847Y-45692961D01*
X86545609Y-45740580D01*
X86450371Y-45740580D01*
X86355133Y-45692961D01*
X86307514Y-45645342D01*
X86259895Y-45550104D01*
X86212276Y-45359628D01*
X86212276Y-45121533D01*
X86259895Y-44931057D01*
X86307514Y-44835819D01*
X86355133Y-44788200D01*
X86450371Y-44740580D01*
X84777342Y-43048180D02*
X84444009Y-42571990D01*
X84205914Y-43048180D02*
X84205914Y-42048180D01*
X84586866Y-42048180D01*
X84682104Y-42095800D01*
X84729723Y-42143419D01*
X84777342Y-42238657D01*
X84777342Y-42381514D01*
X84729723Y-42476752D01*
X84682104Y-42524371D01*
X84586866Y-42571990D01*
X84205914Y-42571990D01*
X85729723Y-43048180D02*
X85158295Y-43048180D01*
X85444009Y-43048180D02*
X85444009Y-42048180D01*
X85348771Y-42191038D01*
X85253533Y-42286276D01*
X85158295Y-42333895D01*
X86205914Y-43048180D02*
X86396390Y-43048180D01*
X86491628Y-43000561D01*
X86539247Y-42952942D01*
X86634485Y-42810085D01*
X86682104Y-42619609D01*
X86682104Y-42238657D01*
X86634485Y-42143419D01*
X86586866Y-42095800D01*
X86491628Y-42048180D01*
X86301152Y-42048180D01*
X86205914Y-42095800D01*
X86158295Y-42143419D01*
X86110676Y-42238657D01*
X86110676Y-42476752D01*
X86158295Y-42571990D01*
X86205914Y-42619609D01*
X86301152Y-42667228D01*
X86491628Y-42667228D01*
X86586866Y-42619609D01*
X86634485Y-42571990D01*
X86682104Y-42476752D01*
X60386980Y-72163123D02*
X61101266Y-72163123D01*
X61244123Y-72210742D01*
X61339361Y-72305980D01*
X61386980Y-72448838D01*
X61386980Y-72544076D01*
X61386980Y-71163123D02*
X61386980Y-71734552D01*
X61386980Y-71448838D02*
X60386980Y-71448838D01*
X60529838Y-71544076D01*
X60625076Y-71639314D01*
X60672695Y-71734552D01*
X60482219Y-70782171D02*
X60434600Y-70734552D01*
X60386980Y-70639314D01*
X60386980Y-70401219D01*
X60434600Y-70305980D01*
X60482219Y-70258361D01*
X60577457Y-70210742D01*
X60672695Y-70210742D01*
X60815552Y-70258361D01*
X61386980Y-70829790D01*
X61386980Y-70210742D01*
X66976666Y-41572380D02*
X66976666Y-42286666D01*
X66929047Y-42429523D01*
X66833809Y-42524761D01*
X66690952Y-42572380D01*
X66595714Y-42572380D01*
X67881428Y-41572380D02*
X67690952Y-41572380D01*
X67595714Y-41620000D01*
X67548095Y-41667619D01*
X67452857Y-41810476D01*
X67405238Y-42000952D01*
X67405238Y-42381904D01*
X67452857Y-42477142D01*
X67500476Y-42524761D01*
X67595714Y-42572380D01*
X67786190Y-42572380D01*
X67881428Y-42524761D01*
X67929047Y-42477142D01*
X67976666Y-42381904D01*
X67976666Y-42143809D01*
X67929047Y-42048571D01*
X67881428Y-42000952D01*
X67786190Y-41953333D01*
X67595714Y-41953333D01*
X67500476Y-42000952D01*
X67452857Y-42048571D01*
X67405238Y-42143809D01*
X56394504Y-90841580D02*
X56394504Y-91651104D01*
X56442123Y-91746342D01*
X56489742Y-91793961D01*
X56584980Y-91841580D01*
X56775457Y-91841580D01*
X56870695Y-91793961D01*
X56918314Y-91746342D01*
X56965933Y-91651104D01*
X56965933Y-90841580D01*
X57965933Y-91841580D02*
X57394504Y-91841580D01*
X57680219Y-91841580D02*
X57680219Y-90841580D01*
X57584980Y-90984438D01*
X57489742Y-91079676D01*
X57394504Y-91127295D01*
X58823076Y-90841580D02*
X58632600Y-90841580D01*
X58537361Y-90889200D01*
X58489742Y-90936819D01*
X58394504Y-91079676D01*
X58346885Y-91270152D01*
X58346885Y-91651104D01*
X58394504Y-91746342D01*
X58442123Y-91793961D01*
X58537361Y-91841580D01*
X58727838Y-91841580D01*
X58823076Y-91793961D01*
X58870695Y-91746342D01*
X58918314Y-91651104D01*
X58918314Y-91413009D01*
X58870695Y-91317771D01*
X58823076Y-91270152D01*
X58727838Y-91222533D01*
X58537361Y-91222533D01*
X58442123Y-91270152D01*
X58394504Y-91317771D01*
X58346885Y-91413009D01*
X75658742Y-40939980D02*
X75325409Y-40463790D01*
X75087314Y-40939980D02*
X75087314Y-39939980D01*
X75468266Y-39939980D01*
X75563504Y-39987600D01*
X75611123Y-40035219D01*
X75658742Y-40130457D01*
X75658742Y-40273314D01*
X75611123Y-40368552D01*
X75563504Y-40416171D01*
X75468266Y-40463790D01*
X75087314Y-40463790D01*
X76611123Y-40939980D02*
X76039695Y-40939980D01*
X76325409Y-40939980D02*
X76325409Y-39939980D01*
X76230171Y-40082838D01*
X76134933Y-40178076D01*
X76039695Y-40225695D01*
X76944457Y-39939980D02*
X77611123Y-39939980D01*
X77182552Y-40939980D01*
X125949666Y-120606980D02*
X125949666Y-121321266D01*
X125902047Y-121464123D01*
X125806809Y-121559361D01*
X125663952Y-121606980D01*
X125568714Y-121606980D01*
X126425857Y-121606980D02*
X126425857Y-120606980D01*
X126806809Y-120606980D01*
X126902047Y-120654600D01*
X126949666Y-120702219D01*
X126997285Y-120797457D01*
X126997285Y-120940314D01*
X126949666Y-121035552D01*
X126902047Y-121083171D01*
X126806809Y-121130790D01*
X126425857Y-121130790D01*
X127902047Y-120606980D02*
X127425857Y-120606980D01*
X127378238Y-121083171D01*
X127425857Y-121035552D01*
X127521095Y-120987933D01*
X127759190Y-120987933D01*
X127854428Y-121035552D01*
X127902047Y-121083171D01*
X127949666Y-121178409D01*
X127949666Y-121416504D01*
X127902047Y-121511742D01*
X127854428Y-121559361D01*
X127759190Y-121606980D01*
X127521095Y-121606980D01*
X127425857Y-121559361D01*
X127378238Y-121511742D01*
X87599042Y-40158942D02*
X87551423Y-40206561D01*
X87408566Y-40254180D01*
X87313328Y-40254180D01*
X87170471Y-40206561D01*
X87075233Y-40111323D01*
X87027614Y-40016085D01*
X86979995Y-39825609D01*
X86979995Y-39682752D01*
X87027614Y-39492276D01*
X87075233Y-39397038D01*
X87170471Y-39301800D01*
X87313328Y-39254180D01*
X87408566Y-39254180D01*
X87551423Y-39301800D01*
X87599042Y-39349419D01*
X88551423Y-40254180D02*
X87979995Y-40254180D01*
X88265709Y-40254180D02*
X88265709Y-39254180D01*
X88170471Y-39397038D01*
X88075233Y-39492276D01*
X87979995Y-39539895D01*
X88884757Y-39254180D02*
X89503804Y-39254180D01*
X89170471Y-39635133D01*
X89313328Y-39635133D01*
X89408566Y-39682752D01*
X89456185Y-39730371D01*
X89503804Y-39825609D01*
X89503804Y-40063704D01*
X89456185Y-40158942D01*
X89408566Y-40206561D01*
X89313328Y-40254180D01*
X89027614Y-40254180D01*
X88932376Y-40206561D01*
X88884757Y-40158942D01*
X53586142Y-85599542D02*
X53538523Y-85647161D01*
X53395666Y-85694780D01*
X53300428Y-85694780D01*
X53157571Y-85647161D01*
X53062333Y-85551923D01*
X53014714Y-85456685D01*
X52967095Y-85266209D01*
X52967095Y-85123352D01*
X53014714Y-84932876D01*
X53062333Y-84837638D01*
X53157571Y-84742400D01*
X53300428Y-84694780D01*
X53395666Y-84694780D01*
X53538523Y-84742400D01*
X53586142Y-84790019D01*
X53967095Y-84790019D02*
X54014714Y-84742400D01*
X54109952Y-84694780D01*
X54348047Y-84694780D01*
X54443285Y-84742400D01*
X54490904Y-84790019D01*
X54538523Y-84885257D01*
X54538523Y-84980495D01*
X54490904Y-85123352D01*
X53919476Y-85694780D01*
X54538523Y-85694780D01*
X55490904Y-85694780D02*
X54919476Y-85694780D01*
X55205190Y-85694780D02*
X55205190Y-84694780D01*
X55109952Y-84837638D01*
X55014714Y-84932876D01*
X54919476Y-84980495D01*
X106356304Y-28992580D02*
X106356304Y-29802104D01*
X106403923Y-29897342D01*
X106451542Y-29944961D01*
X106546780Y-29992580D01*
X106737257Y-29992580D01*
X106832495Y-29944961D01*
X106880114Y-29897342D01*
X106927733Y-29802104D01*
X106927733Y-28992580D01*
X107927733Y-29992580D02*
X107356304Y-29992580D01*
X107642019Y-29992580D02*
X107642019Y-28992580D01*
X107546780Y-29135438D01*
X107451542Y-29230676D01*
X107356304Y-29278295D01*
X108880114Y-29992580D02*
X108308685Y-29992580D01*
X108594400Y-29992580D02*
X108594400Y-28992580D01*
X108499161Y-29135438D01*
X108403923Y-29230676D01*
X108308685Y-29278295D01*
X96448666Y-118933980D02*
X96448666Y-119648266D01*
X96401047Y-119791123D01*
X96305809Y-119886361D01*
X96162952Y-119933980D01*
X96067714Y-119933980D01*
X96924857Y-119933980D02*
X96924857Y-118933980D01*
X97305809Y-118933980D01*
X97401047Y-118981600D01*
X97448666Y-119029219D01*
X97496285Y-119124457D01*
X97496285Y-119267314D01*
X97448666Y-119362552D01*
X97401047Y-119410171D01*
X97305809Y-119457790D01*
X96924857Y-119457790D01*
X97829619Y-118933980D02*
X98448666Y-118933980D01*
X98115333Y-119314933D01*
X98258190Y-119314933D01*
X98353428Y-119362552D01*
X98401047Y-119410171D01*
X98448666Y-119505409D01*
X98448666Y-119743504D01*
X98401047Y-119838742D01*
X98353428Y-119886361D01*
X98258190Y-119933980D01*
X97972476Y-119933980D01*
X97877238Y-119886361D01*
X97829619Y-119838742D01*
X96270866Y-111186980D02*
X96270866Y-111901266D01*
X96223247Y-112044123D01*
X96128009Y-112139361D01*
X95985152Y-112186980D01*
X95889914Y-112186980D01*
X96747057Y-112186980D02*
X96747057Y-111186980D01*
X97128009Y-111186980D01*
X97223247Y-111234600D01*
X97270866Y-111282219D01*
X97318485Y-111377457D01*
X97318485Y-111520314D01*
X97270866Y-111615552D01*
X97223247Y-111663171D01*
X97128009Y-111710790D01*
X96747057Y-111710790D01*
X97699438Y-111282219D02*
X97747057Y-111234600D01*
X97842295Y-111186980D01*
X98080390Y-111186980D01*
X98175628Y-111234600D01*
X98223247Y-111282219D01*
X98270866Y-111377457D01*
X98270866Y-111472695D01*
X98223247Y-111615552D01*
X97651819Y-112186980D01*
X98270866Y-112186980D01*
X88515866Y-117841780D02*
X88515866Y-118556066D01*
X88468247Y-118698923D01*
X88373009Y-118794161D01*
X88230152Y-118841780D01*
X88134914Y-118841780D01*
X88896819Y-117841780D02*
X89515866Y-117841780D01*
X89182533Y-118222733D01*
X89325390Y-118222733D01*
X89420628Y-118270352D01*
X89468247Y-118317971D01*
X89515866Y-118413209D01*
X89515866Y-118651304D01*
X89468247Y-118746542D01*
X89420628Y-118794161D01*
X89325390Y-118841780D01*
X89039676Y-118841780D01*
X88944438Y-118794161D01*
X88896819Y-118746542D01*
X113877033Y-68066180D02*
X113543700Y-67589990D01*
X113305604Y-68066180D02*
X113305604Y-67066180D01*
X113686557Y-67066180D01*
X113781795Y-67113800D01*
X113829414Y-67161419D01*
X113877033Y-67256657D01*
X113877033Y-67399514D01*
X113829414Y-67494752D01*
X113781795Y-67542371D01*
X113686557Y-67589990D01*
X113305604Y-67589990D01*
X114210366Y-67066180D02*
X114877033Y-67066180D01*
X114448461Y-68066180D01*
X113953233Y-72511180D02*
X113619900Y-72034990D01*
X113381804Y-72511180D02*
X113381804Y-71511180D01*
X113762757Y-71511180D01*
X113857995Y-71558800D01*
X113905614Y-71606419D01*
X113953233Y-71701657D01*
X113953233Y-71844514D01*
X113905614Y-71939752D01*
X113857995Y-71987371D01*
X113762757Y-72034990D01*
X113381804Y-72034990D01*
X114810376Y-71511180D02*
X114619900Y-71511180D01*
X114524661Y-71558800D01*
X114477042Y-71606419D01*
X114381804Y-71749276D01*
X114334185Y-71939752D01*
X114334185Y-72320704D01*
X114381804Y-72415942D01*
X114429423Y-72463561D01*
X114524661Y-72511180D01*
X114715138Y-72511180D01*
X114810376Y-72463561D01*
X114857995Y-72415942D01*
X114905614Y-72320704D01*
X114905614Y-72082609D01*
X114857995Y-71987371D01*
X114810376Y-71939752D01*
X114715138Y-71892133D01*
X114524661Y-71892133D01*
X114429423Y-71939752D01*
X114381804Y-71987371D01*
X114334185Y-72082609D01*
X113932433Y-76905380D02*
X113599100Y-76429190D01*
X113361004Y-76905380D02*
X113361004Y-75905380D01*
X113741957Y-75905380D01*
X113837195Y-75953000D01*
X113884814Y-76000619D01*
X113932433Y-76095857D01*
X113932433Y-76238714D01*
X113884814Y-76333952D01*
X113837195Y-76381571D01*
X113741957Y-76429190D01*
X113361004Y-76429190D01*
X114837195Y-75905380D02*
X114361004Y-75905380D01*
X114313385Y-76381571D01*
X114361004Y-76333952D01*
X114456242Y-76286333D01*
X114694338Y-76286333D01*
X114789576Y-76333952D01*
X114837195Y-76381571D01*
X114884814Y-76476809D01*
X114884814Y-76714904D01*
X114837195Y-76810142D01*
X114789576Y-76857761D01*
X114694338Y-76905380D01*
X114456242Y-76905380D01*
X114361004Y-76857761D01*
X114313385Y-76810142D01*
X117397304Y-68040780D02*
X117397304Y-67040780D01*
X117635400Y-67040780D01*
X117778257Y-67088400D01*
X117873495Y-67183638D01*
X117921114Y-67278876D01*
X117968733Y-67469352D01*
X117968733Y-67612209D01*
X117921114Y-67802685D01*
X117873495Y-67897923D01*
X117778257Y-67993161D01*
X117635400Y-68040780D01*
X117397304Y-68040780D01*
X118825876Y-67374114D02*
X118825876Y-68040780D01*
X118587780Y-66993161D02*
X118349685Y-67707447D01*
X118968733Y-67707447D01*
X117600504Y-72485780D02*
X117600504Y-71485780D01*
X117838600Y-71485780D01*
X117981457Y-71533400D01*
X118076695Y-71628638D01*
X118124314Y-71723876D01*
X118171933Y-71914352D01*
X118171933Y-72057209D01*
X118124314Y-72247685D01*
X118076695Y-72342923D01*
X117981457Y-72438161D01*
X117838600Y-72485780D01*
X117600504Y-72485780D01*
X118505266Y-71485780D02*
X119124314Y-71485780D01*
X118790980Y-71866733D01*
X118933838Y-71866733D01*
X119029076Y-71914352D01*
X119076695Y-71961971D01*
X119124314Y-72057209D01*
X119124314Y-72295304D01*
X119076695Y-72390542D01*
X119029076Y-72438161D01*
X118933838Y-72485780D01*
X118648123Y-72485780D01*
X118552885Y-72438161D01*
X118505266Y-72390542D01*
X117600504Y-76905380D02*
X117600504Y-75905380D01*
X117838600Y-75905380D01*
X117981457Y-75953000D01*
X118076695Y-76048238D01*
X118124314Y-76143476D01*
X118171933Y-76333952D01*
X118171933Y-76476809D01*
X118124314Y-76667285D01*
X118076695Y-76762523D01*
X117981457Y-76857761D01*
X117838600Y-76905380D01*
X117600504Y-76905380D01*
X118552885Y-76000619D02*
X118600504Y-75953000D01*
X118695742Y-75905380D01*
X118933838Y-75905380D01*
X119029076Y-75953000D01*
X119076695Y-76000619D01*
X119124314Y-76095857D01*
X119124314Y-76191095D01*
X119076695Y-76333952D01*
X118505266Y-76905380D01*
X119124314Y-76905380D01*
X129722666Y-95972380D02*
X129722666Y-96686666D01*
X129675047Y-96829523D01*
X129579809Y-96924761D01*
X129436952Y-96972380D01*
X129341714Y-96972380D01*
X130198857Y-96972380D02*
X130198857Y-95972380D01*
X130579809Y-95972380D01*
X130675047Y-96020000D01*
X130722666Y-96067619D01*
X130770285Y-96162857D01*
X130770285Y-96305714D01*
X130722666Y-96400952D01*
X130675047Y-96448571D01*
X130579809Y-96496190D01*
X130198857Y-96496190D01*
X131722666Y-96972380D02*
X131151238Y-96972380D01*
X131436952Y-96972380D02*
X131436952Y-95972380D01*
X131341714Y-96115238D01*
X131246476Y-96210476D01*
X131151238Y-96258095D01*
X117329104Y-44080180D02*
X117329104Y-44889704D01*
X117376723Y-44984942D01*
X117424342Y-45032561D01*
X117519580Y-45080180D01*
X117710057Y-45080180D01*
X117805295Y-45032561D01*
X117852914Y-44984942D01*
X117900533Y-44889704D01*
X117900533Y-44080180D01*
X118900533Y-45080180D02*
X118329104Y-45080180D01*
X118614819Y-45080180D02*
X118614819Y-44080180D01*
X118519580Y-44223038D01*
X118424342Y-44318276D01*
X118329104Y-44365895D01*
X119757676Y-44413514D02*
X119757676Y-45080180D01*
X119519580Y-44032561D02*
X119281485Y-44746847D01*
X119900533Y-44746847D01*
X100539704Y-40905180D02*
X100539704Y-41714704D01*
X100587323Y-41809942D01*
X100634942Y-41857561D01*
X100730180Y-41905180D01*
X100920657Y-41905180D01*
X101015895Y-41857561D01*
X101063514Y-41809942D01*
X101111133Y-41714704D01*
X101111133Y-40905180D01*
X102111133Y-41905180D02*
X101539704Y-41905180D01*
X101825419Y-41905180D02*
X101825419Y-40905180D01*
X101730180Y-41048038D01*
X101634942Y-41143276D01*
X101539704Y-41190895D01*
X102492085Y-41000419D02*
X102539704Y-40952800D01*
X102634942Y-40905180D01*
X102873038Y-40905180D01*
X102968276Y-40952800D01*
X103015895Y-41000419D01*
X103063514Y-41095657D01*
X103063514Y-41190895D01*
X103015895Y-41333752D01*
X102444466Y-41905180D01*
X103063514Y-41905180D01*
X110180380Y-47808357D02*
X109704190Y-48141690D01*
X110180380Y-48379785D02*
X109180380Y-48379785D01*
X109180380Y-47998833D01*
X109228000Y-47903595D01*
X109275619Y-47855976D01*
X109370857Y-47808357D01*
X109513714Y-47808357D01*
X109608952Y-47855976D01*
X109656571Y-47903595D01*
X109704190Y-47998833D01*
X109704190Y-48379785D01*
X110180380Y-46855976D02*
X110180380Y-47427404D01*
X110180380Y-47141690D02*
X109180380Y-47141690D01*
X109323238Y-47236928D01*
X109418476Y-47332166D01*
X109466095Y-47427404D01*
X109513714Y-45998833D02*
X110180380Y-45998833D01*
X109132761Y-46236928D02*
X109847047Y-46475023D01*
X109847047Y-45855976D01*
X113864380Y-47808357D02*
X113388190Y-48141690D01*
X113864380Y-48379785D02*
X112864380Y-48379785D01*
X112864380Y-47998833D01*
X112912000Y-47903595D01*
X112959619Y-47855976D01*
X113054857Y-47808357D01*
X113197714Y-47808357D01*
X113292952Y-47855976D01*
X113340571Y-47903595D01*
X113388190Y-47998833D01*
X113388190Y-48379785D01*
X113864380Y-46855976D02*
X113864380Y-47427404D01*
X113864380Y-47141690D02*
X112864380Y-47141690D01*
X113007238Y-47236928D01*
X113102476Y-47332166D01*
X113150095Y-47427404D01*
X112864380Y-46522642D02*
X112864380Y-45903595D01*
X113245333Y-46236928D01*
X113245333Y-46094071D01*
X113292952Y-45998833D01*
X113340571Y-45951214D01*
X113435809Y-45903595D01*
X113673904Y-45903595D01*
X113769142Y-45951214D01*
X113816761Y-45998833D01*
X113864380Y-46094071D01*
X113864380Y-46379785D01*
X113816761Y-46475023D01*
X113769142Y-46522642D01*
X101719142Y-51632380D02*
X101385809Y-51156190D01*
X101147714Y-51632380D02*
X101147714Y-50632380D01*
X101528666Y-50632380D01*
X101623904Y-50680000D01*
X101671523Y-50727619D01*
X101719142Y-50822857D01*
X101719142Y-50965714D01*
X101671523Y-51060952D01*
X101623904Y-51108571D01*
X101528666Y-51156190D01*
X101147714Y-51156190D01*
X102671523Y-51632380D02*
X102100095Y-51632380D01*
X102385809Y-51632380D02*
X102385809Y-50632380D01*
X102290571Y-50775238D01*
X102195333Y-50870476D01*
X102100095Y-50918095D01*
X103052476Y-50727619D02*
X103100095Y-50680000D01*
X103195333Y-50632380D01*
X103433428Y-50632380D01*
X103528666Y-50680000D01*
X103576285Y-50727619D01*
X103623904Y-50822857D01*
X103623904Y-50918095D01*
X103576285Y-51060952D01*
X103004857Y-51632380D01*
X103623904Y-51632380D01*
X96921580Y-46820057D02*
X96445390Y-47153390D01*
X96921580Y-47391485D02*
X95921580Y-47391485D01*
X95921580Y-47010533D01*
X95969200Y-46915295D01*
X96016819Y-46867676D01*
X96112057Y-46820057D01*
X96254914Y-46820057D01*
X96350152Y-46867676D01*
X96397771Y-46915295D01*
X96445390Y-47010533D01*
X96445390Y-47391485D01*
X96921580Y-45867676D02*
X96921580Y-46439104D01*
X96921580Y-46153390D02*
X95921580Y-46153390D01*
X96064438Y-46248628D01*
X96159676Y-46343866D01*
X96207295Y-46439104D01*
X96921580Y-44915295D02*
X96921580Y-45486723D01*
X96921580Y-45201009D02*
X95921580Y-45201009D01*
X96064438Y-45296247D01*
X96159676Y-45391485D01*
X96207295Y-45486723D01*
X96972380Y-43899057D02*
X96496190Y-44232390D01*
X96972380Y-44470485D02*
X95972380Y-44470485D01*
X95972380Y-44089533D01*
X96020000Y-43994295D01*
X96067619Y-43946676D01*
X96162857Y-43899057D01*
X96305714Y-43899057D01*
X96400952Y-43946676D01*
X96448571Y-43994295D01*
X96496190Y-44089533D01*
X96496190Y-44470485D01*
X96972380Y-42946676D02*
X96972380Y-43518104D01*
X96972380Y-43232390D02*
X95972380Y-43232390D01*
X96115238Y-43327628D01*
X96210476Y-43422866D01*
X96258095Y-43518104D01*
X95972380Y-42327628D02*
X95972380Y-42232390D01*
X96020000Y-42137152D01*
X96067619Y-42089533D01*
X96162857Y-42041914D01*
X96353333Y-41994295D01*
X96591428Y-41994295D01*
X96781904Y-42041914D01*
X96877142Y-42089533D01*
X96924761Y-42137152D01*
X96972380Y-42232390D01*
X96972380Y-42327628D01*
X96924761Y-42422866D01*
X96877142Y-42470485D01*
X96781904Y-42518104D01*
X96591428Y-42565723D01*
X96353333Y-42565723D01*
X96162857Y-42518104D01*
X96067619Y-42470485D01*
X96020000Y-42422866D01*
X95972380Y-42327628D01*
X128708304Y-33285180D02*
X128708304Y-34094704D01*
X128755923Y-34189942D01*
X128803542Y-34237561D01*
X128898780Y-34285180D01*
X129089257Y-34285180D01*
X129184495Y-34237561D01*
X129232114Y-34189942D01*
X129279733Y-34094704D01*
X129279733Y-33285180D01*
X130279733Y-34285180D02*
X129708304Y-34285180D01*
X129994019Y-34285180D02*
X129994019Y-33285180D01*
X129898780Y-33428038D01*
X129803542Y-33523276D01*
X129708304Y-33570895D01*
X130898780Y-33285180D02*
X130994019Y-33285180D01*
X131089257Y-33332800D01*
X131136876Y-33380419D01*
X131184495Y-33475657D01*
X131232114Y-33666133D01*
X131232114Y-33904228D01*
X131184495Y-34094704D01*
X131136876Y-34189942D01*
X131089257Y-34237561D01*
X130994019Y-34285180D01*
X130898780Y-34285180D01*
X130803542Y-34237561D01*
X130755923Y-34189942D01*
X130708304Y-34094704D01*
X130660685Y-33904228D01*
X130660685Y-33666133D01*
X130708304Y-33475657D01*
X130755923Y-33380419D01*
X130803542Y-33332800D01*
X130898780Y-33285180D01*
X85217095Y-29094180D02*
X85217095Y-29903704D01*
X85264714Y-29998942D01*
X85312333Y-30046561D01*
X85407571Y-30094180D01*
X85598047Y-30094180D01*
X85693285Y-30046561D01*
X85740904Y-29998942D01*
X85788523Y-29903704D01*
X85788523Y-29094180D01*
X86312333Y-30094180D02*
X86502809Y-30094180D01*
X86598047Y-30046561D01*
X86645666Y-29998942D01*
X86740904Y-29856085D01*
X86788523Y-29665609D01*
X86788523Y-29284657D01*
X86740904Y-29189419D01*
X86693285Y-29141800D01*
X86598047Y-29094180D01*
X86407571Y-29094180D01*
X86312333Y-29141800D01*
X86264714Y-29189419D01*
X86217095Y-29284657D01*
X86217095Y-29522752D01*
X86264714Y-29617990D01*
X86312333Y-29665609D01*
X86407571Y-29713228D01*
X86598047Y-29713228D01*
X86693285Y-29665609D01*
X86740904Y-29617990D01*
X86788523Y-29522752D01*
X127101695Y-29043380D02*
X127101695Y-29852904D01*
X127149314Y-29948142D01*
X127196933Y-29995761D01*
X127292171Y-30043380D01*
X127482647Y-30043380D01*
X127577885Y-29995761D01*
X127625504Y-29948142D01*
X127673123Y-29852904D01*
X127673123Y-29043380D01*
X128054076Y-29043380D02*
X128720742Y-29043380D01*
X128292171Y-30043380D01*
X63347695Y-29043380D02*
X63347695Y-29852904D01*
X63395314Y-29948142D01*
X63442933Y-29995761D01*
X63538171Y-30043380D01*
X63728647Y-30043380D01*
X63823885Y-29995761D01*
X63871504Y-29948142D01*
X63919123Y-29852904D01*
X63919123Y-29043380D01*
X64871504Y-29043380D02*
X64395314Y-29043380D01*
X64347695Y-29519571D01*
X64395314Y-29471952D01*
X64490552Y-29424333D01*
X64728647Y-29424333D01*
X64823885Y-29471952D01*
X64871504Y-29519571D01*
X64919123Y-29614809D01*
X64919123Y-29852904D01*
X64871504Y-29948142D01*
X64823885Y-29995761D01*
X64728647Y-30043380D01*
X64490552Y-30043380D01*
X64395314Y-29995761D01*
X64347695Y-29948142D01*
X107086495Y-119797580D02*
X107086495Y-120607104D01*
X107134114Y-120702342D01*
X107181733Y-120749961D01*
X107276971Y-120797580D01*
X107467447Y-120797580D01*
X107562685Y-120749961D01*
X107610304Y-120702342D01*
X107657923Y-120607104D01*
X107657923Y-119797580D01*
X108562685Y-120130914D02*
X108562685Y-120797580D01*
X108324590Y-119749961D02*
X108086495Y-120464247D01*
X108705542Y-120464247D01*
X134061295Y-113726980D02*
X134061295Y-114536504D01*
X134108914Y-114631742D01*
X134156533Y-114679361D01*
X134251771Y-114726980D01*
X134442247Y-114726980D01*
X134537485Y-114679361D01*
X134585104Y-114631742D01*
X134632723Y-114536504D01*
X134632723Y-113726980D01*
X135632723Y-114726980D02*
X135061295Y-114726980D01*
X135347009Y-114726980D02*
X135347009Y-113726980D01*
X135251771Y-113869838D01*
X135156533Y-113965076D01*
X135061295Y-114012695D01*
X127832380Y-40806666D02*
X127356190Y-41140000D01*
X127832380Y-41378095D02*
X126832380Y-41378095D01*
X126832380Y-40997142D01*
X126880000Y-40901904D01*
X126927619Y-40854285D01*
X127022857Y-40806666D01*
X127165714Y-40806666D01*
X127260952Y-40854285D01*
X127308571Y-40901904D01*
X127356190Y-40997142D01*
X127356190Y-41378095D01*
X127832380Y-40330476D02*
X127832380Y-40140000D01*
X127784761Y-40044761D01*
X127737142Y-39997142D01*
X127594285Y-39901904D01*
X127403809Y-39854285D01*
X127022857Y-39854285D01*
X126927619Y-39901904D01*
X126880000Y-39949523D01*
X126832380Y-40044761D01*
X126832380Y-40235238D01*
X126880000Y-40330476D01*
X126927619Y-40378095D01*
X127022857Y-40425714D01*
X127260952Y-40425714D01*
X127356190Y-40378095D01*
X127403809Y-40330476D01*
X127451428Y-40235238D01*
X127451428Y-40044761D01*
X127403809Y-39949523D01*
X127356190Y-39901904D01*
X127260952Y-39854285D01*
X127832380Y-36361666D02*
X127356190Y-36695000D01*
X127832380Y-36933095D02*
X126832380Y-36933095D01*
X126832380Y-36552142D01*
X126880000Y-36456904D01*
X126927619Y-36409285D01*
X127022857Y-36361666D01*
X127165714Y-36361666D01*
X127260952Y-36409285D01*
X127308571Y-36456904D01*
X127356190Y-36552142D01*
X127356190Y-36933095D01*
X127260952Y-35790238D02*
X127213333Y-35885476D01*
X127165714Y-35933095D01*
X127070476Y-35980714D01*
X127022857Y-35980714D01*
X126927619Y-35933095D01*
X126880000Y-35885476D01*
X126832380Y-35790238D01*
X126832380Y-35599761D01*
X126880000Y-35504523D01*
X126927619Y-35456904D01*
X127022857Y-35409285D01*
X127070476Y-35409285D01*
X127165714Y-35456904D01*
X127213333Y-35504523D01*
X127260952Y-35599761D01*
X127260952Y-35790238D01*
X127308571Y-35885476D01*
X127356190Y-35933095D01*
X127451428Y-35980714D01*
X127641904Y-35980714D01*
X127737142Y-35933095D01*
X127784761Y-35885476D01*
X127832380Y-35790238D01*
X127832380Y-35599761D01*
X127784761Y-35504523D01*
X127737142Y-35456904D01*
X127641904Y-35409285D01*
X127451428Y-35409285D01*
X127356190Y-35456904D01*
X127308571Y-35504523D01*
X127260952Y-35599761D01*
X130195833Y-104852380D02*
X129862500Y-104376190D01*
X129624404Y-104852380D02*
X129624404Y-103852380D01*
X130005357Y-103852380D01*
X130100595Y-103900000D01*
X130148214Y-103947619D01*
X130195833Y-104042857D01*
X130195833Y-104185714D01*
X130148214Y-104280952D01*
X130100595Y-104328571D01*
X130005357Y-104376190D01*
X129624404Y-104376190D01*
X131148214Y-104852380D02*
X130576785Y-104852380D01*
X130862500Y-104852380D02*
X130862500Y-103852380D01*
X130767261Y-103995238D01*
X130672023Y-104090476D01*
X130576785Y-104138095D01*
X115828380Y-124507523D02*
X116542666Y-124507523D01*
X116685523Y-124555142D01*
X116780761Y-124650380D01*
X116828380Y-124793238D01*
X116828380Y-124888476D01*
X116828380Y-123507523D02*
X116828380Y-124078952D01*
X116828380Y-123793238D02*
X115828380Y-123793238D01*
X115971238Y-123888476D01*
X116066476Y-123983714D01*
X116114095Y-124078952D01*
X115828380Y-122888476D02*
X115828380Y-122793238D01*
X115876000Y-122698000D01*
X115923619Y-122650380D01*
X116018857Y-122602761D01*
X116209333Y-122555142D01*
X116447428Y-122555142D01*
X116637904Y-122602761D01*
X116733142Y-122650380D01*
X116780761Y-122698000D01*
X116828380Y-122793238D01*
X116828380Y-122888476D01*
X116780761Y-122983714D01*
X116733142Y-123031333D01*
X116637904Y-123078952D01*
X116447428Y-123126571D01*
X116209333Y-123126571D01*
X116018857Y-123078952D01*
X115923619Y-123031333D01*
X115876000Y-122983714D01*
X115828380Y-122888476D01*
X103128380Y-124031333D02*
X103842666Y-124031333D01*
X103985523Y-124078952D01*
X104080761Y-124174190D01*
X104128380Y-124317047D01*
X104128380Y-124412285D01*
X104128380Y-123507523D02*
X104128380Y-123317047D01*
X104080761Y-123221809D01*
X104033142Y-123174190D01*
X103890285Y-123078952D01*
X103699809Y-123031333D01*
X103318857Y-123031333D01*
X103223619Y-123078952D01*
X103176000Y-123126571D01*
X103128380Y-123221809D01*
X103128380Y-123412285D01*
X103176000Y-123507523D01*
X103223619Y-123555142D01*
X103318857Y-123602761D01*
X103556952Y-123602761D01*
X103652190Y-123555142D01*
X103699809Y-123507523D01*
X103747428Y-123412285D01*
X103747428Y-123221809D01*
X103699809Y-123126571D01*
X103652190Y-123078952D01*
X103556952Y-123031333D01*
X136692380Y-110823333D02*
X137406666Y-110823333D01*
X137549523Y-110870952D01*
X137644761Y-110966190D01*
X137692380Y-111109047D01*
X137692380Y-111204285D01*
X137692380Y-109823333D02*
X137692380Y-110394761D01*
X137692380Y-110109047D02*
X136692380Y-110109047D01*
X136835238Y-110204285D01*
X136930476Y-110299523D01*
X136978095Y-110394761D01*
X108881942Y-40285942D02*
X108834323Y-40333561D01*
X108691466Y-40381180D01*
X108596228Y-40381180D01*
X108453371Y-40333561D01*
X108358133Y-40238323D01*
X108310514Y-40143085D01*
X108262895Y-39952609D01*
X108262895Y-39809752D01*
X108310514Y-39619276D01*
X108358133Y-39524038D01*
X108453371Y-39428800D01*
X108596228Y-39381180D01*
X108691466Y-39381180D01*
X108834323Y-39428800D01*
X108881942Y-39476419D01*
X109834323Y-40381180D02*
X109262895Y-40381180D01*
X109548609Y-40381180D02*
X109548609Y-39381180D01*
X109453371Y-39524038D01*
X109358133Y-39619276D01*
X109262895Y-39666895D01*
X110739085Y-39381180D02*
X110262895Y-39381180D01*
X110215276Y-39857371D01*
X110262895Y-39809752D01*
X110358133Y-39762133D01*
X110596228Y-39762133D01*
X110691466Y-39809752D01*
X110739085Y-39857371D01*
X110786704Y-39952609D01*
X110786704Y-40190704D01*
X110739085Y-40285942D01*
X110691466Y-40333561D01*
X110596228Y-40381180D01*
X110358133Y-40381180D01*
X110262895Y-40333561D01*
X110215276Y-40285942D01*
X117349542Y-119692657D02*
X117397161Y-119740276D01*
X117444780Y-119883133D01*
X117444780Y-119978371D01*
X117397161Y-120121228D01*
X117301923Y-120216466D01*
X117206685Y-120264085D01*
X117016209Y-120311704D01*
X116873352Y-120311704D01*
X116682876Y-120264085D01*
X116587638Y-120216466D01*
X116492400Y-120121228D01*
X116444780Y-119978371D01*
X116444780Y-119883133D01*
X116492400Y-119740276D01*
X116540019Y-119692657D01*
X117444780Y-118740276D02*
X117444780Y-119311704D01*
X117444780Y-119025990D02*
X116444780Y-119025990D01*
X116587638Y-119121228D01*
X116682876Y-119216466D01*
X116730495Y-119311704D01*
X116778114Y-117883133D02*
X117444780Y-117883133D01*
X116397161Y-118121228D02*
X117111447Y-118359323D01*
X117111447Y-117740276D01*
X117171742Y-115501657D02*
X117219361Y-115549276D01*
X117266980Y-115692133D01*
X117266980Y-115787371D01*
X117219361Y-115930228D01*
X117124123Y-116025466D01*
X117028885Y-116073085D01*
X116838409Y-116120704D01*
X116695552Y-116120704D01*
X116505076Y-116073085D01*
X116409838Y-116025466D01*
X116314600Y-115930228D01*
X116266980Y-115787371D01*
X116266980Y-115692133D01*
X116314600Y-115549276D01*
X116362219Y-115501657D01*
X117266980Y-114549276D02*
X117266980Y-115120704D01*
X117266980Y-114834990D02*
X116266980Y-114834990D01*
X116409838Y-114930228D01*
X116505076Y-115025466D01*
X116552695Y-115120704D01*
X116362219Y-114168323D02*
X116314600Y-114120704D01*
X116266980Y-114025466D01*
X116266980Y-113787371D01*
X116314600Y-113692133D01*
X116362219Y-113644514D01*
X116457457Y-113596895D01*
X116552695Y-113596895D01*
X116695552Y-113644514D01*
X117266980Y-114215942D01*
X117266980Y-113596895D01*
X110213142Y-115450857D02*
X110260761Y-115498476D01*
X110308380Y-115641333D01*
X110308380Y-115736571D01*
X110260761Y-115879428D01*
X110165523Y-115974666D01*
X110070285Y-116022285D01*
X109879809Y-116069904D01*
X109736952Y-116069904D01*
X109546476Y-116022285D01*
X109451238Y-115974666D01*
X109356000Y-115879428D01*
X109308380Y-115736571D01*
X109308380Y-115641333D01*
X109356000Y-115498476D01*
X109403619Y-115450857D01*
X110308380Y-114498476D02*
X110308380Y-115069904D01*
X110308380Y-114784190D02*
X109308380Y-114784190D01*
X109451238Y-114879428D01*
X109546476Y-114974666D01*
X109594095Y-115069904D01*
X110308380Y-113546095D02*
X110308380Y-114117523D01*
X110308380Y-113831809D02*
X109308380Y-113831809D01*
X109451238Y-113927047D01*
X109546476Y-114022285D01*
X109594095Y-114117523D01*
X110291642Y-119768857D02*
X110339261Y-119816476D01*
X110386880Y-119959333D01*
X110386880Y-120054571D01*
X110339261Y-120197428D01*
X110244023Y-120292666D01*
X110148785Y-120340285D01*
X109958309Y-120387904D01*
X109815452Y-120387904D01*
X109624976Y-120340285D01*
X109529738Y-120292666D01*
X109434500Y-120197428D01*
X109386880Y-120054571D01*
X109386880Y-119959333D01*
X109434500Y-119816476D01*
X109482119Y-119768857D01*
X110386880Y-118816476D02*
X110386880Y-119387904D01*
X110386880Y-119102190D02*
X109386880Y-119102190D01*
X109529738Y-119197428D01*
X109624976Y-119292666D01*
X109672595Y-119387904D01*
X109386880Y-118197428D02*
X109386880Y-118102190D01*
X109434500Y-118006952D01*
X109482119Y-117959333D01*
X109577357Y-117911714D01*
X109767833Y-117864095D01*
X110005928Y-117864095D01*
X110196404Y-117911714D01*
X110291642Y-117959333D01*
X110339261Y-118006952D01*
X110386880Y-118102190D01*
X110386880Y-118197428D01*
X110339261Y-118292666D01*
X110291642Y-118340285D01*
X110196404Y-118387904D01*
X110005928Y-118435523D01*
X109767833Y-118435523D01*
X109577357Y-118387904D01*
X109482119Y-118340285D01*
X109434500Y-118292666D01*
X109386880Y-118197428D01*
X131964133Y-116384342D02*
X131916514Y-116431961D01*
X131773657Y-116479580D01*
X131678419Y-116479580D01*
X131535561Y-116431961D01*
X131440323Y-116336723D01*
X131392704Y-116241485D01*
X131345085Y-116051009D01*
X131345085Y-115908152D01*
X131392704Y-115717676D01*
X131440323Y-115622438D01*
X131535561Y-115527200D01*
X131678419Y-115479580D01*
X131773657Y-115479580D01*
X131916514Y-115527200D01*
X131964133Y-115574819D01*
X132821276Y-115812914D02*
X132821276Y-116479580D01*
X132583180Y-115431961D02*
X132345085Y-116146247D01*
X132964133Y-116146247D01*
X134183333Y-101107142D02*
X134135714Y-101154761D01*
X133992857Y-101202380D01*
X133897619Y-101202380D01*
X133754761Y-101154761D01*
X133659523Y-101059523D01*
X133611904Y-100964285D01*
X133564285Y-100773809D01*
X133564285Y-100630952D01*
X133611904Y-100440476D01*
X133659523Y-100345238D01*
X133754761Y-100250000D01*
X133897619Y-100202380D01*
X133992857Y-100202380D01*
X134135714Y-100250000D01*
X134183333Y-100297619D01*
X134516666Y-100202380D02*
X135135714Y-100202380D01*
X134802380Y-100583333D01*
X134945238Y-100583333D01*
X135040476Y-100630952D01*
X135088095Y-100678571D01*
X135135714Y-100773809D01*
X135135714Y-101011904D01*
X135088095Y-101107142D01*
X135040476Y-101154761D01*
X134945238Y-101202380D01*
X134659523Y-101202380D01*
X134564285Y-101154761D01*
X134516666Y-101107142D01*
X131862533Y-120143542D02*
X131814914Y-120191161D01*
X131672057Y-120238780D01*
X131576819Y-120238780D01*
X131433961Y-120191161D01*
X131338723Y-120095923D01*
X131291104Y-120000685D01*
X131243485Y-119810209D01*
X131243485Y-119667352D01*
X131291104Y-119476876D01*
X131338723Y-119381638D01*
X131433961Y-119286400D01*
X131576819Y-119238780D01*
X131672057Y-119238780D01*
X131814914Y-119286400D01*
X131862533Y-119334019D01*
X132243485Y-119334019D02*
X132291104Y-119286400D01*
X132386342Y-119238780D01*
X132624438Y-119238780D01*
X132719676Y-119286400D01*
X132767295Y-119334019D01*
X132814914Y-119429257D01*
X132814914Y-119524495D01*
X132767295Y-119667352D01*
X132195866Y-120238780D01*
X132814914Y-120238780D01*
X134270833Y-104707142D02*
X134223214Y-104754761D01*
X134080357Y-104802380D01*
X133985119Y-104802380D01*
X133842261Y-104754761D01*
X133747023Y-104659523D01*
X133699404Y-104564285D01*
X133651785Y-104373809D01*
X133651785Y-104230952D01*
X133699404Y-104040476D01*
X133747023Y-103945238D01*
X133842261Y-103850000D01*
X133985119Y-103802380D01*
X134080357Y-103802380D01*
X134223214Y-103850000D01*
X134270833Y-103897619D01*
X135223214Y-104802380D02*
X134651785Y-104802380D01*
X134937500Y-104802380D02*
X134937500Y-103802380D01*
X134842261Y-103945238D01*
X134747023Y-104040476D01*
X134651785Y-104088095D01*
X56673904Y-100163380D02*
X56673904Y-100972904D01*
X56721523Y-101068142D01*
X56769142Y-101115761D01*
X56864380Y-101163380D01*
X57054857Y-101163380D01*
X57150095Y-101115761D01*
X57197714Y-101068142D01*
X57245333Y-100972904D01*
X57245333Y-100163380D01*
X58245333Y-101163380D02*
X57673904Y-101163380D01*
X57959619Y-101163380D02*
X57959619Y-100163380D01*
X57864380Y-100306238D01*
X57769142Y-100401476D01*
X57673904Y-100449095D01*
X59150095Y-100163380D02*
X58673904Y-100163380D01*
X58626285Y-100639571D01*
X58673904Y-100591952D01*
X58769142Y-100544333D01*
X59007238Y-100544333D01*
X59102476Y-100591952D01*
X59150095Y-100639571D01*
X59197714Y-100734809D01*
X59197714Y-100972904D01*
X59150095Y-101068142D01*
X59102476Y-101115761D01*
X59007238Y-101163380D01*
X58769142Y-101163380D01*
X58673904Y-101115761D01*
X58626285Y-101068142D01*
X84302695Y-69175380D02*
X84302695Y-69984904D01*
X84350314Y-70080142D01*
X84397933Y-70127761D01*
X84493171Y-70175380D01*
X84683647Y-70175380D01*
X84778885Y-70127761D01*
X84826504Y-70080142D01*
X84874123Y-69984904D01*
X84874123Y-69175380D01*
X85302695Y-69270619D02*
X85350314Y-69223000D01*
X85445552Y-69175380D01*
X85683647Y-69175380D01*
X85778885Y-69223000D01*
X85826504Y-69270619D01*
X85874123Y-69365857D01*
X85874123Y-69461095D01*
X85826504Y-69603952D01*
X85255076Y-70175380D01*
X85874123Y-70175380D01*
X62541161Y-78093819D02*
X62445923Y-78046200D01*
X62350685Y-77950961D01*
X62207828Y-77808104D01*
X62112590Y-77760485D01*
X62017352Y-77760485D01*
X62064971Y-77998580D02*
X61969733Y-77950961D01*
X61874495Y-77855723D01*
X61826876Y-77665247D01*
X61826876Y-77331914D01*
X61874495Y-77141438D01*
X61969733Y-77046200D01*
X62064971Y-76998580D01*
X62255447Y-76998580D01*
X62350685Y-77046200D01*
X62445923Y-77141438D01*
X62493542Y-77331914D01*
X62493542Y-77665247D01*
X62445923Y-77855723D01*
X62350685Y-77950961D01*
X62255447Y-77998580D01*
X62064971Y-77998580D01*
X63445923Y-77998580D02*
X62874495Y-77998580D01*
X63160209Y-77998580D02*
X63160209Y-76998580D01*
X63064971Y-77141438D01*
X62969733Y-77236676D01*
X62874495Y-77284295D01*
X55624504Y-77846180D02*
X55624504Y-76846180D01*
X55862600Y-76846180D01*
X56005457Y-76893800D01*
X56100695Y-76989038D01*
X56148314Y-77084276D01*
X56195933Y-77274752D01*
X56195933Y-77417609D01*
X56148314Y-77608085D01*
X56100695Y-77703323D01*
X56005457Y-77798561D01*
X55862600Y-77846180D01*
X55624504Y-77846180D01*
X57100695Y-76846180D02*
X56624504Y-76846180D01*
X56576885Y-77322371D01*
X56624504Y-77274752D01*
X56719742Y-77227133D01*
X56957838Y-77227133D01*
X57053076Y-77274752D01*
X57100695Y-77322371D01*
X57148314Y-77417609D01*
X57148314Y-77655704D01*
X57100695Y-77750942D01*
X57053076Y-77798561D01*
X56957838Y-77846180D01*
X56719742Y-77846180D01*
X56624504Y-77798561D01*
X56576885Y-77750942D01*
X135247142Y-48204380D02*
X134913809Y-47728190D01*
X134675714Y-48204380D02*
X134675714Y-47204380D01*
X135056666Y-47204380D01*
X135151904Y-47252000D01*
X135199523Y-47299619D01*
X135247142Y-47394857D01*
X135247142Y-47537714D01*
X135199523Y-47632952D01*
X135151904Y-47680571D01*
X135056666Y-47728190D01*
X134675714Y-47728190D01*
X136199523Y-48204380D02*
X135628095Y-48204380D01*
X135913809Y-48204380D02*
X135913809Y-47204380D01*
X135818571Y-47347238D01*
X135723333Y-47442476D01*
X135628095Y-47490095D01*
X137056666Y-47204380D02*
X136866190Y-47204380D01*
X136770952Y-47252000D01*
X136723333Y-47299619D01*
X136628095Y-47442476D01*
X136580476Y-47632952D01*
X136580476Y-48013904D01*
X136628095Y-48109142D01*
X136675714Y-48156761D01*
X136770952Y-48204380D01*
X136961428Y-48204380D01*
X137056666Y-48156761D01*
X137104285Y-48109142D01*
X137151904Y-48013904D01*
X137151904Y-47775809D01*
X137104285Y-47680571D01*
X137056666Y-47632952D01*
X136961428Y-47585333D01*
X136770952Y-47585333D01*
X136675714Y-47632952D01*
X136628095Y-47680571D01*
X136580476Y-47775809D01*
X135247142Y-45156380D02*
X134913809Y-44680190D01*
X134675714Y-45156380D02*
X134675714Y-44156380D01*
X135056666Y-44156380D01*
X135151904Y-44204000D01*
X135199523Y-44251619D01*
X135247142Y-44346857D01*
X135247142Y-44489714D01*
X135199523Y-44584952D01*
X135151904Y-44632571D01*
X135056666Y-44680190D01*
X134675714Y-44680190D01*
X136199523Y-45156380D02*
X135628095Y-45156380D01*
X135913809Y-45156380D02*
X135913809Y-44156380D01*
X135818571Y-44299238D01*
X135723333Y-44394476D01*
X135628095Y-44442095D01*
X137104285Y-44156380D02*
X136628095Y-44156380D01*
X136580476Y-44632571D01*
X136628095Y-44584952D01*
X136723333Y-44537333D01*
X136961428Y-44537333D01*
X137056666Y-44584952D01*
X137104285Y-44632571D01*
X137151904Y-44727809D01*
X137151904Y-44965904D01*
X137104285Y-45061142D01*
X137056666Y-45108761D01*
X136961428Y-45156380D01*
X136723333Y-45156380D01*
X136628095Y-45108761D01*
X136580476Y-45061142D01*
X88688942Y-51691542D02*
X88641323Y-51739161D01*
X88498466Y-51786780D01*
X88403228Y-51786780D01*
X88260371Y-51739161D01*
X88165133Y-51643923D01*
X88117514Y-51548685D01*
X88069895Y-51358209D01*
X88069895Y-51215352D01*
X88117514Y-51024876D01*
X88165133Y-50929638D01*
X88260371Y-50834400D01*
X88403228Y-50786780D01*
X88498466Y-50786780D01*
X88641323Y-50834400D01*
X88688942Y-50882019D01*
X89069895Y-50882019D02*
X89117514Y-50834400D01*
X89212752Y-50786780D01*
X89450847Y-50786780D01*
X89546085Y-50834400D01*
X89593704Y-50882019D01*
X89641323Y-50977257D01*
X89641323Y-51072495D01*
X89593704Y-51215352D01*
X89022276Y-51786780D01*
X89641323Y-51786780D01*
X90260371Y-50786780D02*
X90355609Y-50786780D01*
X90450847Y-50834400D01*
X90498466Y-50882019D01*
X90546085Y-50977257D01*
X90593704Y-51167733D01*
X90593704Y-51405828D01*
X90546085Y-51596304D01*
X90498466Y-51691542D01*
X90450847Y-51739161D01*
X90355609Y-51786780D01*
X90260371Y-51786780D01*
X90165133Y-51739161D01*
X90117514Y-51691542D01*
X90069895Y-51596304D01*
X90022276Y-51405828D01*
X90022276Y-51167733D01*
X90069895Y-50977257D01*
X90117514Y-50882019D01*
X90165133Y-50834400D01*
X90260371Y-50786780D01*
X140681666Y-37022380D02*
X140681666Y-37736666D01*
X140634047Y-37879523D01*
X140538809Y-37974761D01*
X140395952Y-38022380D01*
X140300714Y-38022380D01*
X141157857Y-38022380D02*
X141157857Y-37022380D01*
X141538809Y-37022380D01*
X141634047Y-37070000D01*
X141681666Y-37117619D01*
X141729285Y-37212857D01*
X141729285Y-37355714D01*
X141681666Y-37450952D01*
X141634047Y-37498571D01*
X141538809Y-37546190D01*
X141157857Y-37546190D01*
X142586428Y-37355714D02*
X142586428Y-38022380D01*
X142348333Y-36974761D02*
X142110238Y-37689047D01*
X142729285Y-37689047D01*
X104005142Y-121261142D02*
X103957523Y-121308761D01*
X103814666Y-121356380D01*
X103719428Y-121356380D01*
X103576571Y-121308761D01*
X103481333Y-121213523D01*
X103433714Y-121118285D01*
X103386095Y-120927809D01*
X103386095Y-120784952D01*
X103433714Y-120594476D01*
X103481333Y-120499238D01*
X103576571Y-120404000D01*
X103719428Y-120356380D01*
X103814666Y-120356380D01*
X103957523Y-120404000D01*
X104005142Y-120451619D01*
X104957523Y-121356380D02*
X104386095Y-121356380D01*
X104671809Y-121356380D02*
X104671809Y-120356380D01*
X104576571Y-120499238D01*
X104481333Y-120594476D01*
X104386095Y-120642095D01*
X105433714Y-121356380D02*
X105624190Y-121356380D01*
X105719428Y-121308761D01*
X105767047Y-121261142D01*
X105862285Y-121118285D01*
X105909904Y-120927809D01*
X105909904Y-120546857D01*
X105862285Y-120451619D01*
X105814666Y-120404000D01*
X105719428Y-120356380D01*
X105528952Y-120356380D01*
X105433714Y-120404000D01*
X105386095Y-120451619D01*
X105338476Y-120546857D01*
X105338476Y-120784952D01*
X105386095Y-120880190D01*
X105433714Y-120927809D01*
X105528952Y-120975428D01*
X105719428Y-120975428D01*
X105814666Y-120927809D01*
X105862285Y-120880190D01*
X105909904Y-120784952D01*
X139596642Y-37218857D02*
X139644261Y-37266476D01*
X139691880Y-37409333D01*
X139691880Y-37504571D01*
X139644261Y-37647428D01*
X139549023Y-37742666D01*
X139453785Y-37790285D01*
X139263309Y-37837904D01*
X139120452Y-37837904D01*
X138929976Y-37790285D01*
X138834738Y-37742666D01*
X138739500Y-37647428D01*
X138691880Y-37504571D01*
X138691880Y-37409333D01*
X138739500Y-37266476D01*
X138787119Y-37218857D01*
X139691880Y-36266476D02*
X139691880Y-36837904D01*
X139691880Y-36552190D02*
X138691880Y-36552190D01*
X138834738Y-36647428D01*
X138929976Y-36742666D01*
X138977595Y-36837904D01*
X139120452Y-35695047D02*
X139072833Y-35790285D01*
X139025214Y-35837904D01*
X138929976Y-35885523D01*
X138882357Y-35885523D01*
X138787119Y-35837904D01*
X138739500Y-35790285D01*
X138691880Y-35695047D01*
X138691880Y-35504571D01*
X138739500Y-35409333D01*
X138787119Y-35361714D01*
X138882357Y-35314095D01*
X138929976Y-35314095D01*
X139025214Y-35361714D01*
X139072833Y-35409333D01*
X139120452Y-35504571D01*
X139120452Y-35695047D01*
X139168071Y-35790285D01*
X139215690Y-35837904D01*
X139310928Y-35885523D01*
X139501404Y-35885523D01*
X139596642Y-35837904D01*
X139644261Y-35790285D01*
X139691880Y-35695047D01*
X139691880Y-35504571D01*
X139644261Y-35409333D01*
X139596642Y-35361714D01*
X139501404Y-35314095D01*
X139310928Y-35314095D01*
X139215690Y-35361714D01*
X139168071Y-35409333D01*
X139120452Y-35504571D01*
X102795342Y-63634857D02*
X102842961Y-63682476D01*
X102890580Y-63825333D01*
X102890580Y-63920571D01*
X102842961Y-64063428D01*
X102747723Y-64158666D01*
X102652485Y-64206285D01*
X102462009Y-64253904D01*
X102319152Y-64253904D01*
X102128676Y-64206285D01*
X102033438Y-64158666D01*
X101938200Y-64063428D01*
X101890580Y-63920571D01*
X101890580Y-63825333D01*
X101938200Y-63682476D01*
X101985819Y-63634857D01*
X102890580Y-62682476D02*
X102890580Y-63253904D01*
X102890580Y-62968190D02*
X101890580Y-62968190D01*
X102033438Y-63063428D01*
X102128676Y-63158666D01*
X102176295Y-63253904D01*
X101890580Y-62349142D02*
X101890580Y-61682476D01*
X102890580Y-62111047D01*
X93249809Y-74366190D02*
X93249809Y-74842380D01*
X92916476Y-73842380D02*
X93249809Y-74366190D01*
X93583142Y-73842380D01*
X94440285Y-74842380D02*
X93868857Y-74842380D01*
X94154571Y-74842380D02*
X94154571Y-73842380D01*
X94059333Y-73985238D01*
X93964095Y-74080476D01*
X93868857Y-74128095D01*
X69748495Y-75322180D02*
X69748495Y-76131704D01*
X69796114Y-76226942D01*
X69843733Y-76274561D01*
X69938971Y-76322180D01*
X70129447Y-76322180D01*
X70224685Y-76274561D01*
X70272304Y-76226942D01*
X70319923Y-76131704D01*
X70319923Y-75322180D01*
X70938971Y-75750752D02*
X70843733Y-75703133D01*
X70796114Y-75655514D01*
X70748495Y-75560276D01*
X70748495Y-75512657D01*
X70796114Y-75417419D01*
X70843733Y-75369800D01*
X70938971Y-75322180D01*
X71129447Y-75322180D01*
X71224685Y-75369800D01*
X71272304Y-75417419D01*
X71319923Y-75512657D01*
X71319923Y-75560276D01*
X71272304Y-75655514D01*
X71224685Y-75703133D01*
X71129447Y-75750752D01*
X70938971Y-75750752D01*
X70843733Y-75798371D01*
X70796114Y-75845990D01*
X70748495Y-75941228D01*
X70748495Y-76131704D01*
X70796114Y-76226942D01*
X70843733Y-76274561D01*
X70938971Y-76322180D01*
X71129447Y-76322180D01*
X71224685Y-76274561D01*
X71272304Y-76226942D01*
X71319923Y-76131704D01*
X71319923Y-75941228D01*
X71272304Y-75845990D01*
X71224685Y-75798371D01*
X71129447Y-75750752D01*
X130606895Y-57542180D02*
X130606895Y-58351704D01*
X130654514Y-58446942D01*
X130702133Y-58494561D01*
X130797371Y-58542180D01*
X130987847Y-58542180D01*
X131083085Y-58494561D01*
X131130704Y-58446942D01*
X131178323Y-58351704D01*
X131178323Y-57542180D01*
X131559276Y-57542180D02*
X132178323Y-57542180D01*
X131844990Y-57923133D01*
X131987847Y-57923133D01*
X132083085Y-57970752D01*
X132130704Y-58018371D01*
X132178323Y-58113609D01*
X132178323Y-58351704D01*
X132130704Y-58446942D01*
X132083085Y-58494561D01*
X131987847Y-58542180D01*
X131702133Y-58542180D01*
X131606895Y-58494561D01*
X131559276Y-58446942D01*
X126579333Y-62556380D02*
X126246000Y-62080190D01*
X126007904Y-62556380D02*
X126007904Y-61556380D01*
X126388857Y-61556380D01*
X126484095Y-61604000D01*
X126531714Y-61651619D01*
X126579333Y-61746857D01*
X126579333Y-61889714D01*
X126531714Y-61984952D01*
X126484095Y-62032571D01*
X126388857Y-62080190D01*
X126007904Y-62080190D01*
X127436476Y-61889714D02*
X127436476Y-62556380D01*
X127198380Y-61508761D02*
X126960285Y-62223047D01*
X127579333Y-62223047D01*
X126579333Y-59000380D02*
X126246000Y-58524190D01*
X126007904Y-59000380D02*
X126007904Y-58000380D01*
X126388857Y-58000380D01*
X126484095Y-58048000D01*
X126531714Y-58095619D01*
X126579333Y-58190857D01*
X126579333Y-58333714D01*
X126531714Y-58428952D01*
X126484095Y-58476571D01*
X126388857Y-58524190D01*
X126007904Y-58524190D01*
X126912666Y-58000380D02*
X127531714Y-58000380D01*
X127198380Y-58381333D01*
X127341238Y-58381333D01*
X127436476Y-58428952D01*
X127484095Y-58476571D01*
X127531714Y-58571809D01*
X127531714Y-58809904D01*
X127484095Y-58905142D01*
X127436476Y-58952761D01*
X127341238Y-59000380D01*
X127055523Y-59000380D01*
X126960285Y-58952761D01*
X126912666Y-58905142D01*
X136790133Y-93365580D02*
X136456800Y-92889390D01*
X136218704Y-93365580D02*
X136218704Y-92365580D01*
X136599657Y-92365580D01*
X136694895Y-92413200D01*
X136742514Y-92460819D01*
X136790133Y-92556057D01*
X136790133Y-92698914D01*
X136742514Y-92794152D01*
X136694895Y-92841771D01*
X136599657Y-92889390D01*
X136218704Y-92889390D01*
X137171085Y-92460819D02*
X137218704Y-92413200D01*
X137313942Y-92365580D01*
X137552038Y-92365580D01*
X137647276Y-92413200D01*
X137694895Y-92460819D01*
X137742514Y-92556057D01*
X137742514Y-92651295D01*
X137694895Y-92794152D01*
X137123466Y-93365580D01*
X137742514Y-93365580D01*
X93303033Y-49448980D02*
X92826842Y-49448980D01*
X92826842Y-48448980D01*
X94160176Y-49448980D02*
X93588747Y-49448980D01*
X93874461Y-49448980D02*
X93874461Y-48448980D01*
X93779223Y-48591838D01*
X93683985Y-48687076D01*
X93588747Y-48734695D01*
X67334476Y-110542380D02*
X67334476Y-111256666D01*
X67286857Y-111399523D01*
X67191619Y-111494761D01*
X67048761Y-111542380D01*
X66953523Y-111542380D01*
X68334476Y-111542380D02*
X67763047Y-111542380D01*
X68048761Y-111542380D02*
X68048761Y-110542380D01*
X67953523Y-110685238D01*
X67858285Y-110780476D01*
X67763047Y-110828095D01*
X69286857Y-111542380D02*
X68715428Y-111542380D01*
X69001142Y-111542380D02*
X69001142Y-110542380D01*
X68905904Y-110685238D01*
X68810666Y-110780476D01*
X68715428Y-110828095D01*
X139152380Y-56213333D02*
X139866666Y-56213333D01*
X140009523Y-56260952D01*
X140104761Y-56356190D01*
X140152380Y-56499047D01*
X140152380Y-56594285D01*
X139580952Y-55594285D02*
X139533333Y-55689523D01*
X139485714Y-55737142D01*
X139390476Y-55784761D01*
X139342857Y-55784761D01*
X139247619Y-55737142D01*
X139200000Y-55689523D01*
X139152380Y-55594285D01*
X139152380Y-55403809D01*
X139200000Y-55308571D01*
X139247619Y-55260952D01*
X139342857Y-55213333D01*
X139390476Y-55213333D01*
X139485714Y-55260952D01*
X139533333Y-55308571D01*
X139580952Y-55403809D01*
X139580952Y-55594285D01*
X139628571Y-55689523D01*
X139676190Y-55737142D01*
X139771428Y-55784761D01*
X139961904Y-55784761D01*
X140057142Y-55737142D01*
X140104761Y-55689523D01*
X140152380Y-55594285D01*
X140152380Y-55403809D01*
X140104761Y-55308571D01*
X140057142Y-55260952D01*
X139961904Y-55213333D01*
X139771428Y-55213333D01*
X139676190Y-55260952D01*
X139628571Y-55308571D01*
X139580952Y-55403809D01*
X145716666Y-36492380D02*
X145716666Y-37206666D01*
X145669047Y-37349523D01*
X145573809Y-37444761D01*
X145430952Y-37492380D01*
X145335714Y-37492380D01*
X146097619Y-36492380D02*
X146764285Y-36492380D01*
X146335714Y-37492380D01*
X126242380Y-124031333D02*
X126956666Y-124031333D01*
X127099523Y-124078952D01*
X127194761Y-124174190D01*
X127242380Y-124317047D01*
X127242380Y-124412285D01*
X126242380Y-123078952D02*
X126242380Y-123555142D01*
X126718571Y-123602761D01*
X126670952Y-123555142D01*
X126623333Y-123459904D01*
X126623333Y-123221809D01*
X126670952Y-123126571D01*
X126718571Y-123078952D01*
X126813809Y-123031333D01*
X127051904Y-123031333D01*
X127147142Y-123078952D01*
X127194761Y-123126571D01*
X127242380Y-123221809D01*
X127242380Y-123459904D01*
X127194761Y-123555142D01*
X127147142Y-123602761D01*
X139904380Y-99663333D02*
X140618666Y-99663333D01*
X140761523Y-99710952D01*
X140856761Y-99806190D01*
X140904380Y-99949047D01*
X140904380Y-100044285D01*
X140237714Y-98758571D02*
X140904380Y-98758571D01*
X139856761Y-98996666D02*
X140571047Y-99234761D01*
X140571047Y-98615714D01*
X138942380Y-124031333D02*
X139656666Y-124031333D01*
X139799523Y-124078952D01*
X139894761Y-124174190D01*
X139942380Y-124317047D01*
X139942380Y-124412285D01*
X139037619Y-123602761D02*
X138990000Y-123555142D01*
X138942380Y-123459904D01*
X138942380Y-123221809D01*
X138990000Y-123126571D01*
X139037619Y-123078952D01*
X139132857Y-123031333D01*
X139228095Y-123031333D01*
X139370952Y-123078952D01*
X139942380Y-123650380D01*
X139942380Y-123031333D01*
X145288095Y-119442380D02*
X145288095Y-118442380D01*
X145288095Y-118918571D02*
X145859523Y-118918571D01*
X145859523Y-119442380D02*
X145859523Y-118442380D01*
X146764285Y-118775714D02*
X146764285Y-119442380D01*
X146526190Y-118394761D02*
X146288095Y-119109047D01*
X146907142Y-119109047D01*
X51308095Y-123896380D02*
X51308095Y-122896380D01*
X51308095Y-123372571D02*
X51879523Y-123372571D01*
X51879523Y-123896380D02*
X51879523Y-122896380D01*
X52260476Y-122896380D02*
X52879523Y-122896380D01*
X52546190Y-123277333D01*
X52689047Y-123277333D01*
X52784285Y-123324952D01*
X52831904Y-123372571D01*
X52879523Y-123467809D01*
X52879523Y-123705904D01*
X52831904Y-123801142D01*
X52784285Y-123848761D01*
X52689047Y-123896380D01*
X52403333Y-123896380D01*
X52308095Y-123848761D01*
X52260476Y-123801142D01*
X53848095Y-35504380D02*
X53848095Y-34504380D01*
X53848095Y-34980571D02*
X54419523Y-34980571D01*
X54419523Y-35504380D02*
X54419523Y-34504380D01*
X54848095Y-34599619D02*
X54895714Y-34552000D01*
X54990952Y-34504380D01*
X55229047Y-34504380D01*
X55324285Y-34552000D01*
X55371904Y-34599619D01*
X55419523Y-34694857D01*
X55419523Y-34790095D01*
X55371904Y-34932952D01*
X54800476Y-35504380D01*
X55419523Y-35504380D01*
X140208095Y-32202380D02*
X140208095Y-31202380D01*
X140208095Y-31678571D02*
X140779523Y-31678571D01*
X140779523Y-32202380D02*
X140779523Y-31202380D01*
X141779523Y-32202380D02*
X141208095Y-32202380D01*
X141493809Y-32202380D02*
X141493809Y-31202380D01*
X141398571Y-31345238D01*
X141303333Y-31440476D01*
X141208095Y-31488095D01*
X136421904Y-100020380D02*
X136421904Y-99020380D01*
X136660000Y-99020380D01*
X136802857Y-99068000D01*
X136898095Y-99163238D01*
X136945714Y-99258476D01*
X136993333Y-99448952D01*
X136993333Y-99591809D01*
X136945714Y-99782285D01*
X136898095Y-99877523D01*
X136802857Y-99972761D01*
X136660000Y-100020380D01*
X136421904Y-100020380D01*
X137945714Y-100020380D02*
X137374285Y-100020380D01*
X137660000Y-100020380D02*
X137660000Y-99020380D01*
X137564761Y-99163238D01*
X137469523Y-99258476D01*
X137374285Y-99306095D01*
X60317142Y-125705142D02*
X60269523Y-125752761D01*
X60126666Y-125800380D01*
X60031428Y-125800380D01*
X59888571Y-125752761D01*
X59793333Y-125657523D01*
X59745714Y-125562285D01*
X59698095Y-125371809D01*
X59698095Y-125228952D01*
X59745714Y-125038476D01*
X59793333Y-124943238D01*
X59888571Y-124848000D01*
X60031428Y-124800380D01*
X60126666Y-124800380D01*
X60269523Y-124848000D01*
X60317142Y-124895619D01*
X61269523Y-125800380D02*
X60698095Y-125800380D01*
X60983809Y-125800380D02*
X60983809Y-124800380D01*
X60888571Y-124943238D01*
X60793333Y-125038476D01*
X60698095Y-125086095D01*
X62126666Y-124800380D02*
X61936190Y-124800380D01*
X61840952Y-124848000D01*
X61793333Y-124895619D01*
X61698095Y-125038476D01*
X61650476Y-125228952D01*
X61650476Y-125609904D01*
X61698095Y-125705142D01*
X61745714Y-125752761D01*
X61840952Y-125800380D01*
X62031428Y-125800380D01*
X62126666Y-125752761D01*
X62174285Y-125705142D01*
X62221904Y-125609904D01*
X62221904Y-125371809D01*
X62174285Y-125276571D01*
X62126666Y-125228952D01*
X62031428Y-125181333D01*
X61840952Y-125181333D01*
X61745714Y-125228952D01*
X61698095Y-125276571D01*
X61650476Y-125371809D01*
X93305333Y-52555142D02*
X93257714Y-52602761D01*
X93114857Y-52650380D01*
X93019619Y-52650380D01*
X92876761Y-52602761D01*
X92781523Y-52507523D01*
X92733904Y-52412285D01*
X92686285Y-52221809D01*
X92686285Y-52078952D01*
X92733904Y-51888476D01*
X92781523Y-51793238D01*
X92876761Y-51698000D01*
X93019619Y-51650380D01*
X93114857Y-51650380D01*
X93257714Y-51698000D01*
X93305333Y-51745619D01*
X93781523Y-52650380D02*
X93972000Y-52650380D01*
X94067238Y-52602761D01*
X94114857Y-52555142D01*
X94210095Y-52412285D01*
X94257714Y-52221809D01*
X94257714Y-51840857D01*
X94210095Y-51745619D01*
X94162476Y-51698000D01*
X94067238Y-51650380D01*
X93876761Y-51650380D01*
X93781523Y-51698000D01*
X93733904Y-51745619D01*
X93686285Y-51840857D01*
X93686285Y-52078952D01*
X93733904Y-52174190D01*
X93781523Y-52221809D01*
X93876761Y-52269428D01*
X94067238Y-52269428D01*
X94162476Y-52221809D01*
X94210095Y-52174190D01*
X94257714Y-52078952D01*
X89495333Y-74653142D02*
X89447714Y-74700761D01*
X89304857Y-74748380D01*
X89209619Y-74748380D01*
X89066761Y-74700761D01*
X88971523Y-74605523D01*
X88923904Y-74510285D01*
X88876285Y-74319809D01*
X88876285Y-74176952D01*
X88923904Y-73986476D01*
X88971523Y-73891238D01*
X89066761Y-73796000D01*
X89209619Y-73748380D01*
X89304857Y-73748380D01*
X89447714Y-73796000D01*
X89495333Y-73843619D01*
X90066761Y-74176952D02*
X89971523Y-74129333D01*
X89923904Y-74081714D01*
X89876285Y-73986476D01*
X89876285Y-73938857D01*
X89923904Y-73843619D01*
X89971523Y-73796000D01*
X90066761Y-73748380D01*
X90257238Y-73748380D01*
X90352476Y-73796000D01*
X90400095Y-73843619D01*
X90447714Y-73938857D01*
X90447714Y-73986476D01*
X90400095Y-74081714D01*
X90352476Y-74129333D01*
X90257238Y-74176952D01*
X90066761Y-74176952D01*
X89971523Y-74224571D01*
X89923904Y-74272190D01*
X89876285Y-74367428D01*
X89876285Y-74557904D01*
X89923904Y-74653142D01*
X89971523Y-74700761D01*
X90066761Y-74748380D01*
X90257238Y-74748380D01*
X90352476Y-74700761D01*
X90400095Y-74653142D01*
X90447714Y-74557904D01*
X90447714Y-74367428D01*
X90400095Y-74272190D01*
X90352476Y-74224571D01*
X90257238Y-74176952D01*
X81003742Y-63344966D02*
X81051361Y-63392585D01*
X81098980Y-63535442D01*
X81098980Y-63630680D01*
X81051361Y-63773538D01*
X80956123Y-63868776D01*
X80860885Y-63916395D01*
X80670409Y-63964014D01*
X80527552Y-63964014D01*
X80337076Y-63916395D01*
X80241838Y-63868776D01*
X80146600Y-63773538D01*
X80098980Y-63630680D01*
X80098980Y-63535442D01*
X80146600Y-63392585D01*
X80194219Y-63344966D01*
X80098980Y-63011633D02*
X80098980Y-62344966D01*
X81098980Y-62773538D01*
X89495333Y-71097142D02*
X89447714Y-71144761D01*
X89304857Y-71192380D01*
X89209619Y-71192380D01*
X89066761Y-71144761D01*
X88971523Y-71049523D01*
X88923904Y-70954285D01*
X88876285Y-70763809D01*
X88876285Y-70620952D01*
X88923904Y-70430476D01*
X88971523Y-70335238D01*
X89066761Y-70240000D01*
X89209619Y-70192380D01*
X89304857Y-70192380D01*
X89447714Y-70240000D01*
X89495333Y-70287619D01*
X90352476Y-70192380D02*
X90162000Y-70192380D01*
X90066761Y-70240000D01*
X90019142Y-70287619D01*
X89923904Y-70430476D01*
X89876285Y-70620952D01*
X89876285Y-71001904D01*
X89923904Y-71097142D01*
X89971523Y-71144761D01*
X90066761Y-71192380D01*
X90257238Y-71192380D01*
X90352476Y-71144761D01*
X90400095Y-71097142D01*
X90447714Y-71001904D01*
X90447714Y-70763809D01*
X90400095Y-70668571D01*
X90352476Y-70620952D01*
X90257238Y-70573333D01*
X90066761Y-70573333D01*
X89971523Y-70620952D01*
X89923904Y-70668571D01*
X89876285Y-70763809D01*
X128245142Y-47664666D02*
X128292761Y-47712285D01*
X128340380Y-47855142D01*
X128340380Y-47950380D01*
X128292761Y-48093238D01*
X128197523Y-48188476D01*
X128102285Y-48236095D01*
X127911809Y-48283714D01*
X127768952Y-48283714D01*
X127578476Y-48236095D01*
X127483238Y-48188476D01*
X127388000Y-48093238D01*
X127340380Y-47950380D01*
X127340380Y-47855142D01*
X127388000Y-47712285D01*
X127435619Y-47664666D01*
X127340380Y-46759904D02*
X127340380Y-47236095D01*
X127816571Y-47283714D01*
X127768952Y-47236095D01*
X127721333Y-47140857D01*
X127721333Y-46902761D01*
X127768952Y-46807523D01*
X127816571Y-46759904D01*
X127911809Y-46712285D01*
X128149904Y-46712285D01*
X128245142Y-46759904D01*
X128292761Y-46807523D01*
X128340380Y-46902761D01*
X128340380Y-47140857D01*
X128292761Y-47236095D01*
X128245142Y-47283714D01*
X88009047Y-102202571D02*
X88151904Y-102250190D01*
X88199523Y-102297809D01*
X88247142Y-102393047D01*
X88247142Y-102535904D01*
X88199523Y-102631142D01*
X88151904Y-102678761D01*
X88056666Y-102726380D01*
X87675714Y-102726380D01*
X87675714Y-101726380D01*
X88009047Y-101726380D01*
X88104285Y-101774000D01*
X88151904Y-101821619D01*
X88199523Y-101916857D01*
X88199523Y-102012095D01*
X88151904Y-102107333D01*
X88104285Y-102154952D01*
X88009047Y-102202571D01*
X87675714Y-102202571D01*
X88580476Y-101726380D02*
X89247142Y-101726380D01*
X88580476Y-102726380D01*
X89247142Y-102726380D01*
X90151904Y-102726380D02*
X89580476Y-102726380D01*
X89866190Y-102726380D02*
X89866190Y-101726380D01*
X89770952Y-101869238D01*
X89675714Y-101964476D01*
X89580476Y-102012095D01*
X84699047Y-107005428D02*
X85460952Y-107005428D01*
X85080000Y-107386380D02*
X85080000Y-106624476D01*
M02*
